<svg width="1409" height="57" viewBox="0 0 1409 57" fill="none" xmlns="http://www.w3.org/2000/svg">
<path d="M16.5462 13.16H0V1.07743H48.2533V13.16H31.7841V54.9488H16.5462V13.16Z" fill="#1C1C1C"/>
<path d="M77.4798 40.6344H69.1682V54.9488H53.9303V1.07743H78.5572C83.4313 1.07743 87.664 1.89832 91.2554 3.54012C94.8469 5.13061 97.6174 7.43938 99.567 10.4664C101.517 13.4422 102.491 16.9566 102.491 21.0098C102.491 24.9091 101.568 28.3209 99.7209 31.2454C97.9252 34.1185 95.3343 36.376 91.9481 38.0178L103.569 54.9488H87.2536L77.4798 40.6344ZM87.0996 21.0098C87.0996 18.4958 86.3044 16.5462 84.7139 15.1609C83.1234 13.7757 80.7633 13.083 77.6337 13.083H69.1682V28.8597H77.6337C80.7633 28.8597 83.1234 28.1927 84.7139 26.8587C86.3044 25.4735 87.0996 23.5238 87.0996 21.0098Z" fill="#1C1C1C"/>
<path d="M146.992 44.4823H124.212L119.979 54.9488H104.433L128.214 1.07743H143.221L167.078 54.9488H151.225L146.992 44.4823ZM142.528 33.2463L135.602 16.0075L128.676 33.2463H142.528Z" fill="#1C1C1C"/>
<path d="M197.505 56.0262C191.862 56.0262 186.782 54.8462 182.267 52.4861C177.804 50.0747 174.289 46.7398 171.724 42.4814C169.159 38.223 167.876 33.4002 167.876 28.0131C167.876 22.626 169.159 17.8032 171.724 13.5448C174.289 9.2864 177.804 5.97715 182.267 3.61707C186.782 1.20569 191.862 0 197.505 0C202.431 0 206.869 0.872202 210.819 2.61661C214.77 4.36101 218.053 6.87501 220.67 10.1586L210.973 18.9319C207.484 14.7248 203.252 12.6213 198.275 12.6213C195.35 12.6213 192.734 13.2626 190.425 14.5453C188.168 15.8279 186.398 17.6493 185.115 20.0094C183.883 22.3181 183.268 24.986 183.268 28.0131C183.268 31.0402 183.883 33.7337 185.115 36.0938C186.398 38.4026 188.168 40.1983 190.425 41.4809C192.734 42.7636 195.35 43.4049 198.275 43.4049C203.252 43.4049 207.484 41.3014 210.973 37.0943L220.67 45.8676C218.053 49.1512 214.77 51.6652 210.819 53.4096C206.869 55.154 202.431 56.0262 197.505 56.0262Z" fill="#1C1C1C"/>
<path d="M248.243 35.4012L242.548 41.4809V54.9488H227.464V1.07743H242.548V23.4725L263.404 1.07743H280.181L258.171 24.9347L281.335 54.9488H263.635L248.243 35.4012Z" fill="#1C1C1C"/>
<path d="M331.279 40.6344H322.968V54.9488H307.73V1.07743H332.357C337.231 1.07743 341.464 1.89832 345.055 3.54012C348.646 5.13061 351.417 7.43938 353.367 10.4664C355.316 13.4422 356.291 16.9566 356.291 21.0098C356.291 24.9091 355.368 28.3209 353.521 31.2454C351.725 34.1185 349.134 36.376 345.748 38.0178L357.368 54.9488H341.053L331.279 40.6344ZM340.899 21.0098C340.899 18.4958 340.104 16.5462 338.514 15.1609C336.923 13.7757 334.563 13.083 331.433 13.083H322.968V28.8597H331.433C334.563 28.8597 336.923 28.1927 338.514 26.8587C340.104 25.4735 340.899 23.5238 340.899 21.0098Z" fill="#1C1C1C"/>
<path d="M472.421 43.174V54.9488H364.698V1.07743H472.421V12.8522H379.782V21.9333H472.421V33.3233H379.782V43.174H472.421Z" fill="#1C1C1C"/>
<path d="M513.938 56.0262C508.295 56.0262 503.215 54.8462 498.7 52.4861C494.237 50.0747 490.722 46.7398 488.157 42.4814C485.592 38.223 484.309 33.4002 484.309 28.0131C484.309 22.626 485.592 17.8032 488.157 13.5448C490.722 9.2864 494.237 5.97715 498.7 3.61707C503.215 1.20569 508.295 0 513.938 0C518.864 0 523.302 0.872202 527.252 2.61661C531.203 4.36101 534.486 6.87501 537.103 10.1586L527.406 18.9319C523.917 14.7248 519.685 12.6213 514.708 12.6213C511.783 12.6213 509.167 13.2626 506.858 14.5453C504.601 15.8279 502.83 17.6493 501.548 20.0094C500.316 22.3181 499.701 24.986 499.701 28.0131C499.701 31.0402 500.316 33.7337 501.548 36.0938C502.83 38.4026 504.601 40.1983 506.858 41.4809C509.167 42.7636 511.783 43.4049 514.708 43.4049C519.685 43.4049 523.917 41.3014 527.406 37.0943L537.103 45.8676C534.486 49.1512 531.203 51.6652 527.252 53.4096C523.302 55.154 518.864 56.0262 513.938 56.0262Z" fill="#1C1C1C"/>
<path d="M569.936 56.0262C564.241 56.0262 559.111 54.8205 554.544 52.4091C550.029 49.9977 546.464 46.6628 543.847 42.4044C541.282 38.146 539.999 33.3489 539.999 28.0131C539.999 22.6773 541.282 17.8802 543.847 13.6218C546.464 9.36336 550.029 6.02846 554.544 3.61707C559.111 1.20569 564.241 0 569.936 0C575.631 0 580.736 1.20569 585.251 3.61707C589.817 6.02846 593.383 9.36336 595.948 13.6218C598.565 17.8802 599.873 22.6773 599.873 28.0131C599.873 33.3489 598.565 38.146 595.948 42.4044C593.383 46.6628 589.817 49.9977 585.251 52.4091C580.736 54.8205 575.631 56.0262 569.936 56.0262ZM569.936 43.4049C572.655 43.4049 575.118 42.7636 577.324 41.4809C579.53 40.1983 581.275 38.4026 582.557 36.0938C583.84 33.7337 584.481 31.0402 584.481 28.0131C584.481 24.986 583.84 22.3181 582.557 20.0094C581.275 17.6493 579.53 15.8279 577.324 14.5453C575.118 13.2626 572.655 12.6213 569.936 12.6213C567.217 12.6213 564.754 13.2626 562.548 14.5453C560.342 15.8279 558.598 17.6493 557.315 20.0094C556.032 22.3181 555.391 24.986 555.391 28.0131C555.391 31.0402 556.032 33.7337 557.315 36.0938C558.598 38.4026 560.342 40.1983 562.548 41.4809C564.754 42.7636 567.217 43.4049 569.936 43.4049Z" fill="#1C1C1C"/>
<path d="M631.404 40.6344H623.092V54.9488H607.854V1.07743H632.481C637.355 1.07743 641.588 1.89832 645.179 3.54012C648.771 5.13061 651.541 7.43938 653.491 10.4664C655.44 13.4422 656.415 16.9566 656.415 21.0098C656.415 24.9091 655.492 28.3209 653.645 31.2454C651.849 34.1185 649.258 36.376 645.872 38.0178L657.493 54.9488H641.177L631.404 40.6344ZM641.023 21.0098C641.023 18.4958 640.228 16.5462 638.638 15.1609C637.047 13.7757 634.687 13.083 631.558 13.083H623.092V28.8597H631.558C634.687 28.8597 637.047 28.1927 638.638 26.8587C640.228 25.4735 641.023 23.5238 641.023 21.0098Z" fill="#1C1C1C"/>
<path d="M664.822 1.07743H690.295C696.196 1.07743 701.429 2.18051 705.995 4.38667C710.561 6.59283 714.101 9.7225 716.615 13.7757C719.129 17.8289 720.386 22.5747 720.386 28.0131C720.386 33.4515 719.129 38.1974 716.615 42.2505C714.101 46.3037 710.561 49.4334 705.995 51.6395C701.429 53.8457 696.196 54.9488 690.295 54.9488H664.822V1.07743ZM689.68 42.7893C694.297 42.7893 697.991 41.4809 700.762 38.8643C703.584 36.2477 704.995 32.6306 704.995 28.0131C704.995 23.3956 703.584 19.7785 700.762 17.1619C697.991 14.5453 694.297 13.237 689.68 13.237H680.06V42.7893H689.68Z" fill="#1C1C1C"/>
<path d="M762.267 13.16H745.72V1.07743H793.974V13.16H777.504V54.9488H762.267V13.16Z" fill="#1C1C1C"/>
<path d="M823.2 40.6344H814.888V54.9488H799.651V1.07743H824.278C829.152 1.07743 833.384 1.89832 836.976 3.54012C840.567 5.13061 843.338 7.43938 845.287 10.4664C847.237 13.4422 848.212 16.9566 848.212 21.0098C848.212 24.9091 847.288 28.3209 845.441 31.2454C843.646 34.1185 841.055 36.376 837.668 38.0178L849.289 54.9488H832.974L823.2 40.6344ZM832.82 21.0098C832.82 18.4958 832.025 16.5462 830.434 15.1609C828.844 13.7757 826.484 13.083 823.354 13.083H814.888V28.8597H823.354C826.484 28.8597 828.844 28.1927 830.434 26.8587C832.025 25.4735 832.82 23.5238 832.82 21.0098Z" fill="#1C1C1C"/>
<path d="M892.712 44.4823H869.932L865.7 54.9488H850.154L873.934 1.07743H888.941L912.798 54.9488H896.945L892.712 44.4823ZM888.249 33.2463L881.322 16.0075L874.396 33.2463H888.249Z" fill="#1C1C1C"/>
<path d="M917.118 1.07743H932.356V54.9488H917.118V1.07743Z" fill="#1C1C1C"/>
<path d="M994.452 1.07743V54.9488H981.908L958.127 26.243V54.9488H943.197V1.07743H955.742L979.522 29.7832V1.07743H994.452Z" fill="#1C1C1C"/>
<path d="M1069 26.8587C1072.08 27.9361 1074.49 29.6292 1076.23 31.938C1077.98 34.1955 1078.85 36.9404 1078.85 40.1726C1078.85 44.8928 1076.95 48.5355 1073.16 51.1008C1069.36 53.6661 1063.87 54.9488 1056.69 54.9488H1027.6V1.07743H1055.15C1062.02 1.07743 1067.26 2.36008 1070.85 4.92538C1074.44 7.43938 1076.23 10.8512 1076.23 15.1609C1076.23 17.7262 1075.59 20.035 1074.31 22.0873C1073.08 24.0882 1071.31 25.6787 1069 26.8587ZM1042.68 12.0826V22.472H1053.15C1058.28 22.472 1060.84 20.7276 1060.84 17.2388C1060.84 13.8013 1058.28 12.0826 1053.15 12.0826H1042.68ZM1055.46 43.9436C1060.79 43.9436 1063.46 42.1223 1063.46 38.4795C1063.46 34.8368 1060.79 33.0154 1055.46 33.0154H1042.68V43.9436H1055.46Z" fill="#1C1C1C"/>
<path d="M1220.67 13.16H1204.12V1.07743H1252.38V13.16H1235.91V54.9488H1220.67V13.16Z" fill="#1C1C1C"/>
<path d="M1270.27 13.16H1253.72V1.07743H1301.98V13.16H1285.51V54.9488H1270.27V13.16Z" fill="#1C1C1C"/>
<path d="M1350.91 43.174V54.9488H1307.65V1.07743H1349.91V12.8522H1322.74V21.9333H1346.67V33.3233H1322.74V43.174H1350.91Z" fill="#1C1C1C"/>
<path d="M1382.91 40.6344H1374.6V54.9488H1359.36V1.07743H1383.99C1388.86 1.07743 1393.1 1.89832 1396.69 3.54012C1400.28 5.13061 1403.05 7.43938 1405 10.4664C1406.95 13.4422 1407.92 16.9566 1407.92 21.0098C1407.92 24.9091 1407 28.3209 1405.15 31.2454C1403.36 34.1185 1400.77 36.376 1397.38 38.0178L1409 54.9488H1392.68L1382.91 40.6344ZM1392.53 21.0098C1392.53 18.4958 1391.74 16.5462 1390.14 15.1609C1388.55 13.7757 1386.19 13.083 1383.06 13.083H1374.6V28.8597H1383.06C1386.19 28.8597 1388.55 28.1927 1390.14 26.8587C1391.74 25.4735 1392.53 23.5238 1392.53 21.0098Z" fill="#1C1C1C"/>
<path d="M1194.24 43.1743V54.949H1086.52V1.07764H1194.24V12.8524H1101.6V21.9335H1194.24V33.3235H1101.6V43.1743H1194.24Z" fill="#1C1C1C"/>
</svg>
