<svg width="737" height="30" viewBox="0 0 737 30" fill="none" xmlns="http://www.w3.org/2000/svg">
<path d="M8.64915 6.87909H0V0.5632H25.2233V6.87909H16.6144V28.7232H8.64915V6.87909Z" fill="#1C1C1C"/>
<path d="M40.5008 21.2407H36.1561V28.7232H28.1908V0.5632H41.064C43.6118 0.5632 45.8244 0.992305 47.7017 1.85052C49.579 2.68191 51.0273 3.88877 52.0464 5.47109C53.0655 7.0266 53.5751 8.8637 53.5751 10.9824C53.5751 13.0207 53.0923 14.8041 52.1268 16.3328C51.1882 17.8347 49.8338 19.0147 48.0638 19.8729L54.1383 28.7232H45.6098L40.5008 21.2407ZM45.5294 10.9824C45.5294 9.66828 45.1137 8.64915 44.2823 7.92504C43.4509 7.20092 42.2172 6.83886 40.5812 6.83886H36.1561V15.0857H40.5812C42.2172 15.0857 43.4509 14.7371 44.2823 14.0398C45.1137 13.3157 45.5294 12.2965 45.5294 10.9824Z" fill="#1C1C1C"/>
<path d="M76.8366 23.2521H64.929L62.7164 28.7232H54.5902L67.0209 0.5632H74.8654L87.3363 28.7232H79.0492L76.8366 23.2521ZM74.5034 17.3788L70.8828 8.36755L67.2622 17.3788H74.5034Z" fill="#1C1C1C"/>
<path d="M103.241 29.2864C100.291 29.2864 97.6362 28.6696 95.2761 27.4359C92.9428 26.1754 91.1057 24.4322 89.7648 22.2062C88.4238 19.9802 87.7534 17.4592 87.7534 14.6432C87.7534 11.8272 88.4238 9.30622 89.7648 7.08024C91.1057 4.85425 92.9428 3.12442 95.2761 1.89074C97.6362 0.630247 100.291 0 103.241 0C105.816 0 108.136 0.455924 110.201 1.36777C112.266 2.27962 113.982 3.59376 115.35 5.31018L110.281 9.89624C108.458 7.69707 106.245 6.59749 103.644 6.59749C102.115 6.59749 100.747 6.93273 99.5403 7.60321C98.3603 8.27369 97.435 9.22576 96.7646 10.4594C96.1209 11.6663 95.7991 13.0609 95.7991 14.6432C95.7991 16.2255 96.1209 17.6335 96.7646 18.8672C97.435 20.0741 98.3603 21.0127 99.5403 21.6832C100.747 22.3537 102.115 22.6889 103.644 22.6889C106.245 22.6889 108.458 21.5894 110.281 19.3902L115.35 23.9763C113.982 25.6927 112.266 27.0068 110.201 27.9187C108.136 28.8305 105.816 29.2864 103.241 29.2864Z" fill="#1C1C1C"/>
<path d="M129.763 18.5052L126.786 21.6832V28.7232H118.902V0.5632H126.786V12.2697L137.688 0.5632H146.458L134.953 13.0341L147.062 28.7232H137.809L129.763 18.5052Z" fill="#1C1C1C"/>
<path d="M173.169 21.2407H168.824V28.7232H160.859V0.5632H173.732C176.28 0.5632 178.492 0.992305 180.37 1.85052C182.247 2.68191 183.695 3.88877 184.714 5.47109C185.733 7.0266 186.243 8.8637 186.243 10.9824C186.243 13.0207 185.76 14.8041 184.795 16.3328C183.856 17.8347 182.502 19.0147 180.732 19.8729L186.806 28.7232H178.278L173.169 21.2407ZM178.197 10.9824C178.197 9.66828 177.782 8.64915 176.95 7.92504C176.119 7.20092 174.885 6.83886 173.249 6.83886H168.824V15.0857H173.249C174.885 15.0857 176.119 14.7371 176.95 14.0398C177.782 13.3157 178.197 12.2965 178.197 10.9824Z" fill="#1C1C1C"/>
<path d="M246.947 22.5683V28.7232H190.637V0.5632H246.947V6.71818H198.522V11.4652H246.947V17.419H198.522V22.5683H246.947Z" fill="#1C1C1C"/>
<path d="M268.649 29.2864C265.699 29.2864 263.044 28.6696 260.684 27.4359C258.351 26.1754 256.514 24.4322 255.173 22.2062C253.832 19.9802 253.161 17.4592 253.161 14.6432C253.161 11.8272 253.832 9.30622 255.173 7.08024C256.514 4.85425 258.351 3.12442 260.684 1.89074C263.044 0.630247 265.699 0 268.649 0C271.224 0 273.544 0.455924 275.609 1.36777C277.674 2.27962 279.391 3.59376 280.758 5.31018L275.69 9.89624C273.866 7.69707 271.653 6.59749 269.052 6.59749C267.523 6.59749 266.155 6.93273 264.948 7.60321C263.768 8.27369 262.843 9.22576 262.173 10.4594C261.529 11.6663 261.207 13.0609 261.207 14.6432C261.207 16.2255 261.529 17.6335 262.173 18.8672C262.843 20.0741 263.768 21.0127 264.948 21.6832C266.155 22.3537 267.523 22.6889 269.052 22.6889C271.653 22.6889 273.866 21.5894 275.69 19.3902L280.758 23.9763C279.391 25.6927 277.674 27.0068 275.609 27.9187C273.544 28.8305 271.224 29.2864 268.649 29.2864Z" fill="#1C1C1C"/>
<path d="M297.921 29.2864C294.944 29.2864 292.262 28.6562 289.875 27.3957C287.515 26.1352 285.651 24.3919 284.284 22.166C282.943 19.94 282.272 17.4324 282.272 14.6432C282.272 11.854 282.943 9.34645 284.284 7.12047C285.651 4.89448 287.515 3.15124 289.875 1.89074C292.262 0.630247 294.944 0 297.921 0C300.898 0 303.567 0.630247 305.927 1.89074C308.314 3.15124 310.177 4.89448 311.518 7.12047C312.886 9.34645 313.57 11.854 313.57 14.6432C313.57 17.4324 312.886 19.94 311.518 22.166C310.177 24.3919 308.314 26.1352 305.927 27.3957C303.567 28.6562 300.898 29.2864 297.921 29.2864ZM297.921 22.6889C299.343 22.6889 300.63 22.3537 301.783 21.6832C302.936 21.0127 303.848 20.0741 304.519 18.8672C305.189 17.6335 305.524 16.2255 305.524 14.6432C305.524 13.0609 305.189 11.6663 304.519 10.4594C303.848 9.22576 302.936 8.27369 301.783 7.60321C300.63 6.93273 299.343 6.59749 297.921 6.59749C296.5 6.59749 295.212 6.93273 294.059 7.60321C292.906 8.27369 291.994 9.22576 291.324 10.4594C290.653 11.6663 290.318 13.0609 290.318 14.6432C290.318 16.2255 290.653 17.6335 291.324 18.8672C291.994 20.0741 292.906 21.0127 294.059 21.6832C295.212 22.3537 296.5 22.6889 297.921 22.6889Z" fill="#1C1C1C"/>
<path d="M330.052 21.2407H325.707V28.7232H317.742V0.5632H330.615C333.163 0.5632 335.375 0.992305 337.253 1.85052C339.13 2.68191 340.578 3.88877 341.597 5.47109C342.617 7.0266 343.126 8.8637 343.126 10.9824C343.126 13.0207 342.643 14.8041 341.678 16.3328C340.739 17.8347 339.385 19.0147 337.615 19.8729L343.689 28.7232H335.161L330.052 21.2407ZM335.08 10.9824C335.08 9.66828 334.665 8.64915 333.833 7.92504C333.002 7.20092 331.768 6.83886 330.132 6.83886H325.707V15.0857H330.132C331.768 15.0857 333.002 14.7371 333.833 14.0398C334.665 13.3157 335.08 12.2965 335.08 10.9824Z" fill="#1C1C1C"/>
<path d="M347.521 0.5632H360.836C363.92 0.5632 366.656 1.13981 369.043 2.29303C371.43 3.44625 373.28 5.08221 374.594 7.20092C375.909 9.31963 376.566 11.8004 376.566 14.6432C376.566 17.486 375.909 19.9668 374.594 22.0855C373.28 24.2042 371.43 25.8402 369.043 26.9934C366.656 28.1466 363.92 28.7232 360.836 28.7232H347.521V0.5632ZM360.514 22.3671C362.928 22.3671 364.859 21.6832 366.307 20.3154C367.782 18.9477 368.52 17.0569 368.52 14.6432C368.52 12.2295 367.782 10.3388 366.307 8.97098C364.859 7.60321 362.928 6.91932 360.514 6.91932H355.486V22.3671H360.514Z" fill="#1C1C1C"/>
<path d="M398.457 6.87909H389.808V0.5632H415.032V6.87909H406.423V28.7232H398.457V6.87909Z" fill="#1C1C1C"/>
<path d="M430.309 21.2407H425.964V28.7232H417.999V0.5632H430.872C433.42 0.5632 435.633 0.992305 437.51 1.85052C439.387 2.68191 440.836 3.88877 441.855 5.47109C442.874 7.0266 443.383 8.8637 443.383 10.9824C443.383 13.0207 442.901 14.8041 441.935 16.3328C440.996 17.8347 439.642 19.0147 437.872 19.8729L443.947 28.7232H435.418L430.309 21.2407ZM435.338 10.9824C435.338 9.66828 434.922 8.64915 434.091 7.92504C433.259 7.20092 432.026 6.83886 430.39 6.83886H425.964V15.0857H430.39C432.026 15.0857 433.259 14.7371 434.091 14.0398C434.922 13.3157 435.338 12.2965 435.338 10.9824Z" fill="#1C1C1C"/>
<path d="M466.645 23.2521H454.737L452.525 28.7232H444.399L456.829 0.5632H464.674L477.145 28.7232H468.858L466.645 23.2521ZM464.312 17.3788L460.691 8.36755L457.071 17.3788H464.312Z" fill="#1C1C1C"/>
<path d="M479.403 0.5632H487.368V28.7232H479.403V0.5632Z" fill="#1C1C1C"/>
<path d="M519.827 0.5632V28.7232H513.27L500.839 13.718V28.7232H493.035V0.5632H499.592L512.023 15.5685V0.5632H519.827Z" fill="#1C1C1C"/>
<path d="M558.796 14.0398C560.405 14.603 561.665 15.488 562.577 16.6949C563.489 17.8749 563.945 19.3097 563.945 20.9993C563.945 23.4667 562.953 25.3708 560.968 26.7118C558.984 28.0527 556.114 28.7232 552.359 28.7232H537.153V0.5632H551.555C555.148 0.5632 557.884 1.23368 559.761 2.57463C561.639 3.88877 562.577 5.67223 562.577 7.92504C562.577 9.26599 562.242 10.4728 561.572 11.5456C560.928 12.5916 560.003 13.4229 558.796 14.0398ZM545.038 6.31589V11.7468H550.509C553.191 11.7468 554.532 10.8349 554.532 9.01121C554.532 7.21433 553.191 6.31589 550.509 6.31589H545.038ZM551.716 22.9705C554.505 22.9705 555.899 22.0185 555.899 20.1143C555.899 18.2102 554.505 17.2581 551.716 17.2581H545.038V22.9705H551.716Z" fill="#1C1C1C"/>
<path d="M638.076 6.87909H629.427V0.5632H654.651V6.87909H646.042V28.7232H638.076V6.87909Z" fill="#1C1C1C"/>
<path d="M664.005 6.87909H655.356V0.5632H680.579V6.87909H671.97V28.7232H664.005V6.87909Z" fill="#1C1C1C"/>
<path d="M706.155 22.5683V28.7232H683.547V0.5632H705.632V6.71818H691.431V11.4652H703.943V17.419H691.431V22.5683H706.155Z" fill="#1C1C1C"/>
<path d="M722.885 21.2407H718.54V28.7232H710.575V0.5632H723.448C725.996 0.5632 728.209 0.992305 730.086 1.85052C731.963 2.68191 733.412 3.88877 734.431 5.47109C735.45 7.0266 735.959 8.8637 735.959 10.9824C735.959 13.0207 735.477 14.8041 734.511 16.3328C733.573 17.8347 732.218 19.0147 730.448 19.8729L736.523 28.7232H727.994L722.885 21.2407ZM727.914 10.9824C727.914 9.66828 727.498 8.64915 726.667 7.92504C725.835 7.20092 724.602 6.83886 722.966 6.83886H718.54V15.0857H722.966C724.602 15.0857 725.835 14.7371 726.667 14.0398C727.498 13.3157 727.914 12.2965 727.914 10.9824Z" fill="#1C1C1C"/>
<path d="M624.263 22.5685V28.7235H567.953V0.563477H624.263V6.71845H575.838V11.4654H624.263V17.4193H575.838V22.5685H624.263Z" fill="#1C1C1C"/>
</svg>
