<svg xmlns="http://www.w3.org/2000/svg" width="804" height="29" fill="none" viewBox="0 0 804 29">
    <path fill="#1C1C1C" d="M16.381 8.244c-.754-.612-1.508-1.06-2.262-1.343-.755-.306-1.485-.46-2.192-.46-.896 0-1.626.213-2.192.637-.565.424-.848.978-.848 1.661 0 .472.141.86.424 1.167.283.306.648.577 1.096.813.471.212.99.4 1.555.566.59.165 1.167.341 1.732.53 2.263.754 3.912 1.767 4.95 3.04 1.06 1.249 1.59 2.887 1.59 4.913 0 1.367-.236 2.604-.707 3.712-.448 1.108-1.12 2.062-2.015 2.863-.872.778-1.956 1.379-3.252 1.803-1.273.448-2.722.672-4.348.672-3.37 0-6.492-1.002-9.368-3.005l2.97-5.585c1.037.919 2.062 1.602 3.075 2.05 1.014.448 2.015.672 3.005.672 1.131 0 1.968-.26 2.51-.778.565-.518.848-1.108.848-1.767 0-.4-.07-.743-.212-1.025-.141-.307-.377-.578-.707-.813-.33-.26-.766-.495-1.308-.707-.518-.213-1.155-.448-1.909-.707-.895-.283-1.78-.59-2.651-.92-.848-.353-1.614-.813-2.298-1.378-.66-.566-1.202-1.273-1.626-2.121-.4-.872-.6-1.968-.6-3.288 0-1.32.211-2.51.636-3.57.447-1.084 1.06-2.003 1.838-2.757.801-.778 1.767-1.379 2.898-1.803C8.168.892 9.453.68 10.867.68c1.32 0 2.698.188 4.135.565 1.438.354 2.816.884 4.136 1.591l-2.757 5.408zM22.867 28.076l4.525-26.654h6.858l5.337 14.21 5.303-14.21h6.858l4.524 26.654H49.38l-2.297-15.342-6.293 15.342h-2.757l-5.974-15.342-2.298 15.342h-6.893zM74.624 18.178l-3.11-8.873-3.111 8.873h6.221zm1.838 5.267h-9.898l-1.59 4.63h-7.388L67.73 1.423h7.565L85.44 28.076h-7.388l-1.59-4.631zM102.577 8.244c-.754-.612-1.508-1.06-2.262-1.343-.754-.306-1.485-.46-2.192-.46-.895 0-1.626.213-2.192.637-.565.424-.848.978-.848 1.661 0 .472.141.86.424 1.167.283.306.648.577 1.096.813.471.212.99.4 1.555.566.59.165 1.167.341 1.733.53 2.262.754 3.912 1.767 4.948 3.04 1.061 1.249 1.591 2.887 1.591 4.913 0 1.367-.235 2.604-.707 3.712-.448 1.108-1.119 2.062-2.015 2.863-.872.778-1.956 1.379-3.252 1.803-1.273.448-2.722.672-4.348.672-3.37 0-6.492-1.002-9.368-3.005l2.97-5.585c1.037.919 2.062 1.602 3.075 2.05 1.014.448 2.015.672 3.005.672 1.131 0 1.968-.26 2.51-.778.565-.518.848-1.108.848-1.767 0-.4-.07-.743-.212-1.025-.141-.307-.377-.578-.707-.813-.33-.26-.766-.495-1.308-.707-.518-.213-1.155-.448-1.909-.707-.895-.283-1.779-.59-2.65-.92-.85-.353-1.615-.813-2.299-1.378-.66-.566-1.201-1.273-1.626-2.121-.4-.872-.6-1.968-.6-3.288 0-1.32.212-2.51.636-3.57.447-1.084 1.06-2.003 1.838-2.757.801-.778 1.767-1.379 2.898-1.803C94.365.892 95.65.68 97.064.68c1.32 0 2.698.188 4.135.565 1.438.354 2.817.884 4.136 1.591l-2.757 5.408zM117.194 11.709h10.003V1.422h6.929v26.654h-6.929V17.082h-10.003v10.994h-6.929V1.422h6.929v10.287zM157.098 15.279l-9.721-13.857h8.272l4.948 7.282 4.914-7.282h8.272l-9.757 13.857v12.797h-6.928V15.279zM179.826 14.749c0 1.06.2 2.038.601 2.934.4.895.942 1.673 1.626 2.333.683.66 1.473 1.178 2.368 1.555.919.354 1.885.53 2.899.53 1.013 0 1.967-.176 2.863-.53.919-.377 1.72-.895 2.404-1.555.707-.66 1.261-1.438 1.661-2.333.401-.896.601-1.874.601-2.934s-.2-2.039-.601-2.934c-.4-.896-.954-1.673-1.661-2.333-.684-.66-1.485-1.167-2.404-1.52-.896-.377-1.85-.566-2.863-.566-1.014 0-1.98.189-2.899.566-.895.353-1.685.86-2.368 1.52-.684.66-1.226 1.437-1.626 2.333-.401.895-.601 1.873-.601 2.934zm-7.247 0c0-1.98.365-3.818 1.096-5.515.73-1.72 1.744-3.217 3.04-4.49 1.296-1.272 2.84-2.261 4.631-2.968C183.16 1.045 185.152.68 187.32.68c2.144 0 4.124.365 5.938 1.096 1.815.707 3.37 1.696 4.667 2.969 1.319 1.272 2.344 2.769 3.075 4.49.731 1.696 1.096 3.534 1.096 5.514 0 1.98-.365 3.83-1.096 5.55-.731 1.696-1.756 3.181-3.075 4.454-1.297 1.272-2.852 2.274-4.667 3.004-1.814.707-3.794 1.06-5.938 1.06-2.168 0-4.16-.353-5.974-1.06-1.791-.73-3.335-1.732-4.631-3.004-1.296-1.273-2.31-2.758-3.04-4.454-.731-1.72-1.096-3.57-1.096-5.55zM212.87 1.422v14.493c0 .778.024 1.58.071 2.404.071.801.248 1.532.53 2.192.307.66.778 1.202 1.414 1.626.637.4 1.532.6 2.687.6 1.155 0 2.038-.2 2.651-.6.636-.424 1.108-.966 1.414-1.626.306-.66.483-1.39.53-2.192.071-.825.106-1.626.106-2.404V1.422h6.894V16.87c0 4.147-.955 7.176-2.864 9.085-1.885 1.908-4.795 2.863-8.731 2.863s-6.858-.955-8.767-2.863c-1.909-1.91-2.863-4.938-2.863-9.085V1.422h6.928zM241.165 13.335h1.308c1.367 0 2.416-.283 3.146-.849.731-.565 1.096-1.378 1.096-2.439 0-1.06-.365-1.873-1.096-2.439-.73-.565-1.779-.848-3.146-.848h-1.308v6.575zm15.236 14.74h-8.625l-6.611-10.25v10.25h-6.928V1.423h10.781c1.485 0 2.781.224 3.889.672 1.107.424 2.015 1.013 2.722 1.767.73.754 1.272 1.626 1.626 2.616.377.99.565 2.05.565 3.181 0 2.027-.495 3.677-1.484 4.95-.967 1.248-2.404 2.097-4.313 2.544l8.378 10.924zM277.18 1.422v20.785h8.307v5.869h-15.235V1.422h6.928zM295.464 1.422v26.654h-6.929V1.422h6.929zM299.3 28.076l4.525-26.654h6.857l5.338 14.21 5.303-14.21h6.857l4.525 26.654h-6.893l-2.298-15.342-6.292 15.342h-2.757l-5.974-15.342-2.298 15.342H299.3zM343.492 1.422v26.654h-6.928V1.422h6.928zM358.64 7.29v20.785h-6.928V7.29h-5.692V1.422h18.311V7.29h-5.691zM381.552 8.244c-.754-.612-1.508-1.06-2.262-1.343-.754-.306-1.485-.46-2.192-.46-.895 0-1.626.213-2.192.637-.565.424-.848.978-.848 1.661 0 .472.141.86.424 1.167.283.306.648.577 1.096.813.471.212.99.4 1.555.566.59.165 1.167.341 1.732.53 2.263.754 3.912 1.767 4.949 3.04 1.061 1.249 1.591 2.887 1.591 4.913 0 1.367-.236 2.604-.707 3.712-.448 1.108-1.119 2.062-2.015 2.863-.872.778-1.956 1.379-3.252 1.803-1.272.448-2.722.672-4.348.672-3.37 0-6.492-1.002-9.368-3.005l2.97-5.585c1.037.919 2.062 1.602 3.075 2.05 1.014.448 2.015.672 3.005.672 1.131 0 1.968-.26 2.51-.778.565-.518.848-1.108.848-1.767 0-.4-.071-.743-.212-1.025-.141-.307-.377-.578-.707-.813-.33-.26-.766-.495-1.308-.707-.518-.213-1.155-.448-1.909-.707-.895-.283-1.779-.59-2.651-.92-.848-.353-1.614-.813-2.298-1.378-.66-.566-1.202-1.273-1.626-2.121-.4-.872-.601-1.968-.601-3.288 0-1.32.212-2.51.637-3.57.447-1.084 1.06-2.003 1.838-2.757.801-.778 1.767-1.379 2.898-1.803 1.155-.424 2.44-.636 3.854-.636 1.319 0 2.698.188 4.135.565 1.438.354 2.817.884 4.136 1.591l-2.757 5.408zM434.194 8.244c-.754-.612-1.508-1.06-2.262-1.343-.754-.306-1.485-.46-2.192-.46-.895 0-1.626.213-2.191.637-.566.424-.849.978-.849 1.661 0 .472.142.86.425 1.167.282.306.648.577 1.095.813.472.212.99.4 1.556.566.589.165 1.166.341 1.732.53 2.262.754 3.912 1.767 4.949 3.04 1.06 1.249 1.591 2.887 1.591 4.913 0 1.367-.236 2.604-.707 3.712-.448 1.108-1.12 2.062-2.015 2.863-.872.778-1.956 1.379-3.252 1.803-1.273.448-2.722.672-4.348.672-3.37 0-6.493-1.002-9.368-3.005l2.969-5.585c1.037.919 2.062 1.602 3.076 2.05 1.013.448 2.015.672 3.004.672 1.132 0 1.968-.26 2.51-.778.566-.518.849-1.108.849-1.767 0-.4-.071-.743-.213-1.025-.141-.307-.377-.578-.707-.813-.329-.26-.765-.495-1.307-.707-.519-.213-1.155-.448-1.909-.707-.896-.283-1.78-.59-2.652-.92-.848-.353-1.614-.813-2.297-1.378-.66-.566-1.202-1.273-1.626-2.121-.401-.872-.601-1.968-.601-3.288 0-1.32.212-2.51.636-3.57.448-1.084 1.061-2.003 1.838-2.757.801-.778 1.768-1.379 2.899-1.803 1.155-.424 2.439-.636 3.853-.636 1.32 0 2.698.188 4.136.565 1.437.354 2.816.884 4.136 1.591l-2.758 5.408zM440.681 28.076l4.524-26.654h6.858l5.338 14.21 5.302-14.21h6.858l4.525 26.654h-6.893l-2.298-15.342-6.292 15.342h-2.758l-5.974-15.342-2.297 15.342h-6.893zM492.438 18.178l-3.111-8.873-3.111 8.873h6.222zm1.838 5.267h-9.898l-1.591 4.63h-7.388l10.146-26.653h7.564l10.146 26.654h-7.388l-1.591-4.631zM520.391 8.244c-.755-.612-1.509-1.06-2.263-1.343-.754-.306-1.484-.46-2.191-.46-.896 0-1.627.213-2.192.637-.566.424-.849.978-.849 1.661 0 .472.142.86.425 1.167.282.306.648.577 1.095.813.472.212.99.4 1.556.566.589.165 1.166.341 1.732.53 2.262.754 3.912 1.767 4.949 3.04 1.06 1.249 1.591 2.887 1.591 4.913 0 1.367-.236 2.604-.707 3.712-.448 1.108-1.12 2.062-2.015 2.863-.872.778-1.956 1.379-3.252 1.803-1.273.448-2.722.672-4.348.672-3.37 0-6.493-1.002-9.368-3.005l2.969-5.585c1.037.919 2.062 1.602 3.076 2.05 1.013.448 2.015.672 3.004.672 1.132 0 1.968-.26 2.51-.778.566-.518.849-1.108.849-1.767 0-.4-.071-.743-.212-1.025-.142-.307-.378-.578-.707-.813-.33-.26-.766-.495-1.308-.707-.519-.213-1.155-.448-1.909-.707-.896-.283-1.779-.59-2.651-.92-.849-.353-1.615-.813-2.298-1.378-.66-.566-1.202-1.273-1.626-2.121-.401-.872-.601-1.968-.601-3.288 0-1.32.212-2.51.636-3.57.448-1.084 1.061-2.003 1.838-2.757.802-.778 1.768-1.379 2.899-1.803 1.155-.424 2.439-.636 3.853-.636 1.32 0 2.698.188 4.136.565 1.437.354 2.816.884 4.136 1.591l-2.757 5.408zM535.007 11.709h10.004V1.422h6.928v26.654h-6.928V17.082h-10.004v10.994h-6.928V1.422h6.928v10.287zM574.911 15.279L565.19 1.422h8.272l4.949 7.282 4.913-7.282h8.272l-9.756 13.857v12.797h-6.929V15.279zM597.639 14.749c0 1.06.2 2.038.601 2.934.401.895.943 1.673 1.626 2.333.684.66 1.473 1.178 2.369 1.555.919.354 1.885.53 2.898.53 1.014 0 1.968-.176 2.863-.53.92-.377 1.721-.895 2.404-1.555.707-.66 1.261-1.438 1.662-2.333.4-.896.601-1.874.601-2.934s-.201-2.039-.601-2.934c-.401-.896-.955-1.673-1.662-2.333-.683-.66-1.484-1.167-2.404-1.52-.895-.377-1.849-.566-2.863-.566-1.013 0-1.979.189-2.898.566-.896.353-1.685.86-2.369 1.52-.683.66-1.225 1.437-1.626 2.333-.401.895-.601 1.873-.601 2.934zm-7.247 0c0-1.98.366-3.818 1.096-5.515.731-1.72 1.744-3.217 3.04-4.49 1.296-1.272 2.84-2.261 4.631-2.968 1.815-.731 3.806-1.096 5.974-1.096 2.145 0 4.124.365 5.939 1.096 1.815.707 3.37 1.696 4.666 2.969 1.32 1.272 2.345 2.769 3.075 4.49.731 1.696 1.096 3.534 1.096 5.514 0 1.98-.365 3.83-1.096 5.55-.73 1.696-1.755 3.181-3.075 4.454-1.296 1.272-2.851 2.274-4.666 3.004-1.815.707-3.794 1.06-5.939 1.06-2.168 0-4.159-.353-5.974-1.06-1.791-.73-3.335-1.732-4.631-3.004-1.296-1.273-2.309-2.758-3.04-4.454-.73-1.72-1.096-3.57-1.096-5.55zM630.684 1.422v14.493c0 .778.024 1.58.071 2.404.07.801.247 1.532.53 2.192.306.66.778 1.202 1.414 1.626.636.4 1.532.6 2.686.6 1.155 0 2.039-.2 2.652-.6.636-.424 1.107-.966 1.414-1.626.306-.66.483-1.39.53-2.192.071-.825.106-1.626.106-2.404V1.422h6.893V16.87c0 4.147-.954 7.176-2.863 9.085-1.886 1.908-4.796 2.863-8.732 2.863-3.935 0-6.857-.955-8.766-2.863-1.909-1.91-2.864-4.938-2.864-9.085V1.422h6.929zM658.979 13.335h1.308c1.366 0 2.415-.283 3.146-.849.73-.565 1.096-1.378 1.096-2.439 0-1.06-.366-1.873-1.096-2.439-.731-.565-1.78-.848-3.146-.848h-1.308v6.575zm15.235 14.74h-8.625l-6.61-10.25v10.25h-6.929V1.423h10.782c1.484 0 2.781.224 3.888.672 1.108.424 2.015 1.013 2.722 1.767.731.754 1.273 1.626 1.626 2.616.377.99.566 2.05.566 3.181 0 2.027-.495 3.677-1.485 4.95-.966 1.248-2.404 2.097-4.312 2.544l8.377 10.924zM694.994 1.422v20.785h8.307v5.869h-15.236V1.422h6.929zM713.277 1.422v26.654h-6.928V1.422h6.928zM717.113 28.076l4.525-26.654h6.858l5.338 14.21 5.302-14.21h6.858l4.525 26.654h-6.894l-2.297-15.342-6.292 15.342h-2.758l-5.974-15.342-2.297 15.342h-6.894zM761.306 1.422v26.654h-6.929V1.422h6.929zM776.454 7.29v20.785h-6.929V7.29h-5.691V1.422h18.311V7.29h-5.691zM799.366 8.244c-.755-.612-1.509-1.06-2.263-1.343-.754-.306-1.485-.46-2.192-.46-.895 0-1.626.213-2.191.637-.566.424-.849.978-.849 1.661 0 .472.142.86.425 1.167.282.306.648.577 1.095.813.472.212.99.4 1.556.566.589.165 1.166.341 1.732.53 2.262.754 3.912 1.767 4.949 3.04 1.06 1.249 1.591 2.887 1.591 4.913 0 1.367-.236 2.604-.707 3.712-.448 1.108-1.12 2.062-2.015 2.863-.872.778-1.956 1.379-3.252 1.803-1.273.448-2.722.672-4.348.672-3.37 0-6.493-1.002-9.368-3.005l2.969-5.585c1.037.919 2.062 1.602 3.076 2.05 1.013.448 2.015.672 3.004.672 1.132 0 1.968-.26 2.51-.778.566-.518.849-1.108.849-1.767 0-.4-.071-.743-.212-1.025-.142-.307-.378-.578-.707-.813-.33-.26-.766-.495-1.308-.707-.519-.213-1.155-.448-1.909-.707-.896-.283-1.78-.59-2.651-.92-.849-.353-1.615-.813-2.298-1.378-.66-.566-1.202-1.273-1.626-2.121-.401-.872-.601-1.968-.601-3.288 0-1.32.212-2.51.636-3.57.448-1.084 1.061-2.003 1.838-2.757.802-.778 1.768-1.379 2.899-1.803 1.155-.424 2.439-.636 3.853-.636 1.32 0 2.698.188 4.136.565 1.437.354 2.816.884 4.136 1.591l-2.757 5.408z"/>
</svg>
