<svg width="165" height="48" viewBox="0 0 165 48" fill="none" xmlns="http://www.w3.org/2000/svg">
<path d="M163.637 41.8209C163.637 44.3401 161.553 46.3807 158.977 46.3807H6.48421C3.90881 46.3807 1.81836 44.3401 1.81836 41.8209V5.45764C1.81836 2.93961 3.90881 0.891846 6.48421 0.891846H158.976C161.553 0.891846 163.635 2.93961 163.635 5.45764L163.637 41.8209Z" fill="black"/>
<path d="M158.485 0.94691C161.291 0.94691 163.574 3.17316 163.574 5.90907V41.3636C163.574 44.0995 161.291 46.3258 158.485 46.3258H6.96979C4.16372 46.3258 1.88039 44.0995 1.88039 41.3636V5.90907C1.88039 3.17316 4.16372 0.94691 6.96979 0.94691H158.485ZM158.485 -2.09847e-05H6.96979C3.63797 -2.09847e-05 0.90918 2.66055 0.90918 5.90907V41.3636C0.90918 44.6121 3.63797 47.2727 6.96979 47.2727H158.485C161.817 47.2727 164.546 44.6121 164.546 41.3636V5.90907C164.546 2.66055 161.817 -2.09847e-05 158.485 -2.09847e-05Z" fill="#A6A6A6"/>
<path d="M37.428 23.3809C37.3928 19.5719 40.6268 17.7188 40.7747 17.6325C38.9431 15.029 36.1044 14.6733 35.1068 14.6449C32.7225 14.4003 30.4098 16.0359 29.1953 16.0359C27.9565 16.0359 26.0862 14.6685 24.0704 14.7087C21.4765 14.7477 19.0498 16.212 17.7189 18.4858C14.9722 23.1221 17.0207 29.9353 19.6522 33.6828C20.9686 35.5182 22.5068 37.5674 24.5201 37.4953C26.4898 37.4162 27.2256 36.271 29.6025 36.271C31.9577 36.271 32.6486 37.4953 34.7019 37.4493C36.8159 37.4162 38.1468 35.6056 39.4171 33.7537C40.9383 31.6501 41.5492 29.5783 41.5735 29.472C41.5238 29.4554 37.468 27.9463 37.428 23.3809Z" fill="white"/>
<path d="M33.5492 12.1796C34.6086 10.8879 35.3335 9.13053 35.1322 7.34717C33.5989 7.41335 31.6813 8.38126 30.5771 9.64462C29.6001 10.7579 28.7274 12.5826 28.9528 14.2986C30.6753 14.4239 32.4438 13.4513 33.5492 12.1796Z" fill="white"/>
<path d="M65.9336 37.2318H63.1809L61.673 32.6121H56.4318L54.9954 37.2318H52.3154L57.5082 21.5042H60.7154L65.9336 37.2318ZM61.2185 30.6739L59.8548 26.5671C59.7106 26.1475 59.4403 25.1595 59.0415 23.6042H58.993C58.8342 24.2732 58.5785 25.2612 58.2269 26.5671L56.8875 30.6739H61.2185Z" fill="white"/>
<path d="M79.2872 31.4222C79.2872 33.3509 78.7526 34.8754 77.6835 35.9946C76.7259 36.9909 75.5368 37.4884 74.1174 37.4884C72.5853 37.4884 71.4847 36.9519 70.8144 35.8788H70.7659V41.8529H68.1817V29.6246C68.1817 28.4121 68.149 27.1676 68.0859 25.8913H70.3587L70.5029 27.6888H70.5514C71.4132 26.3344 72.7211 25.6584 74.4762 25.6584C75.8484 25.6584 76.9938 26.1867 77.9102 27.2444C78.829 28.3034 79.2872 29.6955 79.2872 31.4222ZM76.6544 31.5144C76.6544 30.4105 76.3999 29.5005 75.8884 28.7844C75.3296 28.0374 74.5793 27.664 73.6387 27.664C73.0011 27.664 72.4217 27.872 71.9041 28.2821C71.3853 28.6957 71.0459 29.2358 70.8871 29.9047C70.8071 30.2167 70.7671 30.472 70.7671 30.6729V32.5638C70.7671 33.3887 71.0265 34.0848 71.5453 34.6533C72.0641 35.2217 72.7381 35.5054 73.5671 35.5054C74.5405 35.5054 75.2981 35.139 75.8399 34.4086C76.3829 33.6771 76.6544 32.7127 76.6544 31.5144Z" fill="white"/>
<path d="M92.6658 31.4222C92.6658 33.3509 92.1313 34.8754 91.061 35.9946C90.1046 36.9909 88.9155 37.4884 87.4961 37.4884C85.964 37.4884 84.8634 36.9519 84.1943 35.8788H84.1458V41.8529H81.5616V29.6246C81.5616 28.4121 81.5289 27.1676 81.4658 25.8913H83.7385L83.8828 27.6888H83.9313C84.7919 26.3344 86.0998 25.6584 87.8561 25.6584C89.227 25.6584 90.3725 26.1867 91.2913 27.2444C92.2064 28.3034 92.6658 29.6955 92.6658 31.4222ZM90.0331 31.5144C90.0331 30.4105 89.7773 29.5005 89.2658 28.7844C88.707 28.0374 87.9592 27.664 87.0173 27.664C86.3786 27.664 85.8004 27.872 85.2816 28.2821C84.7628 28.6957 84.4246 29.2358 84.2658 29.9047C84.187 30.2167 84.1458 30.472 84.1458 30.6729V32.5638C84.1458 33.3887 84.4052 34.0848 84.9216 34.6533C85.4404 35.2205 86.1143 35.5054 86.9458 35.5054C87.9192 35.5054 88.6767 35.139 89.2186 34.4086C89.7616 33.6771 90.0331 32.7127 90.0331 31.5144Z" fill="white"/>
<path d="M107.623 32.8215C107.623 34.1593 107.147 35.2477 106.19 36.088C105.139 37.0063 103.676 37.4648 101.796 37.4648C100.061 37.4648 98.6691 37.1387 97.6157 36.4851L98.2145 34.385C99.3491 35.0539 100.594 35.3896 101.95 35.3896C102.924 35.3896 103.681 35.1745 104.225 34.7467C104.767 34.3188 105.038 33.7445 105.038 33.0283C105.038 32.3901 104.815 31.8524 104.367 31.4163C103.922 30.9802 103.179 30.5748 102.142 30.2002C99.3175 29.1732 97.9066 27.6687 97.9066 25.6904C97.9066 24.3975 98.4012 23.3374 99.3915 22.5125C100.378 21.6864 101.695 21.2739 103.341 21.2739C104.808 21.2739 106.028 21.5233 107.001 22.0208L106.355 24.0748C105.446 23.5927 104.418 23.3516 103.268 23.3516C102.359 23.3516 101.648 23.5702 101.139 24.0051C100.709 24.3939 100.493 24.8678 100.493 25.4292C100.493 26.0508 100.739 26.5649 101.234 26.9691C101.664 27.3426 102.446 27.7467 103.581 28.1828C104.968 28.7277 105.988 29.3647 106.644 30.095C107.297 30.823 107.623 31.7342 107.623 32.8215Z" fill="white"/>
<path d="M116.168 27.7823H113.319V33.2884C113.319 34.6889 113.821 35.3885 114.827 35.3885C115.289 35.3885 115.672 35.3495 115.975 35.2715L116.046 37.1849C115.537 37.3704 114.867 37.4638 114.037 37.4638C113.016 37.4638 112.219 37.16 111.643 36.5538C111.069 35.9463 110.781 34.9276 110.781 33.4964V27.7799H109.084V25.889H110.781V23.8126L113.319 23.0657V25.889H116.168V27.7823Z" fill="white"/>
<path d="M129.019 31.4683C129.019 33.2115 128.508 34.6427 127.487 35.7618C126.417 36.9141 124.996 37.4885 123.225 37.4885C121.519 37.4885 120.16 36.9366 119.146 35.8328C118.133 34.7289 117.626 33.3356 117.626 31.6562C117.626 29.8988 118.148 28.4594 119.194 27.3402C120.237 26.2199 121.646 25.6597 123.417 25.6597C125.123 25.6597 126.497 26.2116 127.533 27.3166C128.525 28.3885 129.019 29.7724 129.019 31.4683ZM126.338 31.5498C126.338 30.5039 126.109 29.6069 125.645 28.8589C125.103 27.9536 124.328 27.5021 123.325 27.5021C122.286 27.5021 121.497 27.9548 120.955 28.8589C120.491 29.6081 120.262 30.5193 120.262 31.5971C120.262 32.643 120.491 33.54 120.955 34.2869C121.514 35.1922 122.294 35.6437 123.302 35.6437C124.288 35.6437 125.063 35.1828 125.622 34.2633C126.098 33.501 126.338 32.5946 126.338 31.5498Z" fill="white"/>
<path d="M137.419 28.1072C137.164 28.0611 136.891 28.0374 136.605 28.0374C135.696 28.0374 134.993 28.3719 134.498 29.042C134.068 29.6329 133.852 30.3798 133.852 31.2815V37.232H131.269L131.293 29.4627C131.293 28.1556 131.261 26.9655 131.196 25.8924H133.447L133.542 28.0623H133.613C133.886 27.3165 134.316 26.7162 134.905 26.2659C135.481 25.8605 136.103 25.6584 136.773 25.6584C137.012 25.6584 137.228 25.675 137.419 25.7045V28.1072Z" fill="white"/>
<path d="M148.977 31.0251C148.977 31.4766 148.947 31.8571 148.883 32.1679H141.13C141.16 33.2883 141.535 34.1451 142.255 34.736C142.908 35.2643 143.753 35.529 144.79 35.529C145.938 35.529 146.986 35.3506 147.927 34.9925L148.332 36.7416C147.232 37.2096 145.932 37.4424 144.433 37.4424C142.629 37.4424 141.213 36.9247 140.183 35.8907C139.155 34.8566 138.64 33.4679 138.64 31.7259C138.64 30.0158 139.119 28.5918 140.078 27.456C141.081 26.2435 142.438 25.6372 144.144 25.6372C145.821 25.6372 147.09 26.2435 147.952 27.456C148.634 28.4192 148.977 29.6105 148.977 31.0251ZM146.513 30.3716C146.53 29.6247 146.361 28.9794 146.011 28.4346C145.564 27.7338 144.876 27.3839 143.952 27.3839C143.107 27.3839 142.42 27.7255 141.895 28.4109C141.464 28.9558 141.209 29.6093 141.13 30.3704H146.513V30.3716Z" fill="white"/>
<path d="M60.3636 11.8289C60.3636 13.2199 59.9357 14.267 59.0811 14.9702C58.2896 15.619 57.1648 15.944 55.7078 15.944C54.9854 15.944 54.3672 15.9133 53.8496 15.8518V8.25155C54.5248 8.14518 55.252 8.09082 56.0375 8.09082C57.4254 8.09082 58.4714 8.38509 59.1769 8.97364C59.9672 9.639 60.3636 10.5904 60.3636 11.8289ZM59.0242 11.8632C59.0242 10.9615 58.7793 10.2701 58.2896 9.78791C57.7999 9.30691 57.0848 9.06582 56.1429 9.06582C55.7429 9.06582 55.4023 9.09182 55.1199 9.14618V14.9241C55.2763 14.9477 55.5623 14.9584 55.9781 14.9584C56.9502 14.9584 57.7005 14.6948 58.229 14.1677C58.7575 13.6406 59.0242 12.8725 59.0242 11.8632Z" fill="white"/>
<path d="M67.4655 13.0438C67.4655 13.9006 67.2146 14.6026 66.7128 15.1534C66.1867 15.7195 65.4898 16.0019 64.6194 16.0019C63.7807 16.0019 63.1128 15.7313 62.6146 15.1876C62.1176 14.6452 61.8691 13.9609 61.8691 13.136C61.8691 12.2733 62.1249 11.5654 62.6388 11.0158C63.1528 10.4663 63.8437 10.1909 64.714 10.1909C65.5528 10.1909 66.2267 10.4616 66.737 11.004C67.2219 11.5311 67.4655 12.2118 67.4655 13.0438ZM66.1479 13.084C66.1479 12.5699 66.034 12.1291 65.8073 11.7616C65.5407 11.3172 65.1613 11.095 64.6679 11.095C64.1576 11.095 63.7697 11.3172 63.5031 11.7616C63.2752 12.1291 63.1625 12.577 63.1625 13.1065C63.1625 13.6206 63.2764 14.0614 63.5031 14.4289C63.7782 14.8733 64.1613 15.0955 64.6558 15.0955C65.1407 15.0955 65.5213 14.8697 65.7952 14.4171C66.0304 14.0425 66.1479 13.5981 66.1479 13.084Z" fill="white"/>
<path d="M76.9878 10.3044L75.1999 15.8755H74.0363L73.2956 13.4564C73.1078 12.8524 72.955 12.2521 72.8363 11.6564H72.8132C72.7029 12.2686 72.5502 12.8678 72.3538 13.4564L71.5672 15.8755H70.3902L68.709 10.3044H70.0144L70.6605 12.9529C70.8169 13.5793 70.9453 14.1761 71.0484 14.741H71.0714C71.1659 14.2754 71.3223 13.6821 71.5429 12.9647L72.3538 10.3056H73.389L74.1659 12.908C74.3538 13.5426 74.5066 14.1536 74.6241 14.7422H74.6593C74.7453 14.169 74.875 13.558 75.0472 12.908L75.7405 10.3056H76.9878V10.3044Z" fill="white"/>
<path d="M83.5734 15.8753H82.3031V12.6844C82.3031 11.7012 81.9201 11.2095 81.1516 11.2095C80.7746 11.2095 80.4704 11.3443 80.234 11.6149C80.0001 11.8855 79.8813 12.2046 79.8813 12.5698V15.8742H78.611V11.8962C78.611 11.4069 78.5952 10.8763 78.5649 10.3019H79.6813L79.7407 11.1729H79.7758C79.9237 10.9023 80.1443 10.6789 80.434 10.5004C80.7783 10.2924 81.1637 10.1873 81.5855 10.1873C82.1189 10.1873 82.5625 10.3551 82.9152 10.6919C83.354 11.1043 83.5734 11.7201 83.5734 12.5379V15.8753Z" fill="white"/>
<path d="M87.0762 15.8754H85.8071V7.74805H87.0762V15.8754Z" fill="white"/>
<path d="M94.5554 13.0438C94.5554 13.9006 94.3044 14.6026 93.8026 15.1534C93.2766 15.7195 92.5784 16.0019 91.7093 16.0019C90.8693 16.0019 90.2014 15.7313 89.7044 15.1876C89.2075 14.6452 88.959 13.9609 88.959 13.136C88.959 12.2733 89.2147 11.5654 89.7287 11.0158C90.2426 10.4663 90.9335 10.1909 91.8026 10.1909C92.6426 10.1909 93.3153 10.4616 93.8269 11.004C94.3117 11.5311 94.5554 12.2118 94.5554 13.0438ZM93.2366 13.084C93.2366 12.5699 93.1226 12.1291 92.896 11.7616C92.6305 11.3172 92.2499 11.095 91.7578 11.095C91.2463 11.095 90.8584 11.3172 90.5929 11.7616C90.365 12.1291 90.2523 12.577 90.2523 13.1065C90.2523 13.6206 90.3663 14.0614 90.5929 14.4289C90.8681 14.8733 91.2511 15.0955 91.7457 15.0955C92.2305 15.0955 92.6099 14.8697 92.8838 14.4171C93.1202 14.0425 93.2366 13.5981 93.2366 13.084Z" fill="white"/>
<path d="M100.703 15.8755H99.5625L99.468 15.2337H99.4328C99.0425 15.7455 98.4861 16.0019 97.7637 16.0019C97.2243 16.0019 96.788 15.8329 96.4595 15.4973C96.1613 15.1924 96.0122 14.813 96.0122 14.3627C96.0122 13.682 96.3031 13.1632 96.8886 12.8039C97.4728 12.4446 98.2946 12.2686 99.3528 12.2768V12.1728C99.3528 11.4389 98.9577 11.0726 98.1661 11.0726C97.6025 11.0726 97.1055 11.2108 96.6765 11.485L96.4183 10.6719C96.9492 10.3516 97.6049 10.1909 98.3783 10.1909C99.8716 10.1909 100.621 10.9591 100.621 12.4955V14.5471C100.621 15.1037 100.649 15.5469 100.703 15.8755ZM99.3843 13.9609V13.1017C97.9831 13.0781 97.2825 13.4527 97.2825 14.2245C97.2825 14.5152 97.3625 14.7326 97.5261 14.878C97.6898 15.0234 97.8983 15.0955 98.1468 15.0955C98.4255 15.0955 98.6861 15.0092 98.9237 14.8378C99.1625 14.6653 99.3092 14.4466 99.3637 14.1784C99.377 14.1181 99.3843 14.0448 99.3843 13.9609Z" fill="white"/>
<path d="M107.921 15.8754H106.794L106.735 14.9808H106.7C106.34 15.6615 105.726 16.0019 104.864 16.0019C104.176 16.0019 103.603 15.7383 103.148 15.2112C102.693 14.6841 102.467 13.9999 102.467 13.1596C102.467 12.2579 102.713 11.5275 103.207 10.9697C103.686 10.4497 104.273 10.1897 104.971 10.1897C105.738 10.1897 106.275 10.4414 106.581 10.946H106.605V7.74805H107.876V14.3745C107.876 14.917 107.891 15.4169 107.921 15.8754ZM106.605 13.526V12.597C106.605 12.4363 106.593 12.3063 106.57 12.207C106.498 11.9092 106.344 11.6587 106.11 11.4566C105.874 11.2545 105.589 11.1529 105.261 11.1529C104.787 11.1529 104.416 11.336 104.143 11.7036C103.873 12.0711 103.736 12.5403 103.736 13.1135C103.736 13.6642 103.866 14.111 104.126 14.4549C104.401 14.8212 104.772 15.0044 105.236 15.0044C105.653 15.0044 105.987 14.852 106.24 14.5459C106.485 14.2634 106.605 13.923 106.605 13.526Z" fill="white"/>
<path d="M118.785 13.0438C118.785 13.9006 118.534 14.6026 118.033 15.1534C117.507 15.7195 116.811 16.0019 115.939 16.0019C115.102 16.0019 114.434 15.7313 113.934 15.1876C113.437 14.6452 113.189 13.9609 113.189 13.136C113.189 12.2733 113.445 11.5654 113.959 11.0158C114.473 10.4663 115.164 10.1909 116.035 10.1909C116.873 10.1909 117.548 10.4616 118.057 11.004C118.542 11.5311 118.785 12.2118 118.785 13.0438ZM117.469 13.084C117.469 12.5699 117.355 12.1291 117.128 11.7616C116.86 11.3172 116.482 11.095 115.988 11.095C115.479 11.095 115.091 11.3172 114.823 11.7616C114.595 12.1291 114.482 12.577 114.482 13.1065C114.482 13.6206 114.596 14.0614 114.823 14.4289C115.098 14.8733 115.481 15.0955 115.976 15.0955C116.46 15.0955 116.842 14.8697 117.116 14.4171C117.35 14.0425 117.469 13.5981 117.469 13.084Z" fill="white"/>
<path d="M125.616 15.8753H124.347V12.6844C124.347 11.7012 123.964 11.2095 123.194 11.2095C122.817 11.2095 122.513 11.3443 122.277 11.6149C122.042 11.8855 121.925 12.2046 121.925 12.5698V15.8742H120.653V11.8962C120.653 11.4069 120.639 10.8763 120.608 10.3019H121.724L121.783 11.1729H121.818C121.967 10.9023 122.188 10.6789 122.476 10.5004C122.822 10.2924 123.206 10.1873 123.629 10.1873C124.161 10.1873 124.605 10.3551 124.957 10.6919C125.397 11.1043 125.616 11.7201 125.616 12.5379V15.8753Z" fill="white"/>
<path d="M134.165 11.2319H132.766V13.9383C132.766 14.6261 133.015 14.97 133.507 14.97C133.735 14.97 133.924 14.9511 134.073 14.9121L134.106 15.8517C133.855 15.9438 133.525 15.9899 133.119 15.9899C132.617 15.9899 132.227 15.841 131.944 15.5432C131.661 15.2454 131.52 14.7443 131.52 14.0411V11.2319H130.685V10.3042H131.52V9.28311L132.765 8.91675V10.303H134.164V11.2319H134.165Z" fill="white"/>
<path d="M140.89 15.8754H139.618V12.7081C139.618 11.7095 139.235 11.2096 138.468 11.2096C137.879 11.2096 137.476 11.4991 137.256 12.0782C137.218 12.2 137.196 12.3489 137.196 12.5238V15.8742H135.927V7.74805H137.196V11.1056H137.221C137.621 10.4946 138.194 10.1897 138.937 10.1897C139.463 10.1897 139.898 10.3575 140.244 10.6943C140.674 11.1139 140.89 11.7379 140.89 12.5628V15.8754Z" fill="white"/>
<path d="M147.827 12.8263C147.827 13.0484 147.81 13.2352 147.779 13.3876H143.97C143.987 13.9384 144.168 14.3579 144.521 14.6486C144.844 14.9086 145.259 15.0386 145.768 15.0386C146.332 15.0386 146.846 14.9512 147.309 14.7751L147.508 15.6354C146.966 15.8647 146.328 15.9794 145.59 15.9794C144.705 15.9794 144.008 15.7253 143.504 15.2171C142.997 14.7089 142.747 14.027 142.747 13.1714C142.747 12.3311 142.981 11.6314 143.452 11.0736C143.944 10.478 144.61 10.1802 145.45 10.1802C146.271 10.1802 146.896 10.478 147.317 11.0736C147.658 11.5464 147.827 12.1314 147.827 12.8263ZM146.614 12.506C146.624 12.1384 146.541 11.8217 146.368 11.5546C146.148 11.2107 145.812 11.0382 145.357 11.0382C144.943 11.0382 144.605 11.206 144.347 11.5428C144.136 11.8111 144.011 12.1314 143.97 12.506H146.614Z" fill="white"/>
</svg>
