<svg width="1440" height="88" viewBox="0 0 1440 88" fill="none" xmlns="http://www.w3.org/2000/svg">
<mask id="path-1-outside-1" maskUnits="userSpaceOnUse" x="-666" y="15" width="1412" height="59" fill="black">
<rect fill="white" x="-666" y="15" width="1412" height="59"/>
<path d="M-648.454 29.16H-665V17.0774H-616.747V29.16H-633.216V70.9488H-648.454V29.16Z"/>
<path d="M-587.52 56.6344H-595.832V70.9488H-611.07V17.0774H-586.443C-581.569 17.0774 -577.336 17.8983 -573.745 19.5401C-570.153 21.1306 -567.383 23.4394 -565.433 26.4664C-563.483 29.4422 -562.509 32.9566 -562.509 37.0098C-562.509 40.9091 -563.432 44.3209 -565.279 47.2454C-567.075 50.1185 -569.666 52.376 -573.052 54.0178L-561.431 70.9488H-577.746L-587.52 56.6344ZM-577.9 37.0098C-577.9 34.4958 -578.696 32.5462 -580.286 31.1609C-581.877 29.7757 -584.237 29.083 -587.366 29.083H-595.832V44.8597H-587.366C-584.237 44.8597 -581.877 44.1927 -580.286 42.8587C-578.696 41.4735 -577.9 39.5238 -577.9 37.0098Z"/>
<path d="M-518.008 60.4823H-540.788L-545.021 70.9488H-560.567L-536.786 17.0774H-521.779L-497.922 70.9488H-513.775L-518.008 60.4823ZM-522.472 49.2463L-529.398 32.0075L-536.324 49.2463H-522.472Z"/>
<path d="M-467.495 72.0262C-473.138 72.0262 -478.218 70.8462 -482.733 68.4861C-487.196 66.0747 -490.711 62.7398 -493.276 58.4814C-495.841 54.223 -497.124 49.4002 -497.124 44.0131C-497.124 38.626 -495.841 33.8032 -493.276 29.5448C-490.711 25.2864 -487.196 21.9772 -482.733 19.6171C-478.218 17.2057 -473.138 16 -467.495 16C-462.569 16 -458.131 16.8722 -454.181 18.6166C-450.23 20.361 -446.947 22.875 -444.33 26.1586L-454.027 34.9319C-457.516 30.7248 -461.748 28.6213 -466.725 28.6213C-469.65 28.6213 -472.266 29.2626 -474.575 30.5453C-476.832 31.8279 -478.602 33.6493 -479.885 36.0094C-481.117 38.3181 -481.732 40.986 -481.732 44.0131C-481.732 47.0402 -481.117 49.7337 -479.885 52.0938C-478.602 54.4026 -476.832 56.1983 -474.575 57.4809C-472.266 58.7636 -469.65 59.4049 -466.725 59.4049C-461.748 59.4049 -457.516 57.3014 -454.027 53.0943L-444.33 61.8676C-446.947 65.1512 -450.23 67.6652 -454.181 69.4096C-458.131 71.154 -462.569 72.0262 -467.495 72.0262Z"/>
<path d="M-416.757 51.4012L-422.452 57.4809V70.9488H-437.536V17.0774H-422.452V39.4725L-401.596 17.0774H-384.819L-406.829 40.9347L-383.665 70.9488H-401.365L-416.757 51.4012Z"/>
<path d="M-333.721 56.6344H-342.032V70.9488H-357.27V17.0774H-332.643C-327.769 17.0774 -323.536 17.8983 -319.945 19.5401C-316.354 21.1306 -313.583 23.4394 -311.633 26.4664C-309.684 29.4422 -308.709 32.9566 -308.709 37.0098C-308.709 40.9091 -309.632 44.3209 -311.479 47.2454C-313.275 50.1185 -315.866 52.376 -319.252 54.0178L-307.632 70.9488H-323.947L-333.721 56.6344ZM-324.101 37.0098C-324.101 34.4958 -324.896 32.5462 -326.486 31.1609C-328.077 29.7757 -330.437 29.083 -333.567 29.083H-342.032V44.8597H-333.567C-330.437 44.8597 -328.077 44.1927 -326.486 42.8587C-324.896 41.4735 -324.101 39.5238 -324.101 37.0098Z"/>
<path d="M-192.579 59.174V70.9488H-300.302V17.0774H-192.579V28.8522H-285.218V37.9333H-192.579V49.3233H-285.218V59.174H-192.579Z"/>
<path d="M-151.062 72.0262C-156.705 72.0262 -161.785 70.8462 -166.3 68.4861C-170.763 66.0747 -174.278 62.7398 -176.843 58.4814C-179.408 54.223 -180.691 49.4002 -180.691 44.0131C-180.691 38.626 -179.408 33.8032 -176.843 29.5448C-174.278 25.2864 -170.763 21.9772 -166.3 19.6171C-161.785 17.2057 -156.705 16 -151.062 16C-146.136 16 -141.698 16.8722 -137.748 18.6166C-133.797 20.361 -130.514 22.875 -127.897 26.1586L-137.594 34.9319C-141.083 30.7248 -145.315 28.6213 -150.292 28.6213C-153.217 28.6213 -155.833 29.2626 -158.142 30.5453C-160.399 31.8279 -162.17 33.6493 -163.452 36.0094C-164.684 38.3181 -165.299 40.986 -165.299 44.0131C-165.299 47.0402 -164.684 49.7337 -163.452 52.0938C-162.17 54.4026 -160.399 56.1983 -158.142 57.4809C-155.833 58.7636 -153.217 59.4049 -150.292 59.4049C-145.315 59.4049 -141.083 57.3014 -137.594 53.0943L-127.897 61.8676C-130.514 65.1512 -133.797 67.6652 -137.748 69.4096C-141.698 71.154 -146.136 72.0262 -151.062 72.0262Z"/>
<path d="M-95.0638 72.0262C-100.759 72.0262 -105.889 70.8205 -110.456 68.4091C-114.971 65.9977 -118.536 62.6628 -121.153 58.4044C-123.718 54.146 -125.001 49.3489 -125.001 44.0131C-125.001 38.6773 -123.718 33.8802 -121.153 29.6218C-118.536 25.3634 -114.971 22.0285 -110.456 19.6171C-105.889 17.2057 -100.759 16 -95.0638 16C-89.3688 16 -84.2639 17.2057 -79.749 19.6171C-75.1827 22.0285 -71.6169 25.3634 -69.0517 29.6218C-66.4351 33.8802 -65.1268 38.6773 -65.1268 44.0131C-65.1268 49.3489 -66.4351 54.146 -69.0517 58.4044C-71.6169 62.6628 -75.1827 65.9977 -79.749 68.4091C-84.2639 70.8205 -89.3688 72.0262 -95.0638 72.0262ZM-95.0638 59.4049C-92.3446 59.4049 -89.882 58.7636 -87.6758 57.4809C-85.4696 56.1983 -83.7252 54.4026 -82.4425 52.0938C-81.1599 49.7337 -80.5186 47.0402 -80.5186 44.0131C-80.5186 40.986 -81.1599 38.3181 -82.4425 36.0094C-83.7252 33.6493 -85.4696 31.8279 -87.6758 30.5453C-89.882 29.2626 -92.3446 28.6213 -95.0638 28.6213C-97.7831 28.6213 -100.246 29.2626 -102.452 30.5453C-104.658 31.8279 -106.402 33.6493 -107.685 36.0094C-108.968 38.3181 -109.609 40.986 -109.609 44.0131C-109.609 47.0402 -108.968 49.7337 -107.685 52.0938C-106.402 54.4026 -104.658 56.1983 -102.452 57.4809C-100.246 58.7636 -97.7831 59.4049 -95.0638 59.4049Z"/>
<path d="M-33.5964 56.6344H-41.908V70.9488H-57.1459V17.0774H-32.519C-27.645 17.0774 -23.4122 17.8983 -19.8207 19.5401C-16.2293 21.1306 -13.4587 23.4394 -11.5092 26.4664C-9.55951 29.4422 -8.58472 32.9566 -8.58472 37.0098C-8.58472 40.9091 -9.50818 44.3209 -11.3552 47.2454C-13.1509 50.1185 -15.7419 52.376 -19.1281 54.0178L-7.50726 70.9488H-23.8226L-33.5964 56.6344ZM-23.9765 37.0098C-23.9765 34.4958 -24.7717 32.5462 -26.3622 31.1609C-27.9527 29.7757 -30.3128 29.083 -33.4424 29.083H-41.908V44.8597H-33.4424C-30.3128 44.8597 -27.9527 44.1927 -26.3622 42.8587C-24.7717 41.4735 -23.9765 39.5238 -23.9765 37.0098Z"/>
<path d="M-0.178101 17.0774H25.2953C31.1956 17.0774 36.4288 18.1805 40.995 20.3867C45.5613 22.5928 49.1014 25.7225 51.6154 29.7757C54.1294 33.8289 55.3864 38.5747 55.3864 44.0131C55.3864 49.4515 54.1294 54.1974 51.6154 58.2505C49.1014 62.3037 45.5613 65.4334 40.995 67.6395C36.4288 69.8457 31.1956 70.9488 25.2953 70.9488H-0.178101V17.0774ZM24.6797 58.7893C29.2972 58.7893 32.9913 57.4809 35.7618 54.8643C38.5836 52.2477 39.9946 48.6306 39.9946 44.0131C39.9946 39.3956 38.5836 35.7785 35.7618 33.1619C32.9913 30.5453 29.2972 29.237 24.6797 29.237H15.0598V58.7893H24.6797Z"/>
<path d="M97.2665 29.16H80.7203V17.0774H128.974V29.16H112.504V70.9488H97.2665V29.16Z"/>
<path d="M158.2 56.6344H149.888V70.9488H134.651V17.0774H159.278C164.152 17.0774 168.384 17.8983 171.976 19.5401C175.567 21.1306 178.338 23.4394 180.287 26.4664C182.237 29.4422 183.212 32.9566 183.212 37.0098C183.212 40.9091 182.288 44.3209 180.441 47.2454C178.646 50.1185 176.055 52.376 172.668 54.0178L184.289 70.9488H167.974L158.2 56.6344ZM167.82 37.0098C167.82 34.4958 167.025 32.5462 165.434 31.1609C163.844 29.7757 161.484 29.083 158.354 29.083H149.888V44.8597H158.354C161.484 44.8597 163.844 44.1927 165.434 42.8587C167.025 41.4735 167.82 39.5238 167.82 37.0098Z"/>
<path d="M227.712 60.4823H204.932L200.7 70.9488H185.154L208.934 17.0774H223.941L247.798 70.9488H231.945L227.712 60.4823ZM223.249 49.2463L216.322 32.0075L209.396 49.2463H223.249Z"/>
<path d="M252.118 17.0774H267.356V70.9488H252.118V17.0774Z"/>
<path d="M329.452 17.0774V70.9488H316.908L293.127 42.243V70.9488H278.197V17.0774H290.742L314.522 45.7832V17.0774H329.452Z"/>
<path d="M404.001 42.8587C407.079 43.9361 409.49 45.6292 411.235 47.938C412.979 50.1955 413.851 52.9404 413.851 56.1726C413.851 60.8928 411.953 64.5355 408.156 67.1008C404.36 69.6661 398.87 70.9488 391.687 70.9488H362.597V17.0774H390.148C397.023 17.0774 402.256 18.3601 405.848 20.9254C409.439 23.4394 411.235 26.8512 411.235 31.1609C411.235 33.7262 410.594 36.035 409.311 38.0873C408.08 40.0882 406.31 41.6787 404.001 42.8587ZM377.681 28.0826V38.472H388.147C393.278 38.472 395.843 36.7276 395.843 33.2388C395.843 29.8013 393.278 28.0826 388.147 28.0826H377.681ZM390.456 59.9436C395.792 59.9436 398.46 58.1223 398.46 54.4795C398.46 50.8368 395.792 49.0154 390.456 49.0154H377.681V59.9436H390.456Z"/>
<path d="M555.668 29.16H539.122V17.0774H587.375V29.16H570.906V70.9488H555.668V29.16Z"/>
<path d="M605.27 29.16H588.724V17.0774H636.978V29.16H620.508V70.9488H605.27V29.16Z"/>
<path d="M685.906 59.174V70.9488H642.655V17.0774H684.905V28.8522H657.739V37.9333H681.673V49.3233H657.739V59.174H685.906Z"/>
<path d="M717.911 56.6344H709.599V70.9488H694.361V17.0774H718.988C723.862 17.0774 728.095 17.8983 731.687 19.5401C735.278 21.1306 738.048 23.4394 739.998 26.4664C741.948 29.4422 742.923 32.9566 742.923 37.0098C742.923 40.9091 741.999 44.3209 740.152 47.2454C738.356 50.1185 735.765 52.376 732.379 54.0178L744 70.9488H727.685L717.911 56.6344ZM727.531 37.0098C727.531 34.4958 726.735 32.5462 725.145 31.1609C723.554 29.7757 721.194 29.083 718.065 29.083H709.599V44.8597H718.065C721.194 44.8597 723.554 44.1927 725.145 42.8587C726.735 41.4735 727.531 39.5238 727.531 37.0098Z"/>
</mask>
<path d="M-648.454 29.16H-665V17.0774H-616.747V29.16H-633.216V70.9488H-648.454V29.16Z" stroke="white" stroke-width="2" mask="url(#path-1-outside-1)"/>
<path d="M-587.52 56.6344H-595.832V70.9488H-611.07V17.0774H-586.443C-581.569 17.0774 -577.336 17.8983 -573.745 19.5401C-570.153 21.1306 -567.383 23.4394 -565.433 26.4664C-563.483 29.4422 -562.509 32.9566 -562.509 37.0098C-562.509 40.9091 -563.432 44.3209 -565.279 47.2454C-567.075 50.1185 -569.666 52.376 -573.052 54.0178L-561.431 70.9488H-577.746L-587.52 56.6344ZM-577.9 37.0098C-577.9 34.4958 -578.696 32.5462 -580.286 31.1609C-581.877 29.7757 -584.237 29.083 -587.366 29.083H-595.832V44.8597H-587.366C-584.237 44.8597 -581.877 44.1927 -580.286 42.8587C-578.696 41.4735 -577.9 39.5238 -577.9 37.0098Z" stroke="white" stroke-width="2" mask="url(#path-1-outside-1)"/>
<path d="M-518.008 60.4823H-540.788L-545.021 70.9488H-560.567L-536.786 17.0774H-521.779L-497.922 70.9488H-513.775L-518.008 60.4823ZM-522.472 49.2463L-529.398 32.0075L-536.324 49.2463H-522.472Z" stroke="white" stroke-width="2" mask="url(#path-1-outside-1)"/>
<path d="M-467.495 72.0262C-473.138 72.0262 -478.218 70.8462 -482.733 68.4861C-487.196 66.0747 -490.711 62.7398 -493.276 58.4814C-495.841 54.223 -497.124 49.4002 -497.124 44.0131C-497.124 38.626 -495.841 33.8032 -493.276 29.5448C-490.711 25.2864 -487.196 21.9772 -482.733 19.6171C-478.218 17.2057 -473.138 16 -467.495 16C-462.569 16 -458.131 16.8722 -454.181 18.6166C-450.23 20.361 -446.947 22.875 -444.33 26.1586L-454.027 34.9319C-457.516 30.7248 -461.748 28.6213 -466.725 28.6213C-469.65 28.6213 -472.266 29.2626 -474.575 30.5453C-476.832 31.8279 -478.602 33.6493 -479.885 36.0094C-481.117 38.3181 -481.732 40.986 -481.732 44.0131C-481.732 47.0402 -481.117 49.7337 -479.885 52.0938C-478.602 54.4026 -476.832 56.1983 -474.575 57.4809C-472.266 58.7636 -469.65 59.4049 -466.725 59.4049C-461.748 59.4049 -457.516 57.3014 -454.027 53.0943L-444.33 61.8676C-446.947 65.1512 -450.23 67.6652 -454.181 69.4096C-458.131 71.154 -462.569 72.0262 -467.495 72.0262Z" stroke="white" stroke-width="2" mask="url(#path-1-outside-1)"/>
<path d="M-416.757 51.4012L-422.452 57.4809V70.9488H-437.536V17.0774H-422.452V39.4725L-401.596 17.0774H-384.819L-406.829 40.9347L-383.665 70.9488H-401.365L-416.757 51.4012Z" stroke="white" stroke-width="2" mask="url(#path-1-outside-1)"/>
<path d="M-333.721 56.6344H-342.032V70.9488H-357.27V17.0774H-332.643C-327.769 17.0774 -323.536 17.8983 -319.945 19.5401C-316.354 21.1306 -313.583 23.4394 -311.633 26.4664C-309.684 29.4422 -308.709 32.9566 -308.709 37.0098C-308.709 40.9091 -309.632 44.3209 -311.479 47.2454C-313.275 50.1185 -315.866 52.376 -319.252 54.0178L-307.632 70.9488H-323.947L-333.721 56.6344ZM-324.101 37.0098C-324.101 34.4958 -324.896 32.5462 -326.486 31.1609C-328.077 29.7757 -330.437 29.083 -333.567 29.083H-342.032V44.8597H-333.567C-330.437 44.8597 -328.077 44.1927 -326.486 42.8587C-324.896 41.4735 -324.101 39.5238 -324.101 37.0098Z" stroke="white" stroke-width="2" mask="url(#path-1-outside-1)"/>
<path d="M-192.579 59.174V70.9488H-300.302V17.0774H-192.579V28.8522H-285.218V37.9333H-192.579V49.3233H-285.218V59.174H-192.579Z" stroke="white" stroke-width="2" mask="url(#path-1-outside-1)"/>
<path d="M-151.062 72.0262C-156.705 72.0262 -161.785 70.8462 -166.3 68.4861C-170.763 66.0747 -174.278 62.7398 -176.843 58.4814C-179.408 54.223 -180.691 49.4002 -180.691 44.0131C-180.691 38.626 -179.408 33.8032 -176.843 29.5448C-174.278 25.2864 -170.763 21.9772 -166.3 19.6171C-161.785 17.2057 -156.705 16 -151.062 16C-146.136 16 -141.698 16.8722 -137.748 18.6166C-133.797 20.361 -130.514 22.875 -127.897 26.1586L-137.594 34.9319C-141.083 30.7248 -145.315 28.6213 -150.292 28.6213C-153.217 28.6213 -155.833 29.2626 -158.142 30.5453C-160.399 31.8279 -162.17 33.6493 -163.452 36.0094C-164.684 38.3181 -165.299 40.986 -165.299 44.0131C-165.299 47.0402 -164.684 49.7337 -163.452 52.0938C-162.17 54.4026 -160.399 56.1983 -158.142 57.4809C-155.833 58.7636 -153.217 59.4049 -150.292 59.4049C-145.315 59.4049 -141.083 57.3014 -137.594 53.0943L-127.897 61.8676C-130.514 65.1512 -133.797 67.6652 -137.748 69.4096C-141.698 71.154 -146.136 72.0262 -151.062 72.0262Z" stroke="white" stroke-width="2" mask="url(#path-1-outside-1)"/>
<path d="M-95.0638 72.0262C-100.759 72.0262 -105.889 70.8205 -110.456 68.4091C-114.971 65.9977 -118.536 62.6628 -121.153 58.4044C-123.718 54.146 -125.001 49.3489 -125.001 44.0131C-125.001 38.6773 -123.718 33.8802 -121.153 29.6218C-118.536 25.3634 -114.971 22.0285 -110.456 19.6171C-105.889 17.2057 -100.759 16 -95.0638 16C-89.3688 16 -84.2639 17.2057 -79.749 19.6171C-75.1827 22.0285 -71.6169 25.3634 -69.0517 29.6218C-66.4351 33.8802 -65.1268 38.6773 -65.1268 44.0131C-65.1268 49.3489 -66.4351 54.146 -69.0517 58.4044C-71.6169 62.6628 -75.1827 65.9977 -79.749 68.4091C-84.2639 70.8205 -89.3688 72.0262 -95.0638 72.0262ZM-95.0638 59.4049C-92.3446 59.4049 -89.882 58.7636 -87.6758 57.4809C-85.4696 56.1983 -83.7252 54.4026 -82.4425 52.0938C-81.1599 49.7337 -80.5186 47.0402 -80.5186 44.0131C-80.5186 40.986 -81.1599 38.3181 -82.4425 36.0094C-83.7252 33.6493 -85.4696 31.8279 -87.6758 30.5453C-89.882 29.2626 -92.3446 28.6213 -95.0638 28.6213C-97.7831 28.6213 -100.246 29.2626 -102.452 30.5453C-104.658 31.8279 -106.402 33.6493 -107.685 36.0094C-108.968 38.3181 -109.609 40.986 -109.609 44.0131C-109.609 47.0402 -108.968 49.7337 -107.685 52.0938C-106.402 54.4026 -104.658 56.1983 -102.452 57.4809C-100.246 58.7636 -97.7831 59.4049 -95.0638 59.4049Z" stroke="white" stroke-width="2" mask="url(#path-1-outside-1)"/>
<path d="M-33.5964 56.6344H-41.908V70.9488H-57.1459V17.0774H-32.519C-27.645 17.0774 -23.4122 17.8983 -19.8207 19.5401C-16.2293 21.1306 -13.4587 23.4394 -11.5092 26.4664C-9.55951 29.4422 -8.58472 32.9566 -8.58472 37.0098C-8.58472 40.9091 -9.50818 44.3209 -11.3552 47.2454C-13.1509 50.1185 -15.7419 52.376 -19.1281 54.0178L-7.50726 70.9488H-23.8226L-33.5964 56.6344ZM-23.9765 37.0098C-23.9765 34.4958 -24.7717 32.5462 -26.3622 31.1609C-27.9527 29.7757 -30.3128 29.083 -33.4424 29.083H-41.908V44.8597H-33.4424C-30.3128 44.8597 -27.9527 44.1927 -26.3622 42.8587C-24.7717 41.4735 -23.9765 39.5238 -23.9765 37.0098Z" stroke="white" stroke-width="2" mask="url(#path-1-outside-1)"/>
<path d="M-0.178101 17.0774H25.2953C31.1956 17.0774 36.4288 18.1805 40.995 20.3867C45.5613 22.5928 49.1014 25.7225 51.6154 29.7757C54.1294 33.8289 55.3864 38.5747 55.3864 44.0131C55.3864 49.4515 54.1294 54.1974 51.6154 58.2505C49.1014 62.3037 45.5613 65.4334 40.995 67.6395C36.4288 69.8457 31.1956 70.9488 25.2953 70.9488H-0.178101V17.0774ZM24.6797 58.7893C29.2972 58.7893 32.9913 57.4809 35.7618 54.8643C38.5836 52.2477 39.9946 48.6306 39.9946 44.0131C39.9946 39.3956 38.5836 35.7785 35.7618 33.1619C32.9913 30.5453 29.2972 29.237 24.6797 29.237H15.0598V58.7893H24.6797Z" stroke="white" stroke-width="2" mask="url(#path-1-outside-1)"/>
<path d="M97.2665 29.16H80.7203V17.0774H128.974V29.16H112.504V70.9488H97.2665V29.16Z" stroke="white" stroke-width="2" mask="url(#path-1-outside-1)"/>
<path d="M158.2 56.6344H149.888V70.9488H134.651V17.0774H159.278C164.152 17.0774 168.384 17.8983 171.976 19.5401C175.567 21.1306 178.338 23.4394 180.287 26.4664C182.237 29.4422 183.212 32.9566 183.212 37.0098C183.212 40.9091 182.288 44.3209 180.441 47.2454C178.646 50.1185 176.055 52.376 172.668 54.0178L184.289 70.9488H167.974L158.2 56.6344ZM167.82 37.0098C167.82 34.4958 167.025 32.5462 165.434 31.1609C163.844 29.7757 161.484 29.083 158.354 29.083H149.888V44.8597H158.354C161.484 44.8597 163.844 44.1927 165.434 42.8587C167.025 41.4735 167.82 39.5238 167.82 37.0098Z" stroke="white" stroke-width="2" mask="url(#path-1-outside-1)"/>
<path d="M227.712 60.4823H204.932L200.7 70.9488H185.154L208.934 17.0774H223.941L247.798 70.9488H231.945L227.712 60.4823ZM223.249 49.2463L216.322 32.0075L209.396 49.2463H223.249Z" stroke="white" stroke-width="2" mask="url(#path-1-outside-1)"/>
<path d="M252.118 17.0774H267.356V70.9488H252.118V17.0774Z" stroke="white" stroke-width="2" mask="url(#path-1-outside-1)"/>
<path d="M329.452 17.0774V70.9488H316.908L293.127 42.243V70.9488H278.197V17.0774H290.742L314.522 45.7832V17.0774H329.452Z" stroke="white" stroke-width="2" mask="url(#path-1-outside-1)"/>
<path d="M404.001 42.8587C407.079 43.9361 409.49 45.6292 411.235 47.938C412.979 50.1955 413.851 52.9404 413.851 56.1726C413.851 60.8928 411.953 64.5355 408.156 67.1008C404.36 69.6661 398.87 70.9488 391.687 70.9488H362.597V17.0774H390.148C397.023 17.0774 402.256 18.3601 405.848 20.9254C409.439 23.4394 411.235 26.8512 411.235 31.1609C411.235 33.7262 410.594 36.035 409.311 38.0873C408.08 40.0882 406.31 41.6787 404.001 42.8587ZM377.681 28.0826V38.472H388.147C393.278 38.472 395.843 36.7276 395.843 33.2388C395.843 29.8013 393.278 28.0826 388.147 28.0826H377.681ZM390.456 59.9436C395.792 59.9436 398.46 58.1223 398.46 54.4795C398.46 50.8368 395.792 49.0154 390.456 49.0154H377.681V59.9436H390.456Z" stroke="white" stroke-width="2" mask="url(#path-1-outside-1)"/>
<path d="M555.668 29.16H539.122V17.0774H587.375V29.16H570.906V70.9488H555.668V29.16Z" stroke="white" stroke-width="2" mask="url(#path-1-outside-1)"/>
<path d="M605.27 29.16H588.724V17.0774H636.978V29.16H620.508V70.9488H605.27V29.16Z" stroke="white" stroke-width="2" mask="url(#path-1-outside-1)"/>
<path d="M685.906 59.174V70.9488H642.655V17.0774H684.905V28.8522H657.739V37.9333H681.673V49.3233H657.739V59.174H685.906Z" stroke="white" stroke-width="2" mask="url(#path-1-outside-1)"/>
<path d="M717.911 56.6344H709.599V70.9488H694.361V17.0774H718.988C723.862 17.0774 728.095 17.8983 731.687 19.5401C735.278 21.1306 738.048 23.4394 739.998 26.4664C741.948 29.4422 742.923 32.9566 742.923 37.0098C742.923 40.9091 741.999 44.3209 740.152 47.2454C738.356 50.1185 735.765 52.376 732.379 54.0178L744 70.9488H727.685L717.911 56.6344ZM727.531 37.0098C727.531 34.4958 726.735 32.5462 725.145 31.1609C723.554 29.7757 721.194 29.083 718.065 29.083H709.599V44.8597H718.065C721.194 44.8597 723.554 44.1927 725.145 42.8587C726.735 41.4735 727.531 39.5238 727.531 37.0098Z" stroke="white" stroke-width="2" mask="url(#path-1-outside-1)"/>
<path d="M529.743 59.1743V58.6743H529.243H437.104V49.8235H529.243H529.743V49.3235V37.9336V37.4336H529.243H437.104V29.3524H529.243H529.743V28.8524V17.0777V16.5777H529.243H421.52H421.02V17.0777V70.949V71.449H421.52H529.243H529.743V70.949V59.1743Z" stroke="white"/>
<mask id="path-3-outside-2" maskUnits="userSpaceOnUse" x="781" y="15" width="1412" height="59" fill="black">
<rect fill="white" x="781" y="15" width="1412" height="59"/>
<path d="M798.546 29.16H782V17.0774H830.253V29.16H813.784V70.9488H798.546V29.16Z"/>
<path d="M859.48 56.6344H851.168V70.9488H835.93V17.0774H860.557C865.431 17.0774 869.664 17.8983 873.255 19.5401C876.847 21.1306 879.617 23.4394 881.567 26.4664C883.517 29.4422 884.491 32.9566 884.491 37.0098C884.491 40.9091 883.568 44.3209 881.721 47.2454C879.925 50.1185 877.334 52.376 873.948 54.0178L885.569 70.9488H869.254L859.48 56.6344ZM869.1 37.0098C869.1 34.4958 868.304 32.5462 866.714 31.1609C865.123 29.7757 862.763 29.083 859.634 29.083H851.168V44.8597H859.634C862.763 44.8597 865.123 44.1927 866.714 42.8587C868.304 41.4735 869.1 39.5238 869.1 37.0098Z"/>
<path d="M928.992 60.4823H906.212L901.979 70.9488H886.433L910.214 17.0774H925.221L949.078 70.9488H933.225L928.992 60.4823ZM924.528 49.2463L917.602 32.0075L910.676 49.2463H924.528Z"/>
<path d="M979.505 72.0262C973.862 72.0262 968.782 70.8462 964.267 68.4861C959.804 66.0747 956.289 62.7398 953.724 58.4814C951.159 54.223 949.876 49.4002 949.876 44.0131C949.876 38.626 951.159 33.8032 953.724 29.5448C956.289 25.2864 959.804 21.9772 964.267 19.6171C968.782 17.2057 973.862 16 979.505 16C984.431 16 988.869 16.8722 992.819 18.6166C996.77 20.361 1000.05 22.875 1002.67 26.1586L992.973 34.9319C989.484 30.7248 985.252 28.6213 980.275 28.6213C977.35 28.6213 974.734 29.2626 972.425 30.5453C970.168 31.8279 968.398 33.6493 967.115 36.0094C965.883 38.3181 965.268 40.986 965.268 44.0131C965.268 47.0402 965.883 49.7337 967.115 52.0938C968.398 54.4026 970.168 56.1983 972.425 57.4809C974.734 58.7636 977.35 59.4049 980.275 59.4049C985.252 59.4049 989.484 57.3014 992.973 53.0943L1002.67 61.8676C1000.05 65.1512 996.77 67.6652 992.819 69.4096C988.869 71.154 984.431 72.0262 979.505 72.0262Z"/>
<path d="M1030.24 51.4012L1024.55 57.4809V70.9488H1009.46V17.0774H1024.55V39.4725L1045.4 17.0774H1062.18L1040.17 40.9347L1063.34 70.9488H1045.63L1030.24 51.4012Z"/>
<path d="M1113.28 56.6344H1104.97V70.9488H1089.73V17.0774H1114.36C1119.23 17.0774 1123.46 17.8983 1127.06 19.5401C1130.65 21.1306 1133.42 23.4394 1135.37 26.4664C1137.32 29.4422 1138.29 32.9566 1138.29 37.0098C1138.29 40.9091 1137.37 44.3209 1135.52 47.2454C1133.72 50.1185 1131.13 52.376 1127.75 54.0178L1139.37 70.9488H1123.05L1113.28 56.6344ZM1122.9 37.0098C1122.9 34.4958 1122.1 32.5462 1120.51 31.1609C1118.92 29.7757 1116.56 29.083 1113.43 29.083H1104.97V44.8597H1113.43C1116.56 44.8597 1118.92 44.1927 1120.51 42.8587C1122.1 41.4735 1122.9 39.5238 1122.9 37.0098Z"/>
<path d="M1254.42 59.174V70.9488H1146.7V17.0774H1254.42V28.8522H1161.78V37.9333H1254.42V49.3233H1161.78V59.174H1254.42Z"/>
<path d="M1295.94 72.0262C1290.29 72.0262 1285.22 70.8462 1280.7 68.4861C1276.24 66.0747 1272.72 62.7398 1270.16 58.4814C1267.59 54.223 1266.31 49.4002 1266.31 44.0131C1266.31 38.626 1267.59 33.8032 1270.16 29.5448C1272.72 25.2864 1276.24 21.9772 1280.7 19.6171C1285.22 17.2057 1290.29 16 1295.94 16C1300.86 16 1305.3 16.8722 1309.25 18.6166C1313.2 20.361 1316.49 22.875 1319.1 26.1586L1309.41 34.9319C1305.92 30.7248 1301.68 28.6213 1296.71 28.6213C1293.78 28.6213 1291.17 29.2626 1288.86 30.5453C1286.6 31.8279 1284.83 33.6493 1283.55 36.0094C1282.32 38.3181 1281.7 40.986 1281.7 44.0131C1281.7 47.0402 1282.32 49.7337 1283.55 52.0938C1284.83 54.4026 1286.6 56.1983 1288.86 57.4809C1291.17 58.7636 1293.78 59.4049 1296.71 59.4049C1301.68 59.4049 1305.92 57.3014 1309.41 53.0943L1319.1 61.8676C1316.49 65.1512 1313.2 67.6652 1309.25 69.4096C1305.3 71.154 1300.86 72.0262 1295.94 72.0262Z"/>
<path d="M1351.94 72.0262C1346.24 72.0262 1341.11 70.8205 1336.54 68.4091C1332.03 65.9977 1328.46 62.6628 1325.85 58.4044C1323.28 54.146 1322 49.3489 1322 44.0131C1322 38.6773 1323.28 33.8802 1325.85 29.6218C1328.46 25.3634 1332.03 22.0285 1336.54 19.6171C1341.11 17.2057 1346.24 16 1351.94 16C1357.63 16 1362.74 17.2057 1367.25 19.6171C1371.82 22.0285 1375.38 25.3634 1377.95 29.6218C1380.56 33.8802 1381.87 38.6773 1381.87 44.0131C1381.87 49.3489 1380.56 54.146 1377.95 58.4044C1375.38 62.6628 1371.82 65.9977 1367.25 68.4091C1362.74 70.8205 1357.63 72.0262 1351.94 72.0262ZM1351.94 59.4049C1354.66 59.4049 1357.12 58.7636 1359.32 57.4809C1361.53 56.1983 1363.27 54.4026 1364.56 52.0938C1365.84 49.7337 1366.48 47.0402 1366.48 44.0131C1366.48 40.986 1365.84 38.3181 1364.56 36.0094C1363.27 33.6493 1361.53 31.8279 1359.32 30.5453C1357.12 29.2626 1354.66 28.6213 1351.94 28.6213C1349.22 28.6213 1346.75 29.2626 1344.55 30.5453C1342.34 31.8279 1340.6 33.6493 1339.31 36.0094C1338.03 38.3181 1337.39 40.986 1337.39 44.0131C1337.39 47.0402 1338.03 49.7337 1339.31 52.0938C1340.6 54.4026 1342.34 56.1983 1344.55 57.4809C1346.75 58.7636 1349.22 59.4049 1351.94 59.4049Z"/>
<path d="M1413.4 56.6344H1405.09V70.9488H1389.85V17.0774H1414.48C1419.36 17.0774 1423.59 17.8983 1427.18 19.5401C1430.77 21.1306 1433.54 23.4394 1435.49 26.4664C1437.44 29.4422 1438.42 32.9566 1438.42 37.0098C1438.42 40.9091 1437.49 44.3209 1435.64 47.2454C1433.85 50.1185 1431.26 52.376 1427.87 54.0178L1439.49 70.9488H1423.18L1413.4 56.6344ZM1423.02 37.0098C1423.02 34.4958 1422.23 32.5462 1420.64 31.1609C1419.05 29.7757 1416.69 29.083 1413.56 29.083H1405.09V44.8597H1413.56C1416.69 44.8597 1419.05 44.1927 1420.64 42.8587C1422.23 41.4735 1423.02 39.5238 1423.02 37.0098Z"/>
<path d="M1446.82 17.0774H1472.3C1478.2 17.0774 1483.43 18.1805 1487.99 20.3867C1492.56 22.5928 1496.1 25.7225 1498.62 29.7757C1501.13 33.8289 1502.39 38.5747 1502.39 44.0131C1502.39 49.4515 1501.13 54.1974 1498.62 58.2505C1496.1 62.3037 1492.56 65.4334 1487.99 67.6395C1483.43 69.8457 1478.2 70.9488 1472.3 70.9488H1446.82V17.0774ZM1471.68 58.7893C1476.3 58.7893 1479.99 57.4809 1482.76 54.8643C1485.58 52.2477 1486.99 48.6306 1486.99 44.0131C1486.99 39.3956 1485.58 35.7785 1482.76 33.1619C1479.99 30.5453 1476.3 29.237 1471.68 29.237H1462.06V58.7893H1471.68Z"/>
<path d="M1544.27 29.16H1527.72V17.0774H1575.97V29.16H1559.5V70.9488H1544.27V29.16Z"/>
<path d="M1605.2 56.6344H1596.89V70.9488H1581.65V17.0774H1606.28C1611.15 17.0774 1615.38 17.8983 1618.98 19.5401C1622.57 21.1306 1625.34 23.4394 1627.29 26.4664C1629.24 29.4422 1630.21 32.9566 1630.21 37.0098C1630.21 40.9091 1629.29 44.3209 1627.44 47.2454C1625.65 50.1185 1623.05 52.376 1619.67 54.0178L1631.29 70.9488H1614.97L1605.2 56.6344ZM1614.82 37.0098C1614.82 34.4958 1614.02 32.5462 1612.43 31.1609C1610.84 29.7757 1608.48 29.083 1605.35 29.083H1596.89V44.8597H1605.35C1608.48 44.8597 1610.84 44.1927 1612.43 42.8587C1614.02 41.4735 1614.82 39.5238 1614.82 37.0098Z"/>
<path d="M1674.71 60.4823H1651.93L1647.7 70.9488H1632.15L1655.93 17.0774H1670.94L1694.8 70.9488H1678.94L1674.71 60.4823ZM1670.25 49.2463L1663.32 32.0075L1656.4 49.2463H1670.25Z"/>
<path d="M1699.12 17.0774H1714.36V70.9488H1699.12V17.0774Z"/>
<path d="M1776.45 17.0774V70.9488H1763.91L1740.13 42.243V70.9488H1725.2V17.0774H1737.74L1761.52 45.7832V17.0774H1776.45Z"/>
<path d="M1851 42.8587C1854.08 43.9361 1856.49 45.6292 1858.23 47.938C1859.98 50.1955 1860.85 52.9404 1860.85 56.1726C1860.85 60.8928 1858.95 64.5355 1855.16 67.1008C1851.36 69.6661 1845.87 70.9488 1838.69 70.9488H1809.6V17.0774H1837.15C1844.02 17.0774 1849.26 18.3601 1852.85 20.9254C1856.44 23.4394 1858.23 26.8512 1858.23 31.1609C1858.23 33.7262 1857.59 36.035 1856.31 38.0873C1855.08 40.0882 1853.31 41.6787 1851 42.8587ZM1824.68 28.0826V38.472H1835.15C1840.28 38.472 1842.84 36.7276 1842.84 33.2388C1842.84 29.8013 1840.28 28.0826 1835.15 28.0826H1824.68ZM1837.46 59.9436C1842.79 59.9436 1845.46 58.1223 1845.46 54.4795C1845.46 50.8368 1842.79 49.0154 1837.46 49.0154H1824.68V59.9436H1837.46Z"/>
<path d="M2002.67 29.16H1986.12V17.0774H2034.38V29.16H2017.91V70.9488H2002.67V29.16Z"/>
<path d="M2052.27 29.16H2035.72V17.0774H2083.98V29.16H2067.51V70.9488H2052.27V29.16Z"/>
<path d="M2132.91 59.174V70.9488H2089.65V17.0774H2131.91V28.8522H2104.74V37.9333H2128.67V49.3233H2104.74V59.174H2132.91Z"/>
<path d="M2164.91 56.6344H2156.6V70.9488H2141.36V17.0774H2165.99C2170.86 17.0774 2175.1 17.8983 2178.69 19.5401C2182.28 21.1306 2185.05 23.4394 2187 26.4664C2188.95 29.4422 2189.92 32.9566 2189.92 37.0098C2189.92 40.9091 2189 44.3209 2187.15 47.2454C2185.36 50.1185 2182.77 52.376 2179.38 54.0178L2191 70.9488H2174.68L2164.91 56.6344ZM2174.53 37.0098C2174.53 34.4958 2173.74 32.5462 2172.14 31.1609C2170.55 29.7757 2168.19 29.083 2165.06 29.083H2156.6V44.8597H2165.06C2168.19 44.8597 2170.55 44.1927 2172.14 42.8587C2173.74 41.4735 2174.53 39.5238 2174.53 37.0098Z"/>
</mask>
<path d="M798.546 29.16H782V17.0774H830.253V29.16H813.784V70.9488H798.546V29.16Z" stroke="white" stroke-width="2" mask="url(#path-3-outside-2)"/>
<path d="M859.48 56.6344H851.168V70.9488H835.93V17.0774H860.557C865.431 17.0774 869.664 17.8983 873.255 19.5401C876.847 21.1306 879.617 23.4394 881.567 26.4664C883.517 29.4422 884.491 32.9566 884.491 37.0098C884.491 40.9091 883.568 44.3209 881.721 47.2454C879.925 50.1185 877.334 52.376 873.948 54.0178L885.569 70.9488H869.254L859.48 56.6344ZM869.1 37.0098C869.1 34.4958 868.304 32.5462 866.714 31.1609C865.123 29.7757 862.763 29.083 859.634 29.083H851.168V44.8597H859.634C862.763 44.8597 865.123 44.1927 866.714 42.8587C868.304 41.4735 869.1 39.5238 869.1 37.0098Z" stroke="white" stroke-width="2" mask="url(#path-3-outside-2)"/>
<path d="M928.992 60.4823H906.212L901.979 70.9488H886.433L910.214 17.0774H925.221L949.078 70.9488H933.225L928.992 60.4823ZM924.528 49.2463L917.602 32.0075L910.676 49.2463H924.528Z" stroke="white" stroke-width="2" mask="url(#path-3-outside-2)"/>
<path d="M979.505 72.0262C973.862 72.0262 968.782 70.8462 964.267 68.4861C959.804 66.0747 956.289 62.7398 953.724 58.4814C951.159 54.223 949.876 49.4002 949.876 44.0131C949.876 38.626 951.159 33.8032 953.724 29.5448C956.289 25.2864 959.804 21.9772 964.267 19.6171C968.782 17.2057 973.862 16 979.505 16C984.431 16 988.869 16.8722 992.819 18.6166C996.77 20.361 1000.05 22.875 1002.67 26.1586L992.973 34.9319C989.484 30.7248 985.252 28.6213 980.275 28.6213C977.35 28.6213 974.734 29.2626 972.425 30.5453C970.168 31.8279 968.398 33.6493 967.115 36.0094C965.883 38.3181 965.268 40.986 965.268 44.0131C965.268 47.0402 965.883 49.7337 967.115 52.0938C968.398 54.4026 970.168 56.1983 972.425 57.4809C974.734 58.7636 977.35 59.4049 980.275 59.4049C985.252 59.4049 989.484 57.3014 992.973 53.0943L1002.67 61.8676C1000.05 65.1512 996.77 67.6652 992.819 69.4096C988.869 71.154 984.431 72.0262 979.505 72.0262Z" stroke="white" stroke-width="2" mask="url(#path-3-outside-2)"/>
<path d="M1030.24 51.4012L1024.55 57.4809V70.9488H1009.46V17.0774H1024.55V39.4725L1045.4 17.0774H1062.18L1040.17 40.9347L1063.34 70.9488H1045.63L1030.24 51.4012Z" stroke="white" stroke-width="2" mask="url(#path-3-outside-2)"/>
<path d="M1113.28 56.6344H1104.97V70.9488H1089.73V17.0774H1114.36C1119.23 17.0774 1123.46 17.8983 1127.06 19.5401C1130.65 21.1306 1133.42 23.4394 1135.37 26.4664C1137.32 29.4422 1138.29 32.9566 1138.29 37.0098C1138.29 40.9091 1137.37 44.3209 1135.52 47.2454C1133.72 50.1185 1131.13 52.376 1127.75 54.0178L1139.37 70.9488H1123.05L1113.28 56.6344ZM1122.9 37.0098C1122.9 34.4958 1122.1 32.5462 1120.51 31.1609C1118.92 29.7757 1116.56 29.083 1113.43 29.083H1104.97V44.8597H1113.43C1116.56 44.8597 1118.92 44.1927 1120.51 42.8587C1122.1 41.4735 1122.9 39.5238 1122.9 37.0098Z" stroke="white" stroke-width="2" mask="url(#path-3-outside-2)"/>
<path d="M1254.42 59.174V70.9488H1146.7V17.0774H1254.42V28.8522H1161.78V37.9333H1254.42V49.3233H1161.78V59.174H1254.42Z" stroke="white" stroke-width="2" mask="url(#path-3-outside-2)"/>
<path d="M1295.94 72.0262C1290.29 72.0262 1285.22 70.8462 1280.7 68.4861C1276.24 66.0747 1272.72 62.7398 1270.16 58.4814C1267.59 54.223 1266.31 49.4002 1266.31 44.0131C1266.31 38.626 1267.59 33.8032 1270.16 29.5448C1272.72 25.2864 1276.24 21.9772 1280.7 19.6171C1285.22 17.2057 1290.29 16 1295.94 16C1300.86 16 1305.3 16.8722 1309.25 18.6166C1313.2 20.361 1316.49 22.875 1319.1 26.1586L1309.41 34.9319C1305.92 30.7248 1301.68 28.6213 1296.71 28.6213C1293.78 28.6213 1291.17 29.2626 1288.86 30.5453C1286.6 31.8279 1284.83 33.6493 1283.55 36.0094C1282.32 38.3181 1281.7 40.986 1281.7 44.0131C1281.7 47.0402 1282.32 49.7337 1283.55 52.0938C1284.83 54.4026 1286.6 56.1983 1288.86 57.4809C1291.17 58.7636 1293.78 59.4049 1296.71 59.4049C1301.68 59.4049 1305.92 57.3014 1309.41 53.0943L1319.1 61.8676C1316.49 65.1512 1313.2 67.6652 1309.25 69.4096C1305.3 71.154 1300.86 72.0262 1295.94 72.0262Z" stroke="white" stroke-width="2" mask="url(#path-3-outside-2)"/>
<path d="M1351.94 72.0262C1346.24 72.0262 1341.11 70.8205 1336.54 68.4091C1332.03 65.9977 1328.46 62.6628 1325.85 58.4044C1323.28 54.146 1322 49.3489 1322 44.0131C1322 38.6773 1323.28 33.8802 1325.85 29.6218C1328.46 25.3634 1332.03 22.0285 1336.54 19.6171C1341.11 17.2057 1346.24 16 1351.94 16C1357.63 16 1362.74 17.2057 1367.25 19.6171C1371.82 22.0285 1375.38 25.3634 1377.95 29.6218C1380.56 33.8802 1381.87 38.6773 1381.87 44.0131C1381.87 49.3489 1380.56 54.146 1377.95 58.4044C1375.38 62.6628 1371.82 65.9977 1367.25 68.4091C1362.74 70.8205 1357.63 72.0262 1351.94 72.0262ZM1351.94 59.4049C1354.66 59.4049 1357.12 58.7636 1359.32 57.4809C1361.53 56.1983 1363.27 54.4026 1364.56 52.0938C1365.84 49.7337 1366.48 47.0402 1366.48 44.0131C1366.48 40.986 1365.84 38.3181 1364.56 36.0094C1363.27 33.6493 1361.53 31.8279 1359.32 30.5453C1357.12 29.2626 1354.66 28.6213 1351.94 28.6213C1349.22 28.6213 1346.75 29.2626 1344.55 30.5453C1342.34 31.8279 1340.6 33.6493 1339.31 36.0094C1338.03 38.3181 1337.39 40.986 1337.39 44.0131C1337.39 47.0402 1338.03 49.7337 1339.31 52.0938C1340.6 54.4026 1342.34 56.1983 1344.55 57.4809C1346.75 58.7636 1349.22 59.4049 1351.94 59.4049Z" stroke="white" stroke-width="2" mask="url(#path-3-outside-2)"/>
<path d="M1413.4 56.6344H1405.09V70.9488H1389.85V17.0774H1414.48C1419.36 17.0774 1423.59 17.8983 1427.18 19.5401C1430.77 21.1306 1433.54 23.4394 1435.49 26.4664C1437.44 29.4422 1438.42 32.9566 1438.42 37.0098C1438.42 40.9091 1437.49 44.3209 1435.64 47.2454C1433.85 50.1185 1431.26 52.376 1427.87 54.0178L1439.49 70.9488H1423.18L1413.4 56.6344ZM1423.02 37.0098C1423.02 34.4958 1422.23 32.5462 1420.64 31.1609C1419.05 29.7757 1416.69 29.083 1413.56 29.083H1405.09V44.8597H1413.56C1416.69 44.8597 1419.05 44.1927 1420.64 42.8587C1422.23 41.4735 1423.02 39.5238 1423.02 37.0098Z" stroke="white" stroke-width="2" mask="url(#path-3-outside-2)"/>
<path d="M1446.82 17.0774H1472.3C1478.2 17.0774 1483.43 18.1805 1487.99 20.3867C1492.56 22.5928 1496.1 25.7225 1498.62 29.7757C1501.13 33.8289 1502.39 38.5747 1502.39 44.0131C1502.39 49.4515 1501.13 54.1974 1498.62 58.2505C1496.1 62.3037 1492.56 65.4334 1487.99 67.6395C1483.43 69.8457 1478.2 70.9488 1472.3 70.9488H1446.82V17.0774ZM1471.68 58.7893C1476.3 58.7893 1479.99 57.4809 1482.76 54.8643C1485.58 52.2477 1486.99 48.6306 1486.99 44.0131C1486.99 39.3956 1485.58 35.7785 1482.76 33.1619C1479.99 30.5453 1476.3 29.237 1471.68 29.237H1462.06V58.7893H1471.68Z" stroke="white" stroke-width="2" mask="url(#path-3-outside-2)"/>
<path d="M1544.27 29.16H1527.72V17.0774H1575.97V29.16H1559.5V70.9488H1544.27V29.16Z" stroke="white" stroke-width="2" mask="url(#path-3-outside-2)"/>
<path d="M1605.2 56.6344H1596.89V70.9488H1581.65V17.0774H1606.28C1611.15 17.0774 1615.38 17.8983 1618.98 19.5401C1622.57 21.1306 1625.34 23.4394 1627.29 26.4664C1629.24 29.4422 1630.21 32.9566 1630.21 37.0098C1630.21 40.9091 1629.29 44.3209 1627.44 47.2454C1625.65 50.1185 1623.05 52.376 1619.67 54.0178L1631.29 70.9488H1614.97L1605.2 56.6344ZM1614.82 37.0098C1614.82 34.4958 1614.02 32.5462 1612.43 31.1609C1610.84 29.7757 1608.48 29.083 1605.35 29.083H1596.89V44.8597H1605.35C1608.48 44.8597 1610.84 44.1927 1612.43 42.8587C1614.02 41.4735 1614.82 39.5238 1614.82 37.0098Z" stroke="white" stroke-width="2" mask="url(#path-3-outside-2)"/>
<path d="M1674.71 60.4823H1651.93L1647.7 70.9488H1632.15L1655.93 17.0774H1670.94L1694.8 70.9488H1678.94L1674.71 60.4823ZM1670.25 49.2463L1663.32 32.0075L1656.4 49.2463H1670.25Z" stroke="white" stroke-width="2" mask="url(#path-3-outside-2)"/>
<path d="M1699.12 17.0774H1714.36V70.9488H1699.12V17.0774Z" stroke="white" stroke-width="2" mask="url(#path-3-outside-2)"/>
<path d="M1776.45 17.0774V70.9488H1763.91L1740.13 42.243V70.9488H1725.2V17.0774H1737.74L1761.52 45.7832V17.0774H1776.45Z" stroke="white" stroke-width="2" mask="url(#path-3-outside-2)"/>
<path d="M1851 42.8587C1854.08 43.9361 1856.49 45.6292 1858.23 47.938C1859.98 50.1955 1860.85 52.9404 1860.85 56.1726C1860.85 60.8928 1858.95 64.5355 1855.16 67.1008C1851.36 69.6661 1845.87 70.9488 1838.69 70.9488H1809.6V17.0774H1837.15C1844.02 17.0774 1849.26 18.3601 1852.85 20.9254C1856.44 23.4394 1858.23 26.8512 1858.23 31.1609C1858.23 33.7262 1857.59 36.035 1856.31 38.0873C1855.08 40.0882 1853.31 41.6787 1851 42.8587ZM1824.68 28.0826V38.472H1835.15C1840.28 38.472 1842.84 36.7276 1842.84 33.2388C1842.84 29.8013 1840.28 28.0826 1835.15 28.0826H1824.68ZM1837.46 59.9436C1842.79 59.9436 1845.46 58.1223 1845.46 54.4795C1845.46 50.8368 1842.79 49.0154 1837.46 49.0154H1824.68V59.9436H1837.46Z" stroke="white" stroke-width="2" mask="url(#path-3-outside-2)"/>
<path d="M2002.67 29.16H1986.12V17.0774H2034.38V29.16H2017.91V70.9488H2002.67V29.16Z" stroke="white" stroke-width="2" mask="url(#path-3-outside-2)"/>
<path d="M2052.27 29.16H2035.72V17.0774H2083.98V29.16H2067.51V70.9488H2052.27V29.16Z" stroke="white" stroke-width="2" mask="url(#path-3-outside-2)"/>
<path d="M2132.91 59.174V70.9488H2089.65V17.0774H2131.91V28.8522H2104.74V37.9333H2128.67V49.3233H2104.74V59.174H2132.91Z" stroke="white" stroke-width="2" mask="url(#path-3-outside-2)"/>
<path d="M2164.91 56.6344H2156.6V70.9488H2141.36V17.0774H2165.99C2170.86 17.0774 2175.1 17.8983 2178.69 19.5401C2182.28 21.1306 2185.05 23.4394 2187 26.4664C2188.95 29.4422 2189.92 32.9566 2189.92 37.0098C2189.92 40.9091 2189 44.3209 2187.15 47.2454C2185.36 50.1185 2182.77 52.376 2179.38 54.0178L2191 70.9488H2174.68L2164.91 56.6344ZM2174.53 37.0098C2174.53 34.4958 2173.74 32.5462 2172.14 31.1609C2170.55 29.7757 2168.19 29.083 2165.06 29.083H2156.6V44.8597H2165.06C2168.19 44.8597 2170.55 44.1927 2172.14 42.8587C2173.74 41.4735 2174.53 39.5238 2174.53 37.0098Z" stroke="white" stroke-width="2" mask="url(#path-3-outside-2)"/>
</svg>
