<svg xmlns="http://www.w3.org/2000/svg" width="3090" height="54" fill="none" viewBox="0 0 3090 54">
    <path fill="#fff" fill-rule="evenodd" d="M18.6 19.408c-.844-.444-1.533-.955-2.066-1.533-.533-.578-.8-1.311-.8-2.2 0-1.289.533-2.334 1.6-3.134 1.067-.8 2.445-1.2 4.134-1.2 1.333 0 2.71.29 4.133.867 1.017.381 2.033.921 3.049 1.62.406.28.812.584 1.218.914l5.2-10.2c-.411-.221-.826-.433-1.244-.635l-.093-.045c-2.08-1-4.234-1.773-6.463-2.321C24.557.83 21.957.474 19.468.474c-2.667 0-5.09.4-7.267 1.2-2.134.8-3.956 1.934-5.467 3.4-1.467 1.423-2.623 3.156-3.467 5.2-.8 2-1.2 4.245-1.2 6.734 0 2.49.378 4.556 1.133 6.2.8 1.6 1.823 2.934 3.067 4 1.289 1.067 2.733 1.934 4.334 2.6 1.644.623 3.31 1.2 5 1.734 1.422.49 2.622.934 3.6 1.334 1.022.4 1.844.844 2.467 1.333.622.444 1.066.956 1.333 1.533.267.534.4 1.178.4 1.934 0 1.244-.533 2.355-1.6 3.333-1.022.978-2.6 1.467-4.733 1.467-1.867 0-3.756-.422-5.667-1.267-1.529-.675-3.07-1.634-4.627-2.878-.39-.312-.782-.641-1.174-.989L0 47.877c5.423 3.778 11.312 5.667 17.668 5.667 3.066 0 5.8-.422 8.2-1.267 2.444-.8 4.489-1.933 6.133-3.4 1.69-1.51 2.956-3.311 3.8-5.4.89-2.089 1.334-4.422 1.334-7 0-3.823-1-6.912-3-9.267-1.956-2.4-5.067-4.312-9.334-5.734-1.067-.355-2.155-.689-3.267-1-1.066-.311-2.044-.667-2.933-1.067zm12.401 28.35c1.52-1.359 2.652-2.97 3.41-4.844l.005-.013.005-.012c.8-1.88 1.214-4.01 1.214-6.413 0-3.554-.924-6.272-2.644-8.296l-.01-.012-.009-.012c-1.712-2.1-4.533-3.887-8.645-5.258-1.043-.348-2.109-.674-3.197-.978l-.008-.003-.008-.002c-1.124-.328-2.168-.706-3.129-1.139l-.042-.019-.04-.021c-.965-.508-1.8-1.117-2.471-1.844-.823-.891-1.198-2.004-1.198-3.217 0-1.78.771-3.262 2.2-4.334 1.389-1.041 3.108-1.5 5.034-1.5 1.547 0 3.11.335 4.679.97 1.081.407 2.145.967 3.19 1.67L33.049 5.2c-1.977-.948-4.023-1.68-6.14-2.201l-.01-.003-.012-.003c-2.602-.683-5.074-1.018-7.42-1.018-2.514 0-4.756.377-6.744 1.107-1.954.733-3.594 1.76-4.945 3.07-1.305 1.266-2.35 2.821-3.121 4.689-.717 1.795-1.09 3.844-1.09 6.168 0 2.337.354 4.166.986 5.552.715 1.423 1.611 2.583 2.68 3.502 1.162.96 2.467 1.744 3.922 2.353 1.61.609 3.243 1.174 4.897 1.697l.018.006.018.006c1.434.493 2.66.946 3.67 1.359 1.093.428 2.044.93 2.81 1.525.771.558 1.393 1.246 1.785 2.085.387.784.548 1.663.548 2.583 0 1.73-.76 3.22-2.075 4.428-1.414 1.346-3.438 1.872-5.759 1.872-2.099 0-4.193-.476-6.273-1.395-1.59-.703-3.169-1.676-4.736-2.904L1.96 47.384c4.87 3.116 10.096 4.66 15.707 4.66 2.93 0 5.49-.404 7.702-1.182l.016-.005.015-.005c2.28-.746 4.134-1.785 5.6-3.093zM63.568 1.874H50.635L42.1 52.144h13l4.334-28.935 11.267 28.934h5.2L87.77 23.21l4.334 28.934h13L96.57 1.874H83.636l-10 26.801-10.068-26.8zm21.11 1.5L73.64 32.954 62.53 3.374H51.9l-8.024 47.27h9.932l4.977-33.234 12.942 33.233h3.168l13.55-33.039 4.949 33.04h9.932l-8.024-47.27H84.677zm58.504 40.035h-18.667l-3.001 8.734H107.58l19.135-50.269h14.267l19.134 50.27h-13.934l-3-8.735zm4.071 7.234h10.687L139.948 3.374h-12.199l-17.993 47.27h10.688l3-8.735h20.809l3 8.734zm-5.422-15.667h-15.965l7.982-22.768 7.983 22.768zm-7.983-18.234l-5.867 16.734h11.734l-5.867-16.734zm47.319 2.666c-.844-.444-1.533-.955-2.066-1.533-.534-.578-.8-1.311-.8-2.2 0-1.289.533-2.334 1.6-3.134 1.066-.8 2.444-1.2 4.133-1.2 1.333 0 2.711.29 4.134.867 1.016.381 2.032.921 3.048 1.62.406.28.812.584 1.218.914l5.201-10.2c-.412-.221-.827-.433-1.244-.635l-.094-.045c-2.079-1-4.233-1.773-6.463-2.321-2.711-.711-5.311-1.067-7.8-1.067-2.667 0-5.089.4-7.267 1.2-2.133.8-3.956 1.934-5.467 3.4-1.467 1.423-2.622 3.156-3.467 5.2-.8 2-1.2 4.245-1.2 6.734 0 2.49.378 4.556 1.134 6.2.8 1.6 1.822 2.934 3.066 4 1.289 1.067 2.734 1.934 4.334 2.6 1.645.623 3.311 1.2 5 1.734 1.422.49 2.623.934 3.6 1.334 1.023.4 1.845.844 2.467 1.333.622.444 1.067.956 1.334 1.533.266.534.4 1.178.4 1.934 0 1.244-.534 2.355-1.601 3.333-1.022.978-2.6 1.467-4.733 1.467-1.867 0-3.756-.422-5.667-1.267-1.528-.675-3.07-1.634-4.627-2.878-.39-.312-.781-.641-1.173-.989l-5.6 10.534c5.422 3.778 11.311 5.667 17.667 5.667 3.067 0 5.8-.422 8.2-1.267 2.445-.8 4.489-1.933 6.134-3.4 1.689-1.51 2.956-3.311 3.8-5.4.889-2.089 1.333-4.422 1.333-7 0-3.823-1-6.912-3-9.267-1.955-2.4-5.067-4.312-9.333-5.734-1.067-.355-2.156-.689-3.267-1-1.067-.311-2.045-.667-2.934-1.067zm12.401 28.35c1.519-1.359 2.651-2.97 3.409-4.844l.005-.013.006-.012c.8-1.88 1.213-4.01 1.213-6.413 0-3.554-.924-6.272-2.643-8.296l-.01-.012-.01-.012c-1.712-2.1-4.532-3.887-8.645-5.258-1.043-.348-2.108-.674-3.197-.978l-.007-.003-.008-.002c-1.125-.328-2.169-.706-3.129-1.139l-.042-.019-.041-.021c-.965-.508-1.8-1.117-2.471-1.844-.823-.891-1.197-2.004-1.197-3.217 0-1.78.77-3.262 2.2-4.334 1.388-1.041 3.107-1.5 5.033-1.5 1.548 0 3.111.335 4.68.97 1.081.407 2.144.967 3.189 1.67l3.713-7.282c-1.977-.948-4.023-1.68-6.14-2.201l-.011-.003-.011-.003c-2.603-.683-5.074-1.018-7.42-1.018-2.514 0-4.757.377-6.745 1.107-1.954.733-3.594 1.76-4.944 3.07-1.306 1.266-2.349 2.821-3.122 4.688-.717 1.796-1.09 3.845-1.09 6.17 0 2.336.355 4.165.987 5.551.715 1.423 1.611 2.583 2.68 3.502 1.162.96 2.467 1.744 3.921 2.353 1.611.609 3.243 1.174 4.898 1.697l.018.006.018.006c1.434.493 2.659.946 3.67 1.359 1.093.428 2.043.93 2.809 1.525.772.558 1.394 1.246 1.786 2.084.387.785.548 1.664.548 2.584 0 1.73-.761 3.22-2.076 4.429-1.414 1.345-3.437 1.871-5.758 1.871-2.099 0-4.194-.476-6.273-1.395-1.591-.703-3.169-1.676-4.737-2.904l-4.096 7.706c4.869 3.116 10.096 4.66 15.706 4.66 2.931 0 5.491-.404 7.702-1.182l.016-.005.016-.005c2.28-.746 4.134-1.785 5.6-3.093zm24.933-24.983v-19.4h-10.067v47.268h10.067V29.91h21.868v20.734h10.067V3.374h-10.067v19.401h-21.868zm20.368-1.5h-18.868v-19.4h-13.067v50.268h13.067V31.41h18.868v20.734h13.067V1.874h-13.067v19.401zm57.892 6.26v23.108h10.067v-23.11l17.01-24.159h-11.912l-10.06 14.91-10.133-14.91h-11.921l16.949 24.161zm-1.5.474v24.134h13.067V28.01l18.401-26.135h-15.601l-9.267 13.734-9.333-13.734h-15.601l18.334 26.135zm50.971 13.258l-.021-.009c-1.856-.781-3.502-1.86-4.927-3.236-1.431-1.383-2.563-3.009-3.394-4.867-.849-1.897-1.264-3.952-1.264-6.146s.415-4.25 1.264-6.146c.831-1.858 1.963-3.485 3.394-4.867 1.43-1.38 3.083-2.442 4.949-3.18 1.915-.784 3.928-1.175 6.027-1.175 2.094 0 4.085.39 5.96 1.176 1.901.734 3.574 1.79 5.006 3.17 1.477 1.381 2.636 3.01 3.47 4.876.849 1.896 1.264 3.952 1.264 6.146s-.415 4.249-1.264 6.146c-.834 1.865-1.993 3.494-3.47 4.876-1.43 1.378-3.1 2.455-4.997 3.233l-.009.003-.009.004c-1.874.74-3.862 1.105-5.951 1.105-2.09 0-4.095-.365-6.006-1.1l-.022-.009zm15.961-4.325c1.334-1.244 2.378-2.71 3.134-4.4.755-1.689 1.133-3.533 1.133-5.533 0-2-.378-3.845-1.133-5.534-.756-1.689-1.8-3.155-3.134-4.4-1.289-1.244-2.8-2.2-4.533-2.867-1.689-.71-3.489-1.066-5.4-1.066-1.912 0-3.734.355-5.467 1.066-1.689.667-3.178 1.623-4.467 2.867-1.289 1.245-2.311 2.711-3.067 4.4-.755 1.69-1.133 3.534-1.133 5.534s.378 3.844 1.133 5.533c.756 1.69 1.778 3.156 3.067 4.4 1.289 1.245 2.778 2.223 4.467 2.934 1.733.667 3.555 1 5.467 1 1.911 0 3.711-.333 5.4-1 1.733-.711 3.244-1.69 4.533-2.933zm-34.287-19.747l-.003.006c-1.292 3-1.944 6.263-1.944 9.808 0 3.542.652 6.828 1.945 9.875 1.302 3.024 3.103 5.66 5.406 7.922 2.294 2.252 5.034 4.035 8.238 5.344 3.228 1.255 6.792 1.893 10.712 1.893 3.874 0 7.417-.637 10.647-1.894 3.251-1.31 6.011-3.093 8.303-5.343l.009-.01c2.344-2.26 4.164-4.894 5.463-7.912 1.293-3.047 1.945-6.333 1.945-9.875 0-3.545-.653-6.808-1.944-9.808l-.003-.006c-1.301-3.063-3.12-5.717-5.461-7.974l-.009-.01c-2.29-2.247-5.047-4.007-8.294-5.272l-.008-.003-.008-.003c-3.228-1.3-6.769-1.959-10.64-1.959-3.918 0-7.481.66-10.707 1.959l-.01.003c-3.202 1.264-5.94 3.025-8.233 5.276-2.3 2.258-4.101 4.914-5.404 7.983zm50.155 20.28c-1.378 3.2-3.312 6.001-5.801 8.401-2.444 2.4-5.378 4.29-8.8 5.667-3.422 1.333-7.156 2-11.2 2-4.089 0-7.845-.667-11.267-2-3.378-1.378-6.29-3.267-8.734-5.667-2.445-2.4-4.356-5.2-5.734-8.4-1.378-3.245-2.066-6.734-2.066-10.467 0-3.734.688-7.2 2.066-10.4 1.378-3.245 3.289-6.068 5.734-8.468 2.444-2.4 5.356-4.267 8.734-5.6 3.422-1.378 7.178-2.067 11.267-2.067 4.044 0 7.778.69 11.2 2.067 3.422 1.333 6.356 3.2 8.8 5.6 2.489 2.4 4.423 5.223 5.801 8.467 1.378 3.2 2.066 6.667 2.066 10.4 0 3.734-.688 7.223-2.066 10.468zm22.521-3.733c-.089-1.555-.133-3.066-.133-4.533V1.874h-13.068V31.01c0 7.822 1.8 13.534 5.401 17.134 3.6 3.6 9.111 5.4 16.534 5.4 7.422 0 12.911-1.8 16.467-5.4 3.6-3.6 5.4-9.312 5.4-17.134V1.874h-13V29.21c0 1.466-.067 2.978-.2 4.533-.089 1.512-.423 2.89-1 4.134-.578 1.244-1.467 2.267-2.667 3.067-1.156.755-2.823 1.133-5 1.133-2.178 0-3.867-.378-5.067-1.133-1.2-.8-2.089-1.823-2.667-3.067-.533-1.245-.867-2.622-1-4.134zm18.897.108c-.101 1.673-.474 3.23-1.136 4.657-.7 1.508-1.778 2.739-3.195 3.684l-.011.007c-1.503.983-3.506 1.378-5.821 1.378-2.321 0-4.331-.397-5.866-1.364l-.017-.01-.016-.011c-1.418-.945-2.496-2.176-3.196-3.684l-.009-.02-.009-.02c-.603-1.407-.97-2.942-1.115-4.593l-.002-.023-.002-.023c-.09-1.583-.135-3.122-.135-4.62V3.375h-10.068V31.01c0 7.633 1.762 12.874 4.961 16.073 3.212 3.212 8.267 4.961 15.474 4.961 7.208 0 12.235-1.75 15.4-4.954l.006-.007c3.2-3.2 4.961-8.44 4.961-16.073V3.374h-10V29.21c0 1.506-.069 3.053-.204 4.641zm32.834-8.008v-15.4h3.966c2.758 0 5.112.566 6.852 1.913 1.802 1.396 2.649 3.4 2.649 5.787 0 2.386-.847 4.39-2.649 5.786-1.74 1.347-4.094 1.914-6.852 1.914h-3.966zm16.1-22.7c-2.089-.845-4.533-1.268-7.333-1.268h-20.334v50.27h13.067V32.808l12.467 19.334h16.267l-15.8-20.6c.54-.127 1.059-.271 1.559-.432 2.834-.91 5.025-2.367 6.574-4.369 1.867-2.4 2.8-5.511 2.8-9.334 0-2.133-.355-4.133-1.066-6-.667-1.867-1.689-3.511-3.067-4.933-1.334-1.423-3.045-2.534-5.134-3.334zm11.093 47.501l-15.363-20.03 2.261-.531c3.348-.785 5.725-2.235 7.29-4.258l.002-.003c1.614-2.075 2.484-4.837 2.484-8.413 0-1.963-.326-3.781-.968-5.466l-.006-.015-.005-.014c-.595-1.666-1.503-3.126-2.732-4.395l-.008-.009-.008-.009c-1.157-1.233-2.668-2.227-4.576-2.958l-.013-.005-.013-.005c-1.873-.757-4.119-1.158-6.771-1.158h-18.834v47.27h10.067v-22.93l14.784 22.93h12.409zm-23.227-26.301c2.578 0 4.556-.533 5.934-1.6 1.378-1.067 2.067-2.6 2.067-4.6 0-2-.689-3.534-2.067-4.6-1.378-1.067-3.356-1.6-5.934-1.6h-2.466v12.4h2.466zm65.458 16.734V1.874H508.67v50.27h28.735V41.075h-15.668zm14.168 1.5h-15.668V3.374H510.17v47.27h25.735v-8.068zm18.815 8.067V3.374h-10.067v47.27h10.067zm30.203-48.769h-12.934l-8.534 50.27h13.001l4.333-28.935 11.267 28.934h5.201l11.867-28.934 4.333 28.934h13.001l-8.534-50.269H604.99l-10 26.801-10.067-26.8zm21.108 1.5l-11.037 29.58-11.11-29.58h-10.628l-8.025 47.27h9.933l4.977-33.234 12.941 33.233h3.168l13.551-33.039 4.948 33.04h9.933l-8.025-47.27h-10.626zm39.271 47.27V3.373h-10.067v47.27h10.067zm28.569-39.203h10.734V3.374H653.07v8.067h10.734v39.202h10.067V11.441zm1.5 1.5h10.734V1.874H651.57v11.067h10.734v39.202h13.067V12.941zm31.945 6.467c-.844-.444-1.533-.955-2.067-1.533-.533-.578-.8-1.311-.8-2.2 0-1.289.534-2.334 1.6-3.134 1.067-.8 2.445-1.2 4.134-1.2 1.333 0 2.711.29 4.133.867 1.017.381 2.033.921 3.049 1.62.406.28.812.584 1.218.914l5.2-10.2c0-.001.001 0 0 0-.411-.221-.825-.433-1.243-.635l-.094-.045c-2.079-1-4.233-1.773-6.463-2.321-2.711-.711-5.311-1.067-7.8-1.067-2.667 0-5.089.4-7.267 1.2-2.134.8-3.956 1.934-5.467 3.4-1.467 1.423-2.622 3.156-3.467 5.2-.8 2-1.2 4.245-1.2 6.734 0 2.49.378 4.556 1.134 6.2.8 1.6 1.822 2.934 3.066 4 1.289 1.067 2.734 1.934 4.334 2.6 1.644.623 3.311 1.2 5 1.734 1.422.49 2.622.934 3.6 1.334 1.022.4 1.845.844 2.467 1.333.622.444 1.067.956 1.333 1.533.267.534.4 1.178.4 1.934 0 1.244-.533 2.355-1.6 3.333-1.022.978-2.6 1.467-4.733 1.467-1.867 0-3.756-.422-5.667-1.267-1.528-.675-3.071-1.634-4.627-2.878-.39-.312-.781-.641-1.173-.989l-5.601 10.534c5.423 3.778 11.312 5.667 17.668 5.667 3.067 0 5.8-.422 8.2-1.267 2.445-.8 4.489-1.933 6.134-3.4 1.689-1.51 2.955-3.311 3.8-5.4.889-2.089 1.333-4.422 1.333-7 0-3.823-1-6.912-3-9.267-1.956-2.4-5.067-4.312-9.334-5.734-1.066-.355-2.155-.689-3.266-1-1.067-.311-2.045-.667-2.934-1.067zm12.4 28.35c1.52-1.359 2.652-2.97 3.41-4.844l.005-.013.006-.012c.799-1.88 1.213-4.01 1.213-6.413 0-3.554-.924-6.272-2.643-8.296l-.01-.012-.01-.012c-1.712-2.1-4.533-3.887-8.645-5.258-1.043-.348-2.109-.674-3.197-.978l-.008-.003-.007-.002c-1.125-.328-2.169-.706-3.129-1.139l-.043-.019-.041-.021c-.964-.508-1.799-1.117-2.47-1.844-.823-.891-1.198-2.004-1.198-3.217 0-1.78.771-3.262 2.2-4.334 1.389-1.041 3.108-1.5 5.034-1.5 1.548 0 3.11.335 4.679.97 1.081.407 2.145.967 3.19 1.67l3.713-7.282c-1.977-.948-4.023-1.68-6.14-2.201l-.011-.003-.011-.003c-2.603-.683-5.075-1.018-7.42-1.018-2.514 0-4.757.377-6.745 1.107-1.954.733-3.594 1.76-4.944 3.07-1.307 1.267-2.351 2.823-3.123 4.691-.717 1.795-1.089 3.843-1.089 6.166 0 2.338.355 4.167.987 5.553.715 1.423 1.611 2.582 2.68 3.5 1.162.96 2.467 1.745 3.921 2.354 1.611.609 3.243 1.174 4.898 1.697l.018.006.018.006c1.434.493 2.659.946 3.67 1.359 1.092.428 2.043.93 2.809 1.525.771.557 1.393 1.246 1.785 2.083.388.785.548 1.664.548 2.585 0 1.73-.76 3.219-2.074 4.428-1.415 1.345-3.438 1.872-5.759 1.872-2.099 0-4.194-.476-6.273-1.395-1.591-.703-3.17-1.676-4.737-2.904l-4.096 7.706c4.869 3.116 10.096 4.66 15.706 4.66 2.931 0 5.491-.404 7.702-1.182l.016-.005.016-.005c2.279-.746 4.133-1.785 5.599-3.093zM556.22 1.874h-13.067v50.27h13.067V1.873zm90.582 0h-13.067v50.27h13.067V1.873zM806.601 19.408c-.845-.444-1.534-.955-2.067-1.533-.533-.578-.8-1.311-.8-2.2 0-1.289.533-2.334 1.6-3.134 1.067-.8 2.445-1.2 4.134-1.2 1.333 0 2.711.29 4.133.867 1.016.381 2.033.921 3.049 1.62.406.28.812.584 1.218.914l5.2-10.2c-.411-.221-.826-.433-1.244-.635l-.093-.045c-2.079-1-4.234-1.773-6.463-2.321-2.711-.711-5.311-1.067-7.8-1.067-2.667 0-5.09.4-7.267 1.2-2.134.8-3.956 1.934-5.467 3.4-1.467 1.423-2.623 3.156-3.467 5.2-.8 2-1.2 4.245-1.2 6.734 0 2.49.378 4.556 1.133 6.2.8 1.6 1.823 2.934 3.067 4 1.289 1.067 2.733 1.934 4.334 2.6 1.644.623 3.311 1.2 5 1.734 1.422.49 2.622.934 3.6 1.334 1.022.4 1.844.844 2.467 1.333.622.444 1.066.956 1.333 1.533.267.534.4 1.178.4 1.934 0 1.244-.533 2.355-1.6 3.333-1.022.978-2.6 1.467-4.734 1.467-1.866 0-3.755-.422-5.666-1.267-1.529-.675-3.071-1.634-4.627-2.878-.391-.312-.782-.641-1.174-.989L788 47.877c5.423 3.778 11.312 5.667 17.668 5.667 3.066 0 5.8-.422 8.2-1.267 2.444-.8 4.489-1.933 6.133-3.4 1.689-1.51 2.956-3.311 3.801-5.4.888-2.089 1.333-4.422 1.333-7 0-3.823-1-6.912-3-9.267-1.956-2.4-5.067-4.312-9.334-5.734-1.067-.355-2.156-.689-3.267-1-1.066-.311-2.044-.667-2.933-1.067zm12.4 28.35c1.519-1.359 2.652-2.97 3.41-4.844l.005-.013.005-.012c.8-1.88 1.214-4.01 1.214-6.413 0-3.554-.924-6.272-2.644-8.296l-.009-.012-.01-.012c-1.712-2.1-4.533-3.887-8.645-5.258-1.043-.348-2.109-.674-3.197-.978l-.008-.003-.008-.002c-1.124-.328-2.168-.706-3.129-1.139l-.042-.019-.041-.021c-.964-.508-1.799-1.117-2.47-1.844-.823-.891-1.198-2.004-1.198-3.217 0-1.78.771-3.262 2.2-4.334 1.389-1.041 3.108-1.5 5.034-1.5 1.547 0 3.111.335 4.679.97 1.081.407 2.144.967 3.19 1.67l3.712-7.282c-1.977-.948-4.023-1.68-6.139-2.201l-.012-.003-.011-.003c-2.602-.683-5.074-1.018-7.419-1.018-2.515 0-4.757.377-6.745 1.107-1.954.733-3.594 1.76-4.945 3.07-1.305 1.266-2.349 2.821-3.121 4.689-.717 1.795-1.09 3.844-1.09 6.168 0 2.337.354 4.166.986 5.552.715 1.423 1.611 2.583 2.681 3.502 1.161.96 2.466 1.744 3.921 2.353 1.611.609 3.243 1.174 4.897 1.697l.018.006.018.006c1.434.493 2.66.946 3.67 1.359 1.093.428 2.044.93 2.809 1.525.773.558 1.394 1.246 1.786 2.085.387.784.548 1.663.548 2.583 0 1.73-.761 3.22-2.075 4.428-1.414 1.346-3.438 1.872-5.759 1.872-2.099 0-4.193-.476-6.273-1.395-1.59-.703-3.169-1.676-4.736-2.904l-4.097 7.706c4.87 3.116 10.096 4.66 15.707 4.66 2.93 0 5.491-.404 7.702-1.182l.016-.005.015-.005c2.28-.746 4.134-1.785 5.6-3.093zm32.567-45.884h-12.934l-8.533 50.27h13l4.334-28.935 11.267 28.934h5.2l11.867-28.934 4.334 28.934h13L884.57 1.874h-12.934l-10.001 26.801-10.067-26.8zm21.109 1.5l-11.037 29.58-11.111-29.58h-10.628l-8.024 47.27h9.932l4.978-33.234 12.941 33.233h3.168l13.551-33.039 4.948 33.04h9.932l-8.024-47.27h-10.626zm58.505 40.035h-18.667l-3.001 8.734H895.58l19.135-50.269h14.267l19.134 50.27h-13.934l-3-8.735zm4.071 7.234h10.687L927.948 3.374h-12.199l-17.993 47.27h10.688l3-8.735h20.809l3 8.734zm-5.422-15.667h-15.965l7.982-22.768 7.983 22.768zm-7.983-18.234l-5.867 16.734h11.734l-5.867-16.734zm47.319 2.666c-.844-.444-1.533-.955-2.066-1.533-.534-.578-.8-1.311-.8-2.2 0-1.289.533-2.334 1.6-3.134 1.066-.8 2.444-1.2 4.133-1.2 1.333 0 2.711.29 4.134.867 1.016.381 2.032.921 3.048 1.62.406.28.812.584 1.218.914l5.201-10.2c-.412-.221-.827-.433-1.244-.635l-.094-.045c-2.079-1-4.233-1.773-6.463-2.321-2.711-.711-5.311-1.067-7.8-1.067-2.667 0-5.089.4-7.267 1.2-2.133.8-3.956 1.934-5.467 3.4-1.467 1.423-2.622 3.156-3.467 5.2-.8 2-1.2 4.245-1.2 6.734 0 2.49.378 4.556 1.134 6.2.8 1.6 1.822 2.934 3.066 4 1.289 1.067 2.734 1.934 4.334 2.6 1.645.623 3.311 1.2 5 1.734 1.422.49 2.623.934 3.6 1.334 1.023.4 1.845.844 2.467 1.333.622.444 1.067.956 1.334 1.533.266.534.4 1.178.4 1.934 0 1.244-.534 2.355-1.601 3.333-1.022.978-2.6 1.467-4.733 1.467-1.867 0-3.756-.422-5.667-1.267-1.528-.675-3.07-1.634-4.627-2.878-.39-.312-.781-.641-1.173-.989l-5.6 10.534c5.422 3.778 11.311 5.667 17.667 5.667 3.067 0 5.8-.422 8.2-1.267 2.445-.8 4.489-1.933 6.134-3.4 1.689-1.51 2.956-3.311 3.8-5.4.889-2.089 1.333-4.422 1.333-7 0-3.823-1-6.912-3-9.267-1.955-2.4-5.067-4.312-9.333-5.734-1.067-.355-2.156-.689-3.267-1-1.067-.311-2.045-.667-2.934-1.067zm12.401 28.35c1.519-1.359 2.651-2.97 3.409-4.844l.005-.013.006-.012c.8-1.88 1.213-4.01 1.213-6.413 0-3.554-.924-6.272-2.643-8.296l-.01-.012-.01-.012c-1.712-2.1-4.532-3.887-8.645-5.258-1.043-.348-2.108-.674-3.197-.978l-.007-.003-.008-.002c-1.125-.328-2.169-.706-3.129-1.139l-.042-.019-.041-.021c-.965-.508-1.8-1.117-2.471-1.844-.823-.891-1.197-2.004-1.197-3.217 0-1.78.77-3.262 2.2-4.334 1.388-1.041 3.107-1.5 5.033-1.5 1.548 0 3.111.335 4.68.97 1.081.407 2.144.967 3.189 1.67l3.713-7.282c-1.977-.948-4.023-1.68-6.14-2.201l-.011-.003-.011-.003c-2.603-.683-5.074-1.018-7.42-1.018-2.514 0-4.757.377-6.745 1.107-1.954.733-3.594 1.76-4.944 3.07-1.306 1.266-2.349 2.821-3.122 4.688-.717 1.796-1.09 3.845-1.09 6.17 0 2.336.355 4.165.987 5.551.715 1.423 1.611 2.583 2.68 3.502 1.162.96 2.467 1.744 3.921 2.353 1.611.609 3.243 1.174 4.898 1.697l.018.006.018.006c1.434.493 2.659.946 3.67 1.359 1.093.428 2.043.93 2.809 1.525.772.558 1.394 1.246 1.786 2.084.387.785.548 1.664.548 2.584 0 1.73-.761 3.22-2.076 4.429-1.414 1.345-3.437 1.871-5.758 1.871-2.099 0-4.194-.476-6.273-1.395-1.591-.703-3.169-1.676-4.737-2.904l-4.096 7.706c4.869 3.116 10.096 4.66 15.706 4.66 2.931 0 5.491-.404 7.702-1.182l.016-.005.016-.005c2.28-.746 4.134-1.785 5.6-3.093zm24.932-24.983v-19.4h-10.066v47.268h10.066V29.91h21.87v20.734h10.07V3.374h-10.07v19.401h-21.87zm20.37-1.5H1008v-19.4h-13.066v50.268H1008V31.41h18.87v20.734h13.07V1.874h-13.07v19.401zm57.89 6.26v23.108h10.07v-23.11l17.01-24.159h-11.91l-10.06 14.91-10.14-14.91h-11.92l16.95 24.161zm-1.5.474v24.134h13.07V28.01l18.4-26.135h-15.6l-9.27 13.734-9.33-13.734h-15.6l18.33 26.135zm50.97 13.258l-.02-.009c-1.85-.781-3.5-1.86-4.93-3.236-1.43-1.383-2.56-3.009-3.39-4.867-.85-1.897-1.26-3.952-1.26-6.146s.41-4.25 1.26-6.146c.83-1.858 1.96-3.485 3.39-4.867 1.43-1.38 3.09-2.442 4.95-3.18 1.92-.784 3.93-1.175 6.03-1.175 2.09 0 4.09.39 5.96 1.176 1.9.734 3.57 1.79 5.01 3.17 1.47 1.381 2.63 3.01 3.47 4.876.84 1.896 1.26 3.952 1.26 6.146s-.42 4.249-1.26 6.146c-.84 1.865-2 3.494-3.47 4.876-1.43 1.378-3.1 2.455-5 3.233l-.01.003-.01.004c-1.87.74-3.86 1.105-5.95 1.105-2.09 0-4.1-.365-6.01-1.1l-.02-.009zm15.96-4.325c1.34-1.244 2.38-2.71 3.14-4.4.75-1.689 1.13-3.533 1.13-5.533 0-2-.38-3.845-1.13-5.534-.76-1.689-1.8-3.155-3.14-4.4-1.29-1.244-2.8-2.2-4.53-2.867-1.69-.71-3.49-1.066-5.4-1.066-1.91 0-3.73.355-5.47 1.066-1.69.667-3.18 1.623-4.46 2.867-1.29 1.245-2.32 2.711-3.07 4.4-.76 1.69-1.13 3.534-1.13 5.534s.37 3.844 1.13 5.533c.75 1.69 1.78 3.156 3.07 4.4 1.28 1.245 2.77 2.223 4.46 2.934 1.74.667 3.56 1 5.47 1 1.91 0 3.71-.333 5.4-1 1.73-.711 3.24-1.69 4.53-2.933zm-34.28-19.747l-.01.006c-1.29 3-1.94 6.263-1.94 9.808 0 3.542.65 6.828 1.94 9.875 1.31 3.024 3.11 5.66 5.41 7.922 2.29 2.252 5.03 4.035 8.24 5.344 3.23 1.255 6.79 1.893 10.71 1.893 3.87 0 7.42-.637 10.65-1.894 3.25-1.31 6.01-3.093 8.3-5.343l.01-.01c2.34-2.26 4.16-4.894 5.46-7.912 1.3-3.047 1.95-6.333 1.95-9.875 0-3.545-.66-6.808-1.95-9.808v-.006c-1.3-3.063-3.12-5.717-5.46-7.974l-.01-.01c-2.29-2.247-5.05-4.007-8.29-5.272l-.01-.003-.01-.003c-3.23-1.3-6.77-1.959-10.64-1.959-3.92 0-7.48.66-10.71 1.959l-.01.003c-3.2 1.264-5.94 3.025-8.23 5.276-2.3 2.258-4.1 4.914-5.4 7.983zm50.15 20.28c-1.38 3.2-3.31 6.001-5.8 8.401-2.44 2.4-5.38 4.29-8.8 5.667-3.42 1.333-7.16 2-11.2 2-4.09 0-7.85-.667-11.27-2-3.38-1.378-6.29-3.267-8.73-5.667-2.45-2.4-4.36-5.2-5.73-8.4-1.38-3.245-2.07-6.734-2.07-10.467 0-3.734.69-7.2 2.07-10.4 1.37-3.245 3.28-6.068 5.73-8.468 2.44-2.4 5.35-4.267 8.73-5.6 3.42-1.378 7.18-2.067 11.27-2.067 4.04 0 7.78.69 11.2 2.067 3.42 1.333 6.36 3.2 8.8 5.6 2.49 2.4 4.42 5.223 5.8 8.467 1.38 3.2 2.07 6.667 2.07 10.4 0 3.734-.69 7.223-2.07 10.468zm22.52-3.733c-.09-1.555-.13-3.066-.13-4.533V1.874h-13.07V31.01c0 7.822 1.8 13.534 5.4 17.134 3.6 3.6 9.11 5.4 16.54 5.4 7.42 0 12.91-1.8 16.46-5.4 3.6-3.6 5.4-9.312 5.4-17.134V1.874h-13V29.21c0 1.466-.06 2.978-.2 4.533-.09 1.512-.42 2.89-1 4.134-.58 1.244-1.46 2.267-2.66 3.067-1.16.755-2.83 1.133-5 1.133-2.18 0-3.87-.378-5.07-1.133-1.2-.8-2.09-1.823-2.67-3.067-.53-1.245-.86-2.622-1-4.134zm18.9.108c-.1 1.673-.47 3.23-1.14 4.657-.7 1.508-1.77 2.739-3.19 3.684l-.01.007c-1.51.983-3.51 1.378-5.82 1.378-2.33 0-4.34-.397-5.87-1.364l-.02-.01-.01-.011c-1.42-.945-2.5-2.176-3.2-3.684l-.01-.02-.01-.02c-.6-1.407-.97-2.942-1.11-4.593v-.023l-.01-.023c-.09-1.583-.13-3.122-.13-4.62V3.375h-10.07V31.01c0 7.633 1.76 12.874 4.96 16.073 3.21 3.212 8.27 4.961 15.48 4.961 7.2 0 12.23-1.75 15.4-4.954v-.007c3.2-3.2 4.96-8.44 4.96-16.073V3.374h-10V29.21c0 1.506-.07 3.053-.2 4.641zm32.83-8.008v-15.4h3.97c2.76 0 5.11.566 6.85 1.913 1.8 1.396 2.65 3.4 2.65 5.787 0 2.386-.85 4.39-2.65 5.786-1.74 1.347-4.09 1.914-6.85 1.914h-3.97zm16.1-22.7c-2.09-.845-4.53-1.268-7.33-1.268h-20.33v50.27h13.06V32.808l12.47 19.334h16.27l-15.8-20.6c.54-.127 1.06-.271 1.56-.432 2.83-.91 5.02-2.367 6.57-4.369 1.87-2.4 2.8-5.511 2.8-9.334 0-2.133-.36-4.133-1.07-6-.66-1.867-1.69-3.511-3.06-4.933-1.34-1.423-3.05-2.534-5.14-3.334zm11.1 47.501l-15.37-20.03 2.26-.531c3.35-.785 5.73-2.235 7.29-4.258l.01-.003c1.61-2.075 2.48-4.837 2.48-8.413 0-1.963-.33-3.781-.97-5.466v-.015l-.01-.014c-.59-1.666-1.5-3.126-2.73-4.395l-.01-.009-.01-.009c-1.15-1.233-2.66-2.227-4.57-2.958l-.02-.005-.01-.005c-1.87-.757-4.12-1.158-6.77-1.158h-18.83v47.27h10.06v-22.93l14.79 22.93h12.41zm-23.23-26.301c2.58 0 4.56-.533 5.93-1.6 1.38-1.067 2.07-2.6 2.07-4.6 0-2-.69-3.534-2.07-4.6-1.37-1.067-3.35-1.6-5.93-1.6h-2.47v12.4h2.47zm65.46 16.734V1.874h-13.07v50.27h28.73V41.075h-15.66zm14.16 1.5h-15.66V3.374h-10.07v47.27h25.73v-8.068zm18.82 8.067V3.374h-10.07v47.27h10.07zm30.2-48.769h-12.93l-8.53 50.27h13l4.33-28.935 11.27 28.934h5.2l11.86-28.934 4.34 28.934h13l-8.54-50.269h-12.93l-10 26.801-10.07-26.8zm21.11 1.5l-11.04 29.58-11.11-29.58h-10.62l-8.03 47.27h9.93l4.98-33.234 12.94 33.233h3.17l13.55-33.039 4.95 33.04h9.93l-8.02-47.27h-10.63zm39.27 47.27V3.373h-10.06v47.27h10.06zm28.57-39.203h10.73V3.374h-31.53v8.067h10.73v39.202h10.07V11.441zm1.5 1.5h10.73V1.874h-34.53v11.067h10.73v39.202h13.07V12.941zm31.95 6.467c-.85-.444-1.54-.955-2.07-1.533-.53-.578-.8-1.311-.8-2.2 0-1.289.53-2.334 1.6-3.134 1.07-.8 2.44-1.2 4.13-1.2 1.34 0 2.71.29 4.14.867 1.01.381 2.03.921 3.05 1.62.4.28.81.584 1.21.914l5.2-10.2c0-.001 0 0 0 0-.41-.221-.82-.433-1.24-.635l-.09-.045c-2.08-1-4.24-1.773-6.47-2.321-2.71-.711-5.31-1.067-7.8-1.067-2.66 0-5.09.4-7.26 1.2-2.14.8-3.96 1.934-5.47 3.4-1.47 1.423-2.62 3.156-3.47 5.2-.8 2-1.2 4.245-1.2 6.734 0 2.49.38 4.556 1.14 6.2.8 1.6 1.82 2.934 3.06 4 1.29 1.067 2.74 1.934 4.34 2.6 1.64.623 3.31 1.2 5 1.734 1.42.49 2.62.934 3.6 1.334 1.02.4 1.84.844 2.46 1.333.63.444 1.07.956 1.34 1.533.26.534.4 1.178.4 1.934 0 1.244-.54 2.355-1.6 3.333-1.03.978-2.6 1.467-4.74 1.467-1.86 0-3.75-.422-5.66-1.267-1.53-.675-3.07-1.634-4.63-2.878-.39-.312-.78-.641-1.17-.989l-5.6 10.534c5.42 3.778 11.31 5.667 17.66 5.667 3.07 0 5.8-.422 8.2-1.267 2.45-.8 4.49-1.933 6.14-3.4 1.69-1.51 2.95-3.311 3.8-5.4.89-2.089 1.33-4.422 1.33-7 0-3.823-1-6.912-3-9.267-1.96-2.4-5.07-4.312-9.33-5.734-1.07-.355-2.16-.689-3.27-1-1.07-.311-2.04-.667-2.93-1.067zm12.4 28.35c1.52-1.359 2.65-2.97 3.41-4.844V42.9l.01-.012c.8-1.88 1.21-4.01 1.21-6.413 0-3.554-.92-6.272-2.64-8.296l-.01-.012-.01-.012c-1.71-2.1-4.54-3.887-8.65-5.258-1.04-.348-2.11-.674-3.19-.978l-.01-.003-.01-.002c-1.12-.328-2.17-.706-3.13-1.139l-.04-.019-.04-.021c-.97-.508-1.8-1.117-2.47-1.844-.83-.891-1.2-2.004-1.2-3.217 0-1.78.77-3.262 2.2-4.334 1.39-1.041 3.11-1.5 5.03-1.5 1.55 0 3.11.335 4.68.97 1.08.407 2.15.967 3.19 1.67l3.71-7.282c-1.97-.948-4.02-1.68-6.14-2.201l-.01-.003-.01-.003c-2.6-.683-5.07-1.018-7.42-1.018-2.51 0-4.75.377-6.74 1.107-1.96.733-3.6 1.76-4.95 3.07-1.3 1.267-2.35 2.823-3.12 4.691-.72 1.795-1.09 3.843-1.09 6.166 0 2.338.36 4.167.99 5.553.71 1.423 1.61 2.582 2.68 3.5 1.16.96 2.47 1.745 3.92 2.354 1.61.609 3.24 1.174 4.9 1.697l.02.006.01.006c1.44.493 2.66.946 3.67 1.359 1.1.428 2.05.93 2.81 1.525.77.557 1.4 1.246 1.79 2.083.39.785.55 1.664.55 2.585 0 1.73-.76 3.219-2.08 4.428-1.41 1.345-3.44 1.872-5.76 1.872-2.1 0-4.19-.476-6.27-1.395-1.59-.703-3.17-1.676-4.74-2.904l-4.09 7.706c4.87 3.116 10.09 4.66 15.7 4.66 2.93 0 5.49-.404 7.71-1.182l.01-.005.02-.005c2.28-.746 4.13-1.785 5.6-3.093zm-163.5-45.884h-13.07v50.27h13.07V1.873zm90.58 0h-13.06v50.27h13.06V1.873zM1594.6 19.408c-.84-.444-1.53-.955-2.07-1.533-.53-.578-.8-1.311-.8-2.2 0-1.289.54-2.334 1.6-3.134 1.07-.8 2.45-1.2 4.14-1.2 1.33 0 2.71.29 4.13.867 1.02.381 2.03.921 3.05 1.62.41.28.81.584 1.22.914l5.2-10.2c-.41-.221-.83-.433-1.25-.635l-.09-.045c-2.08-1-4.23-1.773-6.46-2.321-2.71-.711-5.31-1.067-7.8-1.067-2.67 0-5.09.4-7.27 1.2-2.13.8-3.96 1.934-5.47 3.4-1.46 1.423-2.62 3.156-3.46 5.2-.8 2-1.2 4.245-1.2 6.734 0 2.49.37 4.556 1.13 6.2.8 1.6 1.82 2.934 3.07 4 1.29 1.067 2.73 1.934 4.33 2.6 1.65.623 3.31 1.2 5 1.734 1.42.49 2.62.934 3.6 1.334 1.02.4 1.85.844 2.47 1.333.62.444 1.06.956 1.33 1.533.27.534.4 1.178.4 1.934 0 1.244-.53 2.355-1.6 3.333-1.02.978-2.6 1.467-4.73 1.467-1.87 0-3.76-.422-5.67-1.267-1.53-.675-3.07-1.634-4.63-2.878-.39-.312-.78-.641-1.17-.989l-5.6 10.534c5.42 3.778 11.31 5.667 17.67 5.667 3.06 0 5.8-.422 8.2-1.267 2.44-.8 4.49-1.933 6.13-3.4 1.69-1.51 2.96-3.311 3.8-5.4.89-2.089 1.33-4.422 1.33-7 0-3.823-1-6.912-3-9.267-1.95-2.4-5.06-4.312-9.33-5.734-1.07-.355-2.15-.689-3.27-1-1.06-.311-2.04-.667-2.93-1.067zm12.4 28.35c1.52-1.359 2.65-2.97 3.41-4.844l.01-.013v-.012c.8-1.88 1.21-4.01 1.21-6.413 0-3.554-.92-6.272-2.64-8.296l-.01-.012-.01-.012c-1.71-2.1-4.53-3.887-8.64-5.258-1.05-.348-2.11-.674-3.2-.978l-.01-.003-.01-.002c-1.12-.328-2.16-.706-3.12-1.139l-.05-.019-.04-.021c-.96-.508-1.8-1.117-2.47-1.844-.82-.891-1.2-2.004-1.2-3.217 0-1.78.78-3.262 2.2-4.334 1.39-1.041 3.11-1.5 5.04-1.5 1.55 0 3.11.335 4.68.97 1.08.407 2.14.967 3.19 1.67l3.71-7.282c-1.98-.948-4.02-1.68-6.14-2.201l-.01-.003-.01-.003c-2.61-.683-5.08-1.018-7.42-1.018-2.52 0-4.76.377-6.75 1.107-1.95.733-3.59 1.76-4.94 3.07-1.31 1.266-2.35 2.821-3.12 4.689-.72 1.795-1.09 3.844-1.09 6.168 0 2.337.35 4.166.98 5.552.72 1.423 1.61 2.583 2.68 3.502 1.17.96 2.47 1.744 3.92 2.353 1.62.609 3.25 1.174 4.9 1.697l.02.006.02.006c1.43.493 2.66.946 3.67 1.359 1.09.428 2.04.93 2.81 1.525.77.558 1.39 1.246 1.78 2.085.39.784.55 1.663.55 2.583 0 1.73-.76 3.22-2.07 4.428-1.42 1.346-3.44 1.872-5.76 1.872-2.1 0-4.2-.476-6.28-1.395-1.59-.703-3.16-1.676-4.73-2.904l-4.1 7.706c4.87 3.116 10.1 4.66 15.71 4.66 2.93 0 5.49-.404 7.7-1.182l.02-.005.01-.005c2.28-.746 4.13-1.785 5.6-3.093zm32.57-45.884h-12.94l-8.53 50.27h13l4.33-28.935 11.27 28.934h5.2l11.87-28.934 4.33 28.934h13l-8.53-50.269h-12.93l-10 26.801-10.07-26.8zm21.11 1.5l-11.04 29.58-11.11-29.58h-10.63l-8.02 47.27h9.93l4.98-33.234 12.94 33.233h3.17l13.55-33.039 4.94 33.04h9.94l-8.03-47.27h-10.62zm58.5 40.035h-18.67l-3 8.734h-13.93l19.13-50.269h14.27l19.14 50.27h-13.94l-3-8.735zm4.07 7.234h10.69l-17.99-47.269h-12.2l-17.99 47.27h10.68l3-8.735h20.81l3 8.734zm-5.42-15.667h-15.96l7.98-22.768 7.98 22.768zm-7.98-18.234l-5.87 16.734h11.74l-5.87-16.734zm47.32 2.666c-.85-.444-1.54-.955-2.07-1.533-.53-.578-.8-1.311-.8-2.2 0-1.289.53-2.334 1.6-3.134 1.07-.8 2.45-1.2 4.13-1.2 1.34 0 2.72.29 4.14.867 1.01.381 2.03.921 3.05 1.62.4.28.81.584 1.21.914l5.2-10.2c-.41-.221-.82-.433-1.24-.635l-.09-.045c-2.08-1-4.24-1.773-6.47-2.321-2.71-.711-5.31-1.067-7.8-1.067-2.66 0-5.09.4-7.26 1.2-2.14.8-3.96 1.934-5.47 3.4-1.47 1.423-2.62 3.156-3.47 5.2-.8 2-1.2 4.245-1.2 6.734 0 2.49.38 4.556 1.14 6.2.8 1.6 1.82 2.934 3.06 4 1.29 1.067 2.74 1.934 4.34 2.6 1.64.623 3.31 1.2 5 1.734 1.42.49 2.62.934 3.6 1.334 1.02.4 1.84.844 2.46 1.333.63.444 1.07.956 1.34 1.533.26.534.4 1.178.4 1.934 0 1.244-.54 2.355-1.6 3.333-1.02.978-2.6 1.467-4.74 1.467-1.86 0-3.75-.422-5.66-1.267-1.53-.675-3.07-1.634-4.63-2.878-.39-.312-.78-.641-1.17-.989l-5.6 10.534c5.42 3.778 11.31 5.667 17.66 5.667 3.07 0 5.8-.422 8.2-1.267 2.45-.8 4.49-1.933 6.14-3.4 1.69-1.51 2.95-3.311 3.8-5.4.89-2.089 1.33-4.422 1.33-7 0-3.823-1-6.912-3-9.267-1.95-2.4-5.07-4.312-9.33-5.734-1.07-.355-2.16-.689-3.27-1-1.07-.311-2.04-.667-2.93-1.067zm12.4 28.35c1.52-1.359 2.65-2.97 3.41-4.844V42.9l.01-.012c.8-1.88 1.21-4.01 1.21-6.413 0-3.554-.92-6.272-2.64-8.296l-.01-.012-.01-.012c-1.71-2.1-4.53-3.887-8.65-5.258-1.04-.348-2.11-.674-3.19-.978l-.01-.003-.01-.002c-1.12-.328-2.17-.706-3.13-1.139l-.04-.019-.04-.021c-.97-.508-1.8-1.117-2.47-1.844-.82-.891-1.2-2.004-1.2-3.217 0-1.78.77-3.262 2.2-4.334 1.39-1.041 3.11-1.5 5.03-1.5 1.55 0 3.12.335 4.68.97 1.08.407 2.15.967 3.19 1.67l3.72-7.282c-1.98-.948-4.03-1.68-6.14-2.201l-.02-.003-.01-.003c-2.6-.683-5.07-1.018-7.42-1.018-2.51 0-4.75.377-6.74 1.107-1.95.733-3.6 1.76-4.95 3.07-1.3 1.266-2.34 2.821-3.12 4.688-.71 1.796-1.09 3.845-1.09 6.17 0 2.336.36 4.165.99 5.551.71 1.423 1.61 2.583 2.68 3.502 1.16.96 2.47 1.744 3.92 2.353 1.61.609 3.24 1.174 4.9 1.697l.02.006.01.006c1.44.493 2.66.946 3.67 1.359 1.1.428 2.05.93 2.81 1.525.78.558 1.4 1.246 1.79 2.084.39.785.55 1.664.55 2.584 0 1.73-.76 3.22-2.08 4.429-1.41 1.345-3.44 1.871-5.76 1.871-2.1 0-4.19-.476-6.27-1.395-1.59-.703-3.17-1.676-4.74-2.904l-4.09 7.706c4.87 3.116 10.09 4.66 15.7 4.66 2.93 0 5.5-.404 7.71-1.182l.01-.005.02-.005c2.28-.746 4.13-1.785 5.6-3.093zm24.93-24.983v-19.4h-10.07v47.268h10.07V29.91h21.87v20.734h10.07V3.374h-10.07v19.401h-21.87zm20.37-1.5H1796v-19.4h-13.07v50.268H1796V31.41h18.87v20.734h13.07V1.874h-13.07v19.401zm57.89 6.26v23.108h10.07v-23.11l17.01-24.159h-11.91l-10.06 14.91-10.14-14.91h-11.92l16.95 24.161zm-1.5.474v24.134h13.07V28.01l18.4-26.135h-15.6l-9.27 13.734-9.33-13.734h-15.6l18.33 26.135zm50.97 13.258l-.02-.009c-1.85-.781-3.5-1.86-4.93-3.236-1.43-1.383-2.56-3.009-3.39-4.867-.85-1.897-1.26-3.952-1.26-6.146s.41-4.25 1.26-6.146c.83-1.858 1.96-3.485 3.39-4.867 1.43-1.38 3.09-2.442 4.95-3.18 1.92-.784 3.93-1.175 6.03-1.175 2.09 0 4.09.39 5.96 1.176 1.9.734 3.57 1.79 5.01 3.17 1.47 1.381 2.63 3.01 3.47 4.876.84 1.896 1.26 3.952 1.26 6.146s-.42 4.249-1.26 6.146c-.84 1.865-2 3.494-3.47 4.876-1.43 1.378-3.1 2.455-5 3.233l-.01.003-.01.004c-1.87.74-3.86 1.105-5.95 1.105-2.09 0-4.1-.365-6.01-1.1l-.02-.009zm15.96-4.325c1.34-1.244 2.38-2.71 3.14-4.4.75-1.689 1.13-3.533 1.13-5.533 0-2-.38-3.845-1.13-5.534-.76-1.689-1.8-3.155-3.14-4.4-1.29-1.244-2.8-2.2-4.53-2.867-1.69-.71-3.49-1.066-5.4-1.066-1.91 0-3.73.355-5.47 1.066-1.69.667-3.18 1.623-4.46 2.867-1.29 1.245-2.32 2.711-3.07 4.4-.76 1.69-1.13 3.534-1.13 5.534s.37 3.844 1.13 5.533c.75 1.69 1.78 3.156 3.07 4.4 1.28 1.245 2.77 2.223 4.46 2.934 1.74.667 3.56 1 5.47 1 1.91 0 3.71-.333 5.4-1 1.73-.711 3.24-1.69 4.53-2.933zm-34.28-19.747l-.01.006c-1.29 3-1.94 6.263-1.94 9.808 0 3.542.65 6.828 1.94 9.875 1.31 3.024 3.11 5.66 5.41 7.922 2.29 2.252 5.03 4.035 8.24 5.344 3.23 1.255 6.79 1.893 10.71 1.893 3.87 0 7.42-.637 10.65-1.894 3.25-1.31 6.01-3.093 8.3-5.343l.01-.01c2.34-2.26 4.16-4.894 5.46-7.912 1.3-3.047 1.95-6.333 1.95-9.875 0-3.545-.66-6.808-1.95-9.808v-.006c-1.3-3.063-3.12-5.717-5.46-7.974l-.01-.01c-2.29-2.247-5.05-4.007-8.29-5.272l-.01-.003-.01-.003c-3.23-1.3-6.77-1.959-10.64-1.959-3.92 0-7.48.66-10.71 1.959l-.01.003c-3.2 1.264-5.94 3.025-8.23 5.276-2.3 2.258-4.1 4.914-5.4 7.983zm50.15 20.28c-1.38 3.2-3.31 6.001-5.8 8.401-2.44 2.4-5.38 4.29-8.8 5.667-3.42 1.333-7.16 2-11.2 2-4.09 0-7.85-.667-11.27-2-3.38-1.378-6.29-3.267-8.73-5.667-2.45-2.4-4.36-5.2-5.73-8.4-1.38-3.245-2.07-6.734-2.07-10.467 0-3.734.69-7.2 2.07-10.4 1.37-3.245 3.28-6.068 5.73-8.468 2.44-2.4 5.35-4.267 8.73-5.6 3.42-1.378 7.18-2.067 11.27-2.067 4.04 0 7.78.69 11.2 2.067 3.42 1.333 6.36 3.2 8.8 5.6 2.49 2.4 4.42 5.223 5.8 8.467 1.38 3.2 2.07 6.667 2.07 10.4 0 3.734-.69 7.223-2.07 10.468zm22.52-3.733c-.09-1.555-.13-3.066-.13-4.533V1.874h-13.07V31.01c0 7.822 1.8 13.534 5.4 17.134 3.6 3.6 9.11 5.4 16.54 5.4 7.42 0 12.91-1.8 16.46-5.4 3.6-3.6 5.4-9.312 5.4-17.134V1.874h-13V29.21c0 1.466-.06 2.978-.2 4.533-.09 1.512-.42 2.89-1 4.134-.58 1.244-1.46 2.267-2.66 3.067-1.16.755-2.83 1.133-5 1.133-2.18 0-3.87-.378-5.07-1.133-1.2-.8-2.09-1.823-2.67-3.067-.53-1.245-.86-2.622-1-4.134zm18.9.108c-.1 1.673-.47 3.23-1.14 4.657-.7 1.508-1.77 2.739-3.19 3.684l-.01.007c-1.51.983-3.51 1.378-5.82 1.378-2.33 0-4.34-.397-5.87-1.364l-.02-.01-.01-.011c-1.42-.945-2.5-2.176-3.2-3.684l-.01-.02-.01-.02c-.6-1.407-.97-2.942-1.11-4.593v-.023l-.01-.023c-.09-1.583-.13-3.122-.13-4.62V3.375h-10.07V31.01c0 7.633 1.76 12.874 4.96 16.073 3.21 3.212 8.27 4.961 15.48 4.961 7.2 0 12.23-1.75 15.4-4.954v-.007c3.2-3.2 4.96-8.44 4.96-16.073V3.374h-10V29.21c0 1.506-.07 3.053-.2 4.641zm32.83-8.008v-15.4h3.97c2.76 0 5.11.566 6.85 1.913 1.8 1.396 2.65 3.4 2.65 5.787 0 2.386-.85 4.39-2.65 5.786-1.74 1.347-4.09 1.914-6.85 1.914h-3.97zm16.1-22.7c-2.09-.845-4.53-1.268-7.33-1.268h-20.33v50.27h13.06V32.808l12.47 19.334h16.27l-15.8-20.6c.54-.127 1.06-.271 1.56-.432 2.83-.91 5.02-2.367 6.57-4.369 1.87-2.4 2.8-5.511 2.8-9.334 0-2.133-.36-4.133-1.07-6-.66-1.867-1.69-3.511-3.06-4.933-1.34-1.423-3.05-2.534-5.14-3.334zm11.1 47.501l-15.37-20.03 2.26-.531c3.35-.785 5.73-2.235 7.29-4.258l.01-.003c1.61-2.075 2.48-4.837 2.48-8.413 0-1.963-.33-3.781-.97-5.466v-.015l-.01-.014c-.59-1.666-1.5-3.126-2.73-4.395l-.01-.009-.01-.009c-1.15-1.233-2.66-2.227-4.57-2.958l-.02-.005-.01-.005c-1.87-.757-4.12-1.158-6.77-1.158h-18.83v47.27h10.06v-22.93l14.79 22.93h12.41zm-23.23-26.301c2.58 0 4.56-.533 5.93-1.6 1.38-1.067 2.07-2.6 2.07-4.6 0-2-.69-3.534-2.07-4.6-1.37-1.067-3.35-1.6-5.93-1.6h-2.47v12.4h2.47zm65.46 16.734V1.874h-13.07v50.27h28.73V41.075h-15.66zm14.16 1.5h-15.66V3.374h-10.07v47.27h25.73v-8.068zm18.82 8.067V3.374h-10.07v47.27h10.07zm30.2-48.769h-12.93l-8.53 50.27h13l4.33-28.935 11.27 28.934h5.2l11.86-28.934 4.34 28.934h13l-8.54-50.269h-12.93l-10 26.801-10.07-26.8zm21.11 1.5l-11.04 29.58-11.11-29.58h-10.62l-8.03 47.27h9.93l4.98-33.234 12.94 33.233h3.17l13.55-33.039 4.95 33.04h9.93l-8.02-47.27h-10.63zm39.27 47.27V3.373h-10.06v47.27h10.06zm28.57-39.203h10.73V3.374h-31.53v8.067h10.73v39.202h10.07V11.441zm1.5 1.5h10.73V1.874h-34.53v11.067h10.73v39.202h13.07V12.941zm31.95 6.467c-.85-.444-1.54-.955-2.07-1.533-.53-.578-.8-1.311-.8-2.2 0-1.289.53-2.334 1.6-3.134 1.07-.8 2.44-1.2 4.13-1.2 1.34 0 2.71.29 4.14.867 1.01.381 2.03.921 3.05 1.62.4.28.81.584 1.21.914l5.2-10.2c0-.001 0 0 0 0-.41-.221-.82-.433-1.24-.635l-.09-.045c-2.08-1-4.24-1.773-6.47-2.321-2.71-.711-5.31-1.067-7.8-1.067-2.66 0-5.09.4-7.26 1.2-2.14.8-3.96 1.934-5.47 3.4-1.47 1.423-2.62 3.156-3.47 5.2-.8 2-1.2 4.245-1.2 6.734 0 2.49.38 4.556 1.14 6.2.8 1.6 1.82 2.934 3.06 4 1.29 1.067 2.74 1.934 4.34 2.6 1.64.623 3.31 1.2 5 1.734 1.42.49 2.62.934 3.6 1.334 1.02.4 1.84.844 2.46 1.333.63.444 1.07.956 1.34 1.533.26.534.4 1.178.4 1.934 0 1.244-.54 2.355-1.6 3.333-1.03.978-2.6 1.467-4.74 1.467-1.86 0-3.75-.422-5.66-1.267-1.53-.675-3.07-1.634-4.63-2.878-.39-.312-.78-.641-1.17-.989l-5.6 10.534c5.42 3.778 11.31 5.667 17.66 5.667 3.07 0 5.8-.422 8.2-1.267 2.45-.8 4.49-1.933 6.14-3.4 1.69-1.51 2.95-3.311 3.8-5.4.89-2.089 1.33-4.422 1.33-7 0-3.823-1-6.912-3-9.267-1.96-2.4-5.07-4.312-9.33-5.734-1.07-.355-2.16-.689-3.27-1-1.07-.311-2.04-.667-2.93-1.067zm12.4 28.35c1.52-1.359 2.65-2.97 3.41-4.844V42.9l.01-.012c.8-1.88 1.21-4.01 1.21-6.413 0-3.554-.92-6.272-2.64-8.296l-.01-.012-.01-.012c-1.71-2.1-4.54-3.887-8.65-5.258-1.04-.348-2.11-.674-3.19-.978l-.01-.003-.01-.002c-1.12-.328-2.17-.706-3.13-1.139l-.04-.019-.04-.021c-.97-.508-1.8-1.117-2.47-1.844-.83-.891-1.2-2.004-1.2-3.217 0-1.78.77-3.262 2.2-4.334 1.39-1.041 3.11-1.5 5.03-1.5 1.55 0 3.11.335 4.68.97 1.08.407 2.15.967 3.19 1.67l3.71-7.282c-1.97-.948-4.02-1.68-6.14-2.201l-.01-.003-.01-.003c-2.6-.683-5.07-1.018-7.42-1.018-2.51 0-4.75.377-6.74 1.107-1.96.733-3.6 1.76-4.95 3.07-1.3 1.267-2.35 2.823-3.12 4.691-.72 1.795-1.09 3.843-1.09 6.166 0 2.338.36 4.167.99 5.553.71 1.423 1.61 2.582 2.68 3.5 1.16.96 2.47 1.745 3.92 2.354 1.61.609 3.24 1.174 4.9 1.697l.02.006.01.006c1.44.493 2.66.946 3.67 1.359 1.1.428 2.05.93 2.81 1.525.77.557 1.4 1.246 1.79 2.083.39.785.55 1.664.55 2.585 0 1.73-.76 3.219-2.08 4.428-1.41 1.345-3.44 1.872-5.76 1.872-2.1 0-4.19-.476-6.27-1.395-1.59-.703-3.17-1.676-4.74-2.904l-4.09 7.706c4.87 3.116 10.09 4.66 15.7 4.66 2.93 0 5.49-.404 7.71-1.182l.01-.005.02-.005c2.28-.746 4.13-1.785 5.6-3.093zm-163.5-45.884h-13.07v50.27h13.07V1.873zm90.58 0h-13.06v50.27h13.06V1.873zM2382.6 19.408c-.84-.444-1.53-.955-2.07-1.533-.53-.578-.8-1.311-.8-2.2 0-1.289.54-2.334 1.6-3.134 1.07-.8 2.45-1.2 4.14-1.2 1.33 0 2.71.29 4.13.867 1.02.381 2.03.921 3.05 1.62.41.28.81.584 1.22.914l5.2-10.2c-.41-.221-.83-.433-1.25-.635l-.09-.045c-2.08-1-4.23-1.773-6.46-2.321-2.71-.711-5.31-1.067-7.8-1.067-2.67 0-5.09.4-7.27 1.2-2.13.8-3.96 1.934-5.47 3.4-1.46 1.423-2.62 3.156-3.46 5.2-.8 2-1.2 4.245-1.2 6.734 0 2.49.37 4.556 1.13 6.2.8 1.6 1.82 2.934 3.07 4 1.29 1.067 2.73 1.934 4.33 2.6 1.65.623 3.31 1.2 5 1.734 1.42.49 2.62.934 3.6 1.334 1.02.4 1.85.844 2.47 1.333.62.444 1.06.956 1.33 1.533.27.534.4 1.178.4 1.934 0 1.244-.53 2.355-1.6 3.333-1.02.978-2.6 1.467-4.73 1.467-1.87 0-3.76-.422-5.67-1.267-1.53-.675-3.07-1.634-4.63-2.878-.39-.312-.78-.641-1.17-.989l-5.6 10.534c5.42 3.778 11.31 5.667 17.67 5.667 3.06 0 5.8-.422 8.2-1.267 2.44-.8 4.49-1.933 6.13-3.4 1.69-1.51 2.96-3.311 3.8-5.4.89-2.089 1.33-4.422 1.33-7 0-3.823-1-6.912-3-9.267-1.95-2.4-5.06-4.312-9.33-5.734-1.07-.355-2.15-.689-3.27-1-1.06-.311-2.04-.667-2.93-1.067zm12.4 28.35c1.52-1.359 2.65-2.97 3.41-4.844l.01-.013v-.012c.8-1.88 1.21-4.01 1.21-6.413 0-3.554-.92-6.272-2.64-8.296l-.01-.012-.01-.012c-1.71-2.1-4.53-3.887-8.64-5.258-1.05-.348-2.11-.674-3.2-.978l-.01-.003-.01-.002c-1.12-.328-2.16-.706-3.12-1.139l-.05-.019-.04-.021c-.96-.508-1.8-1.117-2.47-1.844-.82-.891-1.2-2.004-1.2-3.217 0-1.78.78-3.262 2.2-4.334 1.39-1.041 3.11-1.5 5.04-1.5 1.55 0 3.11.335 4.68.97 1.08.407 2.14.967 3.19 1.67l3.71-7.282c-1.98-.948-4.02-1.68-6.14-2.201l-.01-.003-.01-.003c-2.61-.683-5.08-1.018-7.42-1.018-2.52 0-4.76.377-6.75 1.107-1.95.733-3.59 1.76-4.94 3.07-1.31 1.266-2.35 2.821-3.12 4.689-.72 1.795-1.09 3.844-1.09 6.168 0 2.337.35 4.166.98 5.552.72 1.423 1.61 2.583 2.68 3.502 1.17.96 2.47 1.744 3.92 2.353 1.62.609 3.25 1.174 4.9 1.697l.02.006.02.006c1.43.493 2.66.946 3.67 1.359 1.09.428 2.04.93 2.81 1.525.77.558 1.39 1.246 1.78 2.085.39.784.55 1.663.55 2.583 0 1.73-.76 3.22-2.07 4.428-1.42 1.346-3.44 1.872-5.76 1.872-2.1 0-4.2-.476-6.28-1.395-1.59-.703-3.16-1.676-4.73-2.904l-4.1 7.706c4.87 3.116 10.1 4.66 15.71 4.66 2.93 0 5.49-.404 7.7-1.182l.02-.005.01-.005c2.28-.746 4.13-1.785 5.6-3.093zm32.57-45.884h-12.94l-8.53 50.27h13l4.33-28.935 11.27 28.934h5.2l11.87-28.934 4.33 28.934h13l-8.53-50.269h-12.93l-10 26.801-10.07-26.8zm21.11 1.5l-11.04 29.58-11.11-29.58h-10.63l-8.02 47.27h9.93l4.98-33.234 12.94 33.233h3.17l13.55-33.039 4.94 33.04h9.94l-8.03-47.27h-10.62zm58.5 40.035h-18.67l-3 8.734h-13.93l19.13-50.269h14.27l19.14 50.27h-13.94l-3-8.735zm4.07 7.234h10.69l-17.99-47.269h-12.2l-17.99 47.27h10.68l3-8.735h20.81l3 8.734zm-5.42-15.667h-15.96l7.98-22.768 7.98 22.768zm-7.98-18.234l-5.87 16.734h11.74l-5.87-16.734zm47.32 2.666c-.85-.444-1.54-.955-2.07-1.533-.53-.578-.8-1.311-.8-2.2 0-1.289.53-2.334 1.6-3.134 1.07-.8 2.45-1.2 4.13-1.2 1.34 0 2.72.29 4.14.867 1.01.381 2.03.921 3.05 1.62.4.28.81.584 1.21.914l5.2-10.2c-.41-.221-.82-.433-1.24-.635l-.09-.045c-2.08-1-4.24-1.773-6.47-2.321-2.71-.711-5.31-1.067-7.8-1.067-2.66 0-5.09.4-7.26 1.2-2.14.8-3.96 1.934-5.47 3.4-1.47 1.423-2.62 3.156-3.47 5.2-.8 2-1.2 4.245-1.2 6.734 0 2.49.38 4.556 1.14 6.2.8 1.6 1.82 2.934 3.06 4 1.29 1.067 2.74 1.934 4.34 2.6 1.64.623 3.31 1.2 5 1.734 1.42.49 2.62.934 3.6 1.334 1.02.4 1.84.844 2.46 1.333.63.444 1.07.956 1.34 1.533.26.534.4 1.178.4 1.934 0 1.244-.54 2.355-1.6 3.333-1.02.978-2.6 1.467-4.74 1.467-1.86 0-3.75-.422-5.66-1.267-1.53-.675-3.07-1.634-4.63-2.878-.39-.312-.78-.641-1.17-.989l-5.6 10.534c5.42 3.778 11.31 5.667 17.66 5.667 3.07 0 5.8-.422 8.2-1.267 2.45-.8 4.49-1.933 6.14-3.4 1.69-1.51 2.95-3.311 3.8-5.4.89-2.089 1.33-4.422 1.33-7 0-3.823-1-6.912-3-9.267-1.95-2.4-5.07-4.312-9.33-5.734-1.07-.355-2.16-.689-3.27-1-1.07-.311-2.04-.667-2.93-1.067zm12.4 28.35c1.52-1.359 2.65-2.97 3.41-4.844V42.9l.01-.012c.8-1.88 1.21-4.01 1.21-6.413 0-3.554-.92-6.272-2.64-8.296l-.01-.012-.01-.012c-1.71-2.1-4.53-3.887-8.65-5.258-1.04-.348-2.11-.674-3.19-.978l-.01-.003-.01-.002c-1.12-.328-2.17-.706-3.13-1.139l-.04-.019-.04-.021c-.97-.508-1.8-1.117-2.47-1.844-.82-.891-1.2-2.004-1.2-3.217 0-1.78.77-3.262 2.2-4.334 1.39-1.041 3.11-1.5 5.03-1.5 1.55 0 3.12.335 4.68.97 1.08.407 2.15.967 3.19 1.67l3.72-7.282c-1.98-.948-4.03-1.68-6.14-2.201l-.02-.003-.01-.003c-2.6-.683-5.07-1.018-7.42-1.018-2.51 0-4.75.377-6.74 1.107-1.95.733-3.6 1.76-4.95 3.07-1.3 1.266-2.34 2.821-3.12 4.688-.71 1.796-1.09 3.845-1.09 6.17 0 2.336.36 4.165.99 5.551.71 1.423 1.61 2.583 2.68 3.502 1.16.96 2.47 1.744 3.92 2.353 1.61.609 3.24 1.174 4.9 1.697l.02.006.01.006c1.44.493 2.66.946 3.67 1.359 1.1.428 2.05.93 2.81 1.525.78.558 1.4 1.246 1.79 2.084.39.785.55 1.664.55 2.584 0 1.73-.76 3.22-2.08 4.429-1.41 1.345-3.44 1.871-5.76 1.871-2.1 0-4.19-.476-6.27-1.395-1.59-.703-3.17-1.676-4.74-2.904l-4.09 7.706c4.87 3.116 10.09 4.66 15.7 4.66 2.93 0 5.5-.404 7.71-1.182l.01-.005.02-.005c2.28-.746 4.13-1.785 5.6-3.093zm24.93-24.983v-19.4h-10.07v47.268h10.07V29.91h21.87v20.734h10.07V3.374h-10.07v19.401h-21.87zm20.37-1.5H2584v-19.4h-13.07v50.268H2584V31.41h18.87v20.734h13.07V1.874h-13.07v19.401zm57.89 6.26v23.108h10.07v-23.11l17.01-24.159h-11.91l-10.06 14.91-10.14-14.91h-11.92l16.95 24.161zm-1.5.474v24.134h13.07V28.01l18.4-26.135h-15.6l-9.27 13.734-9.33-13.734h-15.6l18.33 26.135zm50.97 13.258l-.02-.009c-1.85-.781-3.5-1.86-4.93-3.236-1.43-1.383-2.56-3.009-3.39-4.867-.85-1.897-1.26-3.952-1.26-6.146s.41-4.25 1.26-6.146c.83-1.858 1.96-3.485 3.39-4.867 1.43-1.38 3.09-2.442 4.95-3.18 1.92-.784 3.93-1.175 6.03-1.175 2.09 0 4.09.39 5.96 1.176 1.9.734 3.57 1.79 5.01 3.17 1.47 1.381 2.63 3.01 3.47 4.876.84 1.896 1.26 3.952 1.26 6.146s-.42 4.249-1.26 6.146c-.84 1.865-2 3.494-3.47 4.876-1.43 1.378-3.1 2.455-5 3.233l-.01.003-.01.004c-1.87.74-3.86 1.105-5.95 1.105-2.09 0-4.1-.365-6.01-1.1l-.02-.009zm15.96-4.325c1.34-1.244 2.38-2.71 3.14-4.4.75-1.689 1.13-3.533 1.13-5.533 0-2-.38-3.845-1.13-5.534-.76-1.689-1.8-3.155-3.14-4.4-1.29-1.244-2.8-2.2-4.53-2.867-1.69-.71-3.49-1.066-5.4-1.066-1.91 0-3.73.355-5.47 1.066-1.69.667-3.18 1.623-4.46 2.867-1.29 1.245-2.32 2.711-3.07 4.4-.76 1.69-1.13 3.534-1.13 5.534s.37 3.844 1.13 5.533c.75 1.69 1.78 3.156 3.07 4.4 1.28 1.245 2.77 2.223 4.46 2.934 1.74.667 3.56 1 5.47 1 1.91 0 3.71-.333 5.4-1 1.73-.711 3.24-1.69 4.53-2.933zm-34.28-19.747l-.01.006c-1.29 3-1.94 6.263-1.94 9.808 0 3.542.65 6.828 1.94 9.875 1.31 3.024 3.11 5.66 5.41 7.922 2.29 2.252 5.03 4.035 8.24 5.344 3.23 1.255 6.79 1.893 10.71 1.893 3.87 0 7.42-.637 10.65-1.894 3.25-1.31 6.01-3.093 8.3-5.343l.01-.01c2.34-2.26 4.16-4.894 5.46-7.912 1.3-3.047 1.95-6.333 1.95-9.875 0-3.545-.66-6.808-1.95-9.808v-.006c-1.3-3.063-3.12-5.717-5.46-7.974l-.01-.01c-2.29-2.247-5.05-4.007-8.29-5.272l-.01-.003-.01-.003c-3.23-1.3-6.77-1.959-10.64-1.959-3.92 0-7.48.66-10.71 1.959l-.01.003c-3.2 1.264-5.94 3.025-8.23 5.276-2.3 2.258-4.1 4.914-5.4 7.983zm50.15 20.28c-1.38 3.2-3.31 6.001-5.8 8.401-2.44 2.4-5.38 4.29-8.8 5.667-3.42 1.333-7.16 2-11.2 2-4.09 0-7.85-.667-11.27-2-3.38-1.378-6.29-3.267-8.73-5.667-2.45-2.4-4.36-5.2-5.73-8.4-1.38-3.245-2.07-6.734-2.07-10.467 0-3.734.69-7.2 2.07-10.4 1.37-3.245 3.28-6.068 5.73-8.468 2.44-2.4 5.35-4.267 8.73-5.6 3.42-1.378 7.18-2.067 11.27-2.067 4.04 0 7.78.69 11.2 2.067 3.42 1.333 6.36 3.2 8.8 5.6 2.49 2.4 4.42 5.223 5.8 8.467 1.38 3.2 2.07 6.667 2.07 10.4 0 3.734-.69 7.223-2.07 10.468zm22.52-3.733c-.09-1.555-.13-3.066-.13-4.533V1.874h-13.07V31.01c0 7.822 1.8 13.534 5.4 17.134 3.6 3.6 9.11 5.4 16.54 5.4 7.42 0 12.91-1.8 16.46-5.4 3.6-3.6 5.4-9.312 5.4-17.134V1.874h-13V29.21c0 1.466-.06 2.978-.2 4.533-.09 1.512-.42 2.89-1 4.134-.58 1.244-1.46 2.267-2.66 3.067-1.16.755-2.83 1.133-5 1.133-2.18 0-3.87-.378-5.07-1.133-1.2-.8-2.09-1.823-2.67-3.067-.53-1.245-.86-2.622-1-4.134zm18.9.108c-.1 1.673-.47 3.23-1.14 4.657-.7 1.508-1.77 2.739-3.19 3.684l-.01.007c-1.51.983-3.51 1.378-5.82 1.378-2.33 0-4.34-.397-5.87-1.364l-.02-.01-.01-.011c-1.42-.945-2.5-2.176-3.2-3.684l-.01-.02-.01-.02c-.6-1.407-.97-2.942-1.11-4.593v-.023l-.01-.023c-.09-1.583-.13-3.122-.13-4.62V3.375h-10.07V31.01c0 7.633 1.76 12.874 4.96 16.073 3.21 3.212 8.27 4.961 15.48 4.961 7.2 0 12.23-1.75 15.4-4.954v-.007c3.2-3.2 4.96-8.44 4.96-16.073V3.374h-10V29.21c0 1.506-.07 3.053-.2 4.641zm32.83-8.008v-15.4h3.97c2.76 0 5.11.566 6.85 1.913 1.8 1.396 2.65 3.4 2.65 5.787 0 2.386-.85 4.39-2.65 5.786-1.74 1.347-4.09 1.914-6.85 1.914h-3.97zm16.1-22.7c-2.09-.845-4.53-1.268-7.33-1.268h-20.33v50.27h13.06V32.808l12.47 19.334h16.27l-15.8-20.6c.54-.127 1.06-.271 1.56-.432 2.83-.91 5.02-2.367 6.57-4.369 1.87-2.4 2.8-5.511 2.8-9.334 0-2.133-.36-4.133-1.07-6-.66-1.867-1.69-3.511-3.06-4.933-1.34-1.423-3.05-2.534-5.14-3.334zm11.1 47.501l-15.37-20.03 2.26-.531c3.35-.785 5.73-2.235 7.29-4.258l.01-.003c1.61-2.075 2.48-4.837 2.48-8.413 0-1.963-.33-3.781-.97-5.466v-.015l-.01-.014c-.59-1.666-1.5-3.126-2.73-4.395l-.01-.009-.01-.009c-1.15-1.233-2.66-2.227-4.57-2.958l-.02-.005-.01-.005c-1.87-.757-4.12-1.158-6.77-1.158h-18.83v47.27h10.06v-22.93l14.79 22.93h12.41zm-23.23-26.301c2.58 0 4.56-.533 5.93-1.6 1.38-1.067 2.07-2.6 2.07-4.6 0-2-.69-3.534-2.07-4.6-1.37-1.067-3.35-1.6-5.93-1.6h-2.47v12.4h2.47zm65.46 16.734V1.874h-13.07v50.27h28.73V41.075h-15.66zm14.16 1.5h-15.66V3.374h-10.07v47.27h25.73v-8.068zm18.82 8.067V3.374h-10.07v47.27h10.07zm30.2-48.769h-12.93l-8.53 50.27h13l4.33-28.935 11.27 28.934h5.2l11.86-28.934 4.34 28.934h13l-8.54-50.269h-12.93l-10 26.801-10.07-26.8zm21.11 1.5l-11.04 29.58-11.11-29.58h-10.62l-8.03 47.27h9.93l4.98-33.234 12.94 33.233h3.17l13.55-33.039 4.95 33.04h9.93l-8.02-47.27h-10.63zm39.27 47.27V3.373h-10.06v47.27h10.06zm28.57-39.203h10.73V3.374h-31.53v8.067h10.73v39.202h10.07V11.441zm1.5 1.5h10.73V1.874h-34.53v11.067h10.73v39.202h13.07V12.941zm31.95 6.467c-.85-.444-1.54-.955-2.07-1.533-.53-.578-.8-1.311-.8-2.2 0-1.289.53-2.334 1.6-3.134 1.07-.8 2.44-1.2 4.13-1.2 1.34 0 2.71.29 4.14.867 1.01.381 2.03.921 3.05 1.62.4.28.81.584 1.21.914l5.2-10.2c0-.001 0 0 0 0-.41-.221-.82-.433-1.24-.635l-.09-.045c-2.08-1-4.24-1.773-6.47-2.321-2.71-.711-5.31-1.067-7.8-1.067-2.66 0-5.09.4-7.26 1.2-2.14.8-3.96 1.934-5.47 3.4-1.47 1.423-2.62 3.156-3.47 5.2-.8 2-1.2 4.245-1.2 6.734 0 2.49.38 4.556 1.14 6.2.8 1.6 1.82 2.934 3.06 4 1.29 1.067 2.74 1.934 4.34 2.6 1.64.623 3.31 1.2 5 1.734 1.42.49 2.62.934 3.6 1.334 1.02.4 1.84.844 2.46 1.333.63.444 1.07.956 1.34 1.533.26.534.4 1.178.4 1.934 0 1.244-.54 2.355-1.6 3.333-1.03.978-2.6 1.467-4.74 1.467-1.86 0-3.75-.422-5.66-1.267-1.53-.675-3.07-1.634-4.63-2.878-.39-.312-.78-.641-1.17-.989l-5.6 10.534c5.42 3.778 11.31 5.667 17.66 5.667 3.07 0 5.8-.422 8.2-1.267 2.45-.8 4.49-1.933 6.14-3.4 1.69-1.51 2.95-3.311 3.8-5.4.89-2.089 1.33-4.422 1.33-7 0-3.823-1-6.912-3-9.267-1.96-2.4-5.07-4.312-9.33-5.734-1.07-.355-2.16-.689-3.27-1-1.07-.311-2.04-.667-2.93-1.067zm12.4 28.35c1.52-1.359 2.65-2.97 3.41-4.844V42.9l.01-.012c.8-1.88 1.21-4.01 1.21-6.413 0-3.554-.92-6.272-2.64-8.296l-.01-.012-.01-.012c-1.71-2.1-4.54-3.887-8.65-5.258-1.04-.348-2.11-.674-3.19-.978l-.01-.003-.01-.002c-1.12-.328-2.17-.706-3.13-1.139l-.04-.019-.04-.021c-.97-.508-1.8-1.117-2.47-1.844-.83-.891-1.2-2.004-1.2-3.217 0-1.78.77-3.262 2.2-4.334 1.39-1.041 3.11-1.5 5.03-1.5 1.55 0 3.11.335 4.68.97 1.08.407 2.15.967 3.19 1.67l3.71-7.282c-1.97-.948-4.02-1.68-6.14-2.201l-.01-.003-.01-.003c-2.6-.683-5.07-1.018-7.42-1.018-2.51 0-4.75.377-6.74 1.107-1.96.733-3.6 1.76-4.95 3.07-1.3 1.267-2.35 2.823-3.12 4.691-.72 1.795-1.09 3.843-1.09 6.166 0 2.338.36 4.167.99 5.553.71 1.423 1.61 2.582 2.68 3.5 1.16.96 2.47 1.745 3.92 2.354 1.61.609 3.24 1.174 4.9 1.697l.02.006.01.006c1.44.493 2.66.946 3.67 1.359 1.1.428 2.05.93 2.81 1.525.77.557 1.4 1.246 1.79 2.083.39.785.55 1.664.55 2.585 0 1.73-.76 3.219-2.08 4.428-1.41 1.345-3.44 1.872-5.76 1.872-2.1 0-4.19-.476-6.27-1.395-1.59-.703-3.17-1.676-4.74-2.904l-4.09 7.706c4.87 3.116 10.09 4.66 15.7 4.66 2.93 0 5.49-.404 7.71-1.182l.01-.005.02-.005c2.28-.746 4.13-1.785 5.6-3.093zm-163.5-45.884h-13.07v50.27h13.07V1.873zm90.58 0h-13.06v50.27h13.06V1.873z" clip-rule="evenodd"/>
</svg>
