<svg width="135" height="34" viewBox="0 0 135 34" fill="none" xmlns="http://www.w3.org/2000/svg">
<g clip-path="url(#clip0)">
<path d="M132.638 10.2063H130.614V4.94617C130.614 3.64263 129.556 2.58447 128.252 2.58447C126.949 2.58447 125.89 3.64263 125.89 4.94617V10.191H123.866C122.563 10.191 121.504 11.2491 121.504 12.5527C121.504 13.8562 122.563 14.9144 123.866 14.9144H125.89V30.8175C125.89 32.121 126.949 33.1792 128.252 33.1792C129.556 33.1792 130.614 32.121 130.614 30.8175V14.9144H132.638C133.942 14.9144 135 13.8562 135 12.5527C135 11.2491 133.942 10.2063 132.638 10.2063Z" fill="#19191A"/>
<path d="M22.2674 17.1073C21.6693 15.6964 20.8259 14.4542 19.783 13.4267C18.7402 12.3992 17.498 11.5711 16.0871 10.973C16.0565 10.9577 16.0258 10.9424 15.9951 10.927C15.8264 10.835 15.6271 10.7583 15.443 10.7123C15.2743 10.6663 15.0903 10.651 14.9216 10.651C14.5689 10.651 14.2468 10.7277 13.9555 10.8657C13.1887 11.2337 12.6673 12.0005 12.6673 12.9053C12.6673 13.8101 13.1887 14.5769 13.9555 14.945V14.9603L14.0321 14.991C14.0475 14.991 14.0782 15.0063 14.0935 15.0216C14.1855 15.0523 14.2775 15.083 14.3695 15.129C15.2283 15.497 15.9798 16.0031 16.6085 16.6319C17.2373 17.276 17.7434 18.0428 18.1114 18.9016C18.4795 19.7604 18.6482 20.6805 18.6482 21.6467C18.6482 22.6128 18.4642 23.5329 18.1114 24.3917C17.7434 25.2505 17.2526 26.002 16.6239 26.6308C15.9951 27.2595 15.2437 27.7656 14.3695 28.149C12.6673 28.9004 10.5509 28.9004 8.84869 28.149C7.98989 27.7656 7.23844 27.2595 6.60968 26.6308C5.98092 26.002 5.47484 25.2505 5.09145 24.3764C4.72339 23.5329 4.52403 22.6128 4.52403 21.6467C4.52403 20.6805 4.70805 19.7604 5.09145 18.9169C5.47484 18.0581 5.98092 17.2913 6.60968 16.6472C7.23844 16.0031 7.98989 15.497 8.84869 15.1443C8.87936 15.129 8.92537 15.1137 8.95604 15.0983C9.06339 15.0676 9.17074 15.0216 9.27809 14.9756L9.30876 14.9603C10.0602 14.5922 10.5816 13.8255 10.5816 12.9207C10.5816 12.0312 10.0602 11.2491 9.30876 10.881C9.01738 10.743 8.68 10.651 8.32728 10.651C8.15858 10.651 7.98989 10.6663 7.8212 10.7123C7.59116 10.7583 7.36113 10.8503 7.16176 10.973C6.37964 11.3104 5.64353 11.7091 4.96876 12.1692V3.27451C4.96876 1.92497 3.86459 0.820801 2.51505 0.820801C1.10417 0.820801 0 1.92497 0 3.27451V21.6313C0 23.2262 0.306714 24.7445 0.920141 26.1247C1.51823 27.5049 2.3617 28.7317 3.40452 29.7746C4.43201 30.8327 5.6742 31.6609 7.05441 32.2589C8.44996 32.857 9.95286 33.1791 11.5478 33.1791C13.1427 33.1791 14.6609 32.8724 16.0718 32.2743C17.4827 31.6762 18.7249 30.8327 19.7677 29.7899C20.8105 28.7471 21.654 27.5202 22.2521 26.14C22.8655 24.7445 23.1722 23.2416 23.1722 21.6467C23.1722 20.0517 22.8655 18.5182 22.2674 17.1073Z" fill="#009B9B"/>
<path d="M47.2341 11.7859C45.8692 11.7859 44.7497 12.8901 44.7497 14.2703V22.2755C44.7497 23.0883 44.5964 23.8551 44.2743 24.5605C43.9523 25.2813 43.5229 25.9254 43.0014 26.4775C42.48 27.0142 41.8513 27.4436 41.1305 27.735C39.7043 28.3331 37.9253 28.3331 36.4991 27.735C35.7783 27.4283 35.1496 27.0142 34.6282 26.4775C34.1067 25.9407 33.6773 25.2966 33.3706 24.5758C33.0639 23.8551 32.9106 23.0883 32.9106 22.2755V14.2856C32.9106 12.9054 31.7911 11.7859 30.4108 11.7859C29.0306 11.7859 27.9111 12.9054 27.9111 14.2856V22.2755C27.9111 23.7784 28.2025 25.2046 28.7699 26.5388C29.3374 27.873 30.1195 29.0385 31.1163 30.0047C32.0978 30.9708 33.2633 31.7529 34.5822 32.3204C35.901 32.8878 37.3272 33.1792 38.8301 33.1792C40.333 33.1792 41.7439 32.8878 43.0628 32.3204C44.3663 31.7529 45.5165 30.9708 46.498 30.0047C47.4795 29.0232 48.2769 27.8577 48.8443 26.5388C49.4118 25.2046 49.7031 23.7784 49.7031 22.2755V14.2703C49.7031 12.9054 48.599 11.7859 47.2341 11.7859Z" fill="#19191A"/>
<path d="M103.347 18.4262C102.78 17.092 101.998 15.9265 101.001 14.9604C100.019 13.9942 98.8539 13.2121 97.535 12.6447C96.2162 12.0773 94.79 11.7859 93.2871 11.7859C91.7842 11.7859 90.3733 12.0773 89.0544 12.6447C87.7509 13.2121 86.6007 13.9942 85.6192 14.9604C84.6377 15.9265 83.8403 17.1074 83.2729 18.4262C82.7054 19.7604 82.4141 21.1867 82.4141 22.6896V30.6948C82.4141 32.0597 83.5182 33.1792 84.8984 33.1792C86.2633 33.1792 87.3828 32.075 87.3828 30.6948V22.6896C87.3828 21.8768 87.5362 21.11 87.8582 20.4045C88.1803 19.6838 88.6097 19.0397 89.1311 18.4876C89.6525 17.9508 90.2813 17.5214 91.002 17.2301C92.4283 16.632 94.2072 16.632 95.6334 17.2301C96.3542 17.5368 96.983 17.9508 97.5044 18.4876C98.0258 19.0243 98.4552 19.6684 98.7619 20.3892C99.0686 21.11 99.222 21.8768 99.222 22.6896V30.6794C99.222 32.0597 100.341 33.1792 101.722 33.1792C103.102 33.1792 104.221 32.0597 104.221 30.6794V22.6896C104.206 21.202 103.915 19.7604 103.347 18.4262Z" fill="#19191A"/>
<path d="M75.7276 18.4262C75.1602 17.092 74.3781 15.9265 73.3813 14.9604C72.3998 13.9942 71.2343 13.2121 69.9154 12.6447C68.5965 12.0773 67.1703 11.7859 65.6674 11.7859C64.1645 11.7859 62.7537 12.0773 61.4348 12.6447C60.1313 13.2121 58.9811 13.9942 57.9996 14.9604C57.0181 15.9265 56.2207 17.1074 55.6532 18.4262C55.0858 19.7604 54.7944 21.1867 54.7944 22.6896V30.6948C54.7944 32.0597 55.8986 33.1792 57.2788 33.1792C58.659 33.1792 59.7632 32.075 59.7632 30.6948V22.6896C59.7632 21.8768 59.9166 21.11 60.2386 20.4045C60.5606 19.6838 60.9901 19.0397 61.5115 18.4876C62.0329 17.9508 62.6616 17.5214 63.3824 17.2301C64.8086 16.632 66.5876 16.632 68.0138 17.2301C68.7346 17.5368 69.3633 17.9508 69.8847 18.4876C70.4062 19.0243 70.8356 19.6684 71.1423 20.3892C71.449 21.11 71.6023 21.8768 71.6023 22.6896V30.6948C71.6023 32.0597 72.7065 33.1792 74.1174 33.1792C75.4823 33.1792 76.6018 32.075 76.6018 30.6948V22.6896C76.5864 21.202 76.2951 19.7604 75.7276 18.4262Z" fill="#19191A"/>
<path d="M113.085 11.7859C111.659 11.7859 110.494 12.9514 110.494 14.3776V30.6028C110.494 32.029 111.659 33.1945 113.085 33.1945C114.512 33.1945 115.662 32.029 115.662 30.6028V14.3776C115.662 12.9514 114.512 11.7859 113.085 11.7859Z" fill="#19191A"/>
<path d="M113.085 2.61499C111.859 2.61499 110.862 3.61181 110.862 4.83866V9.53138H113.085C114.312 9.53138 115.309 8.53456 115.309 7.30771V4.83866C115.309 3.61181 114.312 2.61499 113.085 2.61499Z" fill="#009B9B"/>
</g>
<defs>
<clipPath id="clip0">
<rect width="135" height="32.3583" fill="white" transform="translate(0 0.820801)"/>
</clipPath>
</defs>
</svg>
