<svg width="164" height="48" viewBox="0 0 164 48" fill="none" xmlns="http://www.w3.org/2000/svg">
<path d="M157.359 47.2722H6.05227C2.72504 47.2722 0 44.6116 0 41.3631V5.90859C0 2.66006 2.72504 -0.000504542 6.05227 -0.000504542H157.359C160.686 -0.000504542 163.411 2.66006 163.411 5.90859V41.3631C163.411 44.6116 160.686 47.2722 157.359 47.2722Z" fill="black"/>
<path d="M157.359 0.946426C160.161 0.946426 162.442 3.17268 162.442 5.90859V41.3631C162.442 44.099 160.161 46.3253 157.359 46.3253H6.05227C3.25007 46.3253 0.969877 44.099 0.969877 41.3631V5.90859C0.969877 3.17268 3.25007 0.946426 6.05227 0.946426H157.359ZM157.359 -0.000504542H6.05227C2.72504 -0.000504542 0 2.66006 0 5.90859V41.3631C0 44.6116 2.72504 47.2722 6.05227 47.2722H157.359C160.686 47.2722 163.411 44.6116 163.411 41.3631V5.90859C163.411 2.66006 160.686 -0.000504542 157.359 -0.000504542Z" fill="#A6A6A6"/>
<path d="M57.3966 12.1059C57.3966 13.0927 57.094 13.883 56.4978 14.4725C55.8124 15.1712 54.9197 15.5228 53.8257 15.5228C52.7802 15.5228 51.8875 15.1653 51.1552 14.4606C50.4213 13.7456 50.0552 12.8681 50.0552 11.8178C50.0552 10.7675 50.4213 9.88995 51.1552 9.18086C51.8875 8.47029 52.7802 8.11279 53.8257 8.11279C54.3462 8.11279 54.8425 8.21768 55.3161 8.41268C55.7882 8.60916 56.1725 8.87507 56.4509 9.20302L55.8185 9.82643C55.3328 9.26654 54.6716 8.99029 53.8257 8.99029C53.0632 8.99029 52.4019 9.25029 51.8406 9.77472C51.2853 10.3006 51.0069 10.9817 51.0069 11.8178C51.0069 12.6539 51.2853 13.3409 51.8406 13.8668C52.4019 14.3853 53.0632 14.6512 53.8257 14.6512C54.6352 14.6512 55.3161 14.3853 55.8533 13.8609C56.2073 13.5137 56.4086 13.0351 56.4615 12.4235H53.8257V11.5696H57.3421C57.3845 11.7543 57.3966 11.933 57.3966 12.1059Z" fill="white" stroke="white" stroke-width="0.145455" stroke-miterlimit="10"/>
<path d="M62.9754 9.14526H59.6724V11.3907H62.6501V12.2446H59.6724V14.49H62.9754V15.3601H58.7373V8.27515H62.9754V9.14526Z" fill="white" stroke="white" stroke-width="0.145455" stroke-miterlimit="10"/>
<path d="M66.9122 15.3601H65.9772V9.14526H63.9512V8.27515H68.9398V9.14526H66.9122V15.3601Z" fill="white" stroke="white" stroke-width="0.145455" stroke-miterlimit="10"/>
<path d="M72.5498 15.3601V8.27515H73.4834V15.3601H72.5498Z" fill="white" stroke="white" stroke-width="0.145455" stroke-miterlimit="10"/>
<path d="M77.6222 15.3601H76.6947V9.14526H74.6611V8.27515H79.6558V9.14526H77.6222V15.3601Z" fill="white" stroke="white" stroke-width="0.145455" stroke-miterlimit="10"/>
<path d="M89.1003 14.4488C88.3847 15.1653 87.498 15.5228 86.4404 15.5228C85.3767 15.5228 84.49 15.1653 83.7743 14.4488C83.0602 13.7338 82.7046 12.8563 82.7046 11.8178C82.7046 10.7793 83.0602 9.90177 83.7743 9.18677C84.49 8.47029 85.3767 8.11279 86.4404 8.11279C87.4919 8.11279 88.3786 8.47029 89.0943 9.19268C89.8145 9.91359 90.1701 10.7852 90.1701 11.8178C90.1701 12.8563 89.8145 13.7338 89.1003 14.4488ZM84.4658 13.855C85.0045 14.3853 85.6596 14.6512 86.4404 14.6512C87.215 14.6512 87.8763 14.3853 88.4089 13.855C88.946 13.3246 89.2183 12.6436 89.2183 11.8178C89.2183 10.992 88.946 10.311 88.4089 9.78063C87.8763 9.25029 87.215 8.98438 86.4404 8.98438C85.6596 8.98438 85.0045 9.25029 84.4658 9.78063C83.9287 10.311 83.6563 10.992 83.6563 11.8178C83.6563 12.6436 83.9287 13.3246 84.4658 13.855Z" fill="white" stroke="white" stroke-width="0.145455" stroke-miterlimit="10"/>
<path d="M91.4814 15.3601V8.27515H92.6162L96.1447 13.7854H96.1856L96.1447 12.4233V8.27515H97.0783V15.3601H96.1039L92.409 9.5781H92.3681L92.409 10.9461V15.3601H91.4814Z" fill="white" stroke="white" stroke-width="0.145455" stroke-miterlimit="10"/>
<path d="M82.4745 25.707C79.6315 25.707 77.3089 27.8195 77.3089 30.7342C77.3089 33.6252 79.6315 35.7599 82.4745 35.7599C85.3236 35.7599 87.6462 33.6252 87.6462 30.7342C87.6462 27.8195 85.3236 25.707 82.4745 25.707ZM82.4745 33.7803C80.9145 33.7803 79.5724 32.5232 79.5724 30.7342C79.5724 28.9216 80.9145 27.6866 82.4745 27.6866C84.0345 27.6866 85.3826 28.9216 85.3826 30.7342C85.3826 32.5232 84.0345 33.7803 82.4745 33.7803ZM71.2037 25.707C68.3546 25.707 66.0381 27.8195 66.0381 30.7342C66.0381 33.6252 68.3546 35.7599 71.2037 35.7599C74.0513 35.7599 76.3693 33.6252 76.3693 30.7342C76.3693 27.8195 74.0513 25.707 71.2037 25.707ZM71.2037 33.7803C69.6422 33.7803 68.2956 32.5232 68.2956 30.7342C68.2956 28.9216 69.6422 27.6866 71.2037 27.6866C72.7636 27.6866 74.1057 28.9216 74.1057 30.7342C74.1057 32.5232 72.7636 33.7803 71.2037 33.7803ZM57.7918 27.2478V29.384H63.0165C62.8636 30.5776 62.4551 31.4551 61.8287 32.0667C61.0661 32.8053 59.8784 33.6252 57.7918 33.6252C54.5766 33.6252 52.0588 31.0917 52.0588 27.9525C52.0588 24.8133 54.5766 22.2798 57.7918 22.2798C59.5303 22.2798 60.7953 22.9431 61.7288 23.8028L63.2707 22.2975C61.9649 21.0802 60.2279 20.1451 57.7918 20.1451C53.3827 20.1451 49.6772 23.6477 49.6772 27.9525C49.6772 32.2573 53.3827 35.7599 57.7918 35.7599C60.1749 35.7599 61.9649 34.9976 63.372 33.5676C64.814 32.1598 65.2634 30.1802 65.2634 28.5818C65.2634 28.0855 65.221 27.629 65.1453 27.2478H57.7918ZM112.635 28.9039C112.209 27.7797 110.898 25.707 108.225 25.707C105.578 25.707 103.373 27.7442 103.373 30.7342C103.373 33.5499 105.555 35.7599 108.48 35.7599C110.845 35.7599 112.209 34.352 112.771 33.5322L111.016 32.3902C110.43 33.2264 109.633 33.7803 108.48 33.7803C107.334 33.7803 106.513 33.2677 105.986 32.2573L112.872 29.4756L112.635 28.9039ZM105.614 30.5776C105.555 28.6394 107.156 27.6467 108.303 27.6467C109.201 27.6467 109.964 28.0855 110.218 28.7133L105.614 30.5776ZM100.017 35.4541H102.281V20.6814H100.017V35.4541ZM96.31 26.8268H96.2344C95.726 26.2389 94.7561 25.707 93.5275 25.707C90.9492 25.707 88.5919 27.917 88.5919 30.7505C88.5919 33.5676 90.9492 35.7599 93.5275 35.7599C94.7561 35.7599 95.726 35.2236 96.2344 34.618H96.31V35.3389C96.31 37.2608 95.2584 38.2934 93.5623 38.2934C92.1793 38.2934 91.3214 37.3184 90.9674 36.4985L88.9989 37.3007C89.5663 38.6332 91.0687 40.2729 93.5623 40.2729C96.2162 40.2729 98.4555 38.7484 98.4555 35.039V26.0128H96.31V26.8268ZM93.7212 33.7803C92.1612 33.7803 90.8554 32.5055 90.8554 30.7505C90.8554 28.9792 92.1612 27.6866 93.7212 27.6866C95.2584 27.6866 96.4704 28.9792 96.4704 30.7505C96.4704 32.5055 95.2584 33.7803 93.7212 33.7803ZM123.232 20.6814H117.818V35.4541H120.076V29.8567H123.232C125.739 29.8567 128.198 28.0855 128.198 25.2683C128.198 22.4526 125.733 20.6814 123.232 20.6814ZM123.291 27.8018H120.076V22.7363H123.291C124.977 22.7363 125.939 24.1027 125.939 25.2683C125.939 26.4117 124.977 27.8018 123.291 27.8018ZM137.246 25.679C135.615 25.679 133.919 26.3822 133.221 27.9407L135.225 28.7606C135.656 27.9407 136.449 27.6748 137.287 27.6748C138.458 27.6748 139.646 28.3617 139.664 29.5745V29.7297C139.255 29.4992 138.381 29.158 137.305 29.158C135.147 29.158 132.949 30.3176 132.949 32.4818C132.949 34.4614 134.716 35.7362 136.703 35.7362C138.222 35.7362 139.06 35.067 139.587 34.2885H139.664V35.4304H141.844V29.7636C141.844 27.1444 139.841 25.679 137.246 25.679ZM136.974 33.7744C136.235 33.7744 135.206 33.4169 135.206 32.5232C135.206 31.3798 136.49 30.941 137.6 30.941C138.594 30.941 139.06 31.1552 139.664 31.4374C139.487 32.8053 138.281 33.7744 136.974 33.7744ZM149.788 26.0025L147.193 32.4065H147.116L144.433 26.0025H141.999L146.029 34.9518L143.73 39.9317H146.088L152.3 26.0025H149.788ZM129.439 35.4541H131.702V20.6814H129.439V35.4541Z" fill="white"/>
<path d="M12.6307 8.90894C12.2751 9.27235 12.0693 9.83814 12.0693 10.5709V36.7068C12.0693 37.4395 12.2751 38.0053 12.6307 38.3687L12.7184 38.4485L27.719 23.8087V23.463L12.7184 8.82326L12.6307 8.90894Z" fill="url(#paint0_linear)"/>
<path d="M32.7144 28.6912L27.7197 23.8088V23.4631L32.7204 18.5807L32.8324 18.6442L38.7545 21.9341C40.4446 22.8678 40.4446 24.4041 38.7545 25.3437L32.8324 28.6276L32.7144 28.6912Z" fill="url(#paint1_linear)"/>
<path d="M32.8323 28.6276L27.7197 23.6359L12.6313 38.3688C13.1927 38.9449 14.1081 39.0143 15.1491 38.4382L32.8323 28.6276Z" fill="url(#paint2_linear)"/>
<path d="M32.8323 18.6443L15.1491 8.83372C14.1081 8.26349 13.1927 8.33292 12.6313 8.90906L27.7197 23.636L32.8323 18.6443Z" fill="url(#paint3_linear)"/>
<defs>
<linearGradient id="paint0_linear" x1="26.3871" y1="36.979" x2="6.55907" y2="16.6704" gradientUnits="userSpaceOnUse">
<stop stop-color="#00A0FF"/>
<stop offset="0.0066" stop-color="#00A1FF"/>
<stop offset="0.2601" stop-color="#00BEFF"/>
<stop offset="0.5122" stop-color="#00D2FF"/>
<stop offset="0.7604" stop-color="#00DFFF"/>
<stop offset="1" stop-color="#00E3FF"/>
</linearGradient>
<linearGradient id="paint1_linear" x1="40.9553" y1="23.6343" x2="11.6661" y2="23.6343" gradientUnits="userSpaceOnUse">
<stop stop-color="#FFE000"/>
<stop offset="0.4087" stop-color="#FFBD00"/>
<stop offset="0.7754" stop-color="#FFA500"/>
<stop offset="1" stop-color="#FF9C00"/>
</linearGradient>
<linearGradient id="paint2_linear" x1="30.0522" y1="20.9224" x2="3.16375" y2="-6.61764" gradientUnits="userSpaceOnUse">
<stop stop-color="#FF3A44"/>
<stop offset="1" stop-color="#C31162"/>
</linearGradient>
<linearGradient id="paint3_linear" x1="8.8333" y1="47.0641" x2="20.8402" y2="34.7664" gradientUnits="userSpaceOnUse">
<stop stop-color="#32A071"/>
<stop offset="0.0685" stop-color="#2DA771"/>
<stop offset="0.4762" stop-color="#15CF74"/>
<stop offset="0.8009" stop-color="#06E775"/>
<stop offset="1" stop-color="#00F076"/>
</linearGradient>
</defs>
</svg>
