<svg width="312" height="595" viewBox="0 0 312 595" fill="none" xmlns="http://www.w3.org/2000/svg">
<g filter="url(#filter0_d)">
<rect x="16" y="14" width="269.346" height="552" rx="33.5352" fill="#232323"/>
<rect x="23.4531" y="23.0493" width="253.909" height="534.434" rx="28.7445" fill="white"/>
</g>
<path d="M141.209 505.28H143.452C143.266 506.371 142.002 507.052 140.751 507.213L141.246 508.118C142.51 507.895 143.651 507.164 144.022 506.346C144.456 507.089 145.633 507.734 146.736 507.907L147.195 506.965C146.079 506.891 144.766 506.259 144.568 505.28H146.873V504.375H141.209V505.28ZM149.351 513.372V502.541H148.248V513.372H149.351ZM144.518 513.001V509.481C145.671 509.432 146.91 509.332 147.728 509.233L147.641 508.353C146.736 508.465 145.435 508.539 143.973 508.601C142.783 508.651 141.569 508.676 140.292 508.676L140.453 509.617C141.395 509.605 142.362 509.593 143.415 509.543V513.001H144.518ZM142.523 503.706H145.522V502.802H142.523V503.706ZM160.594 507.808C158.946 507.486 156.616 505.9 156.616 504.09V503.347H155.488V504.09C155.488 505.912 153.307 507.461 151.535 507.771L152.093 508.663C153.852 508.205 155.612 506.854 156.046 505.615C156.554 506.841 158.301 508.192 159.999 508.676L160.594 507.808ZM160.941 511.997V511.105H156.579V508.415H155.476V511.105H151.163V511.997H160.941Z" fill="black"/>
<path d="M96.1812 420.505V412.222H95.461V420.505H96.1812ZM89.6423 415.766C89.6423 417.529 90.4194 418.704 91.7746 418.704C93.1487 418.704 93.9163 417.529 93.9163 415.776C93.9163 414.023 93.1487 412.848 91.7746 412.848C90.4194 412.848 89.6423 414.023 89.6423 415.766ZM93.234 415.776C93.234 417.131 92.6559 418.079 91.7746 418.079C90.9027 418.079 90.3246 417.131 90.3246 415.776C90.3246 414.411 90.9027 413.473 91.7746 413.473C92.6559 413.473 93.234 414.411 93.234 415.776ZM104.314 420.505V412.222H103.594V420.505H104.314ZM101.936 418.372V413.075H98.0219V418.372H101.936ZM101.216 417.775H98.7516V413.672H101.216V417.775ZM110.884 417.993C109.747 417.377 108.695 416.041 108.695 414.496V413.653H110.628V413.056H106.013V413.653H107.946V414.506C107.946 416.07 106.951 417.482 105.738 418.192L106.184 418.723C107.141 418.107 108.05 417.046 108.325 416.013C108.61 416.989 109.661 418.031 110.439 418.534L110.884 417.993ZM111.841 412.222V420.505H112.561V412.222H111.841ZM119.017 418.136C117.87 417.51 116.819 416.193 116.819 414.648V413.7H118.723V413.094H114.127V413.7H116.07V414.667C116.07 416.164 115.065 417.605 113.843 418.325L114.326 418.865C115.312 418.183 116.174 417.159 116.449 416.155C116.771 417.14 117.785 418.192 118.572 418.704L119.017 418.136ZM120.012 415.823V420.505H120.732V412.222H120.012V415.207H118.278V415.823H120.012ZM128.648 418.922C128.648 417.927 127.596 417.33 125.861 417.33C124.127 417.33 123.085 417.927 123.085 418.922C123.085 419.898 124.127 420.495 125.861 420.495C127.596 420.495 128.648 419.898 128.648 418.922ZM122.213 413.426H124.118C124.118 413.634 124.108 413.795 124.108 413.871C124.07 414.97 123.018 416.013 121.976 416.411L122.393 416.97C123.284 416.591 124.25 415.7 124.478 414.923C124.819 415.672 125.662 416.42 126.458 416.742L126.856 416.164C125.909 415.852 124.923 414.942 124.857 413.881C124.847 413.795 124.847 413.634 124.847 413.426H126.733V412.819H122.213V413.426ZM127.908 418.922C127.908 419.538 127.112 419.898 125.861 419.898C124.611 419.898 123.833 419.538 123.833 418.922C123.833 418.278 124.611 417.937 125.861 417.937C127.112 417.937 127.908 418.278 127.908 418.922ZM129.813 415.122V414.515H128.534V412.222H127.814V417.311H128.534V415.122H129.813Z" fill="black"/>
<path d="M172.838 416.117V415.018H174.837V414.43H172.838V413.435H175.207V412.838H172.127V416.742H172.658C173.748 416.742 174.856 416.667 175.652 416.506L175.558 415.909C174.875 416.06 174.032 416.117 173.037 416.117H172.838ZM173.132 417.633V418.23H177.993V420.505H178.723V417.633H173.132ZM177.14 417.15V412.374H176.448V414.354H175.283V414.951H176.448V417.15H177.14ZM178.723 417.226V412.222H178.003V417.226H178.723ZM187.14 416.487C185.87 416.202 184.051 414.923 184.051 413.568V412.914H183.302V413.568C183.302 414.923 181.578 416.202 180.232 416.468L180.611 417.084C182.051 416.676 183.369 415.501 183.662 414.658C184.004 415.501 185.349 416.676 186.742 417.093L187.14 416.487ZM187.415 419.367V418.761H179.938V419.367H187.415ZM194.477 415.435V414.828H189.777V413.625H194.639V413.018H189.047V417.33H194.724V416.723H189.777V415.435H194.477ZM195.615 419.453V418.846H188.138V419.453H195.615ZM201.388 418.136C200.242 417.51 199.19 416.193 199.19 414.648V413.7H201.094V413.094H196.498V413.7H198.441V414.667C198.441 416.164 197.436 417.605 196.214 418.325L196.697 418.865C197.683 418.183 198.545 417.159 198.82 416.155C199.142 417.14 200.156 418.192 200.943 418.704L201.388 418.136ZM202.383 415.823V420.505H203.103V412.222H202.383V415.207H200.649V415.823H202.383ZM211.019 418.922C211.019 417.927 209.967 417.33 208.233 417.33C206.498 417.33 205.456 417.927 205.456 418.922C205.456 419.898 206.498 420.495 208.233 420.495C209.967 420.495 211.019 419.898 211.019 418.922ZM204.584 413.426H206.489C206.489 413.634 206.479 413.795 206.479 413.871C206.441 414.97 205.39 416.013 204.347 416.411L204.764 416.97C205.655 416.591 206.622 415.7 206.849 414.923C207.19 415.672 208.034 416.42 208.83 416.742L209.228 416.164C208.28 415.852 207.294 414.942 207.228 413.881C207.219 413.795 207.219 413.634 207.219 413.426H209.104V412.819H204.584V413.426ZM210.279 418.922C210.279 419.538 209.483 419.898 208.233 419.898C206.982 419.898 206.205 419.538 206.205 418.922C206.205 418.278 206.982 417.937 208.233 417.937C209.483 417.937 210.279 418.278 210.279 418.922ZM212.184 415.122V414.515H210.905V412.222H210.185V417.311H210.905V415.122H212.184Z" fill="black"/>
<circle cx="191.88" cy="382.505" r="21.5047" fill="#F2F2F2"/>
<path d="M187.473 380.483H188.268C188.268 380.483 188.268 378.893 189.063 378.893C189.858 378.893 191.449 378.893 191.449 378.893V386.05C191.449 386.05 191.449 386.845 190.654 386.845C189.858 386.845 189.858 386.845 189.858 386.845V387.641H192.244H194.63V386.845C194.63 386.845 194.63 386.845 193.835 386.845C193.039 386.845 193.039 386.05 193.039 386.05V378.893C193.039 378.893 194.63 378.893 195.425 378.893C196.22 378.893 196.22 380.483 196.22 380.483H197.016V378.098H187.473V380.483Z" fill="black"/>
<path d="M184.291 374.917H185.087V374.122H183.496V375.712H184.291V374.917Z" fill="black"/>
<path d="M183.496 391.617H185.087V390.822H184.291V390.026H183.496V391.617Z" fill="black"/>
<path d="M184.291 377.302H183.496V378.893H184.291V377.302Z" fill="black"/>
<path d="M184.291 380.484H183.496V382.074H184.291V380.484Z" fill="black"/>
<path d="M184.291 383.665H183.496V385.255H184.291V383.665Z" fill="black"/>
<path d="M184.291 386.845H183.496V388.436H184.291V386.845Z" fill="black"/>
<path d="M199.402 391.617H200.993V390.026H200.198V390.822H199.402V391.617Z" fill="black"/>
<path d="M200.993 374.122H199.402V374.917H200.198V375.712H200.993V374.122Z" fill="black"/>
<path d="M200.991 386.845H200.195V388.436H200.991V386.845Z" fill="black"/>
<path d="M200.991 383.665H200.195V385.255H200.991V383.665Z" fill="black"/>
<path d="M200.991 380.484H200.195V382.074H200.991V380.484Z" fill="black"/>
<path d="M200.991 377.302H200.195V378.893H200.991V377.302Z" fill="black"/>
<path d="M188.266 390.822H186.676V391.617H188.266V390.822Z" fill="black"/>
<path d="M191.45 390.822H189.859V391.617H191.45V390.822Z" fill="black"/>
<path d="M194.63 390.822H193.039V391.617H194.63V390.822Z" fill="black"/>
<path d="M197.809 390.822H196.219V391.617H197.809V390.822Z" fill="black"/>
<path d="M188.266 374.122H186.676V374.917H188.266V374.122Z" fill="black"/>
<path d="M191.45 374.122H189.859V374.917H191.45V374.122Z" fill="black"/>
<path d="M194.63 374.122H193.039V374.917H194.63V374.122Z" fill="black"/>
<path d="M197.809 374.122H196.219V374.917H197.809V374.122Z" fill="black"/>
<circle cx="109.505" cy="382.505" r="21.5047" fill="#F2F2F2"/>
<path d="M117.192 374.122H102.545C102.167 374.122 101.805 374.272 101.538 374.539C101.271 374.806 101.121 375.168 101.121 375.546V390.193C101.121 390.571 101.271 390.933 101.538 391.2C101.805 391.467 102.167 391.617 102.545 391.617H117.192C117.57 391.617 117.932 391.467 118.199 391.2C118.466 390.933 118.616 390.571 118.616 390.193V375.546C118.616 375.168 118.466 374.806 118.199 374.539C117.932 374.272 117.57 374.122 117.192 374.122ZM102.545 375.342H117.192C117.246 375.342 117.298 375.364 117.336 375.402C117.374 375.44 117.396 375.492 117.396 375.546V381.722L115.825 380.151C115.708 380.042 115.554 379.981 115.394 379.981C115.234 379.981 115.08 380.042 114.963 380.151L110.149 384.965L107.863 382.678C107.76 382.575 107.624 382.512 107.48 382.501C107.335 382.49 107.191 382.531 107.074 382.617C107.074 382.617 104.547 384.448 102.342 386.035V375.546C102.342 375.519 102.347 375.492 102.357 375.468C102.367 375.443 102.382 375.421 102.401 375.402C102.42 375.383 102.443 375.368 102.467 375.358C102.492 375.347 102.518 375.342 102.545 375.342ZM117.192 390.396H102.545C102.491 390.396 102.439 390.375 102.401 390.337C102.363 390.299 102.342 390.247 102.342 390.193V387.536C104.156 386.234 106.439 384.582 107.367 383.911L109.718 386.258C109.775 386.316 109.842 386.361 109.916 386.392C109.99 386.423 110.069 386.439 110.149 386.439C110.23 386.439 110.309 386.423 110.383 386.392C110.457 386.361 110.524 386.316 110.581 386.258L115.394 381.445L117.396 383.447V390.193C117.396 390.247 117.374 390.299 117.336 390.337C117.298 390.375 117.246 390.396 117.192 390.396Z" fill="black"/>
<path d="M105.492 380.428C108.162 380.343 108.162 376.473 105.492 376.392C102.823 376.453 102.827 380.322 105.492 380.428ZM105.492 377.613C105.676 377.65 105.842 377.75 105.961 377.895C106.079 378.041 106.144 378.222 106.144 378.41C106.144 378.598 106.079 378.78 105.961 378.925C105.842 379.07 105.676 379.17 105.492 379.208C105.277 379.208 105.07 379.122 104.917 378.969C104.764 378.817 104.679 378.61 104.679 378.394C104.679 378.178 104.764 377.971 104.917 377.818C105.07 377.666 105.277 377.58 105.492 377.58V377.613Z" fill="black"/>
<defs>
<filter id="filter0_d" x="0.0308599" y="0.160079" width="311.931" height="594.584" filterUnits="userSpaceOnUse" color-interpolation-filters="sRGB">
<feFlood flood-opacity="0" result="BackgroundImageFix"/>
<feColorMatrix in="SourceAlpha" type="matrix" values="0 0 0 0 0 0 0 0 0 0 0 0 0 0 0 0 0 0 127 0"/>
<feOffset dx="5.32305" dy="7.45227"/>
<feGaussianBlur stdDeviation="10.6461"/>
<feColorMatrix type="matrix" values="0 0 0 0 0 0 0 0 0 0 0 0 0 0 0 0 0 0 0.47 0"/>
<feBlend mode="normal" in2="BackgroundImageFix" result="effect1_dropShadow"/>
<feBlend mode="normal" in="SourceGraphic" in2="effect1_dropShadow" result="shape"/>
</filter>
</defs>
</svg>
