<svg width="149" height="22" viewBox="0 0 149 22" fill="none" xmlns="http://www.w3.org/2000/svg">
<g clip-path="url(#clip0)">
<path d="M46.0591 12.8725C46.6155 13.6144 46.8937 14.5418 46.8937 15.6238C46.8937 16.5821 46.6464 17.4476 46.1209 18.1586C45.5954 18.9005 44.8844 19.457 43.9261 19.8588C42.9678 20.2607 41.8858 20.4462 40.5875 20.4462H31.7773V2.79492H40.3402C42.195 2.79492 43.6788 3.19679 44.7607 4.03144C45.8427 4.86608 46.3991 5.97895 46.3991 7.37003C46.3991 8.2665 46.1518 9.07023 45.6572 9.75032C45.1626 10.4304 44.4825 10.9559 43.617 11.265C44.6989 11.6051 45.5027 12.1306 46.0591 12.8725ZM36.2906 9.7194H39.5674C40.4329 9.7194 41.0821 9.59575 41.484 9.31753C41.8858 9.03932 42.0713 8.63745 42.0713 8.05011C42.0713 7.43185 41.8858 6.96816 41.484 6.68994C41.0821 6.41173 40.4329 6.25716 39.5674 6.25716H36.2906V9.7194ZM42.0095 16.5511C42.4114 16.2729 42.5968 15.7783 42.5968 15.0982C42.5968 14.4182 42.4114 13.9545 42.0095 13.6453C41.6076 13.3671 40.9585 13.2126 40.0311 13.2126H36.2906V16.9839H40.0311C40.9585 16.9839 41.6076 16.8294 42.0095 16.5511Z" fill="#329EFF"/>
<path d="M51.1304 18.746C49.8012 17.4476 49.1211 15.531 49.1211 13.0271V2.79492H53.6344V13.2126C53.6344 14.48 53.9126 15.4692 54.4999 16.1493C55.0564 16.8294 55.891 17.1694 56.973 17.1694C58.0549 17.1694 58.8586 16.8294 59.446 16.1493C60.0024 15.4692 60.3116 14.48 60.3116 13.2126V2.79492H64.8557V13.0271C64.8557 15.531 64.1757 17.4167 62.8464 18.746C61.4862 20.0443 59.5696 20.7244 57.0039 20.7244C54.4072 20.6935 52.4597 20.0443 51.1304 18.746Z" fill="#329EFF"/>
<path d="M79.3831 2.79492H83.7109V20.4771H80.3105L72.2422 10.3686V20.4771H67.9453V2.79492H71.3148L79.414 12.9034V2.79492H79.3831Z" fill="#329EFF"/>
<path d="M98.3941 2.79492H102.722V20.4771H99.3215L91.1914 10.3686V20.4771H86.8945V2.79492H90.264L98.3632 12.9034V2.79492H98.3941Z" fill="#329EFF"/>
<path d="M105.379 15.9014H110.016V20.4765H105.379V15.9014Z" fill="#329EFF"/>
<path d="M112.738 20.4771V2.79492H125.042V6.41173H117.252V9.65758H124.516V13.2744H117.252V20.4771H112.738Z" fill="#329EFF"/>
<path d="M127.234 20.4771V2.79492H131.84V20.4771H127.234Z" fill="#329EFF"/>
<path d="M139.044 20.4771V6.53538H133.758V2.79492H148.998V6.53538H143.712V20.4771H139.044Z" fill="#329EFF"/>
<path d="M12.427 8.79209L10.7268 12.2543H18.5786C18.5786 12.2543 16.6311 15.3147 12.6124 17.0767H6.89357L11.0668 8.76118H11.0359L13.3853 4.09333H15.271C17.7749 4.12425 20.4952 2.91864 21.9481 0.383789H18.7332H15.982H11.1286H9.73755L0 21.5591L13.0452 21.5282C22.1027 17.0149 26.4305 8.79209 26.4305 8.79209H12.427Z" fill="#329EFF"/>
</g>
<defs>
<clipPath id="clip0">
<rect width="149" height="21.1753" fill="white" transform="translate(0 0.383789)"/>
</clipPath>
</defs>
</svg>
