<svg width="168" height="22" viewBox="0 0 168 22" fill="none" xmlns="http://www.w3.org/2000/svg">
<g clip-path="url(#clip0)">
<path d="M48.4926 12.3899C49.1329 13.3061 49.4531 14.4197 49.4531 15.7588C49.4531 16.9428 49.1596 17.9859 48.5593 18.888C47.9723 19.776 47.1185 20.4667 46.0246 20.96C44.9306 21.4533 43.6366 21.693 42.1691 21.693H31.9501V0H41.8756C44.0368 0 45.7444 0.507438 47.0118 1.52231C48.2791 2.53719 48.9195 3.90445 48.9195 5.6241C48.9195 6.73765 48.6393 7.71024 48.079 8.55597C47.5187 9.4017 46.7316 10.0219 45.7177 10.4166C46.9317 10.8253 47.8522 11.4737 48.4926 12.3899ZM37.1663 8.52778H40.9818C41.9957 8.52778 42.7294 8.35863 43.1963 8.03443C43.6632 7.71024 43.89 7.1887 43.89 6.46983C43.89 5.70868 43.6632 5.15895 43.1963 4.80656C42.7294 4.45418 41.9957 4.28503 40.9818 4.28503H37.1663V8.52778ZM43.7967 16.8723C44.2502 16.5199 44.477 15.9279 44.477 15.0963C44.477 14.2787 44.2502 13.6867 43.7967 13.3202C43.3431 12.9679 42.5826 12.7846 41.5154 12.7846H37.1796V17.3938H41.5154C42.5826 17.4079 43.3431 17.2388 43.7967 16.8723Z" fill="black"/>
<path d="M54.3901 19.5646C52.8426 17.9577 52.0689 15.6319 52.0689 12.545V0H57.3118V12.7705C57.3118 14.3351 57.6453 15.5332 58.299 16.3649C58.9527 17.2106 59.9132 17.6194 61.1539 17.6194C62.3946 17.6194 63.3418 17.1965 64.0088 16.3649C64.6625 15.5191 64.996 14.321 64.996 12.7705V0H70.2656V12.545C70.2656 15.6037 69.4785 17.9295 67.9177 19.5505C66.3568 21.1573 64.1022 21.9608 61.1539 21.9608C58.1923 21.9608 55.9377 21.1714 54.3901 19.5646Z" fill="black"/>
<path d="M87.1964 0H92.1992V21.693H88.237L78.8585 9.28893V21.693H73.8824V0H77.7779L87.1831 12.404V0H87.1964Z" fill="black"/>
<path d="M109.236 0H114.238V21.693H110.276L100.898 9.28893V21.693H95.9214V0H99.8303L109.236 12.404V0V0Z" fill="black"/>
<path d="M117.36 16.0977H122.75V21.6936H117.36V16.0977Z" fill="black"/>
<path d="M125.898 21.693V0H140.199V4.42599H131.168V8.42911H139.612V12.8551H131.168V21.6789H125.898V21.693Z" fill="black"/>
<path d="M142.719 21.693V0H148.082V21.693H142.719Z" fill="black"/>
<path d="M156.434 21.693V4.58104H150.283V0H168V4.58104H161.85V21.693H156.434Z" fill="black"/>
<path d="M12.0995 8.65519L10.4452 12.2213L18.0895 12.2354C18.0895 12.2354 16.1817 15.3787 12.2729 17.1971L6.69647 17.2112L10.7654 8.66928H10.7254L13.02 3.86272H14.861C17.3024 3.86272 19.9305 2.62232 21.3446 0.0287439H18.2362H15.5681V0.0146484L10.8321 0.0287439H9.47134L-0.000584427 21.7781L12.6998 21.764C21.5314 17.1125 25.707 8.66928 25.707 8.66928H12.0995V8.65519Z" fill="black"/>
</g>
<defs>
<clipPath id="clip0">
<rect width="168" height="21.9608" fill="white" transform="matrix(-1 0 0 1 168 0)"/>
</clipPath>
</defs>
</svg>
