<svg width="536" height="261" viewBox="0 0 536 261" fill="none" xmlns="http://www.w3.org/2000/svg">
<path d="M264.97 19.648C264.97 17.2 262.186 15.544 257.554 15.544C252.85 15.544 250.042 17.2 250.042 19.648C250.042 22.144 252.85 23.8 257.554 23.8C262.186 23.8 264.97 22.144 264.97 19.648ZM267.274 14.44V11.968H258.394V8.128H255.202V11.968H247.954V14.44H267.274ZM264.778 3.184H250.138V5.632H261.634V6.016C261.634 7.48 261.394 9.088 261.082 10.384L264.082 10.744C264.418 9.064 264.778 7.648 264.778 3.184ZM261.706 19.672C261.706 20.728 260.098 21.28 257.554 21.28C254.962 21.28 253.33 20.728 253.33 19.672C253.33 18.592 254.962 18.064 257.554 18.064C260.098 18.064 261.706 18.592 261.706 19.672ZM286.048 8.032C286.048 5.224 283 3.28 278.368 3.28C273.76 3.28 270.664 5.224 270.664 8.032C270.664 10.912 273.76 12.832 278.368 12.832C283 12.832 286.048 10.912 286.048 8.032ZM276.256 23.872V16.864H280.408V23.872H283.576V16.864H288.04V14.344H268.72V16.864H273.04V23.872H276.256ZM282.712 8.032C282.712 9.328 281.008 10.36 278.368 10.36C275.704 10.36 274 9.328 274 8.032C274 6.784 275.704 5.752 278.368 5.752C281.008 5.752 282.712 6.784 282.712 8.032Z" fill="white"/>
<path d="M111.403 76.852V67.376H123.731V62.638H105.377V81.682C106.619 81.682 107.723 81.774 108.873 81.774C116.647 81.774 124.053 81.038 127.641 80.302C127.503 78.784 127.319 77.22 127.135 75.656C123.179 76.484 116.831 76.852 111.403 76.852ZM141.717 74.276V69.308H136.289V59.648H130.171V83.936H136.289V74.276H141.717ZM136.703 92.262C136.703 87.202 131.321 84.212 122.397 84.212C113.427 84.212 108.045 87.202 108.045 92.262C108.045 97.138 113.427 100.174 122.397 100.174C131.321 100.174 136.703 97.138 136.703 92.262ZM130.355 92.262C130.355 94.194 127.503 95.39 122.397 95.39C117.291 95.39 114.393 94.194 114.393 92.262C114.393 90.192 117.291 88.996 122.397 88.996C127.503 88.996 130.355 90.192 130.355 92.262ZM178.022 89.364V59.648H171.812V89.364H178.022ZM178.896 99.622V94.838H155.942V86.742H149.87V99.622H178.896ZM169.098 78.6C163.946 76.944 159.898 73.034 159.898 66.456V62.454H153.642V66.778C153.642 72.804 150.1 77.818 143.936 79.934L147.064 84.626C150.928 83.384 155.666 79.244 156.862 75.426C158.38 78.784 162.704 82.372 165.878 83.476L169.098 78.6ZM192.062 72.022C192.062 69.032 194.408 67.054 197.26 67.054C200.112 67.054 202.55 69.032 202.55 72.022C202.55 74.966 200.112 76.99 197.26 76.99C194.408 76.99 192.062 74.966 192.062 72.022ZM218.65 59.648H212.578V100.634H218.65V59.648ZM186.174 72.022C186.174 77.956 190.958 81.82 197.26 81.82C203.608 81.82 208.53 77.956 208.53 72.022C208.53 66.134 203.608 62.224 197.26 62.224C190.958 62.224 186.174 66.134 186.174 72.022ZM211.106 90.468L210.692 85.684C207.564 85.96 202.55 86.374 197.03 86.512C192.936 86.65 188.704 86.65 183.966 86.65L184.656 91.986C188.336 92.032 193.35 91.848 197.858 91.618C202.09 91.434 208.024 90.882 211.106 90.468ZM268.603 69.078C268.603 64.478 263.313 60.706 254.159 60.706C245.097 60.706 239.853 64.478 239.853 69.078C239.853 73.678 245.097 77.45 254.251 77.45C263.313 77.45 268.603 73.678 268.603 69.078ZM257.609 91.434V84.166H272.651V79.382H235.621V84.166H251.399V91.434H257.609ZM268.465 99.622V94.884H246.109V87.8H240.083V99.622H268.465ZM262.301 69.17C262.301 71.24 259.265 72.804 254.159 72.804C249.237 72.804 246.063 71.24 246.063 69.17C246.063 66.962 249.237 65.306 254.159 65.306C259.265 65.306 262.301 66.962 262.301 69.17ZM307.944 74.966V70.182H286.324V65.306H307.622V60.43H280.252V74.966H290.97V78.554H275.422V83.338H312.452V78.554H297.042V74.966H307.944ZM308.22 92.814C308.22 87.938 302.838 84.902 293.868 84.902C284.944 84.902 279.654 87.938 279.654 92.814C279.654 97.506 284.944 100.726 293.96 100.726C302.838 100.726 308.22 97.506 308.22 92.814ZM301.964 92.906C301.964 94.562 298.79 95.896 293.868 95.896C289.084 95.896 285.91 94.562 285.91 92.906C285.91 90.974 289.084 89.732 293.868 89.732C298.79 89.732 301.964 90.974 301.964 92.906ZM349.309 100.634V59.648H343.191V100.634H349.309ZM336.935 63.88H317.477V68.848H330.495C329.667 76.714 323.917 84.58 314.947 88.766L318.397 93.55C331.691 86.236 336.567 75.84 336.935 63.88ZM388.236 77.91V73.402H366.018V71.424H387.132V60.798H359.946V65.306H381.014V67.1H359.9V77.91H370.388V80.9H355.024V85.776H392.054V80.9H376.414V77.91H388.236ZM359.44 87.662V92.4H381.336V100.726H387.362V87.662H359.44ZM431.854 81.084V76.254H394.824V81.084H431.854ZM428.312 100.404V95.436H405.45V93.688H427.3V82.97H399.378V87.754H421.182V89.456H399.424V100.404H428.312ZM405.174 67.652C405.174 66.226 407.796 65.03 413.316 65.03C418.744 65.03 421.504 66.226 421.504 67.652C421.504 69.124 418.744 70.228 413.316 70.228C407.796 70.228 405.174 69.124 405.174 67.652ZM398.78 67.606C398.78 71.792 403.656 74.644 413.316 74.644C422.976 74.644 427.898 71.792 427.898 67.606C427.898 63.42 422.976 60.522 413.316 60.522C403.656 60.522 398.78 63.42 398.78 67.606ZM182.592 162.492C182.592 157.8 177.256 154.626 168.378 154.626C159.362 154.626 153.98 157.8 153.98 162.492C153.98 167.276 159.362 170.45 168.378 170.45C177.256 170.45 182.592 167.276 182.592 162.492ZM187.008 152.51V147.772H169.988V140.412H163.87V147.772H149.978V152.51H187.008ZM182.224 130.936H154.164V135.628H176.198V136.364C176.198 139.17 175.738 142.252 175.14 144.736L180.89 145.426C181.534 142.206 182.224 139.492 182.224 130.936ZM176.336 162.538C176.336 164.562 173.254 165.62 168.378 165.62C163.41 165.62 160.282 164.562 160.282 162.538C160.282 160.468 163.41 159.456 168.378 159.456C173.254 159.456 176.336 160.468 176.336 162.538ZM222.99 140.228C222.99 134.846 217.148 131.12 208.27 131.12C199.438 131.12 193.504 134.846 193.504 140.228C193.504 145.748 199.438 149.428 208.27 149.428C217.148 149.428 222.99 145.748 222.99 140.228ZM204.222 170.588V157.156H212.18V170.588H218.252V157.156H226.808V152.326H189.778V157.156H198.058V170.588H204.222ZM216.596 140.228C216.596 142.712 213.33 144.69 208.27 144.69C203.164 144.69 199.898 142.712 199.898 140.228C199.898 137.836 203.164 135.858 208.27 135.858C213.33 135.858 216.596 137.836 216.596 140.228ZM264.539 170.634V129.648H258.743V146.254H255.937V130.292H250.417V168.794H255.937V151.13H258.743V170.634H264.539ZM248.439 154.074C248.439 149.29 244.759 145.656 239.377 145.656C233.949 145.656 230.223 149.244 230.223 154.074C230.223 158.812 233.765 162.492 239.377 162.492C244.759 162.492 248.439 158.858 248.439 154.074ZM229.395 144.46H249.083V139.722H229.395V144.46ZM234.041 137.56H245.035V132.776H234.041V137.56ZM243.057 154.074C243.057 156.282 241.493 157.984 239.377 157.984C237.215 157.984 235.559 156.374 235.559 154.074C235.559 151.866 237.215 150.164 239.377 150.164C241.493 150.164 243.057 151.912 243.057 154.074ZM306.41 165.574V160.744H290.908V153.476H302.086V132.27H295.968V138.388H279.73V132.27H273.658V153.476H284.882V160.744H269.38V165.574H306.41ZM295.968 148.692H279.73V143.034H295.968V148.692ZM344.141 170.634V129.648H338.437V170.634H344.141ZM335.861 168.794V130.384H330.341V143.494H325.465V148.6H330.341V168.794H335.861ZM330.065 156.098C325.327 153.108 322.383 148.6 322.383 139.078V133.604H316.311V139.17C316.311 148.462 313.413 153.982 307.939 157.294L311.389 161.848C314.977 159.778 318.335 155.316 319.347 151.498C320.313 155.178 323.993 159.272 326.431 160.836L330.065 156.098ZM382.746 142.482C382.746 136.226 376.72 131.902 367.474 131.902C358.274 131.902 352.248 136.226 352.248 142.482C352.248 148.784 358.274 153.154 367.474 153.154C376.72 153.154 382.746 148.784 382.746 142.482ZM386.012 165.574V160.744H378.054V154.304L371.844 154.58V160.744H363.058V154.58L356.848 154.304V160.744H348.982V165.574H386.012ZM376.536 142.528C376.536 146.024 372.902 148.554 367.474 148.554C361.954 148.554 358.412 146.024 358.412 142.528C358.412 139.124 361.954 136.594 367.474 136.594C372.994 136.594 376.536 139.124 376.536 142.528Z" fill="white"/>
<path d="M141.99 207.789V206.701H139.729V202.332H138.437V211.58H139.729V207.789H141.99ZM139.729 216.986V212.345H130.328V216.986H139.729ZM138.437 215.915H131.62V213.399H138.437V215.915ZM134.646 203.743V202.655H130.481V203.743H134.646ZM136.89 205.868V204.797H128.237V205.868H136.89ZM136.006 208.962C136.006 207.432 134.51 206.514 132.555 206.514C130.566 206.514 129.104 207.432 129.104 208.962C129.104 210.458 130.583 211.41 132.555 211.41C134.51 211.41 136.006 210.441 136.006 208.962ZM134.731 208.962C134.731 209.863 133.711 210.407 132.555 210.407C131.416 210.407 130.345 209.863 130.345 208.962C130.345 208.044 131.399 207.517 132.555 207.517C133.711 207.517 134.731 208.044 134.731 208.962ZM149.916 204.117H147.264V205.205H148.624C148.675 207.653 148.369 211.036 146.142 213.739L147.213 214.453C148.454 212.787 149.151 211.138 149.491 209.387H151.599V216.442H152.857V202.689H151.599V208.299H149.695C149.865 207.007 149.899 205.63 149.916 204.117ZM155.543 217.19V202.332H154.268V217.19H155.543ZM146.601 204.117H143.235V205.205H145.343C145.343 207.194 144.901 210.424 142.691 212.872L143.711 213.586C145.904 211.002 146.601 207.857 146.601 204.117ZM171.561 209.693V208.605H169.147V202.332H167.855V217.19H169.147V209.693H171.561ZM164.234 204.457V203.352H159.865V204.457H164.234ZM166.427 206.973V205.902H157.655V206.973H166.427ZM165.543 211.002C165.543 209.251 164.149 207.925 162.075 207.925C160.001 207.925 158.607 209.268 158.607 211.002C158.607 212.736 160.001 214.062 162.075 214.062C164.149 214.062 165.543 212.719 165.543 211.002ZM164.251 211.002C164.251 212.158 163.35 212.991 162.075 212.991C160.834 212.991 159.899 212.158 159.899 211.002C159.899 209.829 160.834 209.013 162.075 209.013C163.333 209.013 164.251 209.829 164.251 211.002ZM183.278 205.987V208.197H180.507V209.268H183.278V213.127H184.57V202.332H183.278V204.916H180.507V205.987H183.278ZM184.893 216.697V215.609H176.291V212.141H174.999V216.697H184.893ZM179.878 210.594V203.658H173.095V210.594H179.878ZM178.569 209.54H174.387V204.729H178.569V209.54ZM203.727 217.19V202.332H202.435V207.755H198.049V208.86H202.435V217.19H203.727ZM200.191 211.92C198.542 212.243 195.72 212.464 193.51 212.379V204.899H199.222V203.811H192.218V213.484L193.238 213.501C195.89 213.552 198.695 213.348 200.344 213.042L200.191 211.92ZM223.055 216.918V215.847H213.671V214.504H222.545V211.206H212.379V212.243H221.253V213.535H212.379V216.918H223.055ZM223.497 206.956C221.44 206.769 218.754 205.8 218.261 204.117H222.936V203.046H212.039V204.117H216.748C216.323 205.834 213.824 206.769 211.529 206.973L212.107 208.027C214.555 207.704 216.918 206.548 217.479 205.205C218.227 206.531 220.522 207.653 222.902 208.044L223.497 206.956ZM224.194 210.033V208.962H210.781V210.033H224.194ZM236.336 207.228V210.254H237.628V202.332H236.336V206.14H233.072V207.228H236.336ZM237.645 216.986V211.053H236.353V212.889H229.417V211.053H228.125V216.986H237.645ZM236.353 215.932H229.417V213.943H236.353V215.932ZM226.408 203.267V204.372H231.593C231.185 206.922 228.567 208.928 225.609 209.574L226.289 210.679C230.097 209.472 232.783 207.228 233.021 203.267H226.408ZM253.612 215.048V213.96H246.608V208.588H245.316V213.96H240.199V215.048H253.612ZM251.81 203.879H241.576V204.967H250.467V206.412C250.467 208.367 250.28 210.611 249.94 212.005L251.215 212.209C251.657 210.322 251.793 208.01 251.81 205.749V203.879ZM271.427 207.313C271.427 204.865 269.302 203.267 266.055 203.267C262.859 203.267 260.717 204.865 260.717 207.313C260.717 209.591 262.57 211.121 265.409 211.325V214.147H259.374V215.235H272.787V214.147H266.701V211.325C269.557 211.138 271.427 209.591 271.427 207.313ZM270.186 207.33C270.186 209.115 268.554 210.288 266.055 210.288C263.59 210.288 261.975 209.115 261.975 207.33C261.975 205.545 263.59 204.355 266.055 204.355C268.571 204.355 270.186 205.545 270.186 207.33ZM286.612 217.19V202.332H285.337V208.265H283.399V202.689H282.124V216.425H283.399V209.353H285.337V217.19H286.612ZM281.24 212.039C279.591 212.379 277.16 212.515 275.817 212.515V209.081H280.254V203.913H274.491V204.984H278.962V208.01H274.525V213.603H275.494C277.347 213.603 279.795 213.399 281.376 213.11L281.24 212.039ZM305.141 205.698C305.141 203.828 303.203 202.791 299.973 202.791C296.743 202.791 294.805 203.828 294.805 205.698C294.805 207.585 296.726 208.639 299.956 208.639C303.203 208.639 305.141 207.585 305.141 205.698ZM299.973 203.862C302.336 203.862 303.866 204.474 303.866 205.715C303.866 206.922 302.319 207.551 299.956 207.551C297.61 207.551 296.097 206.922 296.097 205.715C296.097 204.474 297.627 203.862 299.973 203.862ZM300.67 213.977V210.968H306.671V209.897H293.258V210.968H299.378V213.977H300.67ZM305.158 216.765V215.677H296.318V212.43H295.026V216.765H305.158ZM319.782 214.589C319.782 212.906 317.929 212.005 314.665 212.005C311.418 212.005 309.582 212.974 309.582 214.589C309.582 216.238 311.418 217.19 314.665 217.19C317.929 217.19 319.782 216.255 319.782 214.589ZM319.765 207.959V206.888H310.908V204.117H319.697V203.046H309.599V207.959H314.019V209.846H307.967V210.917H321.38V209.846H315.311V207.959H319.765ZM314.665 213.059C317.028 213.059 318.456 213.637 318.456 214.589C318.456 215.575 317.028 216.119 314.665 216.119C312.336 216.119 310.908 215.575 310.908 214.589C310.908 213.637 312.336 213.059 314.665 213.059ZM336.361 207.347V206.259H334.1V202.332H332.808V210.781H334.1V207.347H336.361ZM334.661 217.105V216.102H326.042V214.742H334.1V211.546H324.682V212.532H332.808V213.79H324.75V217.105H334.661ZM329.102 203.675V202.587H324.818V203.675H329.102ZM331.329 205.681V204.627H322.608V205.681H331.329ZM330.462 208.503C330.462 207.058 328.949 206.259 326.96 206.259C324.988 206.259 323.475 207.058 323.475 208.503C323.475 209.965 325.022 210.764 326.96 210.764C329 210.764 330.462 209.965 330.462 208.503ZM329.221 208.503C329.221 209.336 328.133 209.761 326.96 209.761C325.804 209.761 324.716 209.336 324.716 208.503C324.716 207.67 325.787 207.262 326.96 207.262C328.133 207.262 329.221 207.67 329.221 208.503ZM349.178 217.207V211.818H355.264V210.73H341.851V211.818H347.886V217.207H349.178ZM354.72 208.044C352.102 207.721 349.246 205.817 349.246 203.794V202.842H347.886V203.794C347.886 205.817 345.268 207.704 342.412 208.078L343.041 209.183C345.302 208.741 347.835 207.296 348.549 205.562C349.45 207.296 351.881 208.69 354.108 209.149L354.72 208.044ZM373.163 210.968V202.332H371.871V210.968H373.163ZM373.809 217.224L374.591 216.306C373.18 215.779 371.701 214.147 371.701 212.311V211.461H370.409V212.362C370.409 214.164 369.032 215.779 367.434 216.561L368.25 217.428C369.457 216.833 370.698 215.49 371.072 214.368C371.429 215.439 372.772 216.731 373.792 217.224H373.809ZM368.284 215.184C367.145 214.742 366.091 213.705 366.091 212.124V211.512H364.799V212.243C364.799 214.045 363.303 215.677 361.79 216.34L362.572 217.258C363.847 216.646 365.156 215.218 365.513 214.096C365.853 214.912 366.652 215.677 367.4 216.068L368.284 215.184ZM365.241 203.165C363.133 203.165 361.382 204.593 361.382 206.752C361.382 208.911 363.133 210.271 365.241 210.271C367.349 210.271 369.083 208.911 369.083 206.735C369.083 204.593 367.349 203.165 365.241 203.165ZM365.241 204.219C366.805 204.219 367.842 205.273 367.842 206.752C367.842 208.214 366.788 209.217 365.241 209.217C363.745 209.217 362.64 208.214 362.64 206.735C362.64 205.273 363.745 204.219 365.241 204.219ZM375.921 208.622C375.921 211.784 377.281 213.875 379.678 213.875C381.939 213.875 383.265 212.005 383.401 209.149H386.58V217.19H387.872V202.332H386.58V208.044H383.401C383.231 205.222 381.922 203.369 379.678 203.369C377.281 203.369 375.921 205.477 375.921 208.622ZM382.143 208.639C382.143 211.053 381.14 212.753 379.678 212.753C378.199 212.753 377.213 211.053 377.213 208.639C377.213 206.191 378.199 204.491 379.678 204.491C381.14 204.491 382.143 206.191 382.143 208.639ZM402.496 207.177C402.496 204.882 400.371 203.318 397.124 203.318C393.928 203.318 391.786 204.882 391.786 207.177C391.786 209.472 393.928 211.002 397.124 211.002C400.354 211.002 402.496 209.472 402.496 207.177ZM401.255 207.177C401.255 208.843 399.606 209.965 397.124 209.965C394.659 209.965 393.027 208.843 393.027 207.177C393.027 205.511 394.659 204.389 397.124 204.389C399.623 204.389 401.255 205.511 401.255 207.177ZM403.856 215.303V214.215H400.49V211.444L399.198 211.41V214.215H395.05V211.41L393.758 211.444V214.215H390.443V215.303H403.856ZM405.22 215.711H406.699V214.198H405.22V215.711ZM20.655 252.19V237.332H19.38V243.248H17.425V237.689H16.167V251.425H17.425V244.336H19.38V252.19H20.655ZM15.164 246.682C14.076 246.971 11.611 247.175 10.064 247.141V238.964H8.77198V248.263H9.91098C11.798 248.263 14.076 248.059 15.317 247.77L15.164 246.682ZM39.4388 252.19V237.332H38.1468V252.19H39.4388ZM35.0698 238.913H27.9978V240.001H33.6928C33.4208 243.35 31.2108 246.58 27.4538 248.229L28.2018 249.249C32.0438 247.43 35.0018 243.741 35.0698 238.913ZM53.9608 243.877V242.84H44.9848V241.344H53.7058V237.91H43.6758V238.947H52.4138V240.375H43.6928V243.877H48.0448V245.441H42.0098V246.529H55.4228V245.441H49.3368V243.877H53.9608ZM43.4378 247.821V248.892H52.4308V252.292H53.7398V247.821H43.4378ZM70.1318 244.846V243.758H56.7188V244.846H70.1318ZM68.6358 240.12C68.6358 238.488 66.6638 237.536 63.4338 237.536C60.2378 237.536 58.2658 238.488 58.2658 240.12C58.2658 241.752 60.2378 242.687 63.4338 242.687C66.6638 242.687 68.6358 241.752 68.6358 240.12ZM63.4338 238.59C65.7968 238.59 67.3268 239.185 67.3268 240.12C67.3268 241.038 65.7968 241.616 63.4338 241.616C61.1048 241.616 59.5918 241.038 59.5918 240.12C59.5918 239.185 61.1048 238.59 63.4338 238.59ZM68.9418 252.054V251H59.5748V249.504H68.4488V246.172H58.2488V247.209H67.1568V248.518H58.2828V252.054H68.9418ZM88.0316 248.178V237.332H86.7396V248.178H88.0316ZM88.4056 251.697V250.626H79.6336V247.107H78.3416V251.697H88.4056ZM80.2116 238.318C77.9676 238.318 76.2166 239.831 76.2166 242.041C76.2166 244.251 77.9676 245.713 80.2286 245.713C82.4896 245.713 84.2236 244.234 84.2236 242.024C84.2236 239.814 82.4726 238.318 80.2116 238.318ZM80.2116 239.44C81.8606 239.44 82.9996 240.511 82.9996 242.041C82.9996 243.52 81.8606 244.574 80.2286 244.574C78.6646 244.574 77.4576 243.52 77.4576 242.024C77.4576 240.511 78.6476 239.44 80.2116 239.44ZM103.523 244.982C101.245 244.472 97.9805 242.177 97.9805 239.746V238.573H96.6375V239.746C96.6375 242.177 93.5435 244.472 91.1295 244.948L91.8095 246.053C94.3935 245.322 96.7565 243.214 97.2835 241.701C97.8955 243.214 100.31 245.322 102.809 246.07L103.523 244.982ZM104.016 250.15V249.062H90.6025V250.15H104.016ZM107.165 247.583V243.979H112.656V242.925H107.165V239.78H112.979V238.709H105.856V248.705H107.08C109.817 248.705 112.656 248.467 114.322 248.161L114.169 247.073C112.707 247.413 109.749 247.583 107.165 247.583ZM116.719 237.332H115.444V252.19H116.719V244.319H119.116V243.231H116.719V237.332ZM133.434 249.997V248.909H120.021V249.997H133.434ZM131.513 238.998H121.415V240.069H130.187C130.187 242.5 129.966 245.73 129.558 247.617L130.85 247.787C131.309 245.509 131.513 242.415 131.513 238.998ZM147.258 251.969V246.954H137.5V251.969H147.258ZM141.954 244.03C140.39 244.37 138.248 244.472 136.735 244.472V242.364H141.155V238.42H135.392V239.491H139.863V241.31H135.443V245.56H136.395C138.486 245.56 140.475 245.373 142.09 245.101L141.954 244.03ZM147.258 246.172V237.332H145.966V241.293H144.147V237.604H142.906V246.036H144.147V242.364H145.966V246.172H147.258ZM145.949 250.898H138.792V248.025H145.949V250.898ZM152.94 238.624C150.781 238.624 149.676 240.732 149.676 243.707C149.676 246.699 150.781 248.79 152.94 248.79C154.98 248.79 156.068 246.971 156.204 244.285H157.802V251.476H159.06V237.621H157.802V243.214H156.204C156.102 240.511 154.997 238.624 152.94 238.624ZM154.929 243.707C154.929 246.121 154.147 247.651 152.94 247.651C151.75 247.651 150.985 246.121 150.985 243.707C150.985 241.31 151.75 239.763 152.94 239.763C154.147 239.763 154.929 241.31 154.929 243.707ZM161.967 252.19V237.332H160.692V252.19H161.967ZM180.615 249.385C180.615 247.719 178.762 246.699 175.294 246.699C171.826 246.699 169.939 247.719 169.939 249.385C169.939 251.051 171.826 252.054 175.294 252.054C178.762 252.054 180.615 251.051 180.615 249.385ZM179.34 249.385C179.34 250.422 177.776 251.017 175.294 251.017C172.778 251.017 171.231 250.422 171.231 249.385C171.231 248.365 172.778 247.753 175.294 247.753C177.776 247.753 179.34 248.365 179.34 249.385ZM182.026 245.492V244.421H175.43V241.276H174.138V244.421H168.613V245.492H182.026ZM180.445 238.148H170.092V239.219H179.119L179.102 240.426C179.085 241.106 178.983 242.449 178.745 243.265L180.02 243.435C180.258 242.517 180.445 240.715 180.445 239.474V238.148ZM195.307 241.242C195.307 239.304 193.318 238.012 190.02 238.012C186.739 238.012 184.75 239.304 184.75 241.242C184.75 243.163 186.739 244.455 190.02 244.455C193.318 244.455 195.307 243.146 195.307 241.242ZM188.082 252.19V246.92H191.924V252.19H193.216V246.92H196.735V245.832H183.322V246.92H186.79V252.19H188.082ZM190.02 239.151C192.519 239.151 194.032 239.967 194.032 241.242C194.032 242.5 192.519 243.316 190.02 243.316C187.555 243.316 186.025 242.5 186.025 241.242C186.025 239.967 187.555 239.151 190.02 239.151ZM211.869 244.693V243.605H209.455V237.332H208.163V252.19H209.455V244.693H211.869ZM204.542 239.457V238.352H200.173V239.457H204.542ZM206.735 241.973V240.902H197.963V241.973H206.735ZM205.851 246.002C205.851 244.251 204.457 242.925 202.383 242.925C200.309 242.925 198.915 244.268 198.915 246.002C198.915 247.736 200.309 249.062 202.383 249.062C204.457 249.062 205.851 247.719 205.851 246.002ZM204.559 246.002C204.559 247.158 203.658 247.991 202.383 247.991C201.142 247.991 200.207 247.158 200.207 246.002C200.207 244.829 201.142 244.013 202.383 244.013C203.641 244.013 204.559 244.829 204.559 246.002ZM226.153 250.048V248.96H219.149V243.588H217.857V248.96H212.74V250.048H226.153ZM224.351 238.879H214.117V239.967H223.008V241.412C223.008 243.367 222.821 245.611 222.481 247.005L223.756 247.209C224.198 245.322 224.334 243.01 224.351 240.749V238.879ZM243.373 237.332H242.081V252.19H243.373V244.319H245.787V243.231H243.373V237.332ZM233.802 247.447V239.967H239.548V238.879H232.493V248.552H233.955C236.539 248.552 239.48 248.348 241.078 248.042L240.942 246.971C239.514 247.277 236.573 247.447 234.652 247.447H233.802ZM260.309 242.84H258.048V240.715H260.309V239.627H258.048V237.332H256.756V246.291H258.048V243.911H260.309V242.84ZM258.167 249.3C258.167 247.617 256.484 246.444 253.237 246.444C250.007 246.444 248.341 247.583 248.341 249.3C248.341 251 250.007 252.156 253.237 252.156C256.484 252.156 258.167 251 258.167 249.3ZM253.237 247.515C255.481 247.515 256.841 248.212 256.841 249.3C256.841 250.405 255.481 251.085 253.237 251.085C250.993 251.085 249.667 250.371 249.667 249.3C249.667 248.229 250.993 247.515 253.237 247.515ZM250.636 238.148C248.511 238.148 246.777 239.576 246.777 241.735C246.777 243.911 248.511 245.254 250.636 245.254C252.744 245.254 254.478 243.911 254.478 241.718C254.478 239.576 252.744 238.148 250.636 238.148ZM250.636 239.202C252.2 239.202 253.237 240.256 253.237 241.735C253.237 243.197 252.183 244.2 250.636 244.2C249.14 244.2 248.035 243.197 248.035 241.718C248.035 240.256 249.14 239.202 250.636 239.202ZM275.018 243.452V242.364H272.757V237.332H271.465V248.297H272.757V243.452H275.018ZM273.335 251.714V250.626H264.733V247.906H263.441V251.714H273.335ZM267.674 238.998V237.859H263.39V238.998H267.674ZM269.969 241.191V240.12H261.265V241.191H269.969ZM269.119 244.591C269.119 242.993 267.623 241.99 265.617 241.99C263.628 241.99 262.132 242.993 262.132 244.591C262.132 246.155 263.645 247.192 265.617 247.192C267.623 247.192 269.119 246.155 269.119 244.591ZM267.895 244.591C267.895 245.56 266.824 246.155 265.617 246.155C264.427 246.155 263.356 245.56 263.356 244.591C263.356 243.605 264.427 243.01 265.617 243.01C266.824 243.01 267.895 243.605 267.895 244.591ZM291.354 242.67V248.161H292.646V237.332H291.354V241.582H288.753V242.67H291.354ZM293.02 251.697V250.626H284.299V247.175H283.007V251.697H293.02ZM287.971 245.866V238.318H286.662V241.021H282.378V238.318H281.069V245.866H287.971ZM286.662 244.795H282.378V242.092H286.662V244.795ZM304.652 245.101C304.618 244.761 304.567 244.421 304.55 244.081C303.972 244.183 303.088 244.251 302.051 244.319L302.476 240.596L301.201 240.443L300.878 244.387H300.555C299.943 244.421 299.297 244.455 298.651 244.455C298.549 243.129 298.43 241.786 298.345 240.46L297.036 240.63L297.478 244.472C296.798 244.489 296.101 244.489 295.438 244.489L295.625 245.645C296.951 245.628 298.634 245.577 300.266 245.492C301.898 245.39 303.564 245.254 304.652 245.101ZM308.29 251.272C306.114 250.949 303.258 249.232 303.258 247.124V246.563H301.898V247.124C301.898 249.232 299.195 251 296.815 251.306L297.529 252.343C299.722 251.918 302.017 250.354 302.561 248.977C303.173 250.354 305.621 251.935 307.559 252.326L308.29 251.272ZM307.355 247.328V237.332H306.063V247.328H307.355ZM303.836 239.746V238.692H295.846V239.746H303.836ZM321.911 241.242C321.911 239.304 319.922 238.012 316.624 238.012C313.343 238.012 311.354 239.304 311.354 241.242C311.354 243.163 313.343 244.455 316.624 244.455C319.922 244.455 321.911 243.146 321.911 241.242ZM314.686 252.19V246.92H318.528V252.19H319.82V246.92H323.339V245.832H309.926V246.92H313.394V252.19H314.686ZM316.624 239.151C319.123 239.151 320.636 239.967 320.636 241.242C320.636 242.5 319.123 243.316 316.624 243.316C314.159 243.316 312.629 242.5 312.629 241.242C312.629 239.967 314.159 239.151 316.624 239.151ZM333.696 247.94C331.639 246.818 329.752 244.455 329.752 241.684V239.984H333.169V238.896H324.924V239.984H328.409V241.718C328.409 244.404 326.607 246.988 324.414 248.28L325.281 249.249C327.049 248.025 328.596 246.189 329.089 244.387C329.667 246.155 331.486 248.042 332.897 248.96L333.696 247.94ZM335.481 243.792V252.19H336.773V237.332H335.481V242.687H332.37V243.792H335.481ZM352.757 244.744V243.707H339.344V244.744H352.757ZM351.482 251.935V250.915H342.217V249.368H351.023V246.019H340.908V247.039H349.731V248.416H340.925V251.935H351.482ZM351.244 242.466V241.429H342.285V239.049H351.074V237.995H340.976V242.466H351.244ZM364.967 237.332V252.19H366.259V237.332H364.967ZM362.621 242.024C362.621 239.848 360.955 238.488 358.762 238.488C356.603 238.488 354.886 239.933 354.886 242.024C354.886 244.013 356.569 245.475 358.762 245.475C360.904 245.475 362.621 244.132 362.621 242.024ZM361.363 242.024C361.363 243.418 360.173 244.387 358.762 244.387C357.317 244.387 356.144 243.401 356.144 242.024C356.144 240.63 357.334 239.593 358.762 239.593C360.207 239.593 361.363 240.528 361.363 242.024ZM364.1 248.416L363.981 247.362C362.893 247.498 360.972 247.617 358.898 247.685C357.096 247.787 355.345 247.821 354.07 247.804L354.308 248.943C355.43 248.926 357.062 248.875 358.813 248.79C360.7 248.705 362.825 248.569 364.1 248.416ZM385.366 252.19V237.332H384.074V252.19H385.366ZM380.997 238.913H373.925V240.001H379.62C379.348 243.35 377.138 246.58 373.381 248.229L374.129 249.249C377.971 247.43 380.929 243.741 380.997 238.913ZM399.888 243.877V242.84H390.912V241.344H399.633V237.91H389.603V238.947H398.341V240.375H389.62V243.877H393.972V245.441H387.937V246.529H401.35V245.441H395.264V243.877H399.888ZM389.365 247.821V248.892H398.358V252.292H399.667V247.821H389.365ZM416.059 244.744V243.707H402.646V244.744H416.059ZM414.784 251.935V250.915H405.519V249.368H414.325V246.019H404.21V247.039H413.033V248.416H404.227V251.935H414.784ZM414.546 242.466V241.429H405.587V239.049H414.376V237.995H404.278V242.466H414.546ZM430.767 250.303V249.215H424.681V245.577H429.254V244.506H420.278V239.661H429.169V238.59H418.969V245.577H423.389V249.215H417.354V250.303H430.767ZM448.191 238.437H438.11V239.508H446.848C446.848 240.97 446.763 243.418 446.355 245.016H436.529V246.104H442.581V252.19H443.873V246.104H449.942V245.016H447.647C448.14 242.721 448.191 240.46 448.191 238.437ZM463.495 249.3C463.495 247.583 461.659 246.495 458.446 246.495C455.199 246.495 453.38 247.583 453.38 249.3C453.38 251.034 455.199 252.122 458.446 252.122C461.659 252.122 463.495 251.034 463.495 249.3ZM458.446 247.583C460.792 247.583 462.169 248.212 462.169 249.3C462.169 250.405 460.792 251.051 458.446 251.051C456.1 251.051 454.723 250.405 454.723 249.3C454.723 248.212 456.1 247.583 458.446 247.583ZM458.803 244.2H462.084V246.716H463.376V237.332H462.084V240.018H459.041V241.089H462.084V243.129H458.803V244.2ZM458.888 238.488H452.054V239.593H457.426C456.984 242.109 454.468 244.574 451.408 245.424L452.054 246.529C455.981 245.152 458.667 242.228 458.888 238.488ZM478.476 252.19V237.332H477.201V243.401H475.416V237.689H474.158V251.442H475.416V244.489H477.201V252.19H478.476ZM473.036 245.849C473.036 244.064 471.71 242.874 469.789 242.874C467.885 242.874 466.542 244.047 466.542 245.849C466.542 247.549 467.885 248.807 469.789 248.807C471.71 248.807 473.036 247.634 473.036 245.849ZM471.795 245.849C471.795 246.971 470.962 247.736 469.789 247.736C468.616 247.736 467.8 247.005 467.8 245.849C467.8 244.71 468.616 243.962 469.789 243.962C470.962 243.962 471.795 244.71 471.795 245.849ZM473.308 242.024V240.953H465.913V242.024H473.308ZM471.71 239.593V238.471H467.647V239.593H471.71ZM492.437 246.223V238.352H491.145V241.089H483.58V238.352H482.271V246.223H486.691V249.249H480.656V250.337H494.069V249.249H487.983V246.223H492.437ZM491.145 245.152H483.58V242.16H491.145V245.152ZM507.945 252.19V237.332H506.67V252.19H507.945ZM505.004 251.442V237.689H503.746V242.687H501.111V243.775H503.746V251.442H505.004ZM502.845 247.498C501.23 246.427 499.496 244.268 499.496 241.378V238.709H498.221V241.412C498.221 244.319 496.725 246.852 495.042 247.923L495.841 248.892C497.32 247.821 498.544 245.883 498.867 244.183C499.343 245.866 500.907 247.634 502.046 248.45L502.845 247.498ZM522.127 242.177C522.127 239.882 520.002 238.318 516.755 238.318C513.559 238.318 511.417 239.882 511.417 242.177C511.417 244.472 513.559 246.002 516.755 246.002C519.985 246.002 522.127 244.472 522.127 242.177ZM520.886 242.177C520.886 243.843 519.237 244.965 516.755 244.965C514.29 244.965 512.658 243.843 512.658 242.177C512.658 240.511 514.29 239.389 516.755 239.389C519.254 239.389 520.886 240.511 520.886 242.177ZM523.487 250.303V249.215H520.121V246.444L518.829 246.41V249.215H514.681V246.41L513.389 246.444V249.215H510.074V250.303H523.487ZM525.854 247.719H526.993L527.197 238.267H525.65L525.854 247.719ZM525.701 250.609H527.163V249.096H525.701V250.609Z" fill="white"/>
</svg>
