<svg width="312" height="595" viewBox="0 0 312 595" fill="none" xmlns="http://www.w3.org/2000/svg">
<g filter="url(#filter0_d)">
<rect x="16" y="14" width="269.346" height="552" rx="33.54" fill="#232323"/>
<g clip-path="url(#clip0)">
<rect x="24" y="23" width="253.909" height="534.434" rx="28.7445" fill="#FCFCFC"/>
<g clip-path="url(#clip1)">
<rect width="254" height="535" transform="translate(24 23)" fill="#FBFDFF"/>
<path d="M56.0035 99.0557V93.806H55.0503L53.3768 97.9133H53.315L51.6451 93.806H50.6919V99.0557H51.4487V95.2103H51.4996L53.0385 98.9611H53.6569L55.1958 95.2103H55.2467V99.0557H56.0035ZM59.3952 93.6787C57.8891 93.6787 56.9432 94.7373 56.9432 96.429C56.9432 98.1171 57.8673 99.183 59.3952 99.183C60.9123 99.183 61.8436 98.1134 61.8436 96.429C61.8436 94.741 60.905 93.6787 59.3952 93.6787ZM59.3952 94.399C60.3884 94.399 61.0105 95.1848 61.0105 96.429C61.0105 97.6623 60.3921 98.4627 59.3952 98.4627C58.3839 98.4627 57.7763 97.6623 57.7763 96.429C57.7763 95.1848 58.4021 94.399 59.3952 94.399ZM63.5801 99.0557V95.243H63.6383L66.3341 99.0557H67.069V93.806H66.2759V97.6259H66.2177L63.5219 93.806H62.787V99.0557H63.5801Z" fill="#BDBDBD"/>
<path d="M85.2357 99.0557V94.5081H86.8837V93.806H82.7691V94.5081H84.4207V99.0557H85.2357ZM88.5292 93.806H87.7143V97.2476C87.7143 98.3826 88.5256 99.183 89.8389 99.183C91.1595 99.183 91.9672 98.3826 91.9672 97.2476V93.806H91.1522V97.1821C91.1522 97.9315 90.6757 98.459 89.8389 98.459C89.0058 98.459 88.5292 97.9315 88.5292 97.1821V93.806ZM96.4503 98.3535H93.9328V96.7201H96.3157V96.0434H93.9328V94.5081H96.4503V93.806H93.1179V99.0557H96.4503V98.3535Z" fill="#BDBDBD"/>
<path d="M115.322 95.1302H115.373L116.501 99.0557H117.269L118.688 93.806H117.84L116.879 97.8879H116.829L115.726 93.806H114.97L113.874 97.8879H113.824L112.859 93.806H112.012L113.427 99.0557H114.198L115.322 95.1302ZM122.843 98.3535H120.326V96.7201H122.709V96.0434H120.326V94.5081H122.843V93.806H119.511V99.0557H122.843V98.3535ZM123.86 93.806V99.0557H125.755C127.319 99.0557 128.225 98.088 128.225 96.4181C128.225 94.7664 127.312 93.806 125.755 93.806H123.86ZM124.674 94.5081H125.664C126.752 94.5081 127.396 95.2176 127.396 96.429C127.396 97.6514 126.763 98.3535 125.664 98.3535H124.674V94.5081Z" fill="#BDBDBD"/>
<path d="M145.63 99.0557V94.5081H147.278V93.806H143.164V94.5081H144.815V99.0557H145.63ZM152.438 99.0557V93.806H151.627V96.0252H148.931V93.806H148.116V99.0557H148.931V96.731H151.627V99.0557H152.438ZM154.4 93.806H153.585V97.2476C153.585 98.3826 154.397 99.183 155.71 99.183C157.031 99.183 157.838 98.3826 157.838 97.2476V93.806H157.023V97.1821C157.023 97.9315 156.547 98.459 155.71 98.459C154.877 98.459 154.4 97.9315 154.4 97.1821V93.806Z" fill="#BDBDBD"/>
<path d="M176.718 95.6689V93.4716H178.973V92.784H176.718V91.1214H179.181V90.4193H175.903V95.6689H176.718ZM180.892 93.6498H182.041L183.111 95.6689H184.053L182.874 93.5225C183.515 93.3079 183.893 92.7331 183.893 92.0236C183.893 91.045 183.213 90.4193 182.154 90.4193H180.077V95.6689H180.892V93.6498ZM180.892 91.1032H182.041C182.671 91.1032 183.056 91.4561 183.056 92.0418C183.056 92.6421 182.692 92.9804 182.063 92.9804H180.892V91.1032ZM185.706 95.6689V90.4193H184.891V95.6689H185.706Z" fill="#329EFF"/>
<path d="M205.421 97.655C205.479 98.5864 206.261 99.183 207.426 99.183C208.67 99.183 209.448 98.5573 209.448 97.5641C209.448 96.7783 209.004 96.3453 207.928 96.087L207.349 95.9452C206.665 95.7778 206.389 95.5595 206.389 95.1775C206.389 94.6864 206.818 94.3699 207.462 94.3699C208.073 94.3699 208.495 94.6755 208.572 95.1739H209.365C209.317 94.2971 208.539 93.6787 207.473 93.6787C206.327 93.6787 205.563 94.2971 205.563 95.2212C205.563 95.9852 205.996 96.4363 206.945 96.6655L207.622 96.8292C208.317 96.9965 208.622 97.2512 208.622 97.6623C208.622 98.1425 208.142 98.4881 207.487 98.4881C206.785 98.4881 206.298 98.1643 206.229 97.655H205.421ZM213.757 99.0557H214.623L212.727 93.806H211.851L209.955 99.0557H210.792L211.276 97.6368H213.277L213.757 99.0557ZM212.247 94.7337H212.309L213.069 96.982H211.483L212.247 94.7337ZM216.919 99.0557V94.5081H218.567V93.806H214.453V94.5081H216.105V99.0557H216.919Z" fill="#BDBDBD"/>
<path d="M234.667 97.655C234.725 98.5864 235.507 99.183 236.672 99.183C237.916 99.183 238.694 98.5573 238.694 97.5641C238.694 96.7783 238.25 96.3453 237.174 96.087L236.595 95.9452C235.911 95.7778 235.635 95.5595 235.635 95.1775C235.635 94.6864 236.064 94.3699 236.708 94.3699C237.319 94.3699 237.741 94.6755 237.818 95.1739H238.611C238.563 94.2971 237.785 93.6787 236.719 93.6787C235.573 93.6787 234.809 94.2971 234.809 95.2212C234.809 95.9852 235.242 96.4363 236.191 96.6655L236.868 96.8292C237.563 96.9965 237.868 97.2512 237.868 97.6623C237.868 98.1425 237.388 98.4881 236.733 98.4881C236.031 98.4881 235.544 98.1643 235.475 97.655H234.667ZM240.413 93.806H239.598V97.2476C239.598 98.3826 240.409 99.183 241.722 99.183C243.043 99.183 243.851 98.3826 243.851 97.2476V93.806H243.036V97.1821C243.036 97.9315 242.559 98.459 241.722 98.459C240.889 98.459 240.413 97.9315 240.413 97.1821V93.806ZM245.794 99.0557V95.243H245.853L248.548 99.0557H249.283V93.806H248.49V97.6259H248.432L245.736 93.806H245.001V99.0557H245.794Z" fill="#BDBDBD"/>
<path d="M53.0246 112.834H54.118C54.118 111.759 54.8406 111.049 55.9277 111.049C56.996 111.049 57.6432 111.765 57.6432 112.727C57.6432 113.525 57.3039 113.996 56.1476 115.247L53.0811 118.565V119.344H58.9502V118.326H54.6521V118.225L56.7132 116.095C58.347 114.405 58.7994 113.651 58.7994 112.607C58.7994 111.137 57.5866 110.062 56.0031 110.062C54.2688 110.062 53.0246 111.219 53.0246 112.834ZM62.8659 119.344H63.997V110.276H62.8722L60.4592 112.01V113.204L62.7654 111.533H62.8659V119.344Z" fill="black"/>
<path d="M83.2963 112.834H84.3897C84.3897 111.759 85.1124 111.049 86.1995 111.049C87.2677 111.049 87.915 111.765 87.915 112.727C87.915 113.525 87.5757 113.996 86.4194 115.247L83.3529 118.565V119.344H89.222V118.326H84.9239V118.225L86.985 116.095C88.6188 114.405 89.0712 113.651 89.0712 112.607C89.0712 111.137 87.8584 110.062 86.2749 110.062C84.5406 110.062 83.2963 111.219 83.2963 112.834ZM90.9132 112.834H92.0066C92.0066 111.759 92.7292 111.049 93.8163 111.049C94.8846 111.049 95.5318 111.765 95.5318 112.727C95.5318 113.525 95.1925 113.996 94.0363 115.247L90.9698 118.565V119.344H96.8389V118.326H92.5407V118.225L94.6018 116.095C96.2356 114.405 96.6881 113.651 96.6881 112.607C96.6881 111.137 95.4753 110.062 93.8917 110.062C92.1574 110.062 90.9132 111.219 90.9132 112.834Z" fill="black"/>
<path d="M113.291 112.834H114.385C114.385 111.759 115.107 111.049 116.194 111.049C117.263 111.049 117.91 111.765 117.91 112.727C117.91 113.525 117.571 113.996 116.414 115.247L113.348 118.565V119.344H119.217V118.326H114.919V118.225L116.98 116.095C118.614 114.405 119.066 113.651 119.066 112.607C119.066 111.137 117.853 110.062 116.27 110.062C114.535 110.062 113.291 111.219 113.291 112.834ZM122.869 115.165H123.993C125.269 115.165 126.055 115.819 126.055 116.868C126.055 117.886 125.206 118.571 124.012 118.571C122.844 118.571 122.027 117.961 121.926 117.006H120.833C120.914 118.546 122.184 119.557 124.025 119.557C125.828 119.557 127.217 118.42 127.217 116.899C127.217 115.636 126.438 114.838 125.263 114.65V114.549C126.193 114.279 126.871 113.556 126.878 112.463C126.884 111.194 125.854 110.062 124.063 110.062C122.228 110.062 121.103 111.15 120.99 112.626H122.089C122.184 111.608 122.894 111.049 123.987 111.049C125.081 111.049 125.728 111.74 125.728 112.589C125.728 113.531 124.986 114.197 123.943 114.197H122.869V115.165Z" fill="black"/>
<path d="M143.759 112.834H144.853C144.853 111.759 145.575 111.049 146.662 111.049C147.731 111.049 148.378 111.765 148.378 112.727C148.378 113.525 148.038 113.996 146.882 115.247L143.816 118.565V119.344H149.685V118.326H145.387V118.225L147.448 116.095C149.082 114.405 149.534 113.651 149.534 112.607C149.534 111.137 148.321 110.062 146.738 110.062C145.003 110.062 143.759 111.219 143.759 112.834ZM155.385 119.344H156.491V117.465H157.779V116.453H156.491V110.276H154.851C153.582 112.168 152.193 114.38 150.968 116.434V117.465H155.385V119.344ZM152.124 116.384C153.11 114.719 154.298 112.846 155.316 111.326H155.391V116.459H152.124V116.384Z" fill="black"/>
<path d="M204.664 112.834H205.757C205.757 111.759 206.48 111.049 207.567 111.049C208.635 111.049 209.282 111.765 209.282 112.727C209.282 113.525 208.943 113.996 207.787 115.247L204.72 118.565V119.344H210.589V118.326H206.291V118.225L208.352 116.095C209.986 114.405 210.438 113.651 210.438 112.607C210.438 111.137 209.226 110.062 207.642 110.062C205.908 110.062 204.664 111.219 204.664 112.834ZM215.542 119.551C217.402 119.551 218.721 118.25 218.721 116.428C218.721 114.669 217.471 113.393 215.743 113.393C214.662 113.393 213.776 113.908 213.33 114.788H213.229C213.267 112.325 214.147 111.068 215.655 111.068C216.572 111.068 217.238 111.539 217.427 112.381H218.589C218.357 110.974 217.27 110.062 215.617 110.062C213.474 110.062 212.13 111.847 212.13 114.964C212.13 118.018 213.569 119.551 215.542 119.551ZM215.529 118.558C214.367 118.558 213.481 117.641 213.481 116.428C213.481 115.228 214.342 114.373 215.542 114.373C216.742 114.373 217.578 115.228 217.578 116.466C217.578 117.653 216.692 118.558 215.529 118.558Z" fill="black"/>
<path d="M235.915 112.834H237.008C237.008 111.759 237.731 111.049 238.818 111.049C239.886 111.049 240.533 111.765 240.533 112.727C240.533 113.525 240.194 113.996 239.038 115.247L235.971 118.565V119.344H241.84V118.326H237.542V118.225L239.603 116.095C241.237 114.405 241.69 113.651 241.69 112.607C241.69 111.137 240.477 110.062 238.893 110.062C237.159 110.062 235.915 111.219 235.915 112.834ZM243.965 119.344H245.153L249.187 111.326V110.276H243.186V111.288H248.037V111.376L243.965 119.344Z" fill="black"/>
<circle cx="181.138" cy="115.117" r="10.8373" fill="#539DF7"/>
<path d="M174.587 113.295H176.028C176.028 112.391 176.623 111.771 177.558 111.771C178.457 111.771 178.992 112.373 178.992 113.153C178.992 113.807 178.73 114.218 177.647 115.313L174.67 118.308V119.344H180.635V118.07H176.754V117.969L178.599 116.153C180.076 114.706 180.51 114.01 180.51 113.01C180.51 111.581 179.35 110.539 177.641 110.539C175.849 110.539 174.587 111.67 174.587 113.295ZM185.307 119.558C187.182 119.558 188.438 118.326 188.438 116.528C188.438 114.802 187.247 113.7 185.777 113.7C184.902 113.7 184.271 113.998 183.89 114.528H183.789L184.027 112.015H187.98V110.753H182.83L182.36 115.748H183.753C184.045 115.183 184.61 114.843 185.342 114.843C186.289 114.843 186.956 115.528 186.956 116.552C186.956 117.605 186.289 118.308 185.301 118.308C184.426 118.308 183.765 117.778 183.67 116.974H182.235C182.3 118.481 183.533 119.558 185.307 119.558Z" fill="white"/>
<path d="M36.4337 117.074C36.3312 117.074 36.2297 117.053 36.135 117.012C36.0402 116.971 35.9542 116.911 35.8817 116.835L29.6445 110.289C29.4993 110.135 29.418 109.927 29.418 109.71C29.418 109.493 29.4993 109.285 29.6445 109.131L35.8817 102.586C36.0281 102.432 36.2267 102.346 36.4337 102.346C36.6408 102.346 36.8393 102.432 36.9857 102.586C37.1321 102.739 37.2144 102.948 37.2144 103.165C37.2144 103.382 37.1321 103.591 36.9857 103.744L31.288 109.71L36.9857 115.676C37.1308 115.831 37.2122 116.039 37.2122 116.255C37.2122 116.472 37.1308 116.68 36.9857 116.835C36.9133 116.911 36.8272 116.971 36.7325 117.012C36.6377 117.053 36.5362 117.074 36.4337 117.074V117.074Z" fill="#BDBDBD"/>
<path d="M265.881 116.682C265.782 116.682 265.684 116.663 265.593 116.624C265.502 116.585 265.419 116.528 265.349 116.456C265.209 116.31 265.131 116.113 265.131 115.907C265.131 115.702 265.209 115.505 265.349 115.359L270.836 109.71L265.349 104.062C265.208 103.916 265.129 103.719 265.129 103.513C265.129 103.308 265.208 103.11 265.349 102.965C265.49 102.82 265.681 102.738 265.881 102.738C266.08 102.738 266.271 102.82 266.412 102.965L272.419 109.162C272.558 109.308 272.637 109.505 272.637 109.71C272.637 109.916 272.558 110.113 272.419 110.259L266.412 116.456C266.342 116.528 266.26 116.585 266.168 116.624C266.077 116.663 265.979 116.682 265.881 116.682V116.682Z" fill="#BDBDBD"/>
<rect opacity="0.35" x="252.147" y="35.0789" width="14.224" height="6.99911" rx="1.46756" stroke="black" stroke-width="0.677333"/>
<path opacity="0.4" d="M267.387 37.2236V39.933C267.932 39.7035 268.286 39.1697 268.286 38.5783C268.286 37.9869 267.932 37.4531 267.387 37.2236" fill="black"/>
<rect x="253.164" y="36.0952" width="12.192" height="4.96711" rx="0.903111" fill="black"/>
<path fill-rule="evenodd" clip-rule="evenodd" d="M243.232 36.2861C244.739 36.2862 246.188 36.8647 247.28 37.9021C247.363 37.9822 247.494 37.9812 247.575 37.8998L248.361 37.1071C248.402 37.0659 248.425 37.01 248.425 36.9518C248.424 36.8937 248.401 36.8381 248.359 36.7973C245.493 34.0526 240.971 34.0526 238.105 36.7973C238.063 36.838 238.039 36.8936 238.039 36.9518C238.039 37.0099 238.062 37.0658 238.102 37.1071L238.889 37.8998C238.97 37.9813 239.101 37.9823 239.184 37.9021C240.276 36.8646 241.725 36.2861 243.232 36.2861ZM243.232 38.865C244.06 38.8649 244.859 39.1724 245.472 39.7276C245.555 39.8065 245.686 39.8047 245.767 39.7238L246.552 38.9311C246.594 38.8895 246.617 38.8331 246.616 38.7745C246.615 38.7159 246.591 38.66 246.549 38.6192C244.68 36.8823 241.786 36.8823 239.917 38.6192C239.875 38.66 239.851 38.7159 239.85 38.7745C239.85 38.8332 239.873 38.8896 239.914 38.9311L240.699 39.7238C240.78 39.8047 240.911 39.8065 240.994 39.7276C241.607 39.1728 242.405 38.8653 243.232 38.865ZM244.806 40.6001C244.807 40.6589 244.784 40.7155 244.742 40.7567L243.383 42.1263C243.344 42.1665 243.289 42.1892 243.233 42.1892C243.176 42.1892 243.122 42.1665 243.082 42.1263L241.723 40.7567C241.681 40.7155 241.658 40.6588 241.66 40.6001C241.661 40.5413 241.686 40.4856 241.73 40.4462C242.597 39.7132 243.868 39.7132 244.735 40.4462C244.779 40.4856 244.804 40.5413 244.806 40.6001Z" fill="black"/>
<path fill-rule="evenodd" clip-rule="evenodd" d="M233.974 34.9663H233.297C232.922 34.9663 232.619 35.2696 232.619 35.6436V41.5139C232.619 41.8879 232.922 42.1912 233.297 42.1912H233.974C234.348 42.1912 234.651 41.8879 234.651 41.5139V35.6436C234.651 35.2696 234.348 34.9663 233.974 34.9663ZM230.136 36.5469H230.813C231.187 36.5469 231.491 36.8501 231.491 37.2242V41.514C231.491 41.888 231.187 42.1913 230.813 42.1913H230.136C229.762 42.1913 229.459 41.888 229.459 41.514V37.2242C229.459 36.8501 229.762 36.5469 230.136 36.5469ZM227.652 38.1273H226.975C226.601 38.1273 226.298 38.4305 226.298 38.8046V41.5139C226.298 41.888 226.601 42.1913 226.975 42.1913H227.652C228.026 42.1913 228.33 41.888 228.33 41.5139V38.8046C228.33 38.4305 228.026 38.1273 227.652 38.1273ZM224.491 39.4818H223.814C223.44 39.4818 223.137 39.7851 223.137 40.1592V41.5138C223.137 41.8879 223.44 42.1912 223.814 42.1912H224.491C224.865 42.1912 225.169 41.8879 225.169 41.5138V40.1592C225.169 39.7851 224.865 39.4818 224.491 39.4818Z" fill="black"/>
<path d="M49.1147 41.9788C50.9353 41.9788 52.0168 40.555 52.0168 38.139C52.0168 35.7677 50.8659 34.4679 49.1543 34.4679C47.5966 34.4679 46.4953 35.5147 46.4953 36.9782C46.4953 38.3524 47.4875 39.3545 48.8517 39.3545C49.6901 39.3545 50.3698 38.9675 50.7071 38.2879H50.7915C50.7766 39.9696 50.1763 40.9321 49.1295 40.9321C48.5144 40.9321 48.0232 40.5947 47.8695 40.049H46.5945C46.8029 41.2148 47.805 41.9788 49.1147 41.9788ZM49.1593 38.3672C48.3259 38.3672 47.7504 37.7819 47.7504 36.9385C47.7504 36.1299 48.3556 35.5097 49.1643 35.5097C49.9729 35.5097 50.5781 36.1398 50.5781 36.9633C50.5781 37.7769 49.9878 38.3672 49.1593 38.3672ZM54.1512 38.2631C54.6224 38.2631 54.9449 37.9307 54.9449 37.4941C54.9449 37.0526 54.6224 36.7252 54.1512 36.7252C53.6848 36.7252 53.3574 37.0526 53.3574 37.4941C53.3574 37.9307 53.6848 38.2631 54.1512 38.2631ZM54.1512 41.9044C54.6224 41.9044 54.9449 41.572 54.9449 41.1305C54.9449 40.6939 54.6224 40.3615 54.1512 40.3615C53.6848 40.3615 53.3574 40.6939 53.3574 41.1305C53.3574 41.572 53.6848 41.9044 54.1512 41.9044ZM59.6292 41.8052H60.8545V40.431H61.8219V39.3743H60.8545V34.6465H59.0488C58.0764 36.1249 57.0594 37.7719 56.1317 39.3842V40.431H59.6292V41.8052ZM57.3174 39.3297C58.0169 38.1142 58.8454 36.7897 59.5796 35.6685H59.649V39.4041H57.3174V39.3297ZM64.5913 41.8052H65.8712V34.6465H64.5962L62.726 35.9612V37.1667L64.5069 35.9066H64.5913V41.8052Z" fill="black"/>
<path d="M130.379 65.8132H131.571C131.571 64.9136 132.173 64.3064 133.089 64.3064C133.989 64.3064 134.523 64.908 134.523 65.6951C134.523 66.353 134.253 66.7578 133.224 67.8317L130.447 70.7216V71.5762H135.912V70.5023H132.167V70.4067L133.955 68.6075C135.377 67.1795 135.788 66.5104 135.788 65.5715C135.788 64.2389 134.692 63.2663 133.168 63.2663C131.532 63.2663 130.379 64.3233 130.379 65.8132ZM140.154 71.773C142.043 71.773 143.145 70.2156 143.145 67.528C143.145 64.8349 142.027 63.2663 140.154 63.2663C138.271 63.2663 137.152 64.8349 137.152 67.5112C137.152 70.2099 138.26 71.773 140.154 71.773ZM140.154 70.7272C139.052 70.7272 138.423 69.6027 138.423 67.5112C138.423 65.4478 139.064 64.3177 140.154 64.3177C141.245 64.3177 141.875 65.4365 141.875 67.5112C141.875 69.6083 141.256 70.7272 140.154 70.7272ZM144.42 65.8132H145.611C145.611 64.9136 146.213 64.3064 147.13 64.3064C148.029 64.3064 148.563 64.908 148.563 65.6951C148.563 66.353 148.293 66.7578 147.264 67.8317L144.487 70.7216V71.5762H149.952V70.5023H146.207V70.4067L147.995 68.6075C149.418 67.1795 149.828 66.5104 149.828 65.5715C149.828 64.2389 148.732 63.2663 147.208 63.2663C145.572 63.2663 144.42 64.3233 144.42 65.8132ZM154.195 71.773C156.084 71.773 157.186 70.2156 157.186 67.528C157.186 64.8349 156.067 63.2663 154.195 63.2663C152.311 63.2663 151.192 64.8349 151.192 67.5112C151.192 70.2099 152.3 71.773 154.195 71.773ZM154.195 70.7272C153.093 70.7272 152.463 69.6027 152.463 67.5112C152.463 65.4478 153.104 64.3177 154.195 64.3177C155.285 64.3177 155.915 65.4365 155.915 67.5112C155.915 69.6083 155.297 70.7272 154.195 70.7272ZM158.96 71.6605C159.438 71.6605 159.787 71.3063 159.787 70.8509C159.787 70.3955 159.438 70.0413 158.96 70.0413C158.488 70.0413 158.134 70.3955 158.134 70.8509C158.134 71.3063 158.488 71.6605 158.96 71.6605ZM162.849 71.5762H164.108V63.4631H162.854L160.718 64.9811V66.218L162.753 64.7618H162.849V71.5762ZM166.124 65.8132H167.316C167.316 64.9136 167.918 64.3064 168.834 64.3064C169.734 64.3064 170.268 64.908 170.268 65.6951C170.268 66.353 169.998 66.7578 168.969 67.8317L166.192 70.7216V71.5762H171.657V70.5023H167.912V70.4067L169.7 68.6075C171.123 67.1795 171.533 66.5104 171.533 65.5715C171.533 64.2389 170.437 63.2663 168.913 63.2663C167.277 63.2663 166.124 64.3233 166.124 65.8132Z" fill="#333333"/>
<path d="M45.3921 73.6155C45.5746 73.7901 45.7969 73.8854 46.0509 73.8854C46.5827 73.8854 46.9954 73.4726 46.9954 72.9487C46.9954 72.6868 46.8923 72.4487 46.7097 72.2661L41.1534 66.8369L46.7097 61.4235C46.8923 61.2409 46.9954 60.9949 46.9954 60.7409C46.9954 60.217 46.5827 59.8042 46.0509 59.8042C45.7969 59.8042 45.5746 59.8995 45.4 60.0741L39.2246 66.1066C39.0024 66.313 38.8913 66.567 38.8913 66.8448C38.8913 67.1226 39.0024 67.3607 39.2167 67.5751L45.3921 73.6155Z" fill="#282828"/>
<path d="M233.196 71.5762V64.6831H235.698V63.4631H229.249V64.6831H231.745V71.5762H233.196ZM240.131 63.2606C237.776 63.2606 236.291 64.8968 236.291 67.5168C236.291 70.1312 237.753 71.7786 240.131 71.7786C242.498 71.7786 243.966 70.1312 243.966 67.5168C243.966 64.8968 242.493 63.2606 240.131 63.2606ZM240.131 64.5144C241.571 64.5144 242.487 65.6783 242.487 67.5168C242.487 69.3441 241.576 70.5248 240.131 70.5248C238.67 70.5248 237.776 69.3441 237.776 67.5168C237.776 65.6783 238.692 64.5144 240.131 64.5144ZM245.352 63.4631V71.5762H248.394C250.823 71.5762 252.212 70.0862 252.212 67.4831C252.212 64.9361 250.806 63.4631 248.394 63.4631H245.352ZM246.803 64.6831H248.203C249.794 64.6831 250.733 65.7176 250.733 67.5056C250.733 69.3328 249.817 70.3561 248.203 70.3561H246.803V64.6831ZM258.45 71.5762H260.008L257.123 63.4631H255.493L252.614 71.5762H254.082L254.779 69.479H257.764L258.45 71.5762ZM256.23 64.9867H256.325L257.427 68.3602H255.116L256.23 64.9867ZM263.919 71.5762V68.377L266.764 63.4631H265.173L263.244 66.9433H263.148L261.214 63.4631H259.623L262.468 68.377V71.5762H263.919Z" fill="#333333"/>
<g filter="url(#filter1_d)">
<path d="M24 135.437H278V167.272C278 170.264 275.574 172.69 272.581 172.69H29.4187C26.426 172.69 24 170.264 24 167.272V135.437Z" fill="white"/>
</g>
<path d="M57.1836 150.368C57.4524 150.081 57.9192 150.029 58.4077 150.23C58.8961 150.431 59.3319 150.856 59.5505 151.343C59.7691 151.831 59.7372 152.307 59.4668 152.592C59.4668 152.592 58.7072 151.849 58.3266 151.478C57.9461 151.108 57.1836 150.368 57.1836 150.368V150.368Z" fill="#329EFF"/>
<path d="M54.9372 150.54C53.8101 150.54 52.7292 150.995 51.9322 151.806C51.1352 152.618 50.6875 153.718 50.6875 154.865C50.6875 156.012 51.1352 157.113 51.9322 157.924C52.7292 158.735 53.8101 159.191 54.9372 159.191C56.0643 159.191 57.1453 158.735 57.9423 157.924C58.7392 157.113 59.187 156.012 59.187 154.865C59.187 153.718 58.7392 152.618 57.9423 151.806C57.1453 150.995 56.0643 150.54 54.9372 150.54V150.54ZM57.4486 152.266C57.4762 152.266 57.5032 152.274 57.5261 152.29C57.5491 152.305 57.5669 152.328 57.5771 152.354C57.5874 152.38 57.5897 152.409 57.5837 152.436C57.5777 152.463 57.5637 152.488 57.5435 152.507L55.457 154.55C55.5125 154.645 55.5421 154.753 55.5426 154.863C55.5429 155.026 55.4797 155.182 55.3667 155.298C55.2537 155.414 55.1003 155.479 54.94 155.479C54.7798 155.48 54.626 155.416 54.5123 155.301C54.3985 155.186 54.3343 155.03 54.3335 154.867V154.864C54.3338 154.752 54.3644 154.642 54.4219 154.546L52.7689 152.896C52.7552 152.883 52.7442 152.868 52.7364 152.851C52.7287 152.834 52.7245 152.816 52.7239 152.797C52.7233 152.778 52.7265 152.759 52.7332 152.742C52.74 152.725 52.7501 152.709 52.763 152.695C52.7759 152.682 52.7913 152.671 52.8083 152.664C52.8253 152.657 52.8436 152.653 52.8621 152.653C52.8805 152.654 52.8987 152.658 52.9156 152.665C52.9324 152.673 52.9476 152.684 52.9603 152.697L54.6125 154.346C54.7095 154.283 54.8223 154.249 54.9374 154.249C55.0547 154.249 55.1694 154.284 55.2675 154.349L57.3539 152.307C57.3791 152.281 57.4131 152.267 57.4486 152.267L57.4486 152.266Z" fill="#329EFF"/>
<path d="M52.6891 150.365C52.557 150.225 52.3743 150.138 52.1594 150.113C51.9445 150.089 51.705 150.128 51.465 150.227C51.225 150.326 50.993 150.481 50.7924 150.677C50.5917 150.872 50.4295 151.101 50.3221 151.341C50.2147 151.58 50.1659 151.822 50.1806 152.041C50.1953 152.26 50.273 152.449 50.4058 152.59L51.546 151.476L52.6891 150.365Z" fill="#329EFF"/>
<path d="M66.5201 155.221H68.0887L69.6855 158.274H71.3385L69.5674 155.002C70.5345 154.654 71.0967 153.76 71.0967 152.686C71.0967 151.134 70.0453 150.161 68.2911 150.161H65.0695V158.274H66.5201V155.221ZM66.5201 151.336H68.1281C69.0445 151.336 69.6124 151.865 69.6124 152.719C69.6124 153.597 69.0783 154.108 68.1562 154.108H66.5201V151.336ZM77.5175 157.049H73.7168V154.732H77.3095V153.58H73.7168V151.387H77.5175V150.161H72.2662V158.274H77.5175V157.049ZM78.4396 156.009C78.507 157.493 79.7496 158.409 81.6275 158.409C83.5784 158.409 84.7985 157.431 84.7985 155.879C84.7985 154.676 84.0845 153.99 82.3752 153.636L81.4982 153.456C80.4861 153.242 80.0813 152.888 80.0813 152.337C80.0813 151.657 80.7223 151.23 81.6218 151.23C82.5495 151.23 83.1905 151.691 83.258 152.455H84.6467C84.613 151.005 83.4266 150.026 81.6331 150.026C79.8733 150.026 78.6195 150.993 78.6195 152.422C78.6195 153.608 79.3785 154.372 81.0034 154.704L81.8749 154.884C82.9319 155.103 83.3367 155.463 83.3367 156.048C83.3367 156.723 82.6564 157.206 81.6781 157.206C80.666 157.206 79.9351 156.756 79.8283 156.009H78.4396ZM89.3133 158.274V151.387H91.7365V150.161H85.4395V151.387H87.8683V158.274H89.3133ZM98.4665 158.274V151.387H100.89V150.161H94.5927V151.387H97.0216V158.274H98.4665ZM103.336 158.274V150.161H101.885V158.274H103.336ZM113.135 158.274V150.161H111.46L108.975 156.352H108.93L106.445 150.161H104.764V158.274H106.074V152.517H106.113L108.458 158.274H109.447L111.792 152.517H111.831V158.274H113.135ZM119.82 157.049H116.02V154.732H119.612V153.58H116.02V151.387H119.82V150.161H114.569V158.274H119.82V157.049ZM122.53 155.221H124.099L125.696 158.274H127.349L125.578 155.002C126.545 154.654 127.107 153.76 127.107 152.686C127.107 151.134 126.056 150.161 124.301 150.161H121.08V158.274H122.53V155.221ZM122.53 151.336H124.138C125.055 151.336 125.623 151.865 125.623 152.719C125.623 153.597 125.089 154.108 124.167 154.108H122.53V151.336Z" fill="#333333"/>
<path d="M207.855 151.985C207.855 150.891 206.608 150.067 204.506 150.067C202.414 150.067 201.179 150.891 201.179 151.985C201.179 153.102 202.404 153.914 204.506 153.914C206.608 153.914 207.855 153.102 207.855 151.985ZM205.167 157.415V155.594H208.873V154.695H200.149V155.594H204.051V157.415H205.167ZM207.844 159.236V158.358H202.393V156.515H201.276V159.236H207.844ZM206.706 152.007C206.706 152.646 205.861 153.026 204.506 153.026C203.162 153.026 202.317 152.646 202.317 152.007C202.317 151.346 203.162 150.956 204.506 150.956C205.861 150.956 206.706 151.346 206.706 152.007ZM217.21 153.427V152.527H211.791V151.032H217.134V150.121H210.675V153.427H213.319V154.435H209.526V155.334H218.25V154.435H214.425V153.427H217.21ZM217.242 157.762C217.242 156.7 216.018 156.006 213.883 156.006C211.759 156.006 210.545 156.7 210.545 157.762C210.545 158.845 211.759 159.528 213.894 159.528C216.018 159.528 217.242 158.845 217.242 157.762ZM216.094 157.772C216.094 158.325 215.248 158.629 213.883 158.629C212.528 158.629 211.683 158.325 211.683 157.772C211.683 157.22 212.528 156.895 213.883 156.895C215.248 156.895 216.094 157.22 216.094 157.772ZM226.858 159.517V149.861H225.752V159.517H226.858ZM224.788 156.45C223.379 155.562 222.479 154.066 222.479 152.213V150.696H221.331V152.278C221.331 154.12 220.377 155.713 218.881 156.689L219.564 157.502C220.626 156.862 221.591 155.648 221.916 154.5C222.273 155.562 223.303 156.754 224.127 157.285L224.788 156.45ZM228.399 151.4H230.415V151.454C230.415 152.896 229.396 154.044 228.041 154.554L228.692 155.41C229.667 155.041 230.697 154.109 230.978 153.156C231.401 154.066 232.322 154.825 233.135 155.15L233.742 154.261C232.626 153.893 231.553 152.841 231.553 151.422V151.4H233.482V150.479H228.399V151.4ZM229.483 156.028V156.905H234.674V159.528H235.79V156.028H229.483ZM237.199 153.123V152.202H235.779V149.861H234.663V155.518H235.779V153.123H237.199Z" fill="#111111"/>
<path d="M189.744 158.492C189.985 157.932 190.44 157.528 191.008 157.307C191.079 157.281 191.15 157.333 191.136 157.411V157.411C190.6 159.179 193.462 159.725 194.578 158.253C195.075 157.598 195.368 156.8 195.368 155.939C195.368 155.314 194.899 154.481 194.26 153.517C194.232 153.465 194.146 153.491 194.146 153.543C194.104 154.142 193.735 155.666 193.152 155.262C193.144 155.257 193.137 155.251 193.131 155.244C193.077 155.185 193.105 155.093 193.124 155.015V155.015C193.408 153.712 192.414 152.8 191.704 151.628C191.136 150.677 191.576 149.479 191.76 149.049V149.049C191.791 148.966 191.637 149.023 191.564 149.073C189.276 150.634 188.879 151.705 188.991 152.423C189.105 153.113 189.701 153.569 189.559 154.376C189.488 154.819 189.204 155.197 188.892 155.484V155.484C188.818 155.551 188.698 155.517 188.61 155.47C188.154 155.225 187.812 154.341 187.67 153.855C187.642 153.738 187.471 153.725 187.415 153.829C186.918 154.637 186.562 155.405 186.562 155.939C186.562 157.309 187.31 158.522 188.449 159.252C188.942 159.567 189.513 159.029 189.744 158.492V158.492Z" fill="#329EFF"/>
<line x1="150.999" y1="138.824" x2="150.999" y2="169.304" stroke="#BDBDBD" stroke-width="0.677333"/>
<rect x="24" y="188" width="254" height="25.7387" fill="#EDF3F9"/>
<path d="M219.15 197.838C219.15 196.811 217.981 196.039 216.01 196.039C214.049 196.039 212.891 196.811 212.891 197.838C212.891 198.884 214.039 199.646 216.01 199.646C217.981 199.646 219.15 198.884 219.15 197.838ZM216.63 202.928V201.221H220.105V200.378H211.926V201.221H215.583V202.928H216.63ZM219.139 204.635V203.812H214.029V202.085H212.983V204.635H219.139ZM218.073 197.858C218.073 198.457 217.28 198.813 216.01 198.813C214.75 198.813 213.958 198.457 213.958 197.858C213.958 197.238 214.75 196.872 216.01 196.872C217.28 196.872 218.073 197.238 218.073 197.858ZM227.92 199.189V198.346H222.84V196.944H227.849V196.09H221.794V199.189H224.273V200.134H220.717V200.977H228.895V200.134H225.309V199.189H227.92ZM227.951 203.253C227.951 202.257 226.803 201.607 224.801 201.607C222.81 201.607 221.672 202.257 221.672 203.253C221.672 204.269 222.81 204.909 224.811 204.909C226.803 204.909 227.951 204.269 227.951 203.253ZM226.874 203.263C226.874 203.781 226.081 204.066 224.801 204.066C223.531 204.066 222.739 203.781 222.739 203.263C222.739 202.745 223.531 202.44 224.801 202.44C226.081 202.44 226.874 202.745 226.874 203.263ZM236.85 202.948V201.221H240.355V200.378H232.176V201.221H235.804V202.948H236.85ZM240 198.884C238.709 198.803 236.82 197.685 236.82 196.364V196.039H235.743V196.364C235.743 197.675 234.066 198.732 232.563 198.884L233.01 199.697C234.412 199.473 235.854 198.579 236.271 197.594C236.708 198.579 238.242 199.494 239.542 199.707L240 198.884ZM239.4 204.635V203.802H234.28V202.085H233.233V204.635H239.4ZM248.425 204.899V195.846H247.388V198.965H245.621V199.839H247.388V204.899H248.425ZM246.474 202.064C245.143 201.231 244.239 199.788 244.239 198.051V196.618H243.172V198.112C243.172 199.839 242.288 201.333 240.886 202.247L241.536 202.999C242.512 202.41 243.416 201.272 243.731 200.195C244.056 201.19 245.072 202.349 245.844 202.836L246.474 202.064ZM257.205 204.899V195.846H256.169V204.899H257.205ZM250.022 199.717C250.022 201.627 250.886 202.887 252.339 202.887C253.792 202.887 254.635 201.627 254.635 199.727C254.635 197.807 253.792 196.547 252.339 196.547C250.886 196.547 250.022 197.807 250.022 199.717ZM253.649 199.717C253.649 201.17 253.111 202.044 252.339 202.044C251.577 202.044 251.048 201.17 251.048 199.717C251.048 198.264 251.577 197.401 252.339 197.401C253.111 197.401 253.649 198.264 253.649 199.717ZM265.752 199.189V198.346H260.672V196.944H265.681V196.09H259.626V199.189H262.105V200.134H258.549V200.977H266.728V200.134H263.141V199.189H265.752ZM265.783 203.253C265.783 202.257 264.635 201.607 262.633 201.607C260.642 201.607 259.504 202.257 259.504 203.253C259.504 204.269 260.642 204.909 262.643 204.909C264.635 204.909 265.783 204.269 265.783 203.253ZM264.706 203.263C264.706 203.781 263.913 204.066 262.633 204.066C261.363 204.066 260.571 203.781 260.571 203.263C260.571 202.745 261.363 202.44 262.633 202.44C263.913 202.44 264.706 202.745 264.706 203.263Z" fill="#333333"/>
<g clip-path="url(#clip2)">
<path d="M206.346 197.533H197.398V198.637H206.346V197.533Z" fill="#333333"/>
<path d="M206.346 200.292H197.398V201.396H206.346V200.292Z" fill="#333333"/>
<path d="M206.346 203.053H197.398V204.157H206.346V203.053Z" fill="#333333"/>
<path fill-rule="evenodd" clip-rule="evenodd" d="M201.873 206.917L203.551 205.261H200.195L201.873 206.917Z" fill="#333333"/>
<path fill-rule="evenodd" clip-rule="evenodd" d="M201.873 194.773L203.551 196.429H200.195L201.873 194.773Z" fill="#333333"/>
</g>
<rect x="22.6445" y="518.808" width="256.709" height="12.8693" fill="#EDF3F9"/>
<rect width="256.709" height="294.64" transform="translate(22.6445 214.739)" fill="white"/>
<path d="M65.6019 242.32C65.6019 240.918 64.508 239.875 62.8736 239.875C61.2264 239.875 60.1196 240.956 60.1196 242.32C60.1196 243.736 61.2264 244.766 62.8736 244.766C64.508 244.766 65.6019 243.698 65.6019 242.32ZM64.3021 242.32C64.3021 243.118 63.7616 243.685 62.8736 243.685C62.0371 243.685 61.4451 243.118 61.4451 242.32C61.4451 241.51 62.0371 240.956 62.8736 240.956C63.6973 240.956 64.3021 241.51 64.3021 242.32ZM66.1811 239.322V238.254H59.5147V239.322H66.1811ZM61.1363 237.327H64.611V236.246H61.1363V237.327ZM68.5104 235.577H67.1849V247.044H68.5104V241.394H70.2864V240.287H68.5104V235.577ZM76.4152 243.685C75.1669 242.977 74.2403 241.626 74.2017 239.476H76.1192V238.421H70.92V239.476H72.9147C72.889 241.677 71.9881 243.054 70.5082 244.006L71.3318 244.894C72.297 244.315 73.2751 243.08 73.5453 241.96C73.8413 243.015 74.8451 244.122 75.6559 244.611L76.4152 243.685ZM78.1526 246.503V235.809H76.9042V240.583H75.45V241.677H76.9042V246.503H78.1526ZM80.4047 247.044V235.577H79.1435V247.044H80.4047ZM75.0639 237.572V236.504H72.0654V237.572H75.0639ZM86.6236 247.005H87.7432V235.95H86.6236V247.005ZM98.0417 241.523V236.285H96.729V237.906H94.7729V236.311H93.4602V241.523H98.0417ZM102.662 242.282V235.577H101.401V238.331H100.384V235.783H99.1356V242.153H100.384V239.438H101.401V242.282H102.662ZM94.863 242.887V243.942H101.362V247.056H102.662V242.887H94.863ZM96.729 240.467H94.7729V238.949H96.729V240.467ZM117.885 245.525V244.47H107.526V245.525H117.885ZM117.615 240.918C115.891 240.609 113.407 239 113.407 237.031V236.272H112.03V237.031C112.03 239.013 109.688 240.57 107.821 240.866L108.465 241.947C110.202 241.523 112.171 240.223 112.699 238.807C113.291 240.197 115.234 241.497 116.92 241.947L117.615 240.918ZM122.83 246.606V242.076C123.988 242.012 125.121 241.909 126.241 241.78L126.15 240.763C125.713 240.815 125.262 240.866 124.761 240.892C124.966 239.695 125.082 238.099 125.082 236.362H119.51V237.417H123.757C123.757 237.778 123.731 238.125 123.718 238.447L119.175 238.756L119.407 239.811L123.654 239.438C123.615 240.004 123.551 240.519 123.461 240.982C123.088 241.008 122.689 241.034 122.264 241.046C120.99 241.085 119.703 241.098 118.377 241.098L118.57 242.179C119.574 242.179 120.552 242.166 121.517 242.127V246.606H122.83ZM128.248 247.044V235.577H126.923V242.822H124.477V243.891H126.923V247.044H128.248ZM138.431 239.94V238.897H132.447V237.507H138.817V236.452H131.121V242.449H138.933V241.407H132.447V239.94H138.431ZM140.155 244.534H129.795V245.589H140.155V244.534Z" fill="#111111"/>
<rect x="39.9168" y="281.456" width="222.165" height="18.9653" rx="3.72533" fill="white" stroke="#E0E0E0" stroke-width="0.677333"/>
<path d="M57.8122 294.504V288.3H56.5137L54.6477 292.905H54.5703L52.7044 288.3H51.4059V294.504H52.4378V290.106H52.498L54.2135 294.311H55.0046L56.7201 290.106H56.7803V294.504H57.8122ZM63.3585 293.571H60.452V291.796H63.1994V290.914H60.452V289.233H63.3585V288.3H59.3428V294.504H63.3585V293.571ZM71.1405 294.504V288.3H69.8421L67.9761 292.905H67.8987L66.0328 288.3H64.7343V294.504H65.7662V290.106H65.8264L67.5419 294.311H68.333L70.0485 290.106H70.1087V294.504H71.1405ZM75.3454 288.145C73.5439 288.145 72.4089 289.397 72.4089 291.4C72.4089 293.399 73.5268 294.659 75.3454 294.659C77.1555 294.659 78.2777 293.399 78.2777 291.4C78.2777 289.397 77.1512 288.145 75.3454 288.145ZM75.3454 289.104C76.4461 289.104 77.1469 289.994 77.1469 291.4C77.1469 292.798 76.4504 293.7 75.3454 293.7C74.2276 293.7 73.5439 292.798 73.5439 291.4C73.5439 289.994 74.2448 289.104 75.3454 289.104Z" fill="#BDBDBD"/>
<g filter="url(#filter2_d)">
<rect x="154.047" y="464.675" width="111.76" height="29.8027" rx="5.41867" fill="white"/>
<rect x="154.216" y="464.844" width="111.421" height="29.464" rx="5.24933" stroke="#E0E0E0" stroke-width="0.338667"/>
</g>
<path d="M205.271 483.561V474.09H204.35V483.561H205.271ZM203.397 483.095V474.306H202.486V477.449H200.991V478.24H202.486V483.095H203.397ZM201.988 480.527C200.915 479.855 200.037 478.424 200.037 476.593V474.989H199.116V476.604C199.116 478.511 198.151 480.061 197.035 480.776L197.631 481.448C198.563 480.809 199.354 479.682 199.582 478.63C199.864 479.66 200.698 480.722 201.402 481.199L201.988 480.527ZM213.868 477.796V477.037H208.634V475.769H214.085V474.989H207.68V479.931H214.171V479.14H208.634V477.796H213.868ZM215.201 482.358V481.578H206.65V482.358H215.201ZM226.991 478.424C225.582 478.284 223.989 477.59 223.686 476.539H226.558V475.758H219.73V476.539H222.624C222.331 477.601 220.781 478.284 219.308 478.457L219.741 479.226C221.269 479.01 222.71 478.229 223.144 477.33C223.653 478.219 225.149 478.988 226.558 479.194L226.991 478.424ZM223.61 483.561V480.603H227.425V479.812H218.874V480.603H222.645V483.561H223.61ZM224.683 474.989V474.209H221.605V474.989H224.683ZM235.566 474.09H234.612V483.561H235.566V478.771H237.083V477.969H235.566V474.09ZM233.073 475.097H228.674V475.91H232.044C231.871 477.948 230.494 479.931 228.262 481.004L228.847 481.73C231.437 480.321 233.019 478.11 233.073 475.097Z" fill="#111111"/>
<path d="M191.976 479.64C191.976 479.959 191.721 480.215 191.401 480.215H189.101V482.388C189.101 482.707 188.845 482.963 188.526 482.963C188.206 482.963 187.951 482.707 187.951 482.388V480.215H185.778C185.459 480.215 185.203 479.959 185.203 479.64C185.203 479.321 185.459 479.065 185.778 479.065H187.951V476.765C187.951 476.445 188.206 476.189 188.526 476.189C188.845 476.189 189.101 476.445 189.101 476.765V479.065H191.401C191.721 479.065 191.976 479.321 191.976 479.64Z" fill="#282828"/>
<g filter="url(#filter3_d)">
<rect x="36.1914" y="464.675" width="111.76" height="29.8027" rx="5.41867" fill="white"/>
<rect x="36.3607" y="464.844" width="111.421" height="29.464" rx="5.24933" stroke="#E0E0E0" stroke-width="0.338667"/>
</g>
<path d="M86.7401 483.561V474.09H85.819V483.561H86.7401ZM84.8653 483.095V474.306H83.955V477.449H82.4594V478.24H83.955V483.095H84.8653ZM83.4564 480.527C82.3835 479.855 81.5057 478.424 81.5057 476.593V474.989H80.5845V476.604C80.5845 478.511 79.62 480.061 78.5038 480.776L79.0998 481.448C80.0318 480.809 80.823 479.682 81.0505 478.63C81.3323 479.66 82.1668 480.722 82.8712 481.199L83.4564 480.527ZM95.3367 477.796V477.037H90.1023V475.769H95.5534V474.989H89.1486V479.931H95.6401V479.14H90.1023V477.796H95.3367ZM96.6697 482.358V481.578H88.119V482.358H96.6697ZM109.067 477.417V476.615H107.658V474.09H106.704V479.671H107.658V477.417H109.067ZM107.658 483.572V480.18H101.524V480.96H106.704V483.572H107.658ZM105.718 478.316C104.634 477.948 103.475 476.842 103.475 475.357V474.523H102.499V475.401C102.499 476.875 101.492 478.034 100.148 478.609L100.733 479.346C101.827 478.804 102.727 477.948 103.009 476.972C103.41 477.915 104.298 478.685 105.155 479.064L105.718 478.316ZM114.553 480.7C113.524 480.072 112.537 478.782 112.537 476.842V475.986H114.282V475.217H109.752V475.986H111.594V476.875C111.594 478.728 110.727 480.158 109.546 480.917L110.153 481.578C111.02 480.993 111.855 479.92 112.06 478.923C112.321 479.866 113.318 480.95 113.979 481.383L114.553 480.7ZM115.843 483.095V474.306H114.932V477.492H113.524V478.284H114.932V483.095H115.843ZM117.718 483.561V474.09H116.796V483.561H117.718Z" fill="#BDBDBD"/>
<path d="M73.5459 480.254H67.9227C67.6033 480.254 67.3477 479.953 67.3477 479.576C67.3477 479.2 67.6033 478.899 67.9227 478.899H73.5459C73.8654 478.899 74.121 479.2 74.121 479.576C74.121 479.953 73.8654 480.254 73.5459 480.254Z" fill="#BDBDBD"/>
<path d="M89.6006 329.885C91.321 329.885 92.5411 328.709 92.5411 327.062C92.5411 325.499 91.4166 324.358 89.8761 324.358C88.9146 324.358 88.1331 324.807 87.7452 325.589H87.6496C87.6721 323.531 88.4143 322.446 89.6793 322.446C90.4439 322.446 91.0006 322.84 91.158 323.526H92.423C92.2206 322.238 91.1748 321.383 89.6512 321.383C87.6777 321.383 86.4408 322.991 86.4408 325.746C86.4408 328.507 87.7733 329.885 89.6006 329.885ZM89.5893 328.833C88.6223 328.833 87.8857 328.068 87.8857 327.068C87.8857 326.078 88.5998 325.364 89.6006 325.364C90.6014 325.364 91.2929 326.078 91.2929 327.096C91.2929 328.08 90.5564 328.833 89.5893 328.833ZM97.0053 329.89C98.8944 329.89 99.9964 328.333 99.9964 325.645C99.9964 322.952 98.8775 321.383 97.0053 321.383C95.1218 321.383 94.0029 322.952 94.0029 325.628C94.0029 328.327 95.1105 329.89 97.0053 329.89ZM97.0053 328.844C95.9033 328.844 95.2736 327.72 95.2736 325.628C95.2736 323.565 95.9145 322.435 97.0053 322.435C98.096 322.435 98.7257 323.554 98.7257 325.628C98.7257 327.726 98.1073 328.844 97.0053 328.844ZM102.976 326.162H102.881V321.192H101.672V329.693H102.881V327.473L103.415 326.961L105.518 329.693H107.002L104.314 326.202L106.833 323.587H105.405L102.976 326.162ZM110.381 332.027C112.113 332.027 113.209 331.144 113.209 329.755V323.587H112.051V324.56H111.955C111.612 323.897 110.876 323.481 110.032 323.481C108.469 323.481 107.491 324.712 107.491 326.562C107.491 328.395 108.458 329.603 110.021 329.603C110.864 329.603 111.539 329.238 111.91 328.575H112V329.75C112 330.576 111.404 331.071 110.398 331.071C109.583 331.071 109.071 330.778 108.97 330.317H107.733C107.862 331.346 108.852 332.027 110.381 332.027ZM110.364 328.603C109.324 328.603 108.739 327.81 108.739 326.562C108.739 325.314 109.324 324.515 110.364 324.515C111.393 324.515 112.023 325.314 112.023 326.562C112.023 327.81 111.399 328.603 110.364 328.603Z" fill="black"/>
<path d="M141.362 329.693H142.621V321.58H141.368L139.231 323.098V324.335L141.266 322.879H141.362V329.693ZM147.85 329.89C149.739 329.89 150.841 328.333 150.841 325.645C150.841 322.952 149.722 321.383 147.85 321.383C145.967 321.383 144.848 322.952 144.848 325.628C144.848 328.327 145.955 329.89 147.85 329.89ZM147.85 328.844C146.748 328.844 146.118 327.72 146.118 325.628C146.118 323.565 146.759 322.435 147.85 322.435C148.941 322.435 149.571 323.554 149.571 325.628C149.571 327.726 148.952 328.844 147.85 328.844ZM158.746 321.483H156.086V320.228H155.141V321.483H152.47V322.243H158.746V321.483ZM154.025 324.742C154.025 324.017 154.669 323.556 155.614 323.556C156.546 323.556 157.191 324.017 157.191 324.742C157.191 325.456 156.546 325.917 155.614 325.917C154.669 325.917 154.025 325.456 154.025 324.742ZM156.086 326.63C157.306 326.481 158.089 325.767 158.089 324.742C158.089 323.579 157.087 322.831 155.614 322.831C154.14 322.831 153.126 323.579 153.126 324.742C153.126 325.778 153.921 326.492 155.141 326.642V327.747C154.117 327.782 153.126 327.793 152.251 327.793L152.389 328.588C154.289 328.588 156.777 328.553 159.079 328.173L159.01 327.471C158.066 327.598 157.064 327.667 156.086 327.713V326.63ZM159.667 320.228V330.545H160.611V320.228H159.667Z" fill="black"/>
<rect x="221.105" y="314.984" width="41.3173" height="21.6747" rx="2.70933" fill="#D5D5D5"/>
<path d="M246.975 321.284C246.407 320.924 245.621 321.056 245.215 321.56L240.353 327.718L237.482 325.173C236.994 324.741 236.181 324.741 235.694 325.173C235.206 325.605 235.206 326.325 235.694 326.758L239.621 330.239C239.865 330.455 240.19 330.563 240.515 330.563C240.515 330.563 240.515 330.563 240.529 330.563C240.529 330.563 240.624 330.563 240.651 330.563C241.003 330.539 241.341 330.371 241.572 330.095L247.3 322.844C247.693 322.328 247.544 321.632 246.975 321.284Z" fill="white"/>
<path d="M48.5333 331.984H50.5812L53.018 320.53H50.978L47.5332 322.626L47.1045 324.721L50.4859 322.649H50.5256L48.5333 331.984Z" fill="#BDBDBD"/>
<path d="M89.4825 355.629C91.2873 355.629 92.5355 354.656 92.5355 353.256C92.5355 352.21 91.8495 351.39 90.8094 351.193V351.097C91.664 350.878 92.2037 350.186 92.2037 349.304C92.2037 348.027 91.0736 347.122 89.4825 347.122C87.8914 347.122 86.7613 348.027 86.7613 349.304C86.7613 350.181 87.3123 350.884 88.1556 351.097V351.193C87.1155 351.401 86.4352 352.222 86.4352 353.262C86.4352 354.662 87.6777 355.629 89.4825 355.629ZM89.4825 350.709C88.5998 350.709 88.0038 350.192 88.0038 349.422C88.0038 348.64 88.5942 348.117 89.4825 348.117C90.3708 348.117 90.9668 348.64 90.9668 349.422C90.9668 350.192 90.3652 350.709 89.4825 350.709ZM89.4825 354.628C88.4424 354.628 87.7227 354.027 87.7227 353.161C87.7227 352.295 88.4424 351.699 89.4825 351.699C90.5226 351.699 91.2423 352.295 91.2423 353.161C91.2423 354.027 90.5226 354.628 89.4825 354.628ZM97.0053 355.629C98.8944 355.629 99.9964 354.072 99.9964 351.384C99.9964 348.691 98.8775 347.122 97.0053 347.122C95.1218 347.122 94.0029 348.691 94.0029 351.367C94.0029 354.066 95.1105 355.629 97.0053 355.629ZM97.0053 354.583C95.9033 354.583 95.2736 353.459 95.2736 351.367C95.2736 349.304 95.9145 348.174 97.0053 348.174C98.096 348.174 98.7257 349.292 98.7257 351.367C98.7257 353.464 98.1073 354.583 97.0053 354.583ZM102.976 351.901H102.881V346.931H101.672V355.432H102.881V353.211L103.415 352.7L105.518 355.432H107.002L104.314 351.941L106.833 349.326H105.405L102.976 351.901ZM110.381 357.765C112.113 357.765 113.209 356.883 113.209 355.494V349.326H112.051V350.299H111.955C111.612 349.635 110.876 349.219 110.032 349.219C108.469 349.219 107.491 350.451 107.491 352.3C107.491 354.133 108.458 355.342 110.021 355.342C110.864 355.342 111.539 354.977 111.91 354.313H112V355.488C112 356.315 111.404 356.81 110.398 356.81C109.583 356.81 109.071 356.517 108.97 356.056H107.733C107.862 357.085 108.852 357.765 110.381 357.765ZM110.364 354.341C109.324 354.341 108.739 353.549 108.739 352.3C108.739 351.052 109.324 350.254 110.364 350.254C111.393 350.254 112.023 351.052 112.023 352.3C112.023 353.549 111.399 354.341 110.364 354.341Z" fill="black"/>
<path d="M147.985 355.629C149.706 355.629 150.869 354.476 150.869 352.79C150.869 351.17 149.745 350.113 148.373 350.113C147.552 350.113 146.951 350.378 146.579 350.878H146.484L146.72 348.387H150.448V347.319H145.742L145.286 352.002H146.439C146.737 351.44 147.305 351.103 148.024 351.103C148.98 351.103 149.638 351.789 149.638 352.812C149.638 353.869 148.975 354.578 147.991 354.578C147.108 354.578 146.45 354.043 146.36 353.234H145.157C145.236 354.645 146.371 355.629 147.985 355.629ZM158.746 347.222H156.086V345.967H155.141V347.222H152.47V347.982H158.746V347.222ZM154.025 350.481C154.025 349.755 154.669 349.295 155.614 349.295C156.546 349.295 157.191 349.755 157.191 350.481C157.191 351.195 156.546 351.655 155.614 351.655C154.669 351.655 154.025 351.195 154.025 350.481ZM156.086 352.369C157.306 352.22 158.089 351.506 158.089 350.481C158.089 349.318 157.087 348.569 155.614 348.569C154.14 348.569 153.126 349.318 153.126 350.481C153.126 351.517 153.921 352.231 155.141 352.381V353.486C154.117 353.521 153.126 353.532 152.251 353.532L152.389 354.327C154.289 354.327 156.777 354.292 159.079 353.912L159.01 353.21C158.066 353.336 157.064 353.406 156.086 353.452V352.369ZM159.667 345.967V356.284H160.611V345.967H159.667Z" fill="black"/>
<rect x="221.105" y="340.723" width="41.3173" height="21.6747" rx="2.70933" fill="#D5D5D5"/>
<path d="M246.975 347.023C246.407 346.663 245.621 346.795 245.215 347.299L240.353 353.457L237.482 350.912C236.994 350.48 236.181 350.48 235.694 350.912C235.206 351.344 235.206 352.064 235.694 352.496L239.621 355.977C239.865 356.193 240.19 356.302 240.515 356.302C240.515 356.302 240.515 356.302 240.529 356.302C240.529 356.302 240.624 356.302 240.651 356.302C241.003 356.278 241.341 356.109 241.572 355.833L247.3 348.583C247.693 348.067 247.544 347.371 246.975 347.023Z" fill="white"/>
<path d="M47.3109 349.618H49.2397C49.4461 348.468 50.2875 347.769 51.4305 347.769C52.4782 347.769 53.2085 348.404 53.2085 349.309C53.2085 350.222 52.6767 350.881 50.7796 352.405L46.0806 356.175L45.7631 357.723H53.8514L54.2086 356H48.8825L48.8905 355.953L51.9782 353.516C54.542 351.492 55.2484 350.579 55.2484 349.095C55.2484 347.332 53.6847 346.078 51.5654 346.078C49.2477 346.078 47.5093 347.531 47.3109 349.618Z" fill="#BDBDBD"/>
<path d="M83.0392 381.171H84.2987V373.058H83.0449L80.9084 374.576V375.813L82.9437 374.357H83.0392V381.171ZM89.5275 381.368C91.4166 381.368 92.5186 379.81 92.5186 377.123C92.5186 374.43 91.3997 372.861 89.5275 372.861C87.644 372.861 86.5251 374.43 86.5251 377.106C86.5251 379.805 87.6327 381.368 89.5275 381.368ZM89.5275 380.322C88.4255 380.322 87.7958 379.197 87.7958 377.106C87.7958 375.042 88.4367 373.912 89.5275 373.912C90.6182 373.912 91.2479 375.031 91.2479 377.106C91.2479 379.203 90.6295 380.322 89.5275 380.322ZM97.0053 381.368C98.8944 381.368 99.9964 379.81 99.9964 377.123C99.9964 374.43 98.8775 372.861 97.0053 372.861C95.1218 372.861 94.0029 374.43 94.0029 377.106C94.0029 379.805 95.1105 381.368 97.0053 381.368ZM97.0053 380.322C95.9033 380.322 95.2736 379.197 95.2736 377.106C95.2736 375.042 95.9145 373.912 97.0053 373.912C98.096 373.912 98.7257 375.031 98.7257 377.106C98.7257 379.203 98.1073 380.322 97.0053 380.322ZM102.976 377.64H102.881V372.67H101.672V381.171H102.881V378.95L103.415 378.438L105.518 381.171H107.002L104.314 377.679L106.833 375.065H105.405L102.976 377.64ZM110.381 383.504C112.113 383.504 113.209 382.621 113.209 381.233V375.065H112.051V376.038H111.955C111.612 375.374 110.876 374.958 110.032 374.958C108.469 374.958 107.491 376.189 107.491 378.039C107.491 379.872 108.458 381.081 110.021 381.081C110.864 381.081 111.539 380.715 111.91 380.052H112V381.227C112 382.054 111.404 382.548 110.398 382.548C109.583 382.548 109.071 382.256 108.97 381.795H107.733C107.862 382.824 108.852 383.504 110.381 383.504ZM110.364 380.08C109.324 380.08 108.739 379.287 108.739 378.039C108.739 376.791 109.324 375.993 110.364 375.993C111.393 375.993 112.023 376.791 112.023 378.039C112.023 379.287 111.399 380.08 110.364 380.08Z" fill="black"/>
<path d="M148.84 381.171H150.099V373.058H148.845L146.709 374.576V375.813L148.744 374.357H148.84V381.171ZM158.746 372.961H156.086V371.706H155.141V372.961H152.47V373.721H158.746V372.961ZM154.025 376.22C154.025 375.494 154.669 375.034 155.614 375.034C156.546 375.034 157.191 375.494 157.191 376.22C157.191 376.934 156.546 377.394 155.614 377.394C154.669 377.394 154.025 376.934 154.025 376.22ZM156.086 378.108C157.306 377.958 158.089 377.244 158.089 376.22C158.089 375.057 157.087 374.308 155.614 374.308C154.14 374.308 153.126 375.057 153.126 376.22C153.126 377.256 153.921 377.97 155.141 378.12V379.225C154.117 379.259 153.126 379.271 152.251 379.271L152.389 380.065C154.289 380.065 156.777 380.031 159.079 379.651L159.01 378.949C158.066 379.075 157.064 379.144 156.086 379.19V378.108ZM159.667 371.706V382.023H160.611V371.706H159.667Z" fill="black"/>
<rect x="221.105" y="366.461" width="41.3173" height="21.6747" rx="2.70933" fill="#D5D5D5"/>
<path d="M246.975 372.762C246.407 372.401 245.621 372.533 245.215 373.038L240.353 379.195L237.482 376.651C236.994 376.219 236.181 376.219 235.694 376.651C235.206 377.083 235.206 377.803 235.694 378.235L239.621 381.716C239.865 381.932 240.19 382.04 240.515 382.04C240.515 382.04 240.515 382.04 240.529 382.04C240.529 382.04 240.624 382.04 240.651 382.04C241.003 382.016 241.341 381.848 241.572 381.572L247.3 374.322C247.693 373.806 247.544 373.11 246.975 372.762Z" fill="white"/>
<path d="M49.335 378.326H50.7002C51.994 378.326 52.7402 378.969 52.7402 380.001C52.7402 381.191 51.7718 381.945 50.4462 381.945C48.9698 381.945 48.1364 381.167 48.1364 380.009H46.2155C46.2076 380.088 46.1997 380.144 46.1997 380.207C46.1441 382.168 47.7395 383.644 50.3986 383.644C52.8751 383.644 54.7722 382.199 54.7722 380.08C54.7722 378.858 54.0498 377.929 52.7957 377.627L52.8037 377.588C54.3197 377.381 55.4548 376.302 55.4548 374.889C55.4548 373.174 53.9387 371.817 51.6845 371.817C49.4461 371.817 47.8189 373.055 47.43 375.032H49.327C49.5413 374.119 50.3986 373.516 51.486 373.516C52.7084 373.516 53.4545 374.159 53.4545 375.111C53.4545 376.135 52.4862 376.77 51.0733 376.77H49.6604L49.335 378.326Z" fill="#BDBDBD"/>
<path d="M83.0392 406.909H84.2987V398.796H83.0449L80.9084 400.314V401.551L82.9437 400.095H83.0392V406.909ZM89.5275 407.106C91.4166 407.106 92.5186 405.549 92.5186 402.861C92.5186 400.168 91.3997 398.599 89.5275 398.599C87.644 398.599 86.5251 400.168 86.5251 402.844C86.5251 405.543 87.6327 407.106 89.5275 407.106ZM89.5275 406.06C88.4255 406.06 87.7958 404.936 87.7958 402.844C87.7958 400.781 88.4367 399.651 89.5275 399.651C90.6182 399.651 91.2479 400.77 91.2479 402.844C91.2479 404.941 90.6295 406.06 89.5275 406.06ZM97.0053 407.106C98.8944 407.106 99.9964 405.549 99.9964 402.861C99.9964 400.168 98.8775 398.599 97.0053 398.599C95.1218 398.599 94.0029 400.168 94.0029 402.844C94.0029 405.543 95.1105 407.106 97.0053 407.106ZM97.0053 406.06C95.9033 406.06 95.2736 404.936 95.2736 402.844C95.2736 400.781 95.9145 399.651 97.0053 399.651C98.096 399.651 98.7257 400.77 98.7257 402.844C98.7257 404.941 98.1073 406.06 97.0053 406.06ZM102.976 403.378H102.881V398.408H101.672V406.909H102.881V404.688L103.415 404.177L105.518 406.909H107.002L104.314 403.418L106.833 400.803H105.405L102.976 403.378ZM110.381 409.242C112.113 409.242 113.209 408.36 113.209 406.971V400.803H112.051V401.776H111.955C111.612 401.112 110.876 400.696 110.032 400.696C108.469 400.696 107.491 401.928 107.491 403.778C107.491 405.61 108.458 406.819 110.021 406.819C110.864 406.819 111.539 406.454 111.91 405.79H112V406.965C112 407.792 111.404 408.287 110.398 408.287C109.583 408.287 109.071 407.994 108.97 407.533H107.733C107.862 408.562 108.852 409.242 110.381 409.242ZM110.364 405.818C109.324 405.818 108.739 405.026 108.739 403.778C108.739 402.529 109.324 401.731 110.364 401.731C111.393 401.731 112.023 402.529 112.023 403.778C112.023 405.026 111.399 405.818 110.364 405.818Z" fill="black"/>
<path d="M148.84 406.909H150.099V398.796H148.845L146.709 400.314V401.551L148.744 400.095H148.84V406.909ZM158.746 398.699H156.086V397.444H155.141V398.699H152.47V399.459H158.746V398.699ZM154.025 401.958C154.025 401.232 154.669 400.772 155.614 400.772C156.546 400.772 157.191 401.232 157.191 401.958C157.191 402.672 156.546 403.132 155.614 403.132C154.669 403.132 154.025 402.672 154.025 401.958ZM156.086 403.846C157.306 403.697 158.089 402.983 158.089 401.958C158.089 400.795 157.087 400.046 155.614 400.046C154.14 400.046 153.126 400.795 153.126 401.958C153.126 402.994 153.921 403.708 155.141 403.858V404.963C154.117 404.998 153.126 405.009 152.251 405.009L152.389 405.804C154.289 405.804 156.777 405.769 159.079 405.389L159.01 404.687C158.066 404.814 157.064 404.883 156.086 404.929V403.846ZM159.667 397.444V407.761H160.611V397.444H159.667Z" fill="black"/>
<rect x="221.105" y="392.2" width="41.3173" height="21.6747" rx="2.70933" fill="#D5D5D5"/>
<path d="M246.975 398.5C246.407 398.14 245.621 398.272 245.215 398.776L240.353 404.934L237.482 402.389C236.994 401.957 236.181 401.957 235.694 402.389C235.206 402.821 235.206 403.541 235.694 403.973L239.621 407.454C239.865 407.671 240.19 407.779 240.515 407.779C240.515 407.779 240.515 407.779 240.529 407.779C240.529 407.779 240.624 407.779 240.651 407.779C241.003 407.755 241.341 407.587 241.572 407.31L247.3 400.06C247.693 399.544 247.544 398.848 246.975 398.5Z" fill="white"/>
<path d="M51.105 409.2H53.0656L53.526 407.065H55.0738L55.431 405.334H53.8832L55.5024 397.746H52.4544C49.8112 400.754 47.6205 403.27 46.1997 405.16L45.8742 407.065H51.5654L51.105 409.2ZM48.1205 405.342C49.7239 403.294 51.7559 400.961 53.2005 399.357H53.2402L51.9464 405.382H48.1126L48.1205 405.342Z" fill="#BDBDBD"/>
<path d="M83.0392 432.648H84.2987V424.535H83.0449L80.9084 426.053V427.29L82.9437 425.834H83.0392V432.648ZM89.5275 432.845C91.4166 432.845 92.5186 431.287 92.5186 428.6C92.5186 425.907 91.3997 424.338 89.5275 424.338C87.644 424.338 86.5251 425.907 86.5251 428.583C86.5251 431.282 87.6327 432.845 89.5275 432.845ZM89.5275 431.799C88.4255 431.799 87.7958 430.674 87.7958 428.583C87.7958 426.52 88.4367 425.389 89.5275 425.389C90.6182 425.389 91.2479 426.508 91.2479 428.583C91.2479 430.68 90.6295 431.799 89.5275 431.799ZM97.0053 432.845C98.8944 432.845 99.9964 431.287 99.9964 428.6C99.9964 425.907 98.8775 424.338 97.0053 424.338C95.1218 424.338 94.0029 425.907 94.0029 428.583C94.0029 431.282 95.1105 432.845 97.0053 432.845ZM97.0053 431.799C95.9033 431.799 95.2736 430.674 95.2736 428.583C95.2736 426.52 95.9145 425.389 97.0053 425.389C98.096 425.389 98.7257 426.508 98.7257 428.583C98.7257 430.68 98.1073 431.799 97.0053 431.799ZM102.976 429.117H102.881V424.147H101.672V432.648H102.881V430.427L103.415 429.915L105.518 432.648H107.002L104.314 429.156L106.833 426.542H105.405L102.976 429.117ZM110.381 434.981C112.113 434.981 113.209 434.099 113.209 432.71V426.542H112.051V427.515H111.955C111.612 426.851 110.876 426.435 110.032 426.435C108.469 426.435 107.491 427.667 107.491 429.516C107.491 431.349 108.458 432.558 110.021 432.558C110.864 432.558 111.539 432.193 111.91 431.529H112V432.704C112 433.531 111.404 434.025 110.398 434.025C109.583 434.025 109.071 433.733 108.97 433.272H107.733C107.862 434.301 108.852 434.981 110.381 434.981ZM110.364 431.557C109.324 431.557 108.739 430.764 108.739 429.516C108.739 428.268 109.324 427.47 110.364 427.47C111.393 427.47 112.023 428.268 112.023 429.516C112.023 430.764 111.399 431.557 110.364 431.557Z" fill="black"/>
<path d="M148.84 432.648H150.099V424.535H148.845L146.709 426.053V427.29L148.744 425.834H148.84V432.648ZM158.746 424.438H156.086V423.183H155.141V424.438H152.47V425.198H158.746V424.438ZM154.025 427.697C154.025 426.971 154.669 426.511 155.614 426.511C156.546 426.511 157.191 426.971 157.191 427.697C157.191 428.411 156.546 428.871 155.614 428.871C154.669 428.871 154.025 428.411 154.025 427.697ZM156.086 429.585C157.306 429.435 158.089 428.721 158.089 427.697C158.089 426.534 157.087 425.785 155.614 425.785C154.14 425.785 153.126 426.534 153.126 427.697C153.126 428.733 153.921 429.447 155.141 429.597V430.702C154.117 430.737 153.126 430.748 152.251 430.748L152.389 431.543C154.289 431.543 156.777 431.508 159.079 431.128L159.01 430.426C158.066 430.552 157.064 430.621 156.086 430.667V429.585ZM159.667 423.183V433.5H160.611V423.183H159.667Z" fill="black"/>
<rect x="221.105" y="417.938" width="41.3173" height="21.6747" rx="2.70933" fill="#D5D5D5"/>
<path d="M246.975 424.239C246.407 423.878 245.621 424.011 245.215 424.515L240.353 430.672L237.482 428.128C236.994 427.696 236.181 427.696 235.694 428.128C235.206 428.56 235.206 429.28 235.694 429.712L239.621 433.193C239.865 433.409 240.19 433.517 240.515 433.517C240.515 433.517 240.515 433.517 240.529 433.517C240.529 433.517 240.624 433.517 240.651 433.517C241.003 433.493 241.341 433.325 241.572 433.049L247.3 425.799C247.693 425.283 247.544 424.587 246.975 424.239Z" fill="white"/>
<path d="M50.5653 435.129C53.145 435.153 55.0341 433.351 55.0182 430.859C55.0023 428.7 53.5736 427.382 51.6607 427.382C50.6367 427.382 49.7477 427.723 49.2159 428.327H49.1683L50.1684 425.207H55.4072L55.7723 423.485H48.8667L46.914 429.851H48.8825C49.335 429.223 50.1684 428.914 50.9542 428.914C52.2004 428.914 53.0497 429.755 53.0497 431.017C53.0497 432.422 52.0337 433.407 50.6685 433.407C49.3985 433.407 48.4698 432.645 48.3745 431.525H46.4537C46.4537 431.557 46.4537 431.597 46.4537 431.652C46.4695 433.613 48.1285 435.113 50.5653 435.129Z" fill="#BDBDBD"/>
<g clip-path="url(#clip3)">
<path d="M47.7069 247.928C43.9808 247.928 40.9336 244.897 40.9336 241.155C40.9336 237.412 43.9808 234.381 47.7069 234.381C51.4331 234.381 54.4803 237.429 54.4803 241.155C54.4803 244.881 51.4496 247.928 47.7069 247.928ZM47.7069 235.474C44.577 235.474 42.0266 238.025 42.0266 241.155C42.0266 244.285 44.577 246.852 47.7069 246.852C50.8369 246.852 53.3873 244.301 53.3873 241.171C53.3873 238.041 50.8535 235.474 47.7069 235.474Z" fill="#4F4F4F"/>
<path d="M47.7882 244.616H47.6392C47.3079 244.616 47.043 244.351 47.043 244.019V240.21C47.043 239.879 47.3079 239.614 47.6392 239.614H47.7882C48.1194 239.614 48.3844 239.879 48.3844 240.21V244.036C48.3678 244.351 48.1029 244.616 47.7882 244.616Z" fill="#4F4F4F"/>
<path d="M47.7054 239.018C48.0712 239.018 48.3678 238.722 48.3678 238.356C48.3678 237.99 48.0712 237.693 47.7054 237.693C47.3395 237.693 47.043 237.99 47.043 238.356C47.043 238.722 47.3395 239.018 47.7054 239.018Z" fill="#4F4F4F"/>
</g>
<path fill-rule="evenodd" clip-rule="evenodd" d="M257.424 237.768C258.314 237.768 259.033 238.553 259.033 239.523C259.033 240.493 258.314 241.278 257.424 241.278C256.535 241.278 255.815 240.493 255.815 239.523C255.815 238.553 256.535 237.768 257.424 237.768ZM252.6 237.768C253.49 237.768 254.209 238.553 254.209 239.523C254.209 240.493 253.49 241.278 252.6 241.278C251.711 241.278 250.991 240.493 250.991 239.523C250.991 238.553 251.711 237.768 252.6 237.768ZM247.773 237.768C248.663 237.768 249.382 238.553 249.382 239.523C249.382 240.493 248.663 241.278 247.773 241.278C246.884 241.278 246.164 240.493 246.164 239.523C246.164 238.553 246.884 237.768 247.773 237.768Z" fill="#212121"/>
<path d="M49.6902 267.678C49.6902 266.763 48.6742 266.103 46.5406 266.103C44.4273 266.103 43.4113 266.763 43.4113 267.678C43.4113 268.602 44.4273 269.263 46.5507 269.263C48.6742 269.263 49.6902 268.602 49.6902 267.678ZM50.2591 263.482C48.9383 263.441 47.4956 262.923 47.1502 262.212H49.8121V261.379H43.269V262.212H45.9614C45.6262 262.933 44.2546 263.451 42.8017 263.482L43.2386 264.325C44.6813 264.223 46.0427 263.665 46.5406 262.872C47.0587 263.644 48.4913 264.213 49.8324 264.325L50.2591 263.482ZM50.635 265.717V264.874H47.0486V263.827H46.0122V264.874H42.4562V265.717H50.635ZM48.6132 267.678C48.6132 268.155 47.8309 268.43 46.5406 268.43C45.2706 268.43 44.4781 268.155 44.4781 267.678C44.4781 267.211 45.2706 266.957 46.5406 266.957C47.8309 266.957 48.6132 267.211 48.6132 267.678ZM45.0572 260.921H48.0239V260.109H45.0572V260.921ZM61.0382 263.238V260.19H60.0018V260.942H56.009V260.2H54.9625V263.238H57.472V263.99H53.916V264.823H62.0948V263.99H58.5083V263.238H61.0382ZM61.3836 269.11V268.277H56.009V267.647H61.0483V265.473H54.932V266.306H60.012V266.906H54.9625V269.11H61.3836ZM60.0018 262.425H56.009V261.755H60.0018V262.425ZM69.8391 269.07V266.296H68.7926V265.554H70.8856V264.711H62.7068V265.554H64.7693V266.296H63.7533V269.07H69.8391ZM69.9813 264.081V263.279H64.8302V262.598H69.7883V260.363H63.7533V261.165H68.7418V261.836H63.7837V264.081H69.9813ZM68.8028 268.257H64.7896V267.109H68.8028V268.257ZM65.8157 265.554H67.7461V266.296H65.8157V265.554ZM76.2579 265.184H77.1558C78.0389 265.184 78.5746 265.626 78.5746 266.345C78.5746 267.039 77.9942 267.506 77.1707 267.506C76.3422 267.506 75.7816 267.079 75.7271 266.414H74.5017C74.5612 267.709 75.6278 268.557 77.1856 268.557C78.7334 268.557 79.8843 267.665 79.8843 266.434C79.8843 265.457 79.2741 264.827 78.3018 264.678V264.594C79.0608 264.39 79.6016 263.82 79.6065 262.957C79.6115 261.93 78.7532 261.042 77.2302 261.042C75.6775 261.042 74.7051 261.92 74.6406 263.175H75.8412C75.8957 262.461 76.3819 262.064 77.1608 262.064C77.9198 262.064 78.3712 262.53 78.3712 263.12C78.3712 263.77 77.8652 264.227 77.131 264.227H76.2579V265.184ZM83.9275 268.557C85.5795 268.557 86.7106 267.704 86.7106 266.459C86.7106 265.536 86.0954 264.812 85.1628 264.638V264.554C85.9317 264.361 86.4179 263.75 86.4179 262.976C86.4179 261.85 85.386 261.042 83.9325 261.042C82.4789 261.042 81.4421 261.85 81.4421 262.976C81.4421 263.745 81.9382 264.366 82.7021 264.554V264.638C81.7645 264.832 81.1543 265.556 81.1543 266.464C81.1543 267.704 82.2854 268.557 83.9275 268.557ZM83.9325 264.177C83.2032 264.177 82.7021 263.74 82.7021 263.096C82.7021 262.451 83.1982 262.004 83.9325 262.004C84.6617 262.004 85.1578 262.451 85.1578 263.096C85.1578 263.735 84.6567 264.177 83.9325 264.177ZM83.9325 267.58C83.0692 267.58 82.4739 267.079 82.4739 266.36C82.4739 265.636 83.0692 265.134 83.9325 265.134C84.7907 265.134 85.386 265.636 85.386 266.36C85.386 267.079 84.7957 267.58 83.9325 267.58ZM90.7041 268.557C92.4157 268.557 93.4326 267.173 93.4326 264.802C93.4326 262.426 92.4008 261.042 90.7041 261.042C89.0025 261.042 87.9707 262.426 87.9707 264.792C87.9707 267.168 88.9876 268.557 90.7041 268.557ZM90.7041 267.521C89.7963 267.521 89.2655 266.578 89.2655 264.792C89.2655 263.021 89.8062 262.083 90.7041 262.083C91.6021 262.083 92.1378 263.016 92.1378 264.792C92.1378 266.583 91.612 267.521 90.7041 267.521ZM97.4609 268.557C99.1724 268.557 100.189 267.173 100.189 264.802C100.189 262.426 99.1576 261.042 97.4609 261.042C95.7593 261.042 94.7274 262.426 94.7274 264.792C94.7274 267.168 95.7444 268.557 97.4609 268.557ZM97.4609 267.521C96.5531 267.521 96.0223 266.578 96.0223 264.792C96.0223 263.021 96.563 262.083 97.4609 262.083C98.3589 262.083 98.8946 263.016 98.8946 264.792C98.8946 266.583 98.3688 267.521 97.4609 267.521ZM102.958 265.179H102.873V260.858H101.643V268.379H102.873V266.474L103.31 266.037L105.051 268.379H106.539L104.228 265.283L106.391 262.957H104.962L102.958 265.179ZM109.521 270.443C111.104 270.443 112.106 269.654 112.106 268.409V262.957H110.92V263.825H110.836C110.538 263.234 109.893 262.867 109.154 262.867C107.77 262.867 106.912 263.949 106.912 265.611C106.912 267.238 107.765 268.3 109.134 268.3C109.888 268.3 110.478 267.982 110.791 267.397H110.875V268.429C110.875 269.118 110.384 269.525 109.541 269.525C108.866 269.525 108.43 269.282 108.35 268.9H107.115C107.214 269.832 108.127 270.443 109.521 270.443ZM109.521 267.322C108.663 267.322 108.177 266.657 108.177 265.606C108.177 264.559 108.663 263.894 109.521 263.894C110.374 263.894 110.895 264.559 110.895 265.611C110.895 266.657 110.379 267.322 109.521 267.322Z" fill="#425EFF"/>
<path d="M120.587 265.754H122.542V264.653H120.587V262.604H119.471V264.653H117.522V265.754H119.471V267.803H120.587V265.754ZM124.144 263.016H125.345C125.345 262.262 125.841 261.746 126.62 261.746C127.369 261.746 127.816 262.247 127.816 262.897C127.816 263.442 127.597 263.785 126.694 264.698L124.214 267.193V268.056H129.185V266.995H125.95V266.91L127.488 265.397C128.718 264.192 129.081 263.611 129.081 262.778C129.081 261.587 128.113 260.719 126.689 260.719C125.196 260.719 124.144 261.662 124.144 263.016ZM133.243 268.235C134.954 268.235 135.971 266.851 135.971 264.479C135.971 262.103 134.939 260.719 133.243 260.719C131.541 260.719 130.509 262.103 130.509 264.469C130.509 266.846 131.526 268.235 133.243 268.235ZM133.243 267.198C132.335 267.198 131.804 266.255 131.804 264.469C131.804 262.698 132.345 261.761 133.243 261.761C134.141 261.761 134.676 262.693 134.676 264.469C134.676 266.26 134.151 267.198 133.243 267.198ZM140 268.235C141.711 268.235 142.728 266.851 142.728 264.479C142.728 262.103 141.696 260.719 140 260.719C138.298 260.719 137.266 262.103 137.266 264.469C137.266 266.846 138.283 268.235 140 268.235ZM140 267.198C139.092 267.198 138.561 266.255 138.561 264.469C138.561 262.698 139.102 261.761 140 261.761C140.897 261.761 141.433 262.693 141.433 264.469C141.433 266.26 140.907 267.198 140 267.198ZM145.496 264.856H145.412V260.535H144.182V268.056H145.412V266.151L145.849 265.715L147.59 268.056H149.078L146.766 264.961L148.929 262.634H147.501L145.496 264.856ZM152.06 270.12C153.642 270.12 154.644 269.331 154.644 268.086V262.634H153.459V263.502H153.374C153.077 262.912 152.432 262.545 151.692 262.545C150.308 262.545 149.45 263.626 149.45 265.288C149.45 266.915 150.303 267.977 151.673 267.977C152.427 267.977 153.017 267.659 153.33 267.074H153.414V268.106C153.414 268.795 152.923 269.202 152.079 269.202C151.405 269.202 150.968 268.959 150.889 268.577H149.654C149.753 269.51 150.666 270.12 152.06 270.12ZM152.06 266.999C151.201 266.999 150.715 266.335 150.715 265.283C150.715 264.236 151.201 263.571 152.06 263.571C152.913 263.571 153.434 264.236 153.434 265.288C153.434 266.335 152.918 266.999 152.06 266.999Z" fill="#2D9CDB"/>
<g filter="url(#filter4_d)">
<path d="M24 527.497C24 520.016 30.065 513.951 37.5467 513.951H264.453C271.935 513.951 278 520.016 278 527.497V557.3H24V527.497Z" fill="#FBFDFF"/>
<path d="M54.9652 539.796H52.8858V539.309H51.9917V539.796H49.8852V540.467H54.9652V539.796ZM51.1518 544.368H53.7054V544.863H51.1518V544.368ZM50.2781 545.52H54.5859V543.711H50.2781V545.52ZM51.3076 541.51C51.3076 541.307 51.6666 541.225 52.4388 541.225C53.2177 541.225 53.5699 541.307 53.5699 541.51C53.5699 541.713 53.2177 541.801 52.4388 541.801C51.6666 541.801 51.3076 541.713 51.3076 541.51ZM52.8858 542.695V542.384C53.9424 542.323 54.5317 542.031 54.5317 541.51C54.5317 540.921 53.7799 540.623 52.4388 540.623C51.1044 540.623 50.3526 540.921 50.3526 541.51C50.3526 542.031 50.9418 542.323 51.9917 542.384V542.695H49.6143V543.386H55.2632V542.695H52.8858Z" fill="#4F4F4F"/>
<g clip-path="url(#clip4)">
<path d="M47.7062 535.625H50.4156H54.4796H57.1889C57.936 535.625 58.5436 535.078 58.5436 534.406V528.92C58.5436 528.758 58.4724 528.603 58.3451 528.489L52.9264 523.612C52.6616 523.374 52.2335 523.374 51.9687 523.612L46.55 528.489C46.4227 528.603 46.3516 528.758 46.3516 528.92V534.406C46.3516 535.078 46.9591 535.625 47.7062 535.625ZM51.0929 534.406V531.358H53.8022V534.406H51.0929ZM47.7062 529.172L52.4476 524.905L57.1889 529.172L57.1896 534.406H55.1569V531.358C55.1569 530.686 54.5493 530.139 53.8022 530.139H51.0929C50.3458 530.139 49.7382 530.686 49.7382 531.358V534.406H47.7062V529.172Z" fill="#4F4F4F"/>
</g>
<path d="M96.0972 541.354H96.6323V542.567H97.479V539.363H96.6323V540.643H96.0972V539.471H95.2641V542.526H96.0972V541.354ZM92.4531 539.701V540.406H94.0246C94.0042 540.528 93.9771 540.65 93.9365 540.765L92.189 540.86L92.3041 541.551L93.564 541.415C93.2592 541.754 92.8054 542.045 92.1483 542.269L92.5412 542.892C94.2074 542.275 94.9051 541.246 94.9051 539.701H92.4531ZM94.1329 544.849V544.456H97.479V542.797H93.2388V543.474H96.5984V543.826H93.2524V545.526H97.6754V544.849H94.1329ZM103.568 539.356H102.674V543.955H103.568V539.356ZM102.172 542.255C101.4 542.397 100.696 542.445 99.5917 542.451V541.761H101.576V539.762H98.7044V540.48H100.696V541.097H98.7112V543.169H99.2598C100.587 543.169 101.387 543.129 102.26 542.966L102.172 542.255ZM100.289 544.775V543.569H99.3953V545.486H103.723V544.775H100.289ZM105.809 540.623H107.739V539.911H104.915V544.104H105.423C106.561 544.104 107.306 544.077 108.146 543.921L108.058 543.196C107.347 543.318 106.703 543.366 105.809 543.373V540.623ZM108.965 539.356V541.51H107.441V542.228H108.965V545.615H109.86V539.356H108.965Z" fill="#329EFF"/>
<g clip-path="url(#clip5)">
<path fill-rule="evenodd" clip-rule="evenodd" d="M97.3318 525.753C97.0533 525.753 96.8275 525.979 96.8275 526.257V534.023C96.8275 534.302 97.0533 534.528 97.3318 534.528H105.098C105.377 534.528 105.602 534.302 105.602 534.023V526.257C105.602 525.979 105.377 525.753 105.098 525.753H97.3318ZM95.6172 526.257C95.6172 525.31 96.3848 524.542 97.3318 524.542H105.098C106.045 524.542 106.813 525.31 106.813 526.257V534.023C106.813 534.97 106.045 535.738 105.098 535.738H97.3318C96.3848 535.738 95.6172 534.97 95.6172 534.023V526.257Z" fill="#329EFF"/>
<path fill-rule="evenodd" clip-rule="evenodd" d="M103.433 523.433C103.768 523.433 104.038 523.704 104.038 524.038V526.257C104.038 526.591 103.768 526.862 103.433 526.862C103.099 526.862 102.828 526.591 102.828 526.257V524.038C102.828 523.704 103.099 523.433 103.433 523.433Z" fill="#329EFF"/>
<path fill-rule="evenodd" clip-rule="evenodd" d="M98.9958 523.433C99.33 523.433 99.6009 523.704 99.6009 524.038V526.257C99.6009 526.591 99.33 526.862 98.9958 526.862C98.6616 526.862 98.3906 526.591 98.3906 526.257V524.038C98.3906 523.704 98.6616 523.433 98.9958 523.433Z" fill="#329EFF"/>
<path fill-rule="evenodd" clip-rule="evenodd" d="M95.6172 528.476C95.6172 528.142 95.8881 527.871 96.2223 527.871H106.207C106.542 527.871 106.813 528.142 106.813 528.476C106.813 528.81 106.542 529.081 106.207 529.081H96.2223C95.8881 529.081 95.6172 528.81 95.6172 528.476Z" fill="#329EFF"/>
</g>
<path d="M144.131 541.741H143.434C143.583 541.233 143.637 540.684 143.637 540.095H141.192V540.806H142.75C142.641 542.025 142.093 542.926 140.846 543.671L141.354 544.301C142.235 543.786 142.804 543.17 143.156 542.459H144.131V545.317H144.964V539.492H144.131V541.741ZM145.445 539.35V545.588H146.292V539.35H145.445ZM149.577 539.837H148.682V540.745C148.682 541.957 148.168 543.163 147.077 543.63L147.612 544.369C148.357 544.017 148.865 543.346 149.143 542.513C149.421 543.278 149.902 543.895 150.62 544.22L151.128 543.495C150.071 543.041 149.577 541.903 149.577 540.745V539.837ZM151.432 539.35V545.608H152.327V539.35H151.432ZM154.866 540.582H155.496V542.35C155.286 542.364 155.076 542.371 154.866 542.377V540.582ZM157.061 542.228C156.83 542.255 156.593 542.283 156.349 542.303V540.582H156.844V539.871H153.518V540.582H154.006V542.391L153.356 542.398L153.45 543.122C154.487 543.122 155.896 543.095 157.121 542.879L157.061 542.228ZM155.171 543.522H154.277V545.486H158.524V544.775H155.171V543.522ZM158.3 541.118V539.356H157.406V543.949H158.3V541.856H159.126V541.118H158.3Z" fill="#4F4F4F"/>
<path d="M152.989 524.111H146.972C144.89 524.111 143.207 525.793 143.207 527.875V529.33C143.207 531.412 144.89 533.094 146.972 533.094H147.941L148.711 534.392C148.982 534.848 149.453 535.119 149.98 535.119C150.508 535.119 150.979 534.848 151.249 534.392L152.019 533.094H152.989C155.071 533.094 156.754 531.412 156.754 529.33V527.875C156.754 525.808 155.071 524.111 152.989 524.111ZM155.627 529.33C155.627 530.784 154.444 531.968 152.989 531.968H151.706C151.506 531.968 151.321 532.068 151.221 532.239L150.28 533.807C150.194 533.964 150.037 533.979 149.98 533.979C149.923 533.979 149.766 533.964 149.681 533.807L148.754 532.239C148.654 532.068 148.469 531.968 148.269 531.968H146.986C145.531 531.968 144.348 530.784 144.348 529.33V527.875C144.348 526.421 145.531 525.237 146.986 525.237H153.003C154.458 525.237 155.641 526.421 155.641 527.875V529.33H155.627Z" fill="#4F4F4F"/>
<path d="M153.26 526.82H146.701C146.387 526.82 146.145 527.077 146.145 527.376C146.145 527.676 146.401 527.933 146.701 527.933H153.26C153.574 527.933 153.816 527.676 153.816 527.376C153.816 527.077 153.574 526.82 153.26 526.82Z" fill="#4F4F4F"/>
<path d="M153.26 529.273H146.701C146.387 529.273 146.145 529.53 146.145 529.829C146.145 530.143 146.401 530.385 146.701 530.385H153.26C153.574 530.385 153.816 530.129 153.816 529.829C153.816 529.515 153.574 529.273 153.26 529.273Z" fill="#4F4F4F"/>
<path d="M189.736 540.182C190.529 540.182 191.017 540.379 191.017 540.765C191.017 541.151 190.529 541.347 189.736 541.347C188.957 541.347 188.463 541.151 188.463 540.765C188.463 540.379 188.957 540.182 189.736 540.182ZM189.736 542.059C191.084 542.059 191.978 541.557 191.978 540.765C191.978 539.979 191.084 539.471 189.736 539.471C188.395 539.471 187.494 539.979 187.494 540.765C187.494 541.557 188.395 542.059 189.736 542.059ZM188.483 543.616H187.576V545.486H191.951V544.775H188.483V543.616ZM186.919 542.384V543.095H189.337V544.165H190.251V543.095H192.568V542.384H186.919ZM195.954 544.924C195.121 544.924 194.694 544.781 194.694 544.456C194.694 544.131 195.121 543.982 195.954 543.982C196.787 543.982 197.214 544.131 197.214 544.456C197.214 544.781 196.787 544.924 195.954 544.924ZM195.954 543.305C194.606 543.305 193.793 543.718 193.793 544.456C193.793 545.188 194.606 545.601 195.954 545.601C197.302 545.601 198.121 545.188 198.121 544.456C198.121 543.718 197.302 543.305 195.954 543.305ZM196.421 542.289V541.774H198.155V541.063H194.728V540.331H198.121V539.62H193.84V541.774H195.527V542.289H193.156V543H198.799V542.289H196.421ZM202.713 542.031C202.855 541.246 202.855 540.629 202.855 540.196V539.81H199.651V540.521H201.975C201.968 540.894 201.941 541.347 201.839 541.93L202.713 542.031ZM203.126 542.282C202.544 542.363 201.921 542.411 201.304 542.438V541.259H200.43V542.472C200.024 542.478 199.638 542.478 199.292 542.478L199.374 543.19C200.444 543.183 201.893 543.156 203.18 542.919L203.126 542.282ZM201.094 543.61H200.2V545.486H204.555V544.775H201.094V543.61ZM204.359 541.253V539.349H203.465V544.023H204.359V541.991H205.104V541.253H204.359ZM206.858 542.296H208.883V539.884H205.937V540.596H207.969V541.591H205.943V544.158H206.506C207.637 544.158 208.551 544.118 209.567 543.942L209.472 543.217C208.592 543.366 207.806 543.413 206.858 543.42V542.296ZM209.906 539.349V545.608H210.8V539.349H209.906Z" fill="#4F4F4F"/>
<g clip-path="url(#clip6)">
<g clip-path="url(#clip7)">
<path fill-rule="evenodd" clip-rule="evenodd" d="M194.075 525.23C194.061 524.8 194.191 524.4 194.452 524.076C194.787 523.661 195.292 523.433 195.872 523.433H195.95L195.974 523.433H201.054C201.662 523.433 202.197 523.673 202.553 524.113C202.909 524.554 203.032 525.128 202.905 525.723L202.46 527.807C203.228 528.71 203.696 529.878 203.696 531.155C203.696 534.012 201.371 536.336 198.514 536.336C195.657 536.336 193.333 534.012 193.333 531.155L193.333 531.129C193.332 531.104 193.332 531.078 193.332 531.053C193.332 529.794 193.796 528.643 194.557 527.755L194.123 525.723C194.087 525.557 194.071 525.391 194.075 525.23ZM198.469 536.133L198.514 536.133C201.259 536.133 203.493 533.9 203.493 531.155C203.493 531.13 203.492 531.105 203.492 531.08C203.478 533.85 201.235 536.102 198.469 536.133ZM202.264 527.751L202.707 525.681C202.741 525.521 202.755 525.364 202.75 525.212C202.747 525.339 202.732 525.469 202.704 525.6L202.248 527.733L202.264 527.751ZM195.291 524.774C195.44 524.59 195.679 524.483 195.974 524.483H201.054C201.349 524.483 201.588 524.59 201.737 524.774C201.835 524.895 201.892 525.048 201.902 525.221C201.899 525.287 201.891 525.354 201.876 525.423L201.547 526.961C200.694 526.342 199.647 525.973 198.514 525.973C198.495 525.973 198.476 525.973 198.457 525.973L198.412 525.973C197.308 525.973 196.288 526.33 195.455 526.931L195.15 525.504C195.088 525.214 195.143 524.958 195.291 524.774ZM194.922 525.229C194.931 525.011 195.001 524.809 195.134 524.646C195.324 524.411 195.619 524.284 195.956 524.28H195.872C195.552 524.28 195.282 524.397 195.11 524.608C194.975 524.776 194.911 524.992 194.922 525.229ZM194.382 531.155C194.382 528.877 196.236 527.023 198.514 527.023C200.769 527.023 202.607 528.838 202.645 531.084C202.629 533.385 200.767 535.256 198.468 535.286C196.211 535.262 194.382 533.418 194.382 531.155ZM194.179 531.125C194.195 528.767 196.103 526.85 198.458 526.82L198.412 526.82C196.078 526.82 194.179 528.719 194.179 531.053C194.179 531.077 194.179 531.101 194.179 531.125ZM195.448 530.952C195.162 530.952 194.913 531.187 194.95 531.488C195.148 533.065 196.4 534.317 197.977 534.515C198.278 534.552 198.513 534.303 198.513 534.017C198.513 533.723 198.276 533.503 198.007 533.458C196.986 533.287 196.178 532.479 196.007 531.458C195.962 531.189 195.742 530.952 195.448 530.952ZM198.847 527.592C198.546 527.554 198.31 527.804 198.31 528.09C198.31 528.383 198.547 528.603 198.817 528.648C199.837 528.819 200.645 529.627 200.817 530.648C200.862 530.917 201.082 531.155 201.375 531.155C201.661 531.155 201.911 530.919 201.873 530.618C201.676 529.042 200.423 527.789 198.847 527.592Z" fill="#4F4F4F"/>
</g>
</g>
<path d="M233.3 540.65H234.519V543.373H233.3V540.65ZM232.42 544.077H235.4V539.945H232.42V544.077ZM238.021 541.706H237.114V539.363H236.22V545.594H237.114V542.445H238.021V541.706ZM242.735 539.349V545.608H243.629V539.349H242.735ZM240.276 539.789C239.335 539.789 238.637 540.643 238.637 542.011C238.637 543.386 239.335 544.246 240.276 544.246C241.218 544.246 241.915 543.386 241.915 542.011C241.915 540.643 241.218 539.789 240.276 539.789ZM240.276 540.596C240.737 540.596 241.055 541.09 241.055 542.011C241.055 542.939 240.737 543.434 240.276 543.434C239.816 543.434 239.497 542.939 239.497 542.011C239.497 541.09 239.816 540.596 240.276 540.596ZM245.918 540.772H246.379V543.413C246.229 543.427 246.067 543.434 245.918 543.434V540.772ZM247.178 540.772H247.577V540.06H244.739V540.772H245.119V543.454C244.943 543.454 244.78 543.454 244.631 543.454L244.726 544.179C245.498 544.179 246.758 544.158 247.726 543.948L247.665 543.305C247.516 543.325 247.347 543.339 247.178 543.359V540.772ZM248.018 541.632H247.422V542.411H248.018V545.31H248.851V539.485H248.018V541.632ZM249.257 539.356V545.601H250.104V539.356H249.257ZM255.197 539.349V545.608H256.091V539.349H255.197ZM252.738 539.789C251.797 539.789 251.099 540.643 251.099 542.011C251.099 543.386 251.797 544.246 252.738 544.246C253.68 544.246 254.377 543.386 254.377 542.011C254.377 540.643 253.68 539.789 252.738 539.789ZM252.738 540.596C253.199 540.596 253.517 541.09 253.517 542.011C253.517 542.939 253.199 543.434 252.738 543.434C252.278 543.434 251.959 542.939 251.959 542.011C251.959 541.09 252.278 540.596 252.738 540.596ZM259.565 540.69H260.852V539.952H257.357V540.69H258.658V541.036C258.658 542.099 258.15 543.244 257.106 543.711L257.614 544.422C258.346 544.091 258.847 543.406 259.125 542.594C259.403 543.345 259.897 543.955 260.622 544.267L261.109 543.562C260.066 543.129 259.565 542.052 259.565 541.036V540.69ZM261.428 539.356V545.594H262.322V539.356H261.428Z" fill="#4F4F4F"/>
<g clip-path="url(#clip8)">
<g clip-path="url(#clip9)">
<path fill-rule="evenodd" clip-rule="evenodd" d="M242.99 532.319C243.562 531.747 244.337 531.426 245.146 531.426H250.022C250.831 531.426 251.606 531.747 252.178 532.319C252.749 532.89 253.07 533.665 253.07 534.474V535.693C253.07 536.03 252.798 536.303 252.461 536.303C252.124 536.303 251.851 536.03 251.851 535.693V534.474C251.851 533.989 251.659 533.524 251.316 533.181C250.973 532.838 250.507 532.645 250.022 532.645H245.146C244.661 532.645 244.195 532.838 243.852 533.181C243.51 533.524 243.317 533.989 243.317 534.474V535.693C243.317 536.03 243.044 536.303 242.707 536.303C242.371 536.303 242.098 536.03 242.098 535.693V534.474C242.098 533.665 242.419 532.89 242.99 532.319Z" fill="#4F4F4F"/>
<path fill-rule="evenodd" clip-rule="evenodd" d="M247.583 525.33C246.573 525.33 245.754 526.148 245.754 527.158C245.754 528.168 246.573 528.987 247.583 528.987C248.593 528.987 249.412 528.168 249.412 527.158C249.412 526.148 248.593 525.33 247.583 525.33ZM244.535 527.158C244.535 525.475 245.9 524.11 247.583 524.11C249.267 524.11 250.631 525.475 250.631 527.158C250.631 528.842 249.267 530.206 247.583 530.206C245.9 530.206 244.535 528.842 244.535 527.158Z" fill="#4F4F4F"/>
</g>
</g>
</g>
</g>
</g>
</g>
<defs>
<filter id="filter0_d" x="0.0308599" y="0.160079" width="311.931" height="594.584" filterUnits="userSpaceOnUse" color-interpolation-filters="sRGB">
<feFlood flood-opacity="0" result="BackgroundImageFix"/>
<feColorMatrix in="SourceAlpha" type="matrix" values="0 0 0 0 0 0 0 0 0 0 0 0 0 0 0 0 0 0 127 0"/>
<feOffset dx="5.32305" dy="7.45227"/>
<feGaussianBlur stdDeviation="10.6461"/>
<feColorMatrix type="matrix" values="0 0 0 0 0 0 0 0 0 0 0 0 0 0 0 0 0 0 0.47 0"/>
<feBlend mode="normal" in2="BackgroundImageFix" result="effect1_dropShadow"/>
<feBlend mode="normal" in="SourceGraphic" in2="effect1_dropShadow" result="shape"/>
</filter>
<filter id="filter1_d" x="16.5493" y="130.018" width="268.901" height="52.1547" filterUnits="userSpaceOnUse" color-interpolation-filters="sRGB">
<feFlood flood-opacity="0" result="BackgroundImageFix"/>
<feColorMatrix in="SourceAlpha" type="matrix" values="0 0 0 0 0 0 0 0 0 0 0 0 0 0 0 0 0 0 127 0"/>
<feOffset dy="2.032"/>
<feGaussianBlur stdDeviation="3.72533"/>
<feColorMatrix type="matrix" values="0 0 0 0 0 0 0 0 0 0 0 0 0 0 0 0 0 0 0.16 0"/>
<feBlend mode="normal" in2="BackgroundImageFix" result="effect1_dropShadow"/>
<feBlend mode="normal" in="SourceGraphic" in2="effect1_dropShadow" result="shape"/>
</filter>
<filter id="filter2_d" x="146.596" y="459.256" width="126.661" height="44.704" filterUnits="userSpaceOnUse" color-interpolation-filters="sRGB">
<feFlood flood-opacity="0" result="BackgroundImageFix"/>
<feColorMatrix in="SourceAlpha" type="matrix" values="0 0 0 0 0 0 0 0 0 0 0 0 0 0 0 0 0 0 127 0"/>
<feOffset dy="2.032"/>
<feGaussianBlur stdDeviation="3.72533"/>
<feColorMatrix type="matrix" values="0 0 0 0 0 0 0 0 0 0 0 0 0 0 0 0 0 0 0.16 0"/>
<feBlend mode="normal" in2="BackgroundImageFix" result="effect1_dropShadow"/>
<feBlend mode="normal" in="SourceGraphic" in2="effect1_dropShadow" result="shape"/>
</filter>
<filter id="filter3_d" x="28.7407" y="459.256" width="126.661" height="44.704" filterUnits="userSpaceOnUse" color-interpolation-filters="sRGB">
<feFlood flood-opacity="0" result="BackgroundImageFix"/>
<feColorMatrix in="SourceAlpha" type="matrix" values="0 0 0 0 0 0 0 0 0 0 0 0 0 0 0 0 0 0 127 0"/>
<feOffset dy="2.032"/>
<feGaussianBlur stdDeviation="3.72533"/>
<feColorMatrix type="matrix" values="0 0 0 0 0 0 0 0 0 0 0 0 0 0 0 0 0 0 0.16 0"/>
<feBlend mode="normal" in2="BackgroundImageFix" result="effect1_dropShadow"/>
<feBlend mode="normal" in="SourceGraphic" in2="effect1_dropShadow" result="shape"/>
</filter>
<filter id="filter4_d" x="17.2267" y="509.887" width="267.547" height="56.896" filterUnits="userSpaceOnUse" color-interpolation-filters="sRGB">
<feFlood flood-opacity="0" result="BackgroundImageFix"/>
<feColorMatrix in="SourceAlpha" type="matrix" values="0 0 0 0 0 0 0 0 0 0 0 0 0 0 0 0 0 0 127 0"/>
<feOffset dy="2.70933"/>
<feGaussianBlur stdDeviation="3.38667"/>
<feColorMatrix type="matrix" values="0 0 0 0 0 0 0 0 0 0 0 0 0 0 0 0 0 0 0.4 0"/>
<feBlend mode="normal" in2="BackgroundImageFix" result="effect1_dropShadow"/>
<feBlend mode="normal" in="SourceGraphic" in2="effect1_dropShadow" result="shape"/>
</filter>
<clipPath id="clip0">
<rect x="24" y="23" width="253.909" height="534.434" rx="28.74" fill="white"/>
</clipPath>
<clipPath id="clip1">
<rect width="254" height="535" fill="white" transform="translate(24 23)"/>
</clipPath>
<clipPath id="clip2">
<rect width="8.94793" height="12.1436" fill="white" transform="translate(197.398 194.773)"/>
</clipPath>
<clipPath id="clip3">
<rect width="13.5467" height="13.5467" fill="white" transform="translate(40.9336 234.381)"/>
</clipPath>
<clipPath id="clip4">
<rect width="14.9013" height="14.9013" fill="white" transform="translate(44.9961 522.079)"/>
</clipPath>
<clipPath id="clip5">
<rect width="14.9013" height="14.9013" fill="white" transform="translate(93.7656 522.079)"/>
</clipPath>
<clipPath id="clip6">
<rect width="14.9013" height="14.9013" fill="white" transform="translate(191.301 522.079)"/>
</clipPath>
<clipPath id="clip7">
<rect width="14.9013" height="14.9013" fill="white" transform="translate(191.301 522.079)"/>
</clipPath>
<clipPath id="clip8">
<rect width="14.9013" height="14.9013" fill="white" transform="translate(240.066 522.079)"/>
</clipPath>
<clipPath id="clip9">
<rect width="14.9013" height="14.9013" fill="white" transform="translate(240.066 522.079)"/>
</clipPath>
</defs>
</svg>
