<svg width="312" height="595" viewBox="0 0 312 595" fill="none" xmlns="http://www.w3.org/2000/svg">
<g filter="url(#filter0_d)">
<rect x="16" y="14" width="269.346" height="552" rx="33.54" fill="#232323"/>
<g clip-path="url(#clip0)">
<rect x="24" y="23" width="253.909" height="534.434" rx="28.7445" fill="#FCFCFC"/>
<g clip-path="url(#clip1)">
<rect x="24" y="23" width="253.909" height="534.434" rx="28.74" fill="white"/>
<path d="M46.7212 127.732H46.092V131.262H46.7212V127.732ZM41.8411 129.513C41.8411 128.914 42.3398 128.492 43.0074 128.492C43.6826 128.492 44.1737 128.914 44.1737 129.513C44.1737 130.103 43.6826 130.525 43.0074 130.525C42.3398 130.525 41.8411 130.103 41.8411 129.513ZM44.7875 129.513C44.7875 128.599 44.0356 127.978 43.0074 127.978C41.9792 127.978 41.2349 128.599 41.2349 129.513C41.2349 130.418 41.9792 131.032 43.0074 131.032C44.0356 131.032 44.7875 130.418 44.7875 129.513ZM42.9 134.024V133.265H46.7212V131.6H42.2631V132.098H46.0996V132.797H42.2784V134.523H46.9514V134.024H42.9Z" fill="#BDBDBD"/>
<path d="M79.8632 131.009V131.423H81.229V131.784H81.8582V127.74H81.229V131.009H79.8632ZM78.4283 128.308C79.1035 128.308 79.5332 128.538 79.5332 128.906C79.5332 129.259 79.1035 129.497 78.4283 129.497C77.7607 129.497 77.3234 129.259 77.3234 128.906C77.3234 128.538 77.7607 128.308 78.4283 128.308ZM78.4283 129.927C79.4488 129.927 80.124 129.536 80.124 128.906C80.124 128.262 79.4488 127.871 78.4283 127.871C77.4078 127.871 76.7325 128.262 76.7325 128.906C76.7325 129.536 77.4078 129.927 78.4283 129.927ZM78.0753 131.807H78.7045V130.748C79.3721 130.71 80.055 130.656 80.7225 130.564L80.6842 130.149C79.2109 130.318 77.5305 130.326 76.2031 130.326L76.2798 130.802C76.8323 130.802 77.4385 130.794 78.0753 130.779V131.807ZM77.8835 134.078V133.472H81.8582V132.037H77.2466V132.49H81.2443V133.042H77.262V134.538H82.096V134.078H77.8835Z" fill="#BDBDBD"/>
<path d="M115.526 128.569H113.792V127.74H113.162V128.569H111.413V129.068H115.526V128.569ZM112.449 130.748C112.449 130.272 112.863 129.958 113.477 129.958C114.091 129.958 114.505 130.272 114.505 130.748C114.505 131.224 114.091 131.531 113.477 131.531C112.863 131.531 112.449 131.224 112.449 130.748ZM113.792 132.006C114.582 131.907 115.104 131.431 115.104 130.748C115.104 129.973 114.436 129.474 113.477 129.474C112.518 129.474 111.85 129.973 111.85 130.748C111.85 131.431 112.372 131.907 113.162 132.006V132.758C112.495 132.781 111.85 132.781 111.298 132.781L111.382 133.311C112.587 133.311 114.206 133.295 115.679 133.035L115.641 132.566C115.05 132.659 114.413 132.705 113.792 132.735V132.006ZM117.751 130.656H116.677V127.732H116.047V134.615H116.677V131.185H117.751V130.656Z" fill="#BDBDBD"/>
<path d="M153.126 130.357C151.876 130.172 150.648 129.321 150.648 128.362V127.978H149.988V128.362C149.988 129.344 148.776 130.172 147.525 130.357L147.778 130.863C148.852 130.679 149.888 130.088 150.318 129.252C150.763 130.08 151.799 130.679 152.865 130.863L153.126 130.357ZM153.426 131.607H147.21V132.129H149.988V134.623H150.617V132.129H153.433L153.426 131.607Z" fill="#BDBDBD"/>
<path d="M183.717 132.95H187.853V134.623H188.482V132.444H183.717V132.95ZM184.439 128.515H187.83V129.85H184.439V128.515ZM186.457 131.224V130.349H188.452V128.016H183.825V130.349H185.828V131.224H183.019V131.73H189.25V131.224H186.457Z" fill="#BDBDBD"/>
<path d="M219.56 132.582H223.021V134.017H219.56V132.582ZM218.947 134.523H223.642V132.075H218.947V134.523ZM223.435 130.633C223.619 129.773 223.619 129.144 223.619 128.607V128.101H218.97V128.607H222.998C222.998 129.144 222.998 129.773 222.798 130.633H218.172V131.139H224.425V130.633H223.435Z" fill="#BDBDBD"/>
<path d="M257.433 133.242V131.822H259.536V131.308H255.438V130.272H259.313V129.773H255.438V128.807H259.467V128.293H254.801V131.822H256.804V133.242H253.996V133.763H260.249V133.242H257.433Z" fill="#BDBDBD"/>
<circle cx="114.551" cy="151.903" r="10.2308" fill="#AFD9FF"/>
<path d="M114.78 155.509H115.459V148.3H114.78C114.485 148.475 112.991 149.534 112.836 149.634V150.358C113.081 150.199 114.535 149.164 114.715 149.065H114.78V155.509Z" fill="black"/>
<circle cx="114.551" cy="178.12" r="10.2308" fill="#AFD9FF"/>
<path d="M114.872 181.875C116.386 181.875 117.43 181.021 117.43 179.782C117.43 178.848 116.796 178.109 115.856 177.939V177.879C116.641 177.689 117.145 177.06 117.145 176.275C117.145 175.156 116.201 174.367 114.872 174.367C113.544 174.367 112.599 175.161 112.599 176.275C112.599 177.065 113.109 177.694 113.893 177.879V177.939C112.949 178.109 112.32 178.848 112.32 179.782C112.32 181.016 113.364 181.875 114.872 181.875ZM114.872 177.644C113.923 177.644 113.274 177.11 113.274 176.33C113.274 175.516 113.923 174.957 114.872 174.957C115.821 174.957 116.471 175.516 116.471 176.33C116.471 177.115 115.821 177.644 114.872 177.644ZM114.872 181.286C113.768 181.286 113.009 180.652 113.009 179.737C113.009 178.848 113.768 178.234 114.872 178.234C115.981 178.234 116.741 178.843 116.741 179.737C116.741 180.652 115.976 181.286 114.872 181.286Z" fill="black"/>
<circle cx="42.9379" cy="178.12" r="10.2308" fill="#AFD9FF"/>
<path d="M43.3639 181.87C44.8026 181.87 45.8467 180.831 45.8467 179.398C45.8467 178.019 44.8376 177 43.4688 177C42.5247 177 41.7304 177.519 41.4157 178.329H41.3557C41.3557 176.161 42.1201 174.982 43.4339 174.982C44.2481 174.982 44.8676 175.441 45.0175 176.181H45.7168C45.542 175.087 44.6728 174.367 43.4139 174.367C41.7454 174.367 40.6913 175.821 40.6913 178.274C40.6913 180.736 41.8603 181.87 43.3639 181.87ZM43.3539 181.266C42.3249 181.266 41.5356 180.447 41.5356 179.373C41.5356 178.364 42.3299 177.594 43.3589 177.594C44.403 177.594 45.1573 178.359 45.1573 179.423C45.1573 180.467 44.378 181.266 43.3539 181.266Z" fill="black"/>
<path d="M37.5589 150.293H38.2233C38.2333 149.379 38.8827 148.75 39.8218 148.75C40.746 148.75 41.3604 149.384 41.3604 150.219C41.3604 150.873 41.0757 151.298 40.0816 152.367L37.5988 155.029V155.509H42.2397V154.889H38.558V154.829L40.4363 152.871C41.7051 151.552 42.0598 150.958 42.0598 150.154C42.0598 149.005 41.1057 148.15 39.8618 148.15C38.533 148.15 37.5688 149.045 37.5589 150.293ZM46.737 155.509H47.4014V153.88H48.4805V153.266H47.4014V148.29H46.4223C44.8487 150.478 43.9845 151.827 43.1153 153.256V153.88H46.737V155.509ZM43.8296 153.226C44.554 152.032 45.2733 150.913 46.6921 148.945H46.737V153.271H43.8296V153.226Z" fill="#BDBDBD"/>
<circle cx="114.551" cy="204.336" r="10.2308" fill="#AFD9FF"/>
<path d="M112.057 207.942H112.736V200.733H112.057C111.762 200.908 110.269 201.967 110.114 202.067V202.792C110.358 202.632 111.812 201.598 111.992 201.498H112.057V207.942ZM117.079 208.092C118.533 208.092 119.552 207.073 119.552 205.629C119.552 204.225 118.538 203.261 117.269 203.261C116.524 203.261 115.91 203.531 115.565 204H115.5L115.75 201.348H119.132V200.733H115.211L114.811 204.78H115.46C115.755 204.215 116.384 203.856 117.114 203.856C118.133 203.856 118.867 204.6 118.867 205.644C118.867 206.718 118.128 207.487 117.089 207.487C116.18 207.487 115.445 206.893 115.37 206.094H114.696C114.776 207.253 115.775 208.092 117.079 208.092Z" fill="black"/>
<circle cx="42.9379" cy="204.336" r="10.2308" fill="#AFD9FF"/>
<path d="M40.4337 207.942H41.1131V200.733H40.4337C40.1389 200.908 38.6453 201.967 38.4904 202.067V202.792C38.7352 202.632 40.1889 201.598 40.3687 201.498H40.4337V207.942ZM44.5414 204.515H45.4006C46.5546 204.515 47.254 205.074 47.254 205.979C47.254 206.863 46.4896 207.492 45.4456 207.492C44.4565 207.492 43.7071 206.913 43.6472 206.109H42.9878C43.0327 207.267 44.0568 208.092 45.4506 208.092C46.8743 208.092 47.9583 207.193 47.9583 205.994C47.9583 204.99 47.3039 204.335 46.3048 204.205V204.14C47.1041 203.94 47.6536 203.341 47.6586 202.462C47.6586 201.453 46.8094 200.583 45.4656 200.583C44.0968 200.583 43.2026 201.418 43.1227 202.547H43.7921C43.857 201.702 44.5014 201.183 45.4206 201.183C46.3448 201.183 46.9642 201.792 46.9642 202.532C46.9642 203.356 46.3098 203.925 45.3756 203.925H44.5414V204.515Z" fill="black"/>
<circle cx="114.551" cy="230.553" r="10.2308" fill="#AFD9FF"/>
<path d="M109.603 228.943H110.267C110.277 228.029 110.927 227.4 111.866 227.4C112.79 227.4 113.405 228.034 113.405 228.868C113.405 229.523 113.12 229.947 112.126 231.017L109.643 233.679V234.159H114.284V233.539H110.602V233.479L112.48 231.521C113.749 230.202 114.104 229.608 114.104 228.803C114.104 227.655 113.15 226.8 111.906 226.8C110.577 226.8 109.613 227.694 109.603 228.943ZM115.554 228.943H116.218C116.228 228.029 116.878 227.4 117.817 227.4C118.741 227.4 119.356 228.034 119.356 228.868C119.356 229.523 119.071 229.947 118.077 231.017L115.594 233.679V234.159H120.235V233.539H116.553V233.479L118.431 231.521C119.7 230.202 120.055 229.608 120.055 228.803C120.055 227.655 119.101 226.8 117.857 226.8C116.528 226.8 115.564 227.694 115.554 228.943Z" fill="black"/>
<circle cx="42.9379" cy="230.553" r="10.2308" fill="#AFD9FF"/>
<path d="M37.5339 228.943H38.1983C38.2083 228.029 38.8577 227.4 39.7968 227.4C40.721 227.4 41.3355 228.034 41.3355 228.868C41.3355 229.523 41.0507 229.947 40.0566 231.017L37.5738 233.679V234.159H42.2147V233.539H38.533V233.479L40.4113 231.521C41.6802 230.202 42.0348 229.608 42.0348 228.803C42.0348 227.655 41.0807 226.8 39.8368 226.8C38.508 226.8 37.5439 227.694 37.5339 228.943ZM45.9028 234.309C47.4963 234.309 48.4355 232.92 48.4355 230.562C48.4355 228.209 47.4863 226.8 45.9028 226.8C44.3092 226.8 43.3551 228.204 43.3551 230.552C43.3551 232.915 44.2992 234.309 45.9028 234.309ZM45.9028 233.709C44.7288 233.709 44.0444 232.55 44.0444 230.552C44.0444 228.574 44.7338 227.405 45.9028 227.405C47.0667 227.405 47.7511 228.564 47.7511 230.552C47.7511 232.55 47.0717 233.709 45.9028 233.709Z" fill="black"/>
<path d="M109.117 255.16H109.782C109.792 254.245 110.441 253.616 111.38 253.616C112.304 253.616 112.919 254.25 112.919 255.085C112.919 255.739 112.634 256.164 111.64 257.233L109.157 259.895V260.375H113.798V259.756H110.116V259.696L111.995 257.737C113.263 256.419 113.618 255.824 113.618 255.02C113.618 253.871 112.664 253.017 111.42 253.017C110.091 253.017 109.127 253.911 109.117 255.16ZM117.371 260.52C119.095 260.52 120.094 259.061 120.094 256.618C120.094 254.131 118.92 253.017 117.421 253.017C115.977 253.017 114.938 254.066 114.938 255.499C114.938 256.873 115.937 257.887 117.316 257.887C118.26 257.887 119.06 257.358 119.369 256.563H119.429C119.419 258.801 118.625 259.91 117.381 259.91C116.552 259.91 115.942 259.426 115.768 258.706H115.068C115.268 259.806 116.157 260.52 117.371 260.52ZM117.426 257.293C116.367 257.293 115.628 256.523 115.628 255.479C115.628 254.425 116.402 253.621 117.431 253.621C118.47 253.621 119.249 254.455 119.249 255.529C119.249 256.518 118.46 257.293 117.426 257.293Z" fill="black"/>
<path d="M38.1945 255.16H38.8589C38.8689 254.245 39.5183 253.616 40.4575 253.616C41.3816 253.616 41.9961 254.25 41.9961 255.085C41.9961 255.739 41.7113 256.164 40.7172 257.233L38.2345 259.895V260.375H42.8753V259.756H39.1936V259.696L41.0719 257.737C42.3408 256.419 42.6954 255.824 42.6954 255.02C42.6954 253.871 41.7413 253.017 40.4974 253.017C39.1686 253.017 38.2045 253.911 38.1945 255.16ZM44.4753 260.375H45.2046L48.5066 253.806V253.166H43.8108V253.781H47.8073V253.836L44.4753 260.375Z" fill="black"/>
<circle cx="150.36" cy="151.903" r="10.2308" fill="#B7E8E9"/>
<path d="M148.068 150.293H148.733C148.743 149.379 149.392 148.75 150.331 148.75C151.255 148.75 151.87 149.384 151.87 150.219C151.87 150.873 151.585 151.298 150.591 152.367L148.108 155.029V155.509H152.749V154.889H149.067V154.829L150.946 152.871C152.215 151.552 152.569 150.958 152.569 150.154C152.569 149.005 151.615 148.15 150.371 148.15C149.042 148.15 148.078 149.045 148.068 150.293Z" fill="black"/>
<circle cx="150.36" cy="178.12" r="10.2308" fill="#B7E8E9"/>
<path d="M150.526 181.87C152.249 181.87 153.249 180.412 153.249 177.969C153.249 175.481 152.075 174.367 150.576 174.367C149.132 174.367 148.093 175.416 148.093 176.85C148.093 178.224 149.092 179.238 150.471 179.238C151.415 179.238 152.215 178.708 152.524 177.914H152.584C152.574 180.152 151.78 181.261 150.536 181.261C149.707 181.261 149.097 180.776 148.922 180.057H148.223C148.423 181.156 149.312 181.87 150.526 181.87ZM150.581 178.643C149.522 178.643 148.783 177.874 148.783 176.83C148.783 175.776 149.557 174.972 150.586 174.972C151.625 174.972 152.404 175.806 152.404 176.88C152.404 177.869 151.615 178.643 150.581 178.643Z" fill="black"/>
<circle cx="78.7464" cy="178.12" r="10.2308" fill="#B7E8E9"/>
<path d="M77.0444 181.726H77.7738L81.0758 175.156V174.517H76.38V175.132H80.3765V175.186L77.0444 181.726Z" fill="black"/>
<path d="M73.3675 150.293H74.0319C74.0418 149.379 74.6913 148.75 75.6304 148.75C76.5546 148.75 77.169 149.384 77.169 150.219C77.169 150.873 76.8843 151.298 75.8902 152.367L73.4074 155.029V155.509H78.0483V154.889H74.3666V154.829L76.2449 152.871C77.5137 151.552 77.8684 150.958 77.8684 150.154C77.8684 149.005 76.9143 148.15 75.6704 148.15C74.3416 148.15 73.3774 149.045 73.3675 150.293ZM82.5456 155.509H83.21V153.88H84.2891V153.266H83.21V148.29H82.2309C80.6573 150.478 79.7931 151.827 78.9239 153.256V153.88H82.5456V155.509ZM79.6382 153.226C80.3626 152.032 81.0819 150.913 82.5007 148.945H82.5456V153.271H79.6382V153.226Z" fill="#BDBDBD"/>
<circle cx="150.36" cy="204.336" r="10.2308" fill="#B7E8E9"/>
<path d="M147.771 207.942H148.45V200.733H147.771C147.476 200.908 145.982 201.967 145.827 202.067V202.792C146.072 202.632 147.526 201.598 147.706 201.498H147.771V207.942ZM152.992 208.087C154.431 208.087 155.475 207.048 155.475 205.614C155.475 204.235 154.466 203.216 153.097 203.216C152.153 203.216 151.359 203.736 151.044 204.545H150.984C150.984 202.377 151.748 201.198 153.062 201.198C153.877 201.198 154.496 201.658 154.646 202.397H155.345C155.17 201.303 154.301 200.583 153.042 200.583C151.374 200.583 150.32 202.037 150.32 204.49C150.32 206.953 151.489 208.087 152.992 208.087ZM152.982 207.482C151.953 207.482 151.164 206.663 151.164 205.589C151.164 204.58 151.958 203.811 152.987 203.811C154.031 203.811 154.786 204.575 154.786 205.639C154.786 206.683 154.006 207.482 152.982 207.482Z" fill="black"/>
<circle cx="78.7464" cy="204.336" r="10.2308" fill="#B7E8E9"/>
<path d="M75.8165 207.942H76.4958V200.733H75.8165C75.5217 200.908 74.0281 201.967 73.8732 202.067V202.792C74.118 202.632 75.5717 201.598 75.7515 201.498H75.8165V207.942ZM81.8524 207.942H82.5168V206.313H83.5959V205.699H82.5168V200.723H81.5377C79.9641 202.911 79.0999 204.26 78.2307 205.689V206.313H81.8524V207.942ZM78.945 205.659C79.6694 204.465 80.3888 203.346 81.8075 201.378H81.8524V205.704H78.945V205.659Z" fill="black"/>
<circle cx="150.36" cy="230.553" r="10.2308" fill="#B7E8E9"/>
<path d="M144.996 228.943H145.66C145.67 228.029 146.32 227.4 147.259 227.4C148.183 227.4 148.797 228.034 148.797 228.868C148.797 229.523 148.513 229.947 147.518 231.017L145.036 233.679V234.159H149.677V233.539H145.995V233.479L147.873 231.521C149.142 230.202 149.497 229.608 149.497 228.803C149.497 227.655 148.543 226.8 147.299 226.8C145.97 226.8 145.006 227.694 144.996 228.943ZM152.425 230.732H153.285C154.439 230.732 155.138 231.291 155.138 232.195C155.138 233.08 154.374 233.709 153.33 233.709C152.341 233.709 151.591 233.13 151.531 232.325H150.872C150.917 233.484 151.941 234.309 153.335 234.309C154.758 234.309 155.842 233.409 155.842 232.21C155.842 231.206 155.188 230.552 154.189 230.422V230.357C154.988 230.157 155.538 229.558 155.543 228.679C155.543 227.67 154.693 226.8 153.35 226.8C151.981 226.8 151.087 227.635 151.007 228.764H151.676C151.741 227.919 152.385 227.4 153.305 227.4C154.229 227.4 154.848 228.009 154.848 228.749C154.848 229.573 154.194 230.142 153.26 230.142H152.425V230.732Z" fill="black"/>
<circle cx="78.7464" cy="230.553" r="10.2308" fill="#B7E8E9"/>
<path d="M74.5688 228.943H75.2332C75.2432 228.029 75.8926 227.4 76.8317 227.4C77.7559 227.4 78.3704 228.034 78.3704 228.868C78.3704 229.523 78.0856 229.947 77.0915 231.017L74.6087 233.679V234.159H79.2496V233.539H75.5679V233.479L77.4462 231.521C78.7151 230.202 79.0697 229.608 79.0697 228.803C79.0697 227.655 78.1156 226.8 76.8717 226.8C75.5429 226.8 74.5788 227.694 74.5688 228.943ZM82.2733 234.159H82.9527V226.95H82.2733C81.9785 227.125 80.4849 228.184 80.33 228.284V229.008C80.5748 228.848 82.0285 227.814 82.2083 227.714H82.2733V234.159Z" fill="black"/>
<path d="M146.335 256.948H147.194C148.348 256.948 149.047 257.508 149.047 258.412C149.047 259.296 148.283 259.925 147.239 259.925C146.25 259.925 145.5 259.346 145.44 258.542H144.781C144.826 259.701 145.85 260.525 147.244 260.525C148.667 260.525 149.751 259.626 149.751 258.427C149.751 257.423 149.097 256.768 148.098 256.638V256.573C148.897 256.374 149.447 255.774 149.452 254.895C149.452 253.886 148.602 253.017 147.259 253.017C145.89 253.017 144.996 253.851 144.916 254.98H145.585C145.65 254.136 146.295 253.616 147.214 253.616C148.138 253.616 148.757 254.226 148.757 254.965C148.757 255.789 148.103 256.359 147.169 256.359H146.335V256.948ZM153.425 260.525C155.018 260.525 155.957 259.136 155.957 256.778C155.957 254.425 155.008 253.017 153.425 253.017C151.831 253.017 150.877 254.42 150.877 256.768C150.877 259.131 151.821 260.525 153.425 260.525ZM153.425 259.925C152.251 259.925 151.566 258.766 151.566 256.768C151.566 254.79 152.256 253.621 153.425 253.621C154.589 253.621 155.273 254.78 155.273 256.768C155.273 258.766 154.594 259.925 153.425 259.925Z" fill="black"/>
<path d="M73.3125 255.16H73.9769C73.9869 254.245 74.6363 253.616 75.5755 253.616C76.4996 253.616 77.1141 254.25 77.1141 255.085C77.1141 255.739 76.8293 256.164 75.8352 257.233L73.3525 259.895V260.375H77.9933V259.756H74.3116V259.696L76.1899 257.737C77.4588 256.419 77.8135 255.824 77.8135 255.02C77.8135 253.871 76.8593 253.017 75.6154 253.017C74.2866 253.017 73.3225 253.911 73.3125 255.16ZM81.7064 260.525C83.22 260.525 84.2641 259.671 84.2641 258.432C84.2641 257.498 83.6296 256.758 82.6905 256.588V256.528C83.4748 256.339 83.9793 255.709 83.9793 254.925C83.9793 253.806 83.0352 253.017 81.7064 253.017C80.3776 253.017 79.4334 253.811 79.4334 254.925C79.4334 255.714 79.943 256.344 80.7272 256.528V256.588C79.7831 256.758 79.1537 257.498 79.1537 258.432C79.1537 259.666 80.1977 260.525 81.7064 260.525ZM81.7064 256.294C80.7572 256.294 80.1078 255.759 80.1078 254.98C80.1078 254.166 80.7572 253.606 81.7064 253.606C82.6555 253.606 83.3049 254.166 83.3049 254.98C83.3049 255.764 82.6555 256.294 81.7064 256.294ZM81.7064 259.935C80.6024 259.935 79.843 259.301 79.843 258.387C79.843 257.498 80.6024 256.883 81.7064 256.883C82.8154 256.883 83.5747 257.493 83.5747 258.387C83.5747 259.301 82.8104 259.935 81.7064 259.935Z" fill="black"/>
<circle cx="186.168" cy="151.903" r="10.2308" fill="#AFD9FF"/>
<path d="M185.261 152.082H186.12C187.274 152.082 187.973 152.641 187.973 153.546C187.973 154.43 187.209 155.059 186.165 155.059C185.176 155.059 184.426 154.48 184.366 153.675H183.707C183.752 154.834 184.776 155.659 186.17 155.659C187.594 155.659 188.678 154.759 188.678 153.561C188.678 152.556 188.023 151.902 187.024 151.772V151.707C187.823 151.507 188.373 150.908 188.378 150.029C188.378 149.02 187.529 148.15 186.185 148.15C184.816 148.15 183.922 148.985 183.842 150.114H184.511C184.576 149.269 185.221 148.75 186.14 148.75C187.064 148.75 187.683 149.359 187.683 150.099C187.683 150.923 187.029 151.492 186.095 151.492H185.261V152.082Z" fill="black"/>
<circle cx="186.168" cy="178.12" r="10.2308" fill="#AFD9FF"/>
<path d="M183.59 181.726H184.27V174.517H183.59C183.296 174.692 181.802 175.751 181.647 175.851V176.575C181.892 176.415 183.346 175.381 183.525 175.281H183.59V181.726ZM188.697 181.875C190.291 181.875 191.23 180.487 191.23 178.129C191.23 175.776 190.281 174.367 188.697 174.367C187.104 174.367 186.149 175.771 186.149 178.119C186.149 180.482 187.094 181.875 188.697 181.875ZM188.697 181.276C187.523 181.276 186.839 180.117 186.839 178.119C186.839 176.141 187.528 174.972 188.697 174.972C189.861 174.972 190.545 176.131 190.545 178.119C190.545 180.117 189.866 181.276 188.697 181.276Z" fill="black"/>
<circle cx="186.168" cy="204.336" r="10.2308" fill="#AFD9FF"/>
<path d="M183.573 207.942H184.252V200.733H183.573C183.278 200.908 181.785 201.967 181.63 202.067V202.792C181.875 202.632 183.328 201.598 183.508 201.498H183.573V207.942ZM186.672 207.942H187.401L190.703 201.373V200.733H186.007V201.348H190.004V201.403L186.672 207.942Z" fill="black"/>
<rect x="175.938" y="220.322" width="20.4616" height="20.4616" rx="10.2308" fill="#DEDEDE"/>
<path d="M180.789 228.943H181.454C181.464 228.029 182.113 227.4 183.052 227.4C183.976 227.4 184.591 228.034 184.591 228.868C184.591 229.523 184.306 229.947 183.312 231.017L180.829 233.679V234.159H185.47V233.539H181.788V233.479L183.667 231.521C184.936 230.202 185.29 229.608 185.29 228.803C185.29 227.655 184.336 226.8 183.092 226.8C181.763 226.8 180.799 227.694 180.789 228.943ZM189.967 234.159H190.632V232.53H191.711V231.916H190.632V226.94H189.653C188.079 229.128 187.215 230.477 186.346 231.906V232.53H189.967V234.159ZM187.06 231.876C187.784 230.682 188.504 229.563 189.923 227.595H189.967V231.921H187.06V231.876Z" fill="black"/>
<path d="M183.37 256.948H184.23C185.384 256.948 186.083 257.508 186.083 258.412C186.083 259.296 185.319 259.925 184.275 259.925C183.286 259.925 182.536 259.346 182.476 258.542H181.817C181.862 259.701 182.886 260.525 184.28 260.525C185.703 260.525 186.787 259.626 186.787 258.427C186.787 257.423 186.133 256.768 185.134 256.638V256.573C185.933 256.374 186.483 255.774 186.488 254.895C186.488 253.886 185.638 253.017 184.295 253.017C182.926 253.017 182.032 253.851 181.952 254.98H182.621C182.686 254.136 183.331 253.616 184.25 253.616C185.174 253.616 185.793 254.226 185.793 254.965C185.793 255.789 185.139 256.359 184.205 256.359H183.37V256.948ZM189.786 260.375H190.466V253.166H189.786C189.491 253.341 187.998 254.4 187.843 254.5V255.225C188.088 255.065 189.541 254.031 189.721 253.931H189.786V260.375Z" fill="black"/>
<circle cx="221.977" cy="151.903" r="10.2308" fill="#B7E8E9"/>
<path d="M223.237 155.509H223.902V153.88H224.981V153.266H223.902V148.29H222.923C221.349 150.478 220.485 151.827 219.616 153.256V153.88H223.237V155.509ZM220.33 153.226C221.054 152.032 221.774 150.913 223.192 148.945H223.237V153.271H220.33V153.226Z" fill="black"/>
<circle cx="221.977" cy="178.12" r="10.2308" fill="#B7E8E9"/>
<path d="M220.319 181.726H220.999V174.517H220.319C220.025 174.692 218.531 175.751 218.376 175.851V176.575C218.621 176.415 220.074 175.381 220.254 175.281H220.319V181.726ZM224.732 181.726H225.411V174.517H224.732C224.437 174.692 222.943 175.751 222.788 175.851V176.575C223.033 176.415 224.487 175.381 224.667 175.281H224.732V181.726Z" fill="black"/>
<circle cx="221.977" cy="204.336" r="10.2308" fill="#B7E8E9"/>
<path d="M219.052 207.942H219.731V200.733H219.052C218.757 200.908 217.264 201.967 217.109 202.067V202.792C217.353 202.632 218.807 201.598 218.987 201.498H219.052V207.942ZM224.184 208.092C225.697 208.092 226.741 207.238 226.741 205.999C226.741 205.064 226.107 204.325 225.168 204.155V204.095C225.952 203.906 226.457 203.276 226.457 202.492C226.457 201.373 225.513 200.583 224.184 200.583C222.855 200.583 221.911 201.378 221.911 202.492C221.911 203.281 222.42 203.911 223.205 204.095V204.155C222.26 204.325 221.631 205.064 221.631 205.999C221.631 207.233 222.675 208.092 224.184 208.092ZM224.184 203.861C223.235 203.861 222.585 203.326 222.585 202.547C222.585 201.732 223.235 201.173 224.184 201.173C225.133 201.173 225.782 201.732 225.782 202.547C225.782 203.331 225.133 203.861 224.184 203.861ZM224.184 207.502C223.08 207.502 222.32 206.868 222.32 205.954C222.32 205.064 223.08 204.45 224.184 204.45C225.293 204.45 226.052 205.059 226.052 205.954C226.052 206.868 225.288 207.502 224.184 207.502Z" fill="black"/>
<circle cx="221.68" cy="231.113" r="10.2308" fill="#333333"/>
<path d="M216.363 229.038H217.422C217.422 228.239 217.957 227.699 218.771 227.699C219.57 227.699 220.045 228.234 220.045 228.933C220.045 229.518 219.805 229.878 218.891 230.832L216.423 233.399V234.159H221.279V233.205H217.952V233.12L219.54 231.521C220.804 230.252 221.169 229.658 221.169 228.823C221.169 227.64 220.195 226.775 218.841 226.775C217.387 226.775 216.363 227.714 216.363 229.038ZM225.112 234.334C226.64 234.334 227.674 233.309 227.674 231.811C227.674 230.372 226.675 229.433 225.456 229.433C224.727 229.433 224.193 229.668 223.863 230.112H223.778L223.988 227.899H227.3V226.95H223.118L222.714 231.111H223.738C224.003 230.612 224.507 230.312 225.147 230.312C225.996 230.312 226.58 230.922 226.58 231.831C226.58 232.77 225.991 233.399 225.117 233.399C224.332 233.399 223.748 232.925 223.668 232.205H222.599C222.669 233.459 223.678 234.334 225.112 234.334Z" fill="white"/>
<path d="M222.205 260.375H222.885V253.166H222.205C221.911 253.341 220.417 254.4 220.262 254.5V255.225C220.507 255.065 221.961 254.031 222.141 253.931H222.205V260.375Z" fill="#BDBDBD"/>
<circle cx="257.786" cy="151.903" r="10.2308" fill="#AFD9FF"/>
<path d="M257.802 155.659C259.256 155.659 260.275 154.64 260.275 153.196C260.275 151.792 259.261 150.828 257.992 150.828C257.247 150.828 256.633 151.098 256.288 151.567H256.223L256.473 148.915H259.855V148.3H255.934L255.534 152.347H256.183C256.478 151.782 257.108 151.422 257.837 151.422C258.856 151.422 259.59 152.167 259.59 153.211C259.59 154.285 258.851 155.054 257.812 155.054C256.903 155.054 256.168 154.46 256.093 153.66H255.419C255.499 154.819 256.498 155.659 257.802 155.659Z" fill="black"/>
<circle cx="257.786" cy="178.12" r="10.2308" fill="#AFD9FF"/>
<path d="M255.391 181.726H256.071V174.517H255.391C255.096 174.692 253.603 175.751 253.448 175.851V176.575C253.693 176.415 255.146 175.381 255.326 175.281H255.391V181.726ZM257.99 176.51H258.655C258.665 175.596 259.314 174.967 260.253 174.967C261.177 174.967 261.792 175.601 261.792 176.435C261.792 177.09 261.507 177.514 260.513 178.583L258.03 181.246V181.726H262.671V181.106H258.989V181.046L260.868 179.088C262.137 177.769 262.491 177.175 262.491 176.37C262.491 175.221 261.537 174.367 260.293 174.367C258.964 174.367 258 175.261 257.99 176.51Z" fill="black"/>
<circle cx="257.786" cy="204.336" r="10.2308" fill="#AFD9FF"/>
<path d="M255.196 207.942H255.876V200.733H255.196C254.902 200.908 253.408 201.967 253.253 202.067V202.792C253.498 202.632 254.952 201.598 255.131 201.498H255.196V207.942ZM260.158 208.087C261.882 208.087 262.881 206.628 262.881 204.185C262.881 201.697 261.707 200.583 260.208 200.583C258.765 200.583 257.726 201.633 257.726 203.066C257.726 204.44 258.725 205.454 260.103 205.454C261.048 205.454 261.847 204.925 262.157 204.13H262.217C262.207 206.368 261.412 207.477 260.168 207.477C259.339 207.477 258.73 206.993 258.555 206.273H257.855C258.055 207.372 258.944 208.087 260.158 208.087ZM260.213 204.86C259.154 204.86 258.415 204.09 258.415 203.046C258.415 201.992 259.189 201.188 260.218 201.188C261.257 201.188 262.037 202.022 262.037 203.096C262.037 204.085 261.247 204.86 260.213 204.86Z" fill="black"/>
<rect x="247.555" y="220.322" width="20.4616" height="20.4616" rx="10.2308" fill="#DEDEDE"/>
<path d="M252.367 228.943H253.031C253.041 228.029 253.69 227.4 254.63 227.4C255.554 227.4 256.168 228.034 256.168 228.868C256.168 229.523 255.883 229.947 254.889 231.017L252.407 233.679V234.159H257.047V233.539H253.366V233.479L255.244 231.521C256.513 230.202 256.868 229.608 256.868 228.803C256.868 227.655 255.913 226.8 254.669 226.8C253.341 226.8 252.377 227.694 252.367 228.943ZM260.85 234.304C262.289 234.304 263.333 233.264 263.333 231.831C263.333 230.452 262.324 229.433 260.955 229.433C260.011 229.433 259.217 229.952 258.902 230.762H258.842C258.842 228.594 259.606 227.415 260.92 227.415C261.735 227.415 262.354 227.874 262.504 228.614H263.203C263.028 227.52 262.159 226.8 260.9 226.8C259.232 226.8 258.178 228.254 258.178 230.707C258.178 233.17 259.347 234.304 260.85 234.304ZM260.84 233.699C259.811 233.699 259.022 232.88 259.022 231.806C259.022 230.797 259.816 230.027 260.845 230.027C261.889 230.027 262.644 230.792 262.644 231.856C262.644 232.9 261.864 233.699 260.84 233.699Z" fill="black"/>
<path d="M255.494 255.16H256.158C256.168 254.245 256.818 253.616 257.757 253.616C258.681 253.616 259.296 254.25 259.296 255.085C259.296 255.739 259.011 256.164 258.017 257.233L255.534 259.895V260.375H260.175V259.756H256.493V259.696L258.371 257.737C259.64 256.419 259.995 255.824 259.995 255.02C259.995 253.871 259.041 253.017 257.797 253.017C256.468 253.017 255.504 253.911 255.494 255.16Z" fill="#BDBDBD"/>
<rect opacity="0.35" x="242.311" y="40.8922" width="12.8841" height="6.33977" rx="1.32931" stroke="black" stroke-width="0.613527"/>
<path opacity="0.4" d="M256.117 42.835V45.2891C256.611 45.0812 256.932 44.5977 256.932 44.062C256.932 43.5263 256.611 43.0428 256.117 42.835" fill="black"/>
<rect x="243.23" y="41.8125" width="11.0435" height="4.49919" rx="0.818035" fill="black"/>
<path fill-rule="evenodd" clip-rule="evenodd" d="M234.235 41.9851C235.6 41.9851 236.913 42.5092 237.902 43.4488C237.977 43.5214 238.096 43.5205 238.169 43.4468L238.881 42.7288C238.918 42.6914 238.939 42.6408 238.939 42.5881C238.938 42.5354 238.917 42.485 238.879 42.4481C236.283 39.962 232.187 39.962 229.591 42.4481C229.553 42.485 229.532 42.5354 229.531 42.588C229.531 42.6407 229.552 42.6914 229.589 42.7288L230.301 43.4468C230.374 43.5206 230.493 43.5215 230.568 43.4488C231.557 42.5091 232.87 41.9851 234.235 41.9851ZM234.235 44.3211C234.985 44.321 235.708 44.5996 236.264 45.1025C236.339 45.1739 236.457 45.1723 236.531 45.099L237.242 44.381C237.279 44.3433 237.3 44.2922 237.3 44.2391C237.299 44.186 237.277 44.1354 237.239 44.0985C235.546 42.5252 232.925 42.5252 231.232 44.0985C231.194 44.1354 231.172 44.1861 231.171 44.2392C231.171 44.2923 231.192 44.3434 231.229 44.381L231.94 45.099C232.013 45.1723 232.132 45.1739 232.207 45.1025C232.763 44.5999 233.485 44.3214 234.235 44.3211ZM235.659 45.8929C235.661 45.9461 235.64 45.9974 235.602 46.0347L234.371 47.2753C234.335 47.3117 234.286 47.3323 234.235 47.3323C234.183 47.3323 234.134 47.3117 234.098 47.2753L232.868 46.0347C232.83 45.9974 232.809 45.9461 232.81 45.8928C232.811 45.8396 232.834 45.7892 232.874 45.7535C233.659 45.0895 234.81 45.0895 235.596 45.7535C235.635 45.7892 235.658 45.8396 235.659 45.8929Z" fill="black"/>
<path fill-rule="evenodd" clip-rule="evenodd" d="M225.848 40.7896H225.234C224.895 40.7896 224.621 41.0642 224.621 41.4031V46.7203C224.621 47.0591 224.895 47.3338 225.234 47.3338H225.848C226.187 47.3338 226.461 47.0591 226.461 46.7203V41.4031C226.461 41.0642 226.187 40.7896 225.848 40.7896ZM222.371 42.2212H222.985C223.324 42.2212 223.598 42.4958 223.598 42.8347V46.7203C223.598 47.0592 223.324 47.3339 222.985 47.3339H222.371C222.032 47.3339 221.758 47.0592 221.758 46.7203V42.8347C221.758 42.4958 222.032 42.2212 222.371 42.2212ZM220.121 43.6528H219.508C219.169 43.6528 218.894 43.9274 218.894 44.2663V46.7204C218.894 47.0592 219.169 47.3339 219.508 47.3339H220.121C220.46 47.3339 220.735 47.0592 220.735 46.7204V44.2663C220.735 43.9274 220.46 43.6528 220.121 43.6528ZM217.258 44.8798H216.645C216.306 44.8798 216.031 45.1545 216.031 45.4934V46.7204C216.031 47.0593 216.306 47.334 216.645 47.334H217.258C217.597 47.334 217.872 47.0593 217.872 46.7204V45.4934C217.872 45.1545 217.597 44.8798 217.258 44.8798Z" fill="black"/>
<path d="M58.405 47.084C60.0542 47.084 61.0338 45.7944 61.0338 43.606C61.0338 41.458 59.9912 40.2807 58.4409 40.2807C57.03 40.2807 56.0324 41.2289 56.0324 42.5545C56.0324 43.7992 56.9311 44.7069 58.1668 44.7069C58.9263 44.7069 59.5419 44.3564 59.8474 43.7408H59.9238C59.9104 45.2641 59.3666 46.1359 58.4185 46.1359C57.8613 46.1359 57.4164 45.8303 57.2771 45.336H56.1223C56.311 46.392 57.2187 47.084 58.405 47.084ZM58.4454 43.8127C57.6905 43.8127 57.1693 43.2824 57.1693 42.5185C57.1693 41.7861 57.7175 41.2244 58.4499 41.2244C59.1824 41.2244 59.7306 41.7951 59.7306 42.541C59.7306 43.278 59.1959 43.8127 58.4454 43.8127ZM62.9671 43.7183C63.3939 43.7183 63.686 43.4173 63.686 43.0218C63.686 42.6219 63.3939 42.3253 62.9671 42.3253C62.5447 42.3253 62.2481 42.6219 62.2481 43.0218C62.2481 43.4173 62.5447 43.7183 62.9671 43.7183ZM62.9671 47.0166C63.3939 47.0166 63.686 46.7156 63.686 46.3156C63.686 45.9202 63.3939 45.6191 62.9671 45.6191C62.5447 45.6191 62.2481 45.9202 62.2481 46.3156C62.2481 46.7156 62.5447 47.0166 62.9671 47.0166ZM67.929 46.9268H69.039V45.682H69.9152V44.7249H69.039V40.4425H67.4033C66.5225 41.7816 65.6013 43.2735 64.761 44.7339V45.682H67.929V46.9268ZM65.835 44.6844C66.4686 43.5835 67.219 42.3837 67.8841 41.3682H67.947V44.7519H65.835V44.6844ZM72.4237 46.9268H73.583V40.4425H72.4282L70.7341 41.6333V42.7252L72.3473 41.5839H72.4237V46.9268Z" fill="black"/>
<path d="M130.731 65.6445C131.952 65.6445 132.703 65.947 132.703 66.5415C132.703 67.136 131.952 67.4385 130.731 67.4385C129.532 67.4385 128.771 67.136 128.771 66.5415C128.771 65.947 129.532 65.6445 130.731 65.6445ZM130.731 68.5336C132.807 68.5336 134.184 67.7618 134.184 66.5415C134.184 65.3316 132.807 64.5494 130.731 64.5494C128.666 64.5494 127.279 65.3316 127.279 66.5415C127.279 67.7618 128.666 68.5336 130.731 68.5336ZM128.802 70.9325H127.404V73.8112H134.142V72.716H128.802V70.9325ZM126.393 69.0342V70.1294H130.116V71.7773H131.524V70.1294H135.091V69.0342H126.393ZM140.054 72.9455C138.771 72.9455 138.114 72.7264 138.114 72.2258C138.114 71.7252 138.771 71.4957 140.054 71.4957C141.337 71.4957 141.994 71.7252 141.994 72.2258C141.994 72.7264 141.337 72.9455 140.054 72.9455ZM140.054 70.4527C137.978 70.4527 136.727 71.0889 136.727 72.2258C136.727 73.3522 137.978 73.9885 140.054 73.9885C142.129 73.9885 143.391 73.3522 143.391 72.2258C143.391 71.0889 142.129 70.4527 140.054 70.4527ZM140.773 68.8882V68.0955H143.444V67.0004H138.166V65.874H143.391V64.7788H136.8V68.0955H139.397V68.8882H135.746V69.9834H144.434V68.8882H140.773ZM153.668 67.4489H154.492V69.3158H155.796V64.3825H154.492V66.3537H153.668V64.5494H152.385V69.2533H153.668V67.4489ZM148.057 64.904V65.9887H150.476C150.445 66.1764 150.403 66.3642 150.341 66.5415L147.65 66.6875L147.827 67.7513L149.767 67.5428C149.298 68.0642 148.599 68.5127 147.587 68.8569L148.192 69.8165C150.758 68.8674 151.832 67.282 151.832 64.904H148.057ZM150.643 72.8307V72.2258H155.796V69.6705H149.266V70.7135H154.44V71.2558H149.287V73.8737H156.098V72.8307H150.643ZM164.92 64.372H163.543V71.454H164.92V64.372ZM162.771 68.8361C161.582 69.0551 160.497 69.1281 158.797 69.1385V68.0747H161.853V64.9978H157.431V66.1034H160.497V67.0525H157.442V70.2441H158.286C160.331 70.2441 161.561 70.1815 162.907 69.9312L162.771 68.8361ZM159.872 72.716V70.8595H158.495V73.8112H165.16V72.716H159.872ZM168.12 66.3224H171.092V65.2273H166.743V71.6834H167.525C169.277 71.6834 170.425 71.6417 171.718 71.4018L171.582 70.2858C170.487 70.4736 169.497 70.5466 168.12 70.557V66.3224ZM172.98 64.372V67.6888H170.633V68.7943H172.98V74.0093H174.357V64.372H172.98Z" fill="#333333"/>
<path d="M98.3933 103.11C98.4922 103.007 98.5461 102.881 98.5461 102.737C98.5461 102.436 98.3125 102.203 98.0159 102.203C97.8676 102.203 97.7328 102.261 97.6294 102.364L94.5558 105.51L91.4912 102.364C91.3878 102.261 91.2485 102.203 91.1047 102.203C90.8081 102.203 90.5745 102.436 90.5745 102.737C90.5745 102.881 90.6284 103.007 90.7273 103.106L94.1424 106.602C94.2592 106.728 94.403 106.79 94.5603 106.79C94.7176 106.79 94.8524 106.728 94.9737 106.606L98.3933 103.11Z" fill="#333333"/>
<path d="M38.252 107.645H44.0289V106.511H40.1416L41.3834 105.269C42.6792 103.906 43.9074 102.61 43.9074 101.004C43.9074 99.3575 42.8816 98.3587 40.938 98.3587C39.8987 98.3587 38.9673 98.7501 38.3734 99.1145L38.6569 100.181C39.1698 99.8434 39.9257 99.506 40.614 99.506C41.8288 99.506 42.4362 100.005 42.4362 101.166C42.4362 102.381 41.4644 103.461 40.1956 104.797L38.252 106.822V107.645ZM48.9326 107.807C50.8357 107.807 52.3609 106.579 52.3609 103.407V102.718C52.3609 99.5195 50.8087 98.3587 48.9596 98.3587C47.0969 98.3587 45.4637 99.506 45.4637 102.772V103.42C45.4637 106.538 46.9889 107.807 48.9326 107.807ZM48.9326 106.7C47.6233 106.7 46.9484 105.661 46.9484 103.461V102.624C46.9484 100.437 47.6368 99.4655 48.9461 99.4655C50.2418 99.4655 50.9167 100.478 50.9167 102.705V103.542C50.9167 105.796 50.2418 106.7 48.9326 106.7ZM53.819 107.645H59.596V106.511H55.7087L56.9504 105.269C58.2462 103.906 59.4745 102.61 59.4745 101.004C59.4745 99.3575 58.4487 98.3587 56.505 98.3587C55.4657 98.3587 54.5344 98.7501 53.9405 99.1145L54.2239 100.181C54.7368 99.8434 55.4927 99.506 56.1811 99.506C57.3959 99.506 58.0032 100.005 58.0032 101.166C58.0032 102.381 57.0314 103.461 55.7627 104.797L53.819 106.822V107.645ZM62.4599 107.699H63.8636V98.4127H63.1213L60.8402 99.4385V100.262L62.4599 99.9109V107.699ZM66.2929 107.793H67.7776V106.336H66.2929V107.793ZM70.909 107.699H72.3128V98.4127H71.5704L69.2893 99.4385V100.262L70.909 99.9109V107.699ZM74.5531 107.645H80.33V106.511H76.4427L77.6845 105.269C78.9803 103.906 80.2086 102.61 80.2086 101.004C80.2086 99.3575 79.1828 98.3587 77.2391 98.3587C76.1998 98.3587 75.2685 98.7501 74.6746 99.1145L74.958 100.181C75.4709 99.8434 76.2268 99.506 76.9152 99.506C78.1299 99.506 78.7373 100.005 78.7373 101.166C78.7373 102.381 77.7655 103.461 76.4967 104.797L74.5531 106.822V107.645Z" fill="#333333"/>
<g clip-path="url(#clip2)">
<rect width="254" height="274" transform="translate(24 282.951)" fill="#F7F7F7"/>
<path d="M39.1866 313.487H40.5904V304.201H39.848L37.5669 305.227V306.05L39.1866 305.699V313.487ZM42.8306 313.433H48.6076V312.299H44.7203L45.9621 311.058C47.2578 309.694 48.4861 308.399 48.4861 306.792C48.4861 305.146 47.4603 304.147 45.5167 304.147C44.4773 304.147 43.546 304.538 42.9521 304.903L43.2356 305.969C43.7485 305.631 44.5043 305.294 45.1927 305.294C46.4075 305.294 47.0149 305.793 47.0149 306.954C47.0149 308.169 46.0431 309.249 44.7743 310.585L42.8306 312.61V313.433ZM60.1775 315.08V314.054H53.0642V313.352H59.7455V310.734H51.6605V311.759H58.3418V312.421H51.6875V315.08H60.1775ZM56.3711 305.051C56.3711 303.809 55.0889 303.067 53.4557 303.067C51.7955 303.067 50.4862 303.836 50.4862 305.024C50.4862 306.252 51.7955 307.022 53.4557 307.022C55.0889 307.022 56.3711 306.252 56.3711 305.051ZM55.9257 309.843H58.3553V310.275H59.7455V303.04H58.3553V308.884H55.9257V309.843ZM54.0226 310.275V308.574C55.2239 308.506 56.4116 308.399 57.5994 308.264L57.5049 307.224C56.4251 307.346 55.1564 307.454 53.5501 307.521C52.2274 307.562 50.9181 307.575 49.5549 307.575L49.7438 308.709C50.7022 308.709 51.674 308.682 52.6323 308.641V310.275H54.0226ZM55.0214 305.038C55.0214 305.631 54.36 305.982 53.4557 305.982C52.5243 305.982 51.8899 305.631 51.8899 305.038C51.8899 304.444 52.5243 304.079 53.4557 304.079C54.3735 304.079 55.0214 304.444 55.0214 305.038ZM61.7194 313.433H67.4963V312.299H63.609L64.8508 311.058C66.1466 309.694 67.3748 308.399 67.3748 306.792C67.3748 305.146 66.349 304.147 64.4054 304.147C63.3661 304.147 62.4347 304.538 61.8408 304.903L62.1243 305.969C62.6372 305.631 63.3931 305.294 64.0814 305.294C65.2962 305.294 65.9036 305.793 65.9036 306.954C65.9036 308.169 64.9318 309.249 63.663 310.585L61.7194 312.61V313.433ZM71.1836 313.595C73.2352 313.595 74.45 312.232 74.45 310.558C74.45 308.628 73.3432 307.724 71.4805 307.724C71.1296 307.724 70.6032 307.805 70.2792 307.899L70.4412 305.416H74.0721V304.295H69.3614L69.024 309.235C69.4559 309.033 70.3062 308.776 70.9001 308.776C72.2499 308.776 73.0058 309.276 73.0058 310.545C73.0058 311.732 72.1959 312.434 70.8461 312.434C70.1308 312.434 69.3344 312.151 68.835 311.84L68.5785 312.934C69.1589 313.298 70.1173 313.595 71.1836 313.595ZM81.885 306.225C81.885 304.592 80.5757 303.472 78.821 303.472C77.0663 303.472 75.7571 304.619 75.7571 306.225C75.7571 307.859 77.1203 308.871 78.821 308.871C80.5757 308.871 81.885 307.818 81.885 306.225ZM80.5217 306.212C80.5217 307.035 79.8468 307.724 78.821 307.724C77.8492 307.724 77.1203 307.089 77.1203 306.212C77.1203 305.321 77.8897 304.619 78.821 304.619C79.8738 304.619 80.5217 305.308 80.5217 306.212ZM85.7183 314.972V313.879H78.8885V312.853H85.3268V309.721H77.4442V310.842H83.9501V311.827H77.4982V314.972H85.7183ZM85.3133 309.1V303.04H83.9366V309.1H85.3133Z" fill="#333333"/>
<g filter="url(#filter1_d)">
<rect x="37.4961" y="332.419" width="227.005" height="32.5169" rx="4.90821" fill="#329EFF"/>
<path d="M59.8842 344.844C59.8842 343.632 58.5042 342.72 56.1762 342.72C53.8602 342.72 52.4922 343.632 52.4922 344.844C52.4922 346.08 53.8482 346.98 56.1762 346.98C58.5042 346.98 59.8842 346.08 59.8842 344.844ZM56.9082 350.856V348.84H61.0122V347.844H51.3522V348.84H55.6722V350.856H56.9082ZM59.8722 352.872V351.9H53.8362V349.86H52.6002V352.872H59.8722ZM58.6122 344.868C58.6122 345.576 57.6762 345.996 56.1762 345.996C54.6882 345.996 53.7522 345.576 53.7522 344.868C53.7522 344.136 54.6882 343.704 56.1762 343.704C57.6762 343.704 58.6122 344.136 58.6122 344.868ZM70.243 346.44V345.444H64.243V343.788H70.159V342.78H63.007V346.44H65.935V347.556H61.735V348.552H71.395V347.556H67.159V346.44H70.243ZM70.279 351.24C70.279 350.064 68.923 349.296 66.559 349.296C64.207 349.296 62.863 350.064 62.863 351.24C62.863 352.44 64.207 353.196 66.571 353.196C68.923 353.196 70.279 352.44 70.279 351.24ZM69.007 351.252C69.007 351.864 68.071 352.2 66.559 352.2C65.059 352.2 64.123 351.864 64.123 351.252C64.123 350.64 65.059 350.28 66.559 350.28C68.071 350.28 69.007 350.64 69.007 351.252ZM82.2062 352.68V342.708H81.0422V345.348H79.8422V346.308H81.0422V348.024H79.5782V348.996H81.0422V352.68H82.2062ZM84.2822 353.184V342.492H83.1062V353.184H84.2822ZM79.7462 343.776H75.6902V344.784H78.5342C78.3902 346.932 77.1782 348.912 75.0542 350.172L75.8702 351.024C78.4262 349.332 79.7222 346.98 79.7462 343.776ZM92.709 348.444C91.917 348.552 90.777 348.624 89.661 348.672V348.156C90.789 348.024 91.581 347.508 91.581 346.716C91.581 345.756 90.477 345.216 89.061 345.216C87.645 345.216 86.565 345.756 86.565 346.728C86.565 347.508 87.333 348.012 88.425 348.156V348.732C87.453 348.756 86.493 348.756 85.593 348.756L85.773 349.764C88.197 349.74 90.477 349.68 92.757 349.392L92.709 348.444ZM87.261 350.148V351.12H93.273V353.22H94.497V350.148H87.261ZM94.509 342.492H93.285V349.596H94.509V342.492ZM92.097 344.94V343.992H86.061V344.94H92.097ZM87.585 343.524H90.585V342.588H87.585V343.524ZM90.369 346.716C90.369 347.1 89.853 347.316 89.061 347.316C88.269 347.316 87.765 347.1 87.765 346.716C87.765 346.32 88.269 346.104 89.061 346.104C89.853 346.104 90.369 346.32 90.369 346.716ZM101.628 348.78C101.628 347.472 100.608 346.5 99.0838 346.5C97.5478 346.5 96.5158 347.508 96.5158 348.78C96.5158 350.1 97.5478 351.06 99.0838 351.06C100.608 351.06 101.628 350.064 101.628 348.78ZM100.416 348.78C100.416 349.524 99.9118 350.052 99.0838 350.052C98.3038 350.052 97.7518 349.524 97.7518 348.78C97.7518 348.024 98.3038 347.508 99.0838 347.508C99.8518 347.508 100.416 348.024 100.416 348.78ZM102.168 345.984V344.988H95.9518V345.984H102.168ZM97.4638 344.124H100.704V343.116H97.4638V344.124ZM104.34 342.492H103.104V353.184H104.34V347.916H105.996V346.884H104.34V342.492ZM115.227 353.184V342.492H114.003V353.184H115.227ZM111.951 343.62H106.995V344.628H110.631C110.427 346.872 108.831 349.116 106.371 350.244L107.139 351.18C110.223 349.488 111.879 346.932 111.951 343.62Z" fill="white"/>
</g>
<g filter="url(#filter2_d)">
<path d="M24 527.497C24 520.016 30.065 513.951 37.5467 513.951H264.453C271.935 513.951 278 520.016 278 527.497V557.3H24V527.497Z" fill="#FBFDFF"/>
<path d="M54.9652 539.796H52.8858V539.309H51.9917V539.796H49.8852V540.467H54.9652V539.796ZM51.1518 544.368H53.7054V544.863H51.1518V544.368ZM50.2781 545.52H54.5859V543.711H50.2781V545.52ZM51.3076 541.51C51.3076 541.307 51.6666 541.225 52.4388 541.225C53.2177 541.225 53.5699 541.307 53.5699 541.51C53.5699 541.713 53.2177 541.801 52.4388 541.801C51.6666 541.801 51.3076 541.713 51.3076 541.51ZM52.8858 542.695V542.384C53.9424 542.323 54.5317 542.031 54.5317 541.51C54.5317 540.921 53.7799 540.623 52.4388 540.623C51.1044 540.623 50.3526 540.921 50.3526 541.51C50.3526 542.031 50.9418 542.323 51.9917 542.384V542.695H49.6143V543.386H55.2632V542.695H52.8858Z" fill="#4F4F4F"/>
<g clip-path="url(#clip3)">
<path d="M47.7062 535.625H50.4156H54.4796H57.1889C57.936 535.625 58.5436 535.078 58.5436 534.406V528.92C58.5436 528.758 58.4724 528.603 58.3451 528.489L52.9264 523.612C52.6616 523.374 52.2335 523.374 51.9687 523.612L46.55 528.489C46.4227 528.603 46.3516 528.758 46.3516 528.92V534.406C46.3516 535.078 46.9591 535.625 47.7062 535.625ZM51.0929 534.406V531.358H53.8022V534.406H51.0929ZM47.7062 529.172L52.4476 524.905L57.1889 529.172L57.1896 534.406H55.1569V531.358C55.1569 530.686 54.5493 530.139 53.8022 530.139H51.0929C50.3458 530.139 49.7382 530.686 49.7382 531.358V534.406H47.7062V529.172Z" fill="#4F4F4F"/>
</g>
<path d="M96.0972 541.354H96.6323V542.567H97.479V539.363H96.6323V540.643H96.0972V539.471H95.2641V542.526H96.0972V541.354ZM92.4531 539.701V540.406H94.0246C94.0042 540.528 93.9771 540.65 93.9365 540.765L92.189 540.86L92.3041 541.551L93.564 541.415C93.2592 541.754 92.8054 542.045 92.1483 542.269L92.5412 542.892C94.2074 542.275 94.9051 541.246 94.9051 539.701H92.4531ZM94.1329 544.849V544.456H97.479V542.797H93.2388V543.474H96.5984V543.826H93.2524V545.526H97.6754V544.849H94.1329ZM103.568 539.356H102.674V543.955H103.568V539.356ZM102.172 542.255C101.4 542.397 100.696 542.445 99.5917 542.451V541.761H101.576V539.762H98.7044V540.48H100.696V541.097H98.7112V543.169H99.2598C100.587 543.169 101.387 543.129 102.26 542.966L102.172 542.255ZM100.289 544.775V543.569H99.3953V545.486H103.723V544.775H100.289ZM105.809 540.623H107.739V539.911H104.915V544.104H105.423C106.561 544.104 107.306 544.077 108.146 543.921L108.058 543.196C107.347 543.318 106.703 543.366 105.809 543.373V540.623ZM108.965 539.356V541.51H107.441V542.228H108.965V545.615H109.86V539.356H108.965Z" fill="#329EFF"/>
<g clip-path="url(#clip4)">
<path fill-rule="evenodd" clip-rule="evenodd" d="M97.3318 525.753C97.0533 525.753 96.8275 525.979 96.8275 526.257V534.023C96.8275 534.302 97.0533 534.528 97.3318 534.528H105.098C105.377 534.528 105.602 534.302 105.602 534.023V526.257C105.602 525.979 105.377 525.753 105.098 525.753H97.3318ZM95.6172 526.257C95.6172 525.31 96.3848 524.542 97.3318 524.542H105.098C106.045 524.542 106.813 525.31 106.813 526.257V534.023C106.813 534.97 106.045 535.738 105.098 535.738H97.3318C96.3848 535.738 95.6172 534.97 95.6172 534.023V526.257Z" fill="#329EFF"/>
<path fill-rule="evenodd" clip-rule="evenodd" d="M103.433 523.433C103.768 523.433 104.038 523.704 104.038 524.038V526.257C104.038 526.591 103.768 526.862 103.433 526.862C103.099 526.862 102.828 526.591 102.828 526.257V524.038C102.828 523.704 103.099 523.433 103.433 523.433Z" fill="#329EFF"/>
<path fill-rule="evenodd" clip-rule="evenodd" d="M98.9958 523.433C99.33 523.433 99.6009 523.704 99.6009 524.038V526.257C99.6009 526.591 99.33 526.862 98.9958 526.862C98.6616 526.862 98.3906 526.591 98.3906 526.257V524.038C98.3906 523.704 98.6616 523.433 98.9958 523.433Z" fill="#329EFF"/>
<path fill-rule="evenodd" clip-rule="evenodd" d="M95.6172 528.476C95.6172 528.142 95.8881 527.871 96.2223 527.871H106.207C106.542 527.871 106.813 528.142 106.813 528.476C106.813 528.81 106.542 529.081 106.207 529.081H96.2223C95.8881 529.081 95.6172 528.81 95.6172 528.476Z" fill="#329EFF"/>
</g>
<path d="M144.131 541.741H143.434C143.583 541.233 143.637 540.684 143.637 540.095H141.192V540.806H142.75C142.641 542.025 142.093 542.926 140.846 543.671L141.354 544.301C142.235 543.786 142.804 543.17 143.156 542.459H144.131V545.317H144.964V539.492H144.131V541.741ZM145.445 539.35V545.588H146.292V539.35H145.445ZM149.577 539.837H148.682V540.745C148.682 541.957 148.168 543.163 147.077 543.63L147.612 544.369C148.357 544.017 148.865 543.346 149.143 542.513C149.421 543.278 149.902 543.895 150.62 544.22L151.128 543.495C150.071 543.041 149.577 541.903 149.577 540.745V539.837ZM151.432 539.35V545.608H152.327V539.35H151.432ZM154.866 540.582H155.496V542.35C155.286 542.364 155.076 542.371 154.866 542.377V540.582ZM157.061 542.228C156.83 542.255 156.593 542.283 156.349 542.303V540.582H156.844V539.871H153.518V540.582H154.006V542.391L153.356 542.398L153.45 543.122C154.487 543.122 155.896 543.095 157.121 542.879L157.061 542.228ZM155.171 543.522H154.277V545.486H158.524V544.775H155.171V543.522ZM158.3 541.118V539.356H157.406V543.949H158.3V541.856H159.126V541.118H158.3Z" fill="#4F4F4F"/>
<path d="M152.989 524.111H146.972C144.89 524.111 143.207 525.793 143.207 527.875V529.33C143.207 531.412 144.89 533.094 146.972 533.094H147.941L148.711 534.392C148.982 534.848 149.453 535.119 149.98 535.119C150.508 535.119 150.979 534.848 151.249 534.392L152.019 533.094H152.989C155.071 533.094 156.754 531.412 156.754 529.33V527.875C156.754 525.808 155.071 524.111 152.989 524.111ZM155.627 529.33C155.627 530.784 154.444 531.968 152.989 531.968H151.706C151.506 531.968 151.321 532.068 151.221 532.239L150.28 533.807C150.194 533.964 150.037 533.979 149.98 533.979C149.923 533.979 149.766 533.964 149.681 533.807L148.754 532.239C148.654 532.068 148.469 531.968 148.269 531.968H146.986C145.531 531.968 144.348 530.784 144.348 529.33V527.875C144.348 526.421 145.531 525.237 146.986 525.237H153.003C154.458 525.237 155.641 526.421 155.641 527.875V529.33H155.627Z" fill="#4F4F4F"/>
<path d="M153.26 526.82H146.701C146.387 526.82 146.145 527.077 146.145 527.376C146.145 527.676 146.401 527.933 146.701 527.933H153.26C153.574 527.933 153.816 527.676 153.816 527.376C153.816 527.077 153.574 526.82 153.26 526.82Z" fill="#4F4F4F"/>
<path d="M153.26 529.273H146.701C146.387 529.273 146.145 529.53 146.145 529.829C146.145 530.143 146.401 530.385 146.701 530.385H153.26C153.574 530.385 153.816 530.129 153.816 529.829C153.816 529.515 153.574 529.273 153.26 529.273Z" fill="#4F4F4F"/>
<path d="M189.736 540.182C190.529 540.182 191.017 540.379 191.017 540.765C191.017 541.151 190.529 541.347 189.736 541.347C188.957 541.347 188.463 541.151 188.463 540.765C188.463 540.379 188.957 540.182 189.736 540.182ZM189.736 542.059C191.084 542.059 191.978 541.557 191.978 540.765C191.978 539.979 191.084 539.471 189.736 539.471C188.395 539.471 187.494 539.979 187.494 540.765C187.494 541.557 188.395 542.059 189.736 542.059ZM188.483 543.616H187.576V545.486H191.951V544.775H188.483V543.616ZM186.919 542.384V543.095H189.337V544.165H190.251V543.095H192.568V542.384H186.919ZM195.954 544.924C195.121 544.924 194.694 544.781 194.694 544.456C194.694 544.131 195.121 543.982 195.954 543.982C196.787 543.982 197.214 544.131 197.214 544.456C197.214 544.781 196.787 544.924 195.954 544.924ZM195.954 543.305C194.606 543.305 193.793 543.718 193.793 544.456C193.793 545.188 194.606 545.601 195.954 545.601C197.302 545.601 198.121 545.188 198.121 544.456C198.121 543.718 197.302 543.305 195.954 543.305ZM196.421 542.289V541.774H198.155V541.063H194.728V540.331H198.121V539.62H193.84V541.774H195.527V542.289H193.156V543H198.799V542.289H196.421ZM202.713 542.031C202.855 541.246 202.855 540.629 202.855 540.196V539.81H199.651V540.521H201.975C201.968 540.894 201.941 541.347 201.839 541.93L202.713 542.031ZM203.126 542.282C202.544 542.363 201.921 542.411 201.304 542.438V541.259H200.43V542.472C200.024 542.478 199.638 542.478 199.292 542.478L199.374 543.19C200.444 543.183 201.893 543.156 203.18 542.919L203.126 542.282ZM201.094 543.61H200.2V545.486H204.555V544.775H201.094V543.61ZM204.359 541.253V539.349H203.465V544.023H204.359V541.991H205.104V541.253H204.359ZM206.858 542.296H208.883V539.884H205.937V540.596H207.969V541.591H205.943V544.158H206.506C207.637 544.158 208.551 544.118 209.567 543.942L209.472 543.217C208.592 543.366 207.806 543.413 206.858 543.42V542.296ZM209.906 539.349V545.608H210.8V539.349H209.906Z" fill="#4F4F4F"/>
<g clip-path="url(#clip5)">
<g clip-path="url(#clip6)">
<path fill-rule="evenodd" clip-rule="evenodd" d="M194.075 525.23C194.061 524.8 194.191 524.4 194.452 524.076C194.787 523.661 195.292 523.433 195.872 523.433H195.95L195.974 523.433H201.054C201.662 523.433 202.197 523.673 202.553 524.113C202.909 524.554 203.032 525.128 202.905 525.723L202.46 527.807C203.228 528.71 203.696 529.878 203.696 531.155C203.696 534.012 201.371 536.336 198.514 536.336C195.657 536.336 193.333 534.012 193.333 531.155L193.333 531.129C193.332 531.104 193.332 531.078 193.332 531.053C193.332 529.794 193.796 528.643 194.557 527.755L194.123 525.723C194.087 525.557 194.071 525.391 194.075 525.23ZM198.469 536.133L198.514 536.133C201.259 536.133 203.493 533.9 203.493 531.155C203.493 531.13 203.492 531.105 203.492 531.08C203.478 533.85 201.235 536.102 198.469 536.133ZM202.264 527.751L202.707 525.681C202.741 525.521 202.755 525.364 202.75 525.212C202.747 525.339 202.732 525.469 202.704 525.6L202.248 527.733L202.264 527.751ZM195.291 524.774C195.44 524.59 195.679 524.483 195.974 524.483H201.054C201.349 524.483 201.588 524.59 201.737 524.774C201.835 524.895 201.892 525.048 201.902 525.221C201.899 525.287 201.891 525.354 201.876 525.423L201.547 526.961C200.694 526.342 199.647 525.973 198.514 525.973C198.495 525.973 198.476 525.973 198.457 525.973L198.412 525.973C197.308 525.973 196.288 526.33 195.455 526.931L195.15 525.504C195.088 525.214 195.143 524.958 195.291 524.774ZM194.922 525.229C194.931 525.011 195.001 524.809 195.134 524.646C195.324 524.411 195.619 524.284 195.956 524.28H195.872C195.552 524.28 195.282 524.397 195.11 524.608C194.975 524.776 194.911 524.992 194.922 525.229ZM194.382 531.155C194.382 528.877 196.236 527.023 198.514 527.023C200.769 527.023 202.607 528.838 202.645 531.084C202.629 533.385 200.767 535.256 198.468 535.286C196.211 535.262 194.382 533.418 194.382 531.155ZM194.179 531.125C194.195 528.767 196.103 526.85 198.458 526.82L198.412 526.82C196.078 526.82 194.179 528.719 194.179 531.053C194.179 531.077 194.179 531.101 194.179 531.125ZM195.448 530.952C195.162 530.952 194.913 531.187 194.95 531.488C195.148 533.065 196.4 534.317 197.977 534.515C198.278 534.552 198.513 534.303 198.513 534.017C198.513 533.723 198.276 533.503 198.007 533.458C196.986 533.287 196.178 532.479 196.007 531.458C195.962 531.189 195.742 530.952 195.448 530.952ZM198.847 527.592C198.546 527.554 198.31 527.804 198.31 528.09C198.31 528.383 198.547 528.603 198.817 528.648C199.837 528.819 200.645 529.627 200.817 530.648C200.862 530.917 201.082 531.155 201.375 531.155C201.661 531.155 201.911 530.919 201.873 530.618C201.676 529.042 200.423 527.789 198.847 527.592Z" fill="#4F4F4F"/>
</g>
</g>
<path d="M233.3 540.65H234.519V543.373H233.3V540.65ZM232.42 544.077H235.4V539.945H232.42V544.077ZM238.021 541.706H237.114V539.363H236.22V545.594H237.114V542.445H238.021V541.706ZM242.735 539.349V545.608H243.629V539.349H242.735ZM240.276 539.789C239.335 539.789 238.637 540.643 238.637 542.011C238.637 543.386 239.335 544.246 240.276 544.246C241.218 544.246 241.915 543.386 241.915 542.011C241.915 540.643 241.218 539.789 240.276 539.789ZM240.276 540.596C240.737 540.596 241.055 541.09 241.055 542.011C241.055 542.939 240.737 543.434 240.276 543.434C239.816 543.434 239.497 542.939 239.497 542.011C239.497 541.09 239.816 540.596 240.276 540.596ZM245.918 540.772H246.379V543.413C246.229 543.427 246.067 543.434 245.918 543.434V540.772ZM247.178 540.772H247.577V540.06H244.739V540.772H245.119V543.454C244.943 543.454 244.78 543.454 244.631 543.454L244.726 544.179C245.498 544.179 246.758 544.158 247.726 543.948L247.665 543.305C247.516 543.325 247.347 543.339 247.178 543.359V540.772ZM248.018 541.632H247.422V542.411H248.018V545.31H248.851V539.485H248.018V541.632ZM249.257 539.356V545.601H250.104V539.356H249.257ZM255.197 539.349V545.608H256.091V539.349H255.197ZM252.738 539.789C251.797 539.789 251.099 540.643 251.099 542.011C251.099 543.386 251.797 544.246 252.738 544.246C253.68 544.246 254.377 543.386 254.377 542.011C254.377 540.643 253.68 539.789 252.738 539.789ZM252.738 540.596C253.199 540.596 253.517 541.09 253.517 542.011C253.517 542.939 253.199 543.434 252.738 543.434C252.278 543.434 251.959 542.939 251.959 542.011C251.959 541.09 252.278 540.596 252.738 540.596ZM259.565 540.69H260.852V539.952H257.357V540.69H258.658V541.036C258.658 542.099 258.15 543.244 257.106 543.711L257.614 544.422C258.346 544.091 258.847 543.406 259.125 542.594C259.403 543.345 259.897 543.955 260.622 544.267L261.109 543.562C260.066 543.129 259.565 542.052 259.565 541.036V540.69ZM261.428 539.356V545.594H262.322V539.356H261.428Z" fill="#4F4F4F"/>
<g clip-path="url(#clip7)">
<g clip-path="url(#clip8)">
<path fill-rule="evenodd" clip-rule="evenodd" d="M242.99 532.319C243.562 531.747 244.337 531.426 245.146 531.426H250.022C250.831 531.426 251.606 531.747 252.178 532.319C252.749 532.89 253.07 533.665 253.07 534.474V535.693C253.07 536.03 252.798 536.303 252.461 536.303C252.124 536.303 251.851 536.03 251.851 535.693V534.474C251.851 533.989 251.659 533.524 251.316 533.181C250.973 532.838 250.507 532.645 250.022 532.645H245.146C244.661 532.645 244.195 532.838 243.852 533.181C243.51 533.524 243.317 533.989 243.317 534.474V535.693C243.317 536.03 243.044 536.303 242.707 536.303C242.371 536.303 242.098 536.03 242.098 535.693V534.474C242.098 533.665 242.419 532.89 242.99 532.319Z" fill="#4F4F4F"/>
<path fill-rule="evenodd" clip-rule="evenodd" d="M247.583 525.33C246.573 525.33 245.754 526.148 245.754 527.158C245.754 528.168 246.573 528.987 247.583 528.987C248.593 528.987 249.412 528.168 249.412 527.158C249.412 526.148 248.593 525.33 247.583 525.33ZM244.535 527.158C244.535 525.475 245.9 524.11 247.583 524.11C249.267 524.11 250.631 525.475 250.631 527.158C250.631 528.842 249.267 530.206 247.583 530.206C245.9 530.206 244.535 528.842 244.535 527.158Z" fill="#4F4F4F"/>
</g>
</g>
</g>
</g>
</g>
</g>
</g>
<defs>
<filter id="filter0_d" x="0.0308599" y="0.160079" width="311.931" height="594.584" filterUnits="userSpaceOnUse" color-interpolation-filters="sRGB">
<feFlood flood-opacity="0" result="BackgroundImageFix"/>
<feColorMatrix in="SourceAlpha" type="matrix" values="0 0 0 0 0 0 0 0 0 0 0 0 0 0 0 0 0 0 127 0"/>
<feOffset dx="5.32305" dy="7.45227"/>
<feGaussianBlur stdDeviation="10.6461"/>
<feColorMatrix type="matrix" values="0 0 0 0 0 0 0 0 0 0 0 0 0 0 0 0 0 0 0.47 0"/>
<feBlend mode="normal" in2="BackgroundImageFix" result="effect1_dropShadow"/>
<feBlend mode="normal" in="SourceGraphic" in2="effect1_dropShadow" result="shape"/>
</filter>
<filter id="filter1_d" x="27.6797" y="324.444" width="246.638" height="52.1498" filterUnits="userSpaceOnUse" color-interpolation-filters="sRGB">
<feFlood flood-opacity="0" result="BackgroundImageFix"/>
<feColorMatrix in="SourceAlpha" type="matrix" values="0 0 0 0 0 0 0 0 0 0 0 0 0 0 0 0 0 0 127 0"/>
<feOffset dy="1.84058"/>
<feGaussianBlur stdDeviation="4.90821"/>
<feColorMatrix type="matrix" values="0 0 0 0 0 0 0 0 0 0 0 0 0 0 0 0 0 0 0.13 0"/>
<feBlend mode="normal" in2="BackgroundImageFix" result="effect1_dropShadow"/>
<feBlend mode="normal" in="SourceGraphic" in2="effect1_dropShadow" result="shape"/>
</filter>
<filter id="filter2_d" x="17.2267" y="509.887" width="267.547" height="56.896" filterUnits="userSpaceOnUse" color-interpolation-filters="sRGB">
<feFlood flood-opacity="0" result="BackgroundImageFix"/>
<feColorMatrix in="SourceAlpha" type="matrix" values="0 0 0 0 0 0 0 0 0 0 0 0 0 0 0 0 0 0 127 0"/>
<feOffset dy="2.70933"/>
<feGaussianBlur stdDeviation="3.38667"/>
<feColorMatrix type="matrix" values="0 0 0 0 0 0 0 0 0 0 0 0 0 0 0 0 0 0 0.4 0"/>
<feBlend mode="normal" in2="BackgroundImageFix" result="effect1_dropShadow"/>
<feBlend mode="normal" in="SourceGraphic" in2="effect1_dropShadow" result="shape"/>
</filter>
<clipPath id="clip0">
<rect width="253.909" height="534.434" fill="white" transform="translate(24 23)"/>
</clipPath>
<clipPath id="clip1">
<rect x="24" y="23" width="253.909" height="534.434" rx="28.74" fill="white"/>
</clipPath>
<clipPath id="clip2">
<rect width="254" height="274" fill="white" transform="translate(24 282.951)"/>
</clipPath>
<clipPath id="clip3">
<rect width="14.9013" height="14.9013" fill="white" transform="translate(44.9961 522.079)"/>
</clipPath>
<clipPath id="clip4">
<rect width="14.9013" height="14.9013" fill="white" transform="translate(93.7656 522.079)"/>
</clipPath>
<clipPath id="clip5">
<rect width="14.9013" height="14.9013" fill="white" transform="translate(191.301 522.079)"/>
</clipPath>
<clipPath id="clip6">
<rect width="14.9013" height="14.9013" fill="white" transform="translate(191.301 522.079)"/>
</clipPath>
<clipPath id="clip7">
<rect width="14.9013" height="14.9013" fill="white" transform="translate(240.066 522.079)"/>
</clipPath>
<clipPath id="clip8">
<rect width="14.9013" height="14.9013" fill="white" transform="translate(240.066 522.079)"/>
</clipPath>
</defs>
</svg>
